<?xml version="1.0" encoding="utf-8"?>
<!-- Generator: Adobe Illustrator 20.1.0, SVG Export Plug-In . SVG Version: 6.00 Build 0)  -->
<svg version="1.1" id="Layer_1" xmlns="http://www.w3.org/2000/svg" xmlns:xlink="http://www.w3.org/1999/xlink" x="0px" y="0px"
	 viewBox="0 0 50 50" style="enable-background:new 0 0 50 50;" xml:space="preserve">
<style type="text/css">
	.st0{fill:#707070;}
</style>
<g>
	<path class="st0" d="M28.5,2v9v3.4v9.9v2v9.3V39v9l-27-4.7V6.6L28.5,2 M29.9,0.3l-1.7,0.3l-27,4.7L0,5.5v1.2v36.6v1.2l1.2,0.2
		l27,4.7l1.7,0.3v-1.8v-9v-3.4v-9.3v-2v-9.9v-3.4v-9L29.9,0.3L29.9,0.3z"/>
	<polygon class="st0" points="19.6,34.5 9.3,33.5 9.3,14.3 19.2,13.2 19.2,17.1 13.2,17.5 13.2,22 18.8,21.8 18.8,25.7 13.2,25.6 
		13.2,30.2 19.6,30.6 	"/>
	<g>
		<path class="st0" d="M46.2,10.9c1.3,0,2.4,1.1,2.4,2.4v23.2c0,1.3-1.1,2.4-2.4,2.4H29.9v-28L46.2,10.9 M46.2,9.5H29.9h-1.4v1.4v28
			v1.4h1.4h16.3c2.1,0,3.8-1.7,3.8-3.8V13.3C50,11.2,48.3,9.5,46.2,9.5L46.2,9.5z"/>
	</g>
	<g>
		<path class="st0" d="M45.2,32.6V35c0,0.3-0.3,0.6-0.6,0.6h-2.4h-1h-2.7c-0.2,0-0.3-0.1-0.4-0.2L35.7,33c-0.2-0.2-0.2-0.4,0-0.6
			l0.9-0.9c0.2-0.2,0.4-0.2,0.6,0l1.1,1.1h0.1h3.9v-3.4c-2.3-3-6.3-5.5-5.6-6.2c0.8-0.9,8.5,5,8.6,5.7"/>
		<path class="st0" d="M45.2,21c0,0.2-0.1,0.3-0.2,0.4l-2.4,2.5c-0.2,0.2-0.4,0.2-0.6,0L41.1,23c-0.2-0.2-0.2-0.4,0-0.6l1.1-1.1
			v-0.1v-3.9h-3.4c-3,2.3-5.5,6.3-6.2,5.6c-0.9-0.8,5-8.5,5.7-8.6h3.9h2.4c0.3,0,0.6,0.3,0.6,0.6v2.4"/>
		<path class="st0" d="M30.9,17.3l1.1,1.1c0.2,0.2,0.4,0.2,0.6,0l0.9-0.9c0.2-0.2,0.2-0.4,0-0.6l-2.4-2.4c-0.1-0.1-0.3-0.2-0.4-0.2
			H30v3H30.9L30.9,17.3z"/>
		<path class="st0" d="M32.6,26.9c0.4-0.5-1-1.6-2.7-3.1v2.1C31.2,26.8,32.3,27.2,32.6,26.9z"/>
		<path class="st0" d="M36.6,27c-0.7-0.7-3.2,3.4-6.2,5.6H30v3h0.9C31.6,35.5,37.4,27.8,36.6,27z"/>
	</g>
</g>
</svg>
