<?xml version="1.0" encoding="utf-8"?>
<!-- Generator: Adobe Illustrator 20.1.0, SVG Export Plug-In . SVG Version: 6.00 Build 0)  -->
<svg version="1.1" id="Layer_1" xmlns="http://www.w3.org/2000/svg" xmlns:xlink="http://www.w3.org/1999/xlink" x="0px" y="0px"
	 viewBox="0 0 50 50" style="enable-background:new 0 0 50 50;" xml:space="preserve">
<style type="text/css">
	.st0{fill:#707070;}
</style>
<g>
	<g>
		<path class="st0" d="M25,50C11.2,50,0,38.8,0,25C0,11.2,11.2,0,25,0s25,11.2,25,25C50,38.8,38.8,50,25,50z M25,1.4
			C12,1.4,1.4,12,1.4,25C1.4,38,12,48.6,25,48.6S48.6,38,48.6,25C48.6,12,38,1.4,25,1.4z"/>
	</g>
	<g>
		<path class="st0" d="M25,47.5C12.6,47.5,2.5,37.4,2.5,25C2.5,12.6,12.6,2.5,25,2.5c12.4,0,22.5,10.1,22.5,22.5
			C47.5,37.4,37.4,47.5,25,47.5z M25,4.3C13.6,4.3,4.3,13.6,4.3,25c0,11.4,9.3,20.7,20.7,20.7S45.7,36.4,45.7,25
			C45.7,13.6,36.4,4.3,25,4.3z"/>
	</g>
	<g>
		<circle class="st0" cx="24.8" cy="15.2" r="0.9"/>
	</g>
	<g>
		<g>
			<g>
				<circle class="st0" cx="13.3" cy="23.5" r="0.9"/>
			</g>
			<g>
				<circle class="st0" cx="13.3" cy="26.8" r="0.9"/>
			</g>
		</g>
		<g>
			<path class="st0" d="M13.3,31.5c-3.6,0-6.6-3-6.6-6.6c0-3.6,3-6.6,6.6-6.6s6.6,3,6.6,6.6C19.9,28.5,16.9,31.5,13.3,31.5z
				 M13.3,19.2c-3.1,0-5.7,2.6-5.7,5.7s2.6,5.7,5.7,5.7S19,28,19,24.9S16.4,19.2,13.3,19.2z"/>
		</g>
	</g>
	<g>
		<g>
			<g>
				<circle class="st0" cx="35.7" cy="23.2" r="0.9"/>
			</g>
			<g>
				<circle class="st0" cx="35.7" cy="26.5" r="0.9"/>
			</g>
			<g>
				<circle class="st0" cx="38.9" cy="23.2" r="0.9"/>
			</g>
			<g>
				<circle class="st0" cx="38.9" cy="26.5" r="0.9"/>
			</g>
		</g>
		<g>
			<path class="st0" d="M37.1,31.5c-3.6,0-6.6-3-6.6-6.6c0-3.6,3-6.6,6.6-6.6c3.6,0,6.6,3,6.6,6.6C43.7,28.5,40.8,31.5,37.1,31.5z
				 M37.1,19.2c-3.1,0-5.7,2.6-5.7,5.7s2.6,5.7,5.7,5.7s5.7-2.6,5.7-5.7S40.3,19.2,37.1,19.2z"/>
		</g>
	</g>
	<g>
		<g>
			<g>
				<circle class="st0" cx="23.9" cy="35.2" r="0.9"/>
			</g>
			<g>
				<circle class="st0" cx="26.8" cy="36.9" r="0.9"/>
			</g>
			<g>
				<circle class="st0" cx="23.9" cy="38.5" r="0.9"/>
			</g>
		</g>
		<g>
			<path class="st0" d="M25.3,43.1c-3.6,0-6.6-3-6.6-6.6c0-3.6,3-6.6,6.6-6.6s6.6,3,6.6,6.6C31.9,40.1,29,43.1,25.3,43.1z
				 M25.3,30.8c-3.1,0-5.7,2.6-5.7,5.7s2.6,5.7,5.7,5.7c3.1,0,5.7-2.6,5.7-5.7S28.5,30.8,25.3,30.8z"/>
		</g>
	</g>
</g>
</svg>
