<?xml version="1.0" encoding="utf-8"?>
<!-- Generator: Adobe Illustrator 20.1.0, SVG Export Plug-In . SVG Version: 6.00 Build 0)  -->
<svg version="1.1" id="Layer_1" xmlns="http://www.w3.org/2000/svg" xmlns:xlink="http://www.w3.org/1999/xlink" x="0px" y="0px"
	 viewBox="0 0 50 50" style="enable-background:new 0 0 50 50;" xml:space="preserve">
<style type="text/css">
	.st0{fill:#707070;}
</style>
<g>
	<g>
		<path class="st0" d="M44,43.7c-5.7,0-15.1-5-23.4-12.8C11.8,22.4,6.2,13.8,6.2,8.4c0-1.7,0.5-3,1.5-4c4-4,16.5,1.6,27.8,12.3
			c8.3,8,13.9,16.9,13.8,22.2c0,1.5-0.5,2.7-1.4,3.6l0,0C46.9,43.3,45.6,43.7,44,43.7z M11.4,4.3c-1.3,0-2.3,0.3-3,1
			C7.7,6,7.3,7.1,7.3,8.4c0,5,5.6,13.5,14.1,21.6C32.1,40.2,43.8,44.6,47,41.6l0,0c0.7-0.6,1-1.5,1-2.7c0.1-5-5.3-13.6-13.4-21.3
			C26.2,9.6,16.6,4.3,11.4,4.3z"/>
	</g>
	<g>
		<path class="st0" d="M39.2,37.9c-4.1,0-10.7-3.5-16.6-9c-6.3-6-10.2-12.1-10.2-15.9c0-1.2,0.4-2.2,1.1-2.9
			c3.2-3.2,12.8,2,19.7,8.7c5.9,5.6,9.8,11.9,9.7,15.7c0,1.1-0.4,2-1.1,2.6l0,0C41.3,37.6,40.3,37.9,39.2,37.9z M16.3,10.2
			c-0.9,0-1.5,0.2-2,0.6c-0.5,0.5-0.7,1.2-0.7,2.1c0,3.5,3.9,9.4,9.8,15c7.3,7,15.5,10.1,17.7,8.1l0,0c0.4-0.4,0.7-1,0.7-1.8
			c0-3.4-3.8-9.5-9.4-14.8C26,13.4,19.6,10.2,16.3,10.2z"/>
	</g>
	<g>
		<path class="st0" d="M44.5,44.6c-6,0-15.9-5.2-24.3-13.2C11.1,22.7,5.4,13.8,5.4,8.1c0-1.8,0.5-3.2,1.6-4.2
			c4.7-4.7,18.7,2.9,28.9,12.6c8.6,8.2,14.3,17.4,14.2,23c0,1.6-0.5,2.9-1.5,3.8C47.6,44.2,46.2,44.6,44.5,44.6z M10.9,3.7
			C9.6,3.7,8.5,4,7.7,4.7C6.9,5.6,6.5,6.7,6.5,8.1c0,5.3,5.8,14,14.5,22.4c11.1,10.6,23.2,15,26.7,11.9h0c0.7-0.7,1.1-1.6,1.1-2.9
			c0.1-5.3-5.5-14.1-13.9-22.1C26.3,9.1,16.4,3.7,10.9,3.7z"/>
	</g>
	<g>
		<path class="st0" d="M36.5,47.5c-0.7,0-1.5,0-2.4-0.2c-10-0.9-17.6-7.6-20.4-10.1L13.3,37C4.1,27.9,2.8,19.5,3.2,14.1
			c0.5-5.9,3.2-9.6,3.3-9.7L7.5,5C7,5.6-2.7,19.4,14.1,36.1l0.3,0.3c2.8,2.4,10.1,8.9,19.7,9.8c3.5,0.4,5.5,0,8.3-1.2
			c1.7-0.7,3.2-1.4,4.5-2.1l0.6,1c-1.3,0.8-2.9,1.5-4.6,2.2C40.7,47,38.9,47.5,36.5,47.5z"/>
	</g>
	<g>
		<path class="st0" d="M11.4,45.8c-6,0-9-0.9-10.4-1.5c-0.6-0.3-0.8-0.7-0.9-1c-0.2-0.7,0.4-1.4,0.5-1.5l9.1-9.8l0.9,0.8l-9.1,9.8
			c-0.1,0.1-0.2,0.4-0.2,0.4c0,0,0,0.1,0.2,0.1C3,43.9,7.1,45,15.9,44.4c2.5-0.1,4.6-0.5,5-1c0.3-0.5,0.7-1,0.7-1l1,0.6
			c0,0-0.4,0.6-0.7,1.1c-0.9,1.2-4.4,1.5-5.9,1.5C14.2,45.7,12.7,45.8,11.4,45.8z"/>
	</g>
</g>
</svg>
