<svg id="Layer_2" data-name="Layer 2" xmlns="http://www.w3.org/2000/svg" viewBox="0 0 448.56 389.04"><defs><style>.cls-1,.cls-2,.cls-3{fill:none;stroke:#707070;stroke-miterlimit:10;}.cls-1{stroke-width:12px;}.cls-2{stroke-width:11px;}.cls-3{stroke-width:14px;}</style></defs><title>griffin</title><ellipse class="cls-1" cx="224.73" cy="33.95" rx="169.57" ry="27.95"/><path class="cls-2" d="M402.45,50.78c0,16-78.8,29-176,29s-176-13-176-29" transform="translate(-2.07 -7.83)"/><polyline class="cls-2" points="48.38 133.71 48.38 43.95 56.61 30.28"/><path class="cls-2" d="M50.45,140.54l6.77,36s33.72,16.3,57.48,19.79,111.4,7,111.74,7" transform="translate(-2.07 -7.83)"/><path class="cls-3" d="M69.33,182l-.76,58.41s.7,16.77,63.6,25.16,94.27,5.59,94.27,5.59" transform="translate(-2.07 -7.83)"/><polyline class="cls-2" points="400.33 133.5 400.11 43.73 394.3 33.95"/><path class="cls-2" d="M402.4,140.33l-6.68,36S362,192.75,338.28,196.31s-111.38,7.27-111.73,7.27" transform="translate(-2.07 -7.83)"/><path class="cls-3" d="M383.62,181.82l.9,58.4S383.86,257,321,265.54s-94.26,5.82-94.26,5.82l-5.78.08" transform="translate(-2.07 -7.83)"/><path class="cls-2" d="M384.1,222.21c11.75,5.28,18.35,11.24,18.35,17.54,0,21.76-78.8,39.4-176,39.4s-176-17.64-176-39.4c0-6.26,6.52-12.18,18.12-17.43" transform="translate(-2.07 -7.83)"/><line class="cls-2" x1="55.15" y1="221.14" x2="5.7" y2="260.83"/><path class="cls-2" d="M7.77,268.66s-6.32,20.63,52.6,34,68.35,11.78,68.35,11.78,36.92,3.14,55,3.93,53.42.79,64.42.79,28.28-.79,44.78-2.36,48.71-4.71,54.21-5.5,63.29-10.21,73.28-14.93,24.73-17.21,24.73-17.21" transform="translate(-2.07 -7.83)"/><path class="cls-2" d="M169.92,391.37c-28-.7-30.05-1.4-75.49-7S7.77,353.63,7.77,353.63v-85l1.74-1.4" transform="translate(-2.07 -7.83)"/><line class="cls-2" x1="167.85" y1="383.54" x2="218.87" y2="383.54"/><line class="cls-2" x1="393.61" y1="221.14" x2="443.06" y2="260.83"/><path class="cls-2" d="M283,391.37c28-.7,30.05-1.4,75.49-7s86.67-30.75,86.67-30.75v-85L442,266.12" transform="translate(-2.07 -7.83)"/><line class="cls-2" x1="280.91" y1="383.54" x2="218.87" y2="383.54"/></svg>