<?xml version="1.0" encoding="utf-8"?>
<!-- Generator: Adobe Illustrator 20.0.0, SVG Export Plug-In . SVG Version: 6.00 Build 0)  -->
<svg version="1.1" id="Layer_1" xmlns="http://www.w3.org/2000/svg" xmlns:xlink="http://www.w3.org/1999/xlink" x="0px" y="0px"
	 viewBox="0 0 511.8 511.9" style="enable-background:new 0 0 511.8 511.9;" xml:space="preserve">
<style type="text/css">
	.st0{fill:#FFFFFF;}
	.st1{fill:#707070;}
</style>
<g>
	<path class="st0" d="M0,511.9C0,341.3,0,170.7,0,0c170.5,0,341.1,0,511.8,0c0,170.6,0,341.2,0,511.9
		C341.3,511.9,170.7,511.9,0,511.9z M499.5,255.9c-0.4-133.6-108-243.9-244.3-243.5c-136,0.4-243.3,111.3-242.8,245.4
		C12.8,391,122.9,499.4,257.9,499.2C390.5,498.9,499.8,388.9,499.5,255.9z"/>
	<path class="st1" d="M499.5,255.9c0.3,132.9-108.9,242.9-241.5,243.2C122.9,499.4,12.8,391,12.4,257.9
		C11.9,123.8,119.2,12.9,255.2,12.5C391.4,12.1,499.1,122.3,499.5,255.9z M266.8,452.3c54.1-1.4,107.2-27.3,146.9-79.2
		c26.2-34.3,39-73.5,39.4-116.7c0.1-9.8-5.4-17.4-14.2-20.1c-13-4-25.1,5.5-25.9,19.9c-0.5,9.5-0.8,19-2.6,28.3
		c-16.7,86.1-97.7,141.3-183.7,125.5c-103-18.9-159.6-135-109.9-227.1c29.4-54.5,76.4-82.2,138.2-84.6c9.9-0.4,17.2-5.1,20.1-13.5
		c4.7-13.6-5.3-27.5-20.5-26.8c-13.6,0.6-27.3,1.9-40.5,4.7C111.2,84.6,43.7,184.7,61.7,288.1C78.1,383.1,159.6,452.1,266.8,452.3z
		 M147.7,255.5c0.1,56.5,43.4,103.2,99.7,107.6c62.7,5,116.7-44.6,116.7-107c0-11.8-8.3-20.6-19.7-20.9
		c-10.9-0.3-19.8,8.3-20.6,19.6c-0.2,3.8-0.3,7.7-0.9,11.4c-4.6,28.5-25.8,50.2-54.5,56.1c-26.8,5.4-55.2-7.1-70.2-30.8
		c-14.9-23.8-13.7-54.4,3.4-76.9c13.8-18.2,32.6-26.7,55.2-27.4c10.1-0.3,18.2-8,19.2-17.6c1.1-10.4-5.2-20-15.5-21.8
		c-6.4-1.1-13.3-0.7-19.8,0.2C187.6,155,147.6,201.4,147.7,255.5z M256,281.1c14.2,0,25.8-11.5,25.9-25.6c0.1-14.3-11.6-26-26-25.9
		c-14.2,0-25.7,11.4-25.9,25.6C229.9,269.4,241.6,281.1,256,281.1z"/>
</g>
</svg>
