<?xml version="1.0" encoding="utf-8"?>
<!-- Generator: Adobe Illustrator 20.1.0, SVG Export Plug-In . SVG Version: 6.00 Build 0)  -->
<svg version="1.1" id="Layer_1" xmlns="http://www.w3.org/2000/svg" xmlns:xlink="http://www.w3.org/1999/xlink" x="0px" y="0px"
	 viewBox="0 0 50 50" style="enable-background:new 0 0 50 50;" xml:space="preserve">
<style type="text/css">
	.st0{fill:#707070;}
</style>
<g>
	<g>
		<path class="st0" d="M46.3,35.8H3.7c-2,0-3.7-1.6-3.7-3.7V17.9c0-2,1.6-3.7,3.7-3.7h42.7c2,0,3.7,1.6,3.7,3.7v14.3
			C50,34.2,48.4,35.8,46.3,35.8z M3.7,15.7c-1.2,0-2.2,1-2.2,2.2v14.3c0,1.2,1,2.2,2.2,2.2h42.7c1.2,0,2.2-1,2.2-2.2V17.9
			c0-1.2-1-2.2-2.2-2.2H3.7z"/>
	</g>
	<g>
		<path class="st0" d="M49.1,15.4H1.2c0,0,1.4-1.6,2.1-1.6c9.2,0,33.6,0,43.7,0C47.6,13.9,49.1,15.4,49.1,15.4z"/>
	</g>
	<g>
		<g>
			<path class="st0" d="M47.6,36.1h-5.4c-0.3,0-0.5-0.2-0.5-0.5l0,0c0-0.3,0.2-0.5,0.5-0.5h5.4c0.3,0,0.5,0.2,0.5,0.5l0,0
				C48.1,35.9,47.8,36.1,47.6,36.1z"/>
		</g>
		<g>
			<path class="st0" d="M7.8,36.1H2.4c-0.3,0-0.5-0.2-0.5-0.5l0,0c0-0.3,0.2-0.5,0.5-0.5h5.4c0.3,0,0.5,0.2,0.5,0.5l0,0
				C8.3,35.9,8,36.1,7.8,36.1z"/>
		</g>
	</g>
	<g>
		<g>
			<g>
				<rect x="8.5" y="26.2" class="st0" width="9.2" height="1.3"/>
			</g>
			<g>
				<path class="st0" d="M19.3,29.8H6.8v-5.2h12.4V29.8z M7.3,29.4h11.5v-4.2H7.3V29.4z"/>
			</g>
		</g>
		<g>
			<g>
				<rect x="23" y="26.2" class="st0" width="9.2" height="1.3"/>
			</g>
			<g>
				<path class="st0" d="M33.8,29.8H21.3v-5.2h12.4V29.8z M21.8,29.4h11.5v-4.2H21.8V29.4z"/>
			</g>
		</g>
		<g>
			<path class="st0" d="M40.5,29.7c-1.4,0-2.5-1.1-2.5-2.5c0-1.4,1.1-2.5,2.5-2.5s2.5,1.1,2.5,2.5C43.1,28.6,41.9,29.7,40.5,29.7z
				 M40.5,25.1c-1.1,0-2,0.9-2,2c0,1.1,0.9,2,2,2s2-0.9,2-2C42.6,26.1,41.7,25.1,40.5,25.1z"/>
		</g>
		<g>
			<circle class="st0" cx="40.5" cy="27.2" r="1.3"/>
		</g>
	</g>
	<g>
		<path class="st0" d="M45,32.5H5.2c-0.9,0-1.7-0.8-1.7-1.7v-7.8c0-0.9,0.8-1.7,1.7-1.7H45c0.9,0,1.7,0.8,1.7,1.7v7.8
			C46.7,31.7,45.9,32.5,45,32.5z M5.2,21.7c-0.7,0-1.2,0.5-1.2,1.2v7.8C4,31.4,4.5,32,5.2,32H45c0.7,0,1.2-0.5,1.2-1.2v-7.8
			c0-0.7-0.5-1.2-1.2-1.2H5.2z"/>
	</g>
</g>
</svg>
