<?xml version="1.0" encoding="utf-8"?>
<!-- Generator: Adobe Illustrator 20.1.0, SVG Export Plug-In . SVG Version: 6.00 Build 0)  -->
<svg version="1.1" id="Layer_1" xmlns="http://www.w3.org/2000/svg" xmlns:xlink="http://www.w3.org/1999/xlink" x="0px" y="0px"
	 viewBox="0 0 50 50" style="enable-background:new 0 0 50 50;" xml:space="preserve">
<style type="text/css">
	.st0{fill:#707070;}
</style>
<g>
	<g>
		<g>
			<path class="st0" d="M35.7,50c-2.6,0-5.1-0.7-7.3-2c-1.1,0.2-2.2,0.2-3.4,0.2C12.2,48.2,1.8,37.8,1.8,25c0-1.1,0.1-2.2,0.2-3.4
				c-1.3-2.2-2-4.7-2-7.3C0,6.4,6.4,0,14.3,0c2.6,0,5.1,0.7,7.3,2c1.1-0.2,2.3-0.2,3.4-0.2c12.8,0,23.2,10.4,23.2,23.3
				c0,1.1-0.1,2.3-0.2,3.4c1.3,2.2,2,4.7,2,7.3C50,43.6,43.6,50,35.7,50z M28.7,46.5l0.2,0.1c2,1.3,4.4,1.9,6.8,1.9
				c7.1,0,12.9-5.8,12.9-12.9c0-2.4-0.7-4.7-1.9-6.8l-0.1-0.2l0-0.3c0.2-1.1,0.3-2.3,0.3-3.4C46.8,13,37,3.2,25,3.2
				c-1.1,0-2.3,0.1-3.4,0.3l-0.3,0l-0.2-0.1c-2-1.3-4.4-1.9-6.8-1.9C7.2,1.5,1.5,7.2,1.5,14.3c0,2.4,0.7,4.7,1.9,6.8l0.1,0.2l0,0.3
				c-0.2,1.2-0.3,2.3-0.3,3.4C3.2,37,13,46.8,25,46.8c1.1,0,2.3-0.1,3.4-0.3L28.7,46.5z"/>
		</g>
	</g>
	<g>
		<path class="st0" d="M35.7,35.2c-1,1.4-2.4,2.4-4.2,3.2c-1.8,0.8-4,1.2-6.5,1.2c-3,0-5.5-0.5-7.4-1.6c-1.4-0.8-2.5-1.8-3.4-3
			c-0.9-1.3-1.3-2.5-1.3-3.7c0-0.7,0.3-1.3,0.8-1.8c0.5-0.5,1.2-0.8,2-0.8c0.7,0,1.2,0.2,1.7,0.6c0.5,0.4,0.9,1,1.2,1.7
			c0.4,0.9,0.8,1.6,1.2,2.2c0.4,0.6,1.1,1.1,1.9,1.5c0.8,0.4,1.8,0.6,3.2,0.6c1.8,0,3.3-0.4,4.4-1.2c1.1-0.8,1.7-1.7,1.7-2.9
			c0-0.9-0.3-1.6-0.9-2.2c-0.6-0.6-1.4-1-2.3-1.3c-1-0.3-2.3-0.6-3.9-1c-2.2-0.5-4-1-5.5-1.7c-1.5-0.6-2.7-1.5-3.5-2.6
			c-0.9-1.1-1.3-2.5-1.3-4.1c0-1.6,0.5-3,1.4-4.2c0.9-1.2,2.3-2.2,4-2.8c1.7-0.7,3.8-1,6.1-1c1.9,0,3.5,0.2,4.8,0.6
			c1.4,0.4,2.5,1,3.4,1.7c0.9,0.7,1.6,1.5,2,2.3c0.4,0.8,0.6,1.6,0.6,2.3c0,0.7-0.3,1.3-0.8,1.9c-0.5,0.6-1.2,0.8-2,0.8
			c-0.7,0-1.3-0.2-1.7-0.5c-0.4-0.3-0.8-0.9-1.2-1.6c-0.5-1-1.2-1.9-2-2.4c-0.7-0.6-2-0.9-3.7-0.9c-1.6,0-2.8,0.3-3.8,0.9
			c-1,0.6-1.4,1.4-1.4,2.2c0,0.5,0.2,1,0.5,1.4c0.3,0.4,0.8,0.7,1.3,1c0.6,0.3,1.2,0.5,1.7,0.7c0.6,0.2,1.6,0.4,2.9,0.7
			c1.7,0.4,3.3,0.8,4.6,1.2c1.4,0.5,2.6,1,3.6,1.6c1,0.6,1.8,1.5,2.3,2.5c0.6,1,0.8,2.2,0.8,3.6C37.1,32.3,36.6,33.9,35.7,35.2
			L35.7,35.2z"/>
	</g>
</g>
</svg>
