<?xml version="1.0" encoding="UTF-8" standalone="no"?>
<svg width="383px" height="406px" viewBox="0 0 383 406" version="1.1" xmlns="http://www.w3.org/2000/svg" xmlns:xlink="http://www.w3.org/1999/xlink" xmlns:sketch="http://www.bohemiancoding.com/sketch/ns">
    <!-- Generator: Sketch 3.3.2 (12043) - http://www.bohemiancoding.com/sketch -->
    <title>Slice 1</title>
    <desc>Created with Sketch.</desc>
    <defs></defs>
    <g id="Page-1" stroke="none" stroke-width="1" fill="none" fill-rule="evenodd" sketch:type="MSPage">
        <g id="octopus" sketch:type="MSLayerGroup" transform="translate(-79.000000, -34.000000)">
            <g id="Owl"></g>
            <g id="rabit_1_"></g>
            <g id="Fox"></g>
            <g id="Dog"></g>
            <g id="Cat"></g>
            <g id="penguino"></g>
            <g id="Hippopotamus"></g>
            <g id="Rhinoceros"></g>
            <g id="lion"></g>
            <g id="_panda"></g>
            <g id="Mouse"></g>
            <g id="Cow"></g>
            <g id="Octopus" transform="translate(92.000000, 45.000000)" sketch:type="MSShapeGroup">
                <g id="body">
                    <path d="M87.4,238.2 L114.3,280.4 C114.3,280.4 91.9,319.9 66.5,322.6 C41.1,325.3 11.5,317.9 3.1,297.5 C-5.2,277.1 10.5,249.3 10.5,249.3 C10.5,249.3 27.1,279.9 47,277.1 C67,274.3 87.4,238.2 87.4,238.2 L87.4,238.2 Z" id="Shape" stroke="#006D62" stroke-width="6" fill="#00A99D"></path>
                    <path d="M177.2,258 L196.9,306.2 C196.9,306.2 174.5,337.4 163.9,376.9 C152.5,386.5 141.5,385 123.3,382.6 C117.5,371.6 140.4,371.1 133.8,330.2 C128.8,255.4 177.2,258 177.2,258 L177.2,258 Z" id="Shape" stroke="#006D62" stroke-width="6" fill="#00A99D"></path>
                    <path d="M183.7,302.2 L224.5,277.1 C224.5,277.1 229.1,299.3 244.9,314.1 C260.6,328.9 303.1,270.6 327.7,295.6 C267.1,320.6 259.7,371.5 224.5,364.1 C189.3,356.7 183.7,306.6 183.7,306.6" id="Shape" stroke="#006D62" stroke-width="6" fill="#00A99D"></path>
                    <path d="M237.5,275.3 C237.5,275.3 287.5,239.1 314.4,238.2 C341.3,237.3 351.4,258.6 356.1,267.8 C309.8,256.7 301.5,311.3 271.8,320.6 C242.2,329.9 217.2,303 217.2,303 L237.5,275.3 L237.5,275.3 Z" id="Shape" stroke="#006D62" stroke-width="6" fill="#00A99D"></path>
                    <path d="M118,272.1 L140.1,306.8 C140.1,306.8 93.9,367 63.4,369.8 C32.8,372.6 13.4,339.9 13.4,339.9 C13.4,339.9 34.6,354.5 57.4,320.9 C80.2,287.3 118,272.1 118,272.1 L118,272.1 Z" id="Shape" stroke="#006D62" stroke-width="6" fill="#00A99D"></path>
                    <path d="M47.1,149.7 C47.1,100.8 70.3,0.6 176.7,0.6 C283.1,0.6 320.3,80.4 320.3,143.7 C320.3,207 248.5,327.1 176.3,327.1 C104.1,327.1 47.1,198.7 47.1,149.7 L47.1,149.7 Z" id="Shape" stroke="#006D62" stroke-width="6" fill="#00A99D"></path>
                    <circle id="Oval" fill="#00C6B3" cx="113.1" cy="62.8" r="11.1"></circle>
                    <circle id="Oval" fill="#00C6B3" cx="97.7" cy="74.5" r="5.8"></circle>
                    <circle id="Oval" fill="#00C6B3" cx="106.8" cy="86.5" r="7.3"></circle>
                    <path d="M203,200.1 C209.1,182.6 228.2,173.4 245.7,179.6 C263.2,185.7 272.4,204.8 266.2,222.3 C260.1,239.8 241,249 223.5,242.8 C206,236.6 196.9,217.5 203,200.1 L203,200.1 Z" id="Shape" fill="#00C6B3"></path>
                    <path d="M261.3,166.4 C264.5,157.2 274.5,152.4 283.7,155.6 C292.9,158.8 297.7,168.8 294.5,178 C291.3,187.2 281.3,192 272.1,188.8 C262.9,185.6 258.1,175.5 261.3,166.4 L261.3,166.4 Z" id="Shape" fill="#00C6B3"></path>
                    <path d="M268.5,145.7 C272.5,134.3 266.5,121.7 255,117.7 C243.5,113.7 231,119.7 227,131.2 C223,142.6 229,155.2 240.5,159.2 C252,163.1 264.5,157.1 268.5,145.7 L268.5,145.7 Z" id="Shape" fill="#00C6B3"></path>
                </g>
                <g id="eye_9_" transform="translate(191.000000, 118.000000)">
                    <circle id="Oval" fill="#FFFFFF" cx="46.2" cy="46.3" r="45.8"></circle>
                    <circle id="Oval" fill="#006359" cx="46.4" cy="46.5" r="36.5"></circle>
                    <circle id="Oval" fill="#004C45" cx="46.2" cy="46.3" r="8.7"></circle>
                    <circle id="Oval" fill="#FFFFFF" cx="35.3" cy="33" r="5"></circle>
                    <circle id="Oval" fill="#FFFFFF" cx="45.5" cy="30" r="3.2"></circle>
                </g>
                <g id="eye_8_" transform="translate(84.000000, 118.000000)">
                    <circle id="Oval" fill="#FFFFFF" cx="46.3" cy="46.3" r="45.8"></circle>
                    <circle id="Oval" fill="#006359" cx="46.5" cy="46.5" r="36.5"></circle>
                    <circle id="Oval" fill="#004C45" cx="46.3" cy="46.3" r="8.7"></circle>
                    <circle id="Oval" fill="#FFFFFF" cx="35.4" cy="33" r="5"></circle>
                    <circle id="Oval" fill="#FFFFFF" cx="45.6" cy="30" r="3.2"></circle>
                </g>
            </g>
            <g id="Elphant"></g>
        </g>
    </g>
</svg>