<?xml version="1.0"?>
<svg xmlns:rdf="http://www.w3.org/1999/02/22-rdf-syntax-ns#" xmlns="http://www.w3.org/2000/svg" xmlns:cc="http://web.resource.org/cc/" xmlns:xlink="http://www.w3.org/1999/xlink" xmlns:dc="http://purl.org/dc/elements/1.1/" id="Layer_1" enable-background="new 0 0 1599.8 1199.85" xml:space="preserve" height="1199.8px" viewBox="0 0 1599.8 1199.85" width="1599.8px" version="1.1" y="0px" x="0px">
<path stroke="#000" stroke-miterlimit="10" d="m1156.9 649.92c-0.117 46.188 55.871 111.4 10.998 150.98-5.66-0.21-6.713-1.083-9.998-2.999 0.561-8.366 4.508-15.543 0-19.998-0.667 0.333-1.333 0.666-2 1-11.605 31.962 20.963 59.224 39.995 78.99-0.582 21.115-18.644 22.463-23.997 37.995 25.994 15.996 51.996 31.997 77.99 47.994 25.328 12.663 50.663 25.331 75.99 37.995 44.001 30.101 131.56 157.38 143.98 217.97h-652.92v-13.998h-1v13.998h-8.999c0.664-11.093 2.088-20.412 0-29.996-1.333-0.334-2.666-0.667-3.999-1v8.999c0.666 7.332 1.333 14.666 2 21.997h-6c-0.208-4.313-0.262-4.826-2-6.999-13.062 9.929-42.681 7.356-65.992 6.999 1.368-23.492-1.192-34.81-23.997-30.996-0.873 12.96 12.211 17.536 15.998 30.996h-34.996c-29.185-38.377-73.666-66.903-119.98-87.989-11.331-3.666-22.666-7.333-33.996-10.999-3.999-4.998-8-9.998-11.999-14.997-3.666 0.333-7.333 0.666-10.999 1-5.999-4.666-11.999-9.333-17.998-13.999-2.667 0.333-5.333 0.667-7.999 1v1c13.997 19.329 27.998 38.664 41.995 57.992 11.714-1.246 16.629 4.823 24.997 7.999 17.396 6.604 34.34 5.537 48.994 12.999 22.662 14.996 45.33 29.997 67.992 44.994v1h-559.93c40.375-92.553 90.783-175.53 165.98-232.97 23.328-14.33 46.663-28.665 69.991-42.994 1.606-19.832 9.46-37.4 16.998-52.994-29.731-21.258-23.401-3.227-57.993-8.998-2-1.667-4-3.334-6-5 0.333-3.666 0.667-7.333 1-10.999 9.766-1.055 14.559-8.713 18.998-14.998v-2.999c-20.764 0.851-53.955-14.493-48.994-29.996h12.999c2.878 8.192 17.285 12.585 23.997 4.999-8.696-18.723-21.145-87.874 0-101.99 6.314 8.535-0.795 28.751 7.999 34.996 5.174 3.356 17.264 1.002 22.997 0 9.352-40.977-8.483-78.395 6.999-115.99-20.3-4.484-22.759-21.176-32.996-34.995 0.667-4.666 1.333-9.333 2-13.999 0.667-0.333 1.333-0.667 2-1 9.529 2.514 12.527 7.872 18.998 12.999 9.872-0.136 14.404-3.007 19.997-6.999-1-1.333-2-2.667-3-4-45.524-13.677-34.622-94.109-11.999-123.98 0.667 0.333 1.333 0.667 2 1 3.569 32.992 1.127 57.383 16.998 77.99 19.123-0.789 43.789-15.9 47.994-30.996 2.525-9.065-4.659-19.986-1-29.996 4.332-4.999 8.666-9.999 12.998-14.998-4.333-5.999-8.666-11.999-12.998-17.998-2.963-9.295 4.197-12.171-1-17.998-6.445 3.794-11.735 11.041-15.999 16.998-1-1.667-2-3.333-2.999-5 1.33-3.295 38.611-48.393 39.995-48.994-0.333-1.333-0.667-2.667-1-4-12.979 0.474-19.58 6.327-29.997 8.999 5.589-29.075 38.42-46.762 77.99-37.995 20.007 4.433 40.248 17.792 61.992 3 2.165-2.117 1.993-3.443 2-7.999-18.012-45.078 8.07-104.86 27.996-129.98 48.375-60.987 100.48-104.98 210.97-104.99h54.993c39.176 7.304 85.823 6.989 118.98 21.998 26.717 12.091 37.231 31.425 53.993 52.993 39.335 50.611 100.88 112.26 81.99 211.97 13.788 10.658 19.178 13.267 40.995 13.998v4c-7.064 5.136-17.223 7.077-23.997 11.999 6.174 10.782 22.472 28.599 40.994 16.998 4.478-2.804 5.622-8.41 11.999-9.999 12.878-3.208 32.851-0.511 35.996 7.999-30.928-2.458-31.646 18.791-45.995 34.996-5.94 6.71-14.438 6.347-16.997 16.998 0.666 0.667 1.333 1.333 1.999 2 15.79-0.223 28.36 7.839 33.996 17.998-1 2-2 4-3 5.999-5.998-0.333-11.999-0.667-17.998-1-0.333 0.667-0.666 1.333-0.999 2 5.176 17.529-1.941 27.09-6 40.995 9.999 7.433 15.156 6.926 30.996 5.999 2.334-3 4.667-6 7-8.999 25.196 0.13 72.787 11.257 80.989 28.996-0.666 0.667-1.333 1.333-1.999 2-12.763 2.03-41.741 0.037-45.994 10.999 6.332 1.333 12.665 2.667 18.997 4 0.333 0.667 0.667 1.333 1 1.999-0.333 2-0.667 4-1 6-8.665 0.666-17.332 1.333-25.997 2 3.165 14.838-4.494 19.398-14.998 23.996 1.666 5 3.333 10 5 14.998-0.667 0.334-1.334 0.667-2 1-10.4 0.04-20.7 0.04-31 0.04z"/>
<path d="m731.91 203.97c-4.999 4.999-10 10-14.999 14.998-4.666 0.333-9.333 0.667-13.998 1 3.636 8.117 9.012 12.559 13.998 18.998-1.559 6.191-4.5 8.3-3 14.998h1c14.325-3.649 24.373 2.85 38.995 4v-3c-3-3.999-6-8-8.999-11.999 2.544-8.044 12.487-13.482 17.998-18.998v-1c-7.665-2-15.333-4-22.998-5.999-4.49-3.58-2.25-9.96-7.99-13z" fill="#fff"/>
<path d="m547.93 326.96c1 2.666 2 5.333 3 7.999h1c0.333-1 0.667-2 1-3-1.77-3-1.75-3.34-5-5z" fill="#fff"/>
<path d="m644.92 330.96c-10.665 3-21.332 6-31.996 8.999v1c18.203 0.743 44.134 4.582 57.993 11.999-1.603 7.569-4.898 5.659-8.999 9.999-4.485 10.862 3.475 26.386 5 36.996 11.992-2.616 28.01 2.847 36.996 2 1.333-4.666 2.667-9.333 4-13.998-3.134-8.982-5.436-9.398-14.998-11.999 0.333-2.999 0.667-6 1-8.999 0.667-1.333 1.333-2.667 2-4 9.923 0.244 9.836 3.664 14.998 7.999 23.486-6.609 100.9-13.11 126.98-4 15.238 5.322 21.021 19.423 31.996 28.997 15.33-7.332 30.665-14.666 45.995-21.997-0.334-1-0.667-2-1-3-1-1.333-2-2.666-3-4-47.766-10.333-98.567-13.733-149.98-22.997-37.33-6.73-78.11-12.73-116.98-13z" fill="#fff"/>
<path d="m575.93 337.96c-0.666 0.333-1.333 0.667-2 1v1 1h6c-0.333-0.667-0.667-1.333-1-2-1-0.34-2-0.67-3-1z" fill="#fff"/>
<path d="m979.88 350.96c-41.324 20.662-82.66 41.33-123.98 61.992 22.91-0.247 37.413-14.357 51.994-23.997 11.012-7.281 78.927-35.423 95.987-30.996 4.64 1.203 6.188 5.538 11.999 6.999v-1c-6.3-11.36-17.62-13.6-36.02-12.99z" fill="#fff"/>
<path d="m583.93 352.96c-14.552 8.129-32.592 10.94-42.994 22.997-16.969 19.667-17.162 79.387 6.999 90.989 13.332 3.386 26.962-11.032 38.995-14.998 12.339-4.068 48.518 2.132 50.993 1 5.296-2.423 19.523-40.724 14.999-54.993-8.15-25.66-36.99-43.2-69-45z" fill="#fff"/>
<path d="m1007.9 369.95c-22.422 8.755-38.823 27.817-21.997 53.993 3.666 4.666 7.332 9.333 10.998 13.998l-3 12.999c-6.105 28.783 6.834 45.962 30.997 48.994-1.333-2-2.667-4-3.999-5.999-41.314-17.767-3.318-87.112 20.996-95.988l3 9.999c0.333-0.667 0.667-1.333 1-2 1.333-2 2.666-4 4-5.999-2.1-18.04-20.4-30.64-42-29.99z" fill="#fff"/>
<path d="m441.94 378.95c-4.333 4.666-8.666 9.333-12.999 13.999v1c8.11-1.252 19.084-5.992 23.997-10.999-0.667-0.333-1.333-0.667-2-1-2.6-2.52-3.63-2.82-9-3z" fill="#fff"/>
<path d="m807.9 381.95c-1.333 0.333-2.666 0.667-3.999 1v1c22.12 4.655 42.81 24.272 46.994 46.994-1.333 13.664-2.667 27.331-3.999 40.995v-2c30.23-38.36-11.06-78.44-38.99-87.99z" fill="#fff"/>
<path d="m752.91 383.95c-17.2 9.983-34.479 20.924-34.996 40.995-2 0.333-4 0.667-5.999 1-0.698 12.996-8.472 31.573-4 42.995 12.248 31.282 47.804 50.748 89.989 36.996 11.617-3.788 22.607-7.213 28.996-15.998 26.856-36.933-0.09-85.063-28.996-96.988-10.421-4.299-37.119-2.114-42.995-7 0.667-0.666 1.333-1.333 2-2h-3.99z" fill="#fff"/>
<path stroke-miterlimit="10" stroke="#000" clip-rule="evenodd" d="m549.93 393.95c13.798 0.253 20.65 9.366 20.998 22.997-2.16 4.471-4.701 10.492-8.999 12.999-8.231 4.62-18.656 0.91-23.997-3-2.724-9.931-0.688-21.164 4-28.996 2.67-1.33 5.33-2.67 8-4z" fill-rule="evenodd"/>
<path d="m416.95 409.95c0.333 1.667 0.667 3.333 1 5h1v-5h-2z" fill="#fff"/>
<path d="m713.91 826.9c0.333-2 0.667-4 1-5.999 0.667-1.333 1.333-2.667 2-4 5.826 0.456 7.07 0.8 10.999-1 3.333-11.33 6.666-22.665 9.999-33.996 1 0.667 2 1.334 3 2 1.828 6.815 5.268 20.601 10.999 23.997-2.401-9.749 7.576-16.676 12.998-21.997-0.286-25.943-29.242-36.75-34.996-59.992 16.943 1.553 28.378 10.522 40.995 16.997-0.666-12.663-1.333-25.331-2-37.995 11.725-1.429 18.856 3.323 25.997 9.999 3.999-1 8-2 11.998-3l1 1c-0.888 7.962-3.4 5.944-4.999 12.999 2.833 5.35 3.989 8.316 4.999 13.998h6c3.999-2.999 7.999-5.999 11.998-8.999 3.827 1.321 2.08-0.002 4 3 5.033 13.202-7.034 25.36-2 38.994 3.999 4.999 8 10 11.998 14.999h1c1-2.666 2-5.333 3-7.999 10.998-1 21.998-2 32.996-3v-6.999h-3-27.996v-1c0.666-0.667 1.333-1.333 2-1.999 2.615-4.861 46.807-34.45 49.993-33.996 11.138 2.195 8.027 12.827 4.999 20.997 1-0.666 2-1.333 3-1.999 0 0 29.82-20.027 30.996-8v-2c4.268-3.902 8.34-9.602 9.999-15.997h-5c-1-0.333-2-0.667-2.999-1v-4.999c-17.13-0.621-20.193-17.509-25.997-28.997 7.439-12.37 29.053-13.611 46.994-14.998 6.331-18.51 20.585-33.889 23.997-54.993-8.219-0.752-38.392-7.061-44.994-10.998v-1-3c7.195-4.868 14.84-7.592 26.996-7.999 2.333-4.666 4.666-9.333 6.999-13.998-2.333-1-4.666-2-6.999-3 0.691-18.563 14.464-20.448 10.999-40.995-21.306-1.182-54.45-34.104-48.994-60.993 2.144-10.564 9.714-19.52 11.998-27.996 0.334-1 0.667-2 1-3-10.997-12.33-21.998-24.665-32.995-36.995-5.332 1.666-10.666 3.333-15.998 5-0.334 4.333-0.667 8.666-1 12.999-3 1.333-6 2.666-8.999 3.999 6.972 18.106-7.546 26.288-12.998 38.995-2 6.666-4 13.333-5.999 19.998-11.998 5.332-23.998 10.666-35.996 15.998-10.152 6.83-16.198 17.967-29.996 21.998-46.206 13.497-88.555-24.176-103.99-49.994-9.545-15.969-3.445-45.595-1-62.992-1-0.333-2-0.667-3-1-6.346-5.386-15.067-1.343-22.998 0-0.876 7.413-3.95 22.501-8.999 25.997 2.333 5.999 4.666 11.999 6.999 17.998l-3 6.999c1.169 5.388 7.441 8.622 8.999 15.998-0.667 0.333-1.333 0.667-2 1-27.551-16.011-92.721-30.512-113.99 4-4.603 7.471-1.785 16.062-3 23.997l1 1c12.745-5.381 15.446 4.675 21.998 10.999h1c0.061-6.49 0.605-7.194 4-9.999 17.758 8.57 46.405 30.6 76.99 18.998 8.075-3.063 6.362-12.524 18.998-13.999 0.333 1 0.667 2 1 3 3.108 5.546 7.497 23.619 6.999 26.997-1.667 0.333-3.333 0.667-5 1-2.999-2.333-6-4.666-8.999-6.999-0.667 4.333-1.333 8.666-2 12.999-6.559-0.334-15.434-0.753-18.998 2v1c8.921 1.773 6.97 7.71 12.999 10.999 10.664 3.666 21.332 7.333 31.996 10.999 30.735 15.167 56.748 36.204 75.99 62.992 8.953 12.464 24.694 35.979 12.999 55.993-1 0.333-2 0.666-3 1-1-0.334-2-0.667-3-1-12.445-48.808-50.597-73.188-88.989-95.988-14.932-8.867-54.665-17.877-56.993-37.995 2.74-3.206 4.8-5.253 7.999-7.999v-1c-24.709-4.13-51.239-5.017-74.99-8.999-5.154 16.104-15.494 19.638-29.997 25.997 0.333 1 0.667 2 1 3 1.333 1.333 2.667 2.667 4 3.999 44.013-5.48 89.602 0.287 109.99 26.997v2c-1 0.333-2 0.666-3 1-16.923 6.613-33.359-9.003-44.995-12.999-30.488-10.47-71.021-5.815-91.988 8.999 3.333 3.332 6.666 6.666 9.999 9.999 16.663 34.856 25.37 42.448 10.999 88.988-18.451 6.073-45.145 20.965-47.994 41.995 2.666 8.998 5.333 17.999 7.999 26.996 5.016 1.206 8.615 6.17 12.999 6.999 6.418 1.216 14.107-2.884 19.997-1.999 0.742 3.496 0.949 3.375-1 5.999-2.755 4.399-7.858 7.083-12.998 8.999 0.333 0.667 0.667 1.333 1 2 14.653 1.784 22.514-5.479 36.995-3 2 3 4 6 5.999 8.999 7.681-0.52 10.546-3.89 15.999-4.999 8.245-1.679 8.919 3.629 12.998 4.999 9.998-1.333 19.999-2.667 29.997-3.999v1.999c2.759 4.784 1.233 7.558-1 11.998 1.372 1.897 0.973 1.637 3 3 10.478 4.677 17.275 3.563 26.997 2 5.931 12.111 21.166 10.054 31.996 16.997 0.667 2.667 1.333 5.334 2 7.999h2v-10.998c-2.746-3.963-3.686-3.469-4-7.999 1.922-1.392 0.599-0.102 2-1.999 9.141-1.474 12.515-0.044 17.998 3.999 1.655-4.902 1.785-5.459 7.999-5.999 2.34 5.69 5.91 7.03 13.97 6.96z" fill="#fff"/>
<path d="m524.93 671.92c-3.333-0.334-6.666-0.667-9.999-1-0.333-1.666-0.667-3.334-1-5 1-0.666 2-1.333 3-2 1.999 0.334 4 0.667 5.999 1 0.083-32.383-26.147-36.761-28.997-61.992 6.733-12.49 21.241-11.2 29.997-20.997-0.667-1-1.333-2-2-3-6.243-1.537-8.804-3.85-12.998-6.999-27.678 1.967-25.738 25.887-48.994 27.997v-2c-3.038-8.286 2.695-13.192 6-17.998 19.329-28.107 45.4-28.859 82.99-36.996 0.333-0.667 0.666-1.333 1-2-5.305-10.819-9.951-17.933-15.998-26.997 3-9.998 6-19.999 8.999-29.997-15.586-15.954-27.237-36.193-32.996-61.992-43.817 32.499-72.492 13.07-91.989 76.991-3.812 12.497-14.263 23.691-15.998 36.995 3.417 3.341 5.376 5.374 4 10.999-7.125 0.657-10.474 3.898-13.999 7.999v1c8.704 0.931 9.608 4.985 12.999 10.999-2 2.333-4 4.667-6 6.999-8.582 1.685-12.781 6.27-13.998 14.998 2.666-1 5.333-2 7.999-3 3.958 2.252 4.825 2.742 6 7.999-10.557 7.528-4.33 14.633-10.999 21.998-5.321 5.876-15.951 8.877-19.997 15.997-1.667 9.665-3.333 19.332-5 28.997-4.713 1.126-8.733 2.19-10.999 5.999-5.961 14.365 0.351 27.666 4 36.995-12.579 7.399-0.972 34.803 3 40.995-1.667 2.666-3.333 5.333-5 7.999 1.974 10.893 7.068 19.532 9.999 27.996 10.993 31.749 14.967 84.257 19.998 121.98-2.333 0.334-4.667 0.666-6.999 1 14.906 39.243 70.555 121.46 113.98 125.98v-1c-2.097-5.691-2.158-14.578-2-22.997-10.897 2.191-36.243-2.885-46.994-8.999-1.779-5.996-1.943-7.176 1-11.998 9.219 0.699 15.3 4.534 22.998 1 0.667-4.666 1.333-9.333 2-13.999-81.754-23.422-79.089-114.52-94.988-199.98-3.886-20.884-14.616-81.335 0-93.988h1c12.706 51.341 28.314 101.45 59.993 133.98 3.924-2.78 4.642-3.889 11.999-3.999 5.674 7.98 12.887 13.485 20.998 18.998 17.138 0.554 25.468-3.443 33.996-10.999-1-1.333-2-2.667-3-4-35.889-8.75-34.624-58.861-17.998-85.988 5.666-6.332 11.333-12.666 16.998-18.998-2.225-5.937-3.492-5.73 2-9.999 1.924-3.189 10.73-13.997 13.999-15.998 3.885-2.807 9.323-0.805 10.999-2 0.34-2.34 0.67-4.67 1-7z" fill="#fff"/>
<path stroke-miterlimit="10" stroke="#000" clip-rule="evenodd" d="m733.91 421.95c10.506 0.062 15.916 3.716 21.997 7.999l3 12.999c-2.099 4.859-3.178 7.723-7.999 9.999-9.882 3.219-20.583-0.317-23.997-6.999-0.667-3.666-1.333-7.333-2-10.999 3-4.34 6-8.67 9-13z" fill-rule="evenodd"/>
<path stroke="#000" stroke-miterlimit="10" d="m567.93 510.94c4.312 0.208 4.826 0.263 6.999 2-4.41-0.12-4.94 0.09-7-2z" fill="#fff"/>
<path d="m1132.9 515.94c-1.667 1-3.333 2-4.999 3-0.804 5.769-1.36 9.293 1.999 12.999h1c1.8-5.92 7-12.5 2-16z" fill="#fff"/>
<path d="m1017.9 516.94c-0.667 2.333-1.334 4.667-2 6.999 3.826-1.321 2.079 0.001 4-3-0.2-3.47 1.8-1.76-2-4z" fill="#fff"/>
<path d="m376.95 607.92c-0.667 1-1.333 2-2 3v0.999h4.999c-1.32-3.82 0-2.08-3-4z" fill="#fff"/>
<path stroke-miterlimit="10" stroke="#000" clip-rule="evenodd" d="m383.95 625.92c7.448 4.516 6.786 21.177-4 21.996v-1.999c-3.927-6.359-1.065-14.176 2-18.997 0.67-0.33 1.33-0.66 2-1z" fill-rule="evenodd"/>
<path stroke-miterlimit="10" stroke="#000" clip-rule="evenodd" d="m399.95 648.92c-0.333 2-0.667 4-1 6h-2c-3.004 2.401-4.994 2.427-7.999 0 2.59-4.64 3.71-5.84 11-6z" fill-rule="evenodd"/>
<path stroke-miterlimit="10" stroke="#000" clip-rule="evenodd" d="m510.94 652.92c3.333 1.333 6.667 2.667 9.999 4v1c-0.666 0.333-1.333 0.666-2 0.999-1.667 0.334-3.333 0.667-5 1-1.95-2.65-2.26-2.45-3-7z" fill-rule="evenodd"/>
<path stroke-miterlimit="10" stroke="#000" clip-rule="evenodd" d="m924.88 726.91c5.672 0.052 6.394 0.271 8.998 2.999-2.575 7.598-6.602 8.305-15.998 7.999v-2.999c2.34-2.67 4.67-5.34 7-8z" fill-rule="evenodd"/>
<path d="m882.89 749.91l-9.999 6.999h2v1c1.666-0.333 3.333-0.667 4.999-1 1-2.34 2-4.67 3-7z" fill="#fff"/>
<path stroke-miterlimit="10" stroke="#000" clip-rule="evenodd" d="m502.94 763.9c6.455 2.848 7.122 5.828 2 9.998-2-0.666-4-1.332-6-1.999v-3.999c0.667-1 1.333-2 2-3 0.66-0.33 1.33-0.66 2-1z" fill-rule="evenodd"/>
<path stroke-miterlimit="10" stroke="#000" clip-rule="evenodd" d="m687.91 809.9c3.333 0.333 6.666 0.666 9.999 1v0.999c-0.333 1.333-0.667 2.667-1 4-3.666 0.333-7.333 0.667-10.999 1-0.333-1.333-0.667-2.667-1-4l3-3z" fill-rule="evenodd"/>
<path d="m560.93 815.9c-8.665 0.667-17.332 1.333-25.997 2v1c20.996 3.999 41.997 7.999 62.992 11.998 8.998 7.998 17.999 15.999 26.997 23.997 36.936 22.663 92.15 21.356 114.98-13.998-15.698 6.531-27.816 18.128-46.994 21.997-64.01 12.91-72.33-46.57-131.98-47z" fill="#fff"/>
<path stroke-miterlimit="10" stroke="#000" clip-rule="evenodd" d="m658.92 816.9c2.333 0.667 4.667 1.333 6.999 2-0.333 2.333-0.667 4.666-1 6.999h-1c-2.333-0.666-4.667-1.333-6.999-2-0.333-1.666-0.667-3.333-1-4.999 1-0.67 2-1.34 3-2z" fill-rule="evenodd"/>
<path d="m1038.9 887.89c-1.667 10.331-3.333 20.665-4.999 30.996-8.641 17.233-30.474 23.574-41.995 37.995-9.187 11.5-12.197 28.988-16.998 44.995h-4c-4.269-4.423-8.295-13.368-13.997-15.998-7.318 18.904-27.416 29.312-34.996 45.994-0.666 3.665-1.334 7.332-2 10.998-7.312 7.749-15.262 10.204-25.996 14.998 0.333 0.667 0.666 1.334 1 2 21.576 9.185 55.511 14.713 73.99-3.999-1.373-1.897-0.974-1.637-3-3-14.79-4.771-18.296 0.213-30.996-8.999-1.285-21.977 7.01-25.684 13.998-41.994 7.627-0.761 12.137 1.775 18.998 3.999 1.142 3.669 2.925 9.888 5.999 11.998 2.333 0.667 4.666 1.334 6.999 2 1.666-12.33 3.333-24.665 5-36.995 4.998-3.333 9.999-6.667 14.998-9.999 14.2-11.26 49.5-56.78 38-85.01z" fill="#fff"/>
<path fill="#fff" clip-rule="evenodd" d="m1278.8 995.88c-42.109 24.477-73.764 89.358-95.988 139.98-7.567 17.239-21.857 37.263-22.996 58.993 0.999 0.666 1.999 1.333 2.999 2 1 0.333 2 0.666 2.999 1 34.521-51.203 37.653-127.5 102.99-147.98 0.999-2.666 2-5.333 2.999-7.999-4.808-1.186-4.923-0.938-5.999-5.999 2-3.333 4-6.666 5.999-9.998h9.999c-1.238-5.954-1.823-6.109 3-10 2.332 2.667 4.666 5.334 6.998 8v2.999c-5.021 0.826-6.409 0.107-7.998 5 4.332-1.667 8.666-3.334 12.998-5 0.333-1.666 0.666-3.333 1-4.999-3.043-4.89-6.918-5.396-10.999-8.999 1.356-5.927 2.985-9.614 7.999-11.998-0.666-0.667-1.333-1.334-2-2-6 0.89-6.4-2.13-14-3.02z" fill-rule="evenodd"/>
<path fill="#fff" clip-rule="evenodd" d="m1310.8 1016.9c-1.333 2.333-2.667 4.667-4 7h4c1-2.333 2-4.667 3-7h-3z" fill-rule="evenodd"/>
<path fill="#fff" clip-rule="evenodd" d="m1181.9 1018.9c-3.332 1.333-6.666 2.667-9.998 4-2 4.332-4 8.665-6 12.998 0.334 0.666 0.667 1.333 1 2 2.334-0.334 4.667-0.667 7-1 1.041-11.005 7.021-9.801 9.998-17.998h-2z" fill-rule="evenodd"/>
<path fill="#fff" clip-rule="evenodd" d="m1193.9 1026.9c-1 2.666-2 5.333-2.999 7.999 6.6 0.213 9.027 1.339 11.998 4.999-5.625 24.546-27.625 53.977-30.996 77.991h1c0.666-0.334 1.333-0.667 2-1 11.766-26.669 42.291-48.476 44.994-82.989-8.7-2.4-17.4-4.7-26-7z" fill-rule="evenodd"/>
<path d="m886.89 1052.9c-0.333-2-0.666-4-1-6-3.665 0.667-7.332 1.334-10.998 2-18.525 33.447-34.857 53.036 8.999 71.991-0.333 1.667-0.667 3.333-1 5-30.826 13.588-65.594 17.946-78.99-15.999-3.94-9.983-2.9-20.553-7.999-27.996-3.851-1.721-5.926-4.154-9.999-3 4.738 3.471 9.264 4.324 11.999 9.999 0.666 8.998 1.333 17.999 2 26.997 2.905 7.662 15.75 15.755 20.998 22.997 37.259 3.327 81.925-1.29 89.988-31.996-15.794 1.164-23.442 8.095-41.994 3.999-12.65-16.218-3.331-47.765 10.998-57.992h6.99z" fill="#fff"/>
<path d="m522.94 1049.9c1.83 3.483 0.844 2.688 5 4v-1c-1.67-1-3.34-2-5-3z" fill="#fff"/>
<path d="m548.93 1065.9c2.437 3.126 3.235 3.92 7.999 4.999-1-1.332-2-2.666-3-3.999-1.67-0.4-3.33-0.7-5-1z" fill="#fff"/>
<path d="m560.93 1071.9c1.8 2.042 0.016 0.707 3 2-1.8-2.1-0.02-0.7-3-2z" fill="#fff"/>
<path d="m567.93 1074.9c1.333 1 2.667 2 4 2.999-1.33-1-2.67-2-4-3z" fill="#fff"/>
<path d="m573.93 1078.9c2.333 1.667 4.667 3.333 6.999 5 1-0.333 2-0.667 3-1v-1c-3.34-1-6.67-2-10-3z" fill="#fff"/>
<path d="m643.92 1103.9c-0.333 0.667-0.667 1.333-1 2 1.667-0.333 3.333-0.667 5-1-1.33-0.4-2.67-0.7-4-1z" fill="#fff"/>
<path d="m650.92 1107.9c0.667 1.333 1.333 2.666 2 3.999 21.951 4.074 41.494 19.69 61.992 20.997v-1c-8.18-15.6-43.12-22-63.99-24z" fill="#fff"/>
<metadata><rdf:RDF><cc:Work><dc:format>image/svg+xml</dc:format><dc:type rdf:resource="http://purl.org/dc/dcmitype/StillImage"/><cc:license rdf:resource="http://creativecommons.org/licenses/publicdomain/"/><dc:publisher><cc:Agent rdf:about="http://openclipart.org/"><dc:title>Openclipart</dc:title></cc:Agent></dc:publisher></cc:Work><cc:License rdf:about="http://creativecommons.org/licenses/publicdomain/"><cc:permits rdf:resource="http://creativecommons.org/ns#Reproduction"/><cc:permits rdf:resource="http://creativecommons.org/ns#Distribution"/><cc:permits rdf:resource="http://creativecommons.org/ns#DerivativeWorks"/></cc:License></rdf:RDF></metadata></svg>
