<?xml version="1.0" encoding="UTF-8" standalone="no"?>
<svg width="1490px" height="1981px" viewBox="0 0 1490 1981" version="1.1" xmlns="http://www.w3.org/2000/svg" xmlns:xlink="http://www.w3.org/1999/xlink" xmlns:sketch="http://www.bohemiancoding.com/sketch/ns">
    <!-- Generator: Sketch 3.4.2 (15855) - http://www.bohemiancoding.com/sketch -->
    <title>peters</title>
    <desc>Created with Sketch.</desc>
    <defs></defs>
    <g id="Page-1" stroke="none" stroke-width="1" fill="none" fill-rule="evenodd" sketch:type="MSPage">
        <g id="KijEejxiq" sketch:type="MSLayerGroup" transform="translate(128.000000, 884.000000)">
            <path d="M1047.9,545.92 C1047.783,592.108 1103.771,657.32 1058.898,696.9 C1053.238,696.69 1052.185,695.817 1048.9,693.901 C1049.461,685.535 1053.408,678.358 1048.9,673.903 C1048.233,674.236 1047.567,674.569 1046.9,674.903 C1035.295,706.865 1067.863,734.127 1086.895,753.893 C1086.313,775.008 1068.251,776.356 1062.898,791.888 C1088.892,807.884 1114.894,823.885 1140.888,839.882 C1166.216,852.545 1191.551,865.213 1216.878,877.877 C1260.879,907.978 1348.438,1035.257 1360.858,1095.847 L707.938,1095.847 L707.938,1081.849 L706.938,1081.849 L706.938,1095.847 L697.939,1095.847 C698.603,1084.754 700.027,1075.435 697.939,1065.851 C696.606,1065.517 695.273,1065.184 693.94,1064.851 L693.94,1073.85 C694.606,1081.182 695.273,1088.516 695.94,1095.847 L689.94,1095.847 C689.732,1091.534 689.678,1091.021 687.94,1088.848 C674.878,1098.777 645.259,1096.204 621.948,1095.847 C623.316,1072.355 620.756,1061.037 597.951,1064.851 C597.078,1077.811 610.162,1082.387 613.949,1095.847 L578.953,1095.847 C549.768,1057.47 505.287,1028.944 458.973,1007.858 C447.642,1004.192 436.307,1000.525 424.977,996.859 C420.978,991.861 416.977,986.861 412.978,981.862 C409.312,982.195 405.645,982.528 401.979,982.862 C395.98,978.196 389.98,973.529 383.981,968.863 C381.314,969.196 378.648,969.53 375.982,969.863 L375.982,970.863 C389.979,990.192 403.98,1009.527 417.977,1028.855 C429.691,1027.609 434.606,1033.678 442.974,1036.854 C460.37,1043.458 477.314,1042.391 491.968,1049.853 C514.63,1064.849 537.298,1079.85 559.96,1094.847 L559.96,1095.847 L0.03,1095.847 C40.405,1003.294 90.813,920.317 166.01,862.877 C189.338,848.547 212.673,834.212 236.001,819.883 C237.607,800.051 245.461,782.483 252.999,766.889 C223.268,745.631 229.598,763.662 195.006,757.891 C193.006,756.224 191.006,754.557 189.006,752.891 C189.339,749.225 189.673,745.558 190.006,741.892 C199.772,740.837 204.565,733.179 209.004,726.894 L209.004,723.895 C188.24,724.746 155.049,709.402 160.01,693.899 L173.009,693.899 C175.887,702.091 190.294,706.484 197.006,698.898 C188.31,680.175 175.861,611.024 197.006,596.908 C203.32,605.443 196.211,625.659 205.005,631.904 C210.179,635.26 222.269,632.906 228.002,631.904 C237.354,590.927 219.519,553.509 235.001,515.914 C214.701,511.43 212.242,494.738 202.005,480.919 C202.672,476.253 203.338,471.586 204.005,466.92 C204.672,466.587 205.338,466.253 206.005,465.92 C215.534,468.434 218.532,473.792 225.003,478.919 C234.875,478.783 239.407,475.912 245,471.92 C244,470.587 243,469.253 242,467.92 C196.476,454.243 207.378,373.811 230.001,343.94 C230.668,344.273 231.334,344.607 232.001,344.94 C235.57,377.932 233.128,402.323 248.999,422.93 C268.122,422.141 292.788,407.03 296.993,391.934 C299.518,382.869 292.334,371.948 295.993,361.938 C300.325,356.939 304.659,351.939 308.991,346.94 C304.658,340.941 300.325,334.941 295.993,328.942 C293.03,319.647 300.19,316.771 294.993,310.944 C288.548,314.738 283.258,321.985 278.994,327.942 C277.994,326.275 276.994,324.609 275.995,322.942 C277.325,319.647 314.606,274.549 315.99,273.948 C315.657,272.615 315.323,271.281 314.99,269.948 C302.011,270.422 295.41,276.275 284.993,278.947 C290.582,249.872 323.413,232.185 362.983,240.952 C382.99,245.385 403.231,258.744 424.975,243.952 C427.14,241.835 426.968,240.509 426.975,235.953 C408.963,190.875 435.045,131.093 454.971,105.973 C503.346,44.986 555.451,0.993 665.941,0.983 L720.934,0.983 C760.11,8.287 806.757,7.972 839.914,22.981 C866.631,35.072 877.145,54.406 893.907,75.974 C933.242,126.585 994.787,188.234 975.897,287.944 C989.685,298.602 995.075,301.211 1016.892,301.942 L1016.892,305.942 C1009.828,311.078 999.669,313.019 992.895,317.941 C999.069,328.723 1015.367,346.54 1033.889,334.939 C1038.367,332.135 1039.511,326.529 1045.888,324.94 C1058.766,321.732 1078.739,324.429 1081.884,332.939 C1050.956,330.481 1050.238,351.73 1035.889,367.935 C1029.949,374.645 1021.451,374.282 1018.892,384.933 C1019.558,385.6 1020.225,386.266 1020.891,386.933 C1036.681,386.71 1049.251,394.772 1054.887,404.931 C1053.887,406.931 1052.887,408.931 1051.887,410.93 C1045.889,410.597 1039.888,410.263 1033.889,409.93 C1033.556,410.597 1033.223,411.263 1032.89,411.93 C1038.066,429.459 1030.949,439.02 1026.89,452.925 C1036.889,460.358 1042.046,459.851 1057.886,458.924 C1060.22,455.924 1062.553,452.924 1064.886,449.925 C1090.082,450.055 1137.673,461.182 1145.875,478.921 C1145.209,479.588 1144.542,480.254 1143.876,480.921 C1131.113,482.951 1102.135,480.958 1097.882,491.92 C1104.214,493.253 1110.547,494.587 1116.879,495.92 C1117.212,496.587 1117.546,497.253 1117.879,497.919 C1117.546,499.919 1117.212,501.919 1116.879,503.919 C1108.214,504.585 1099.547,505.252 1090.882,505.919 C1094.047,520.757 1086.388,525.317 1075.884,529.915 C1077.55,534.915 1079.217,539.915 1080.884,544.913 C1080.217,545.247 1079.55,545.58 1078.884,545.913 C1068.484,545.953 1058.184,545.953 1047.884,545.953 L1047.9,545.92 Z" id="Shape" stroke="#000000" fill="#000000" sketch:type="MSShapeGroup"></path>
            <path d="M622.91,99.97 C617.911,104.969 612.91,109.97 607.911,114.968 C603.245,115.301 598.578,115.635 593.913,115.968 C597.549,124.085 602.925,128.527 607.911,134.966 C606.352,141.157 603.411,143.266 604.911,149.964 L605.911,149.964 C620.236,146.315 630.284,152.814 644.906,153.964 L644.906,150.964 C641.906,146.965 638.906,142.964 635.907,138.965 C638.451,130.921 648.394,125.483 653.905,119.967 L653.905,118.967 C646.24,116.967 638.572,114.967 630.907,112.968 C626.417,109.388 628.657,103.008 622.917,99.968 L622.91,99.97 Z" id="Shape" fill="#FFFFFF" sketch:type="MSShapeGroup"></path>
            <path d="M438.93,222.96 C439.93,225.626 440.93,228.293 441.93,230.959 L442.93,230.959 C443.263,229.959 443.597,228.959 443.93,227.959 C442.16,224.959 442.18,224.619 438.93,222.959 L438.93,222.96 Z" id="Shape" fill="#FFFFFF" sketch:type="MSShapeGroup"></path>
            <path d="M535.92,226.96 C525.255,229.96 514.588,232.96 503.924,235.959 L503.924,236.959 C522.127,237.702 548.058,241.541 561.917,248.958 C560.314,256.527 557.019,254.617 552.918,258.957 C548.433,269.819 556.393,285.343 557.918,295.953 C569.91,293.337 585.928,298.8 594.914,297.953 C596.247,293.287 597.581,288.62 598.914,283.955 C595.78,274.973 593.478,274.557 583.916,271.956 C584.249,268.957 584.583,265.956 584.916,262.957 C585.583,261.624 586.249,260.29 586.916,258.957 C596.839,259.201 596.752,262.621 601.914,266.956 C625.4,260.347 702.814,253.846 728.894,262.956 C744.132,268.278 749.915,282.379 760.89,291.953 C776.22,284.621 791.555,277.287 806.885,269.956 C806.551,268.956 806.218,267.956 805.885,266.956 C804.885,265.623 803.885,264.29 802.885,262.956 C755.119,252.623 704.318,249.223 652.905,239.959 C615.575,233.229 574.795,227.229 535.925,226.959 L535.92,226.96 Z" id="Shape" fill="#FFFFFF" sketch:type="MSShapeGroup"></path>
            <path d="M466.93,233.96 C466.264,234.293 465.597,234.627 464.93,234.96 L464.93,235.96 L464.93,236.96 L470.93,236.96 C470.597,236.293 470.263,235.627 469.93,234.96 C468.93,234.62 467.93,234.29 466.93,233.96 L466.93,233.96 Z" id="Shape" fill="#FFFFFF" sketch:type="MSShapeGroup"></path>
            <path d="M870.88,246.96 C829.556,267.622 788.22,288.29 746.9,308.952 C769.81,308.705 784.313,294.595 798.894,284.955 C809.906,277.674 877.821,249.532 894.881,253.959 C899.521,255.162 901.069,259.497 906.88,260.958 L906.88,259.958 C900.58,248.598 889.26,246.358 870.86,246.968 L870.88,246.96 Z" id="Shape" fill="#FFFFFF" sketch:type="MSShapeGroup"></path>
            <path d="M474.93,248.96 C460.378,257.089 442.338,259.9 431.936,271.957 C414.967,291.624 414.774,351.344 438.935,362.946 C452.267,366.332 465.897,351.914 477.93,347.948 C490.269,343.88 526.448,350.08 528.923,348.948 C534.219,346.525 548.446,308.224 543.922,293.955 C535.772,268.295 506.932,250.755 474.922,248.955 L474.93,248.96 Z" id="Shape" fill="#FFFFFF" sketch:type="MSShapeGroup"></path>
            <path d="M898.9,265.95 C876.478,274.705 860.077,293.767 876.903,319.943 C880.569,324.609 884.235,329.276 887.901,333.941 L884.901,346.94 C878.796,375.723 891.735,392.902 915.898,395.934 C914.565,393.934 913.231,391.934 911.899,389.935 C870.585,372.168 908.581,302.823 932.895,293.947 L935.895,303.946 C936.228,303.279 936.562,302.613 936.895,301.946 C938.228,299.946 939.561,297.946 940.895,295.947 C938.795,277.907 920.495,265.307 898.895,265.957 L898.9,265.95 Z" id="Shape" fill="#FFFFFF" sketch:type="MSShapeGroup"></path>
            <path d="M332.94,274.95 C328.607,279.616 324.274,284.283 319.941,288.949 L319.941,289.949 C328.051,288.697 339.025,283.957 343.938,278.95 C343.271,278.617 342.605,278.283 341.938,277.95 C339.338,275.43 338.308,275.13 332.938,274.95 L332.94,274.95 Z" id="Shape" fill="#FFFFFF" sketch:type="MSShapeGroup"></path>
            <path d="M698.9,277.95 C697.567,278.283 696.234,278.617 694.901,278.95 L694.901,279.95 C717.021,284.605 737.711,304.222 741.895,326.944 C740.562,340.608 739.228,354.275 737.896,367.939 L737.896,365.939 C768.126,327.579 726.836,287.499 698.906,277.949 L698.9,277.95 Z" id="Shape" fill="#FFFFFF" sketch:type="MSShapeGroup"></path>
            <path d="M643.91,279.95 C626.71,289.933 609.431,300.874 608.914,320.945 C606.914,321.278 604.914,321.612 602.915,321.945 C602.217,334.941 594.443,353.518 598.915,364.94 C611.163,396.222 646.719,415.688 688.904,401.936 C700.521,398.148 711.511,394.723 717.9,385.938 C744.756,349.005 717.81,300.875 688.904,288.95 C678.483,284.651 651.785,286.836 645.909,281.95 C646.576,281.284 647.242,280.617 647.909,279.95 L643.919,279.95 L643.91,279.95 Z" id="Shape" fill="#FFFFFF" sketch:type="MSShapeGroup"></path>
            <path d="M440.93,289.95 C454.728,290.203 461.58,299.316 461.928,312.947 C459.768,317.418 457.227,323.439 452.929,325.946 C444.698,330.566 434.273,326.856 428.932,322.946 C426.208,313.015 428.244,301.782 432.932,293.95 C435.602,292.62 438.262,291.28 440.932,289.95 L440.93,289.95 Z" id="Shape" stroke="#000000" fill="#000000" sketch:type="MSShapeGroup"></path>
            <path d="M307.95,305.95 C308.283,307.617 308.617,309.283 308.95,310.95 L309.95,310.95 L309.95,305.95 L307.95,305.95 L307.95,305.95 Z" id="Shape" fill="#FFFFFF" sketch:type="MSShapeGroup"></path>
            <path d="M604.91,722.9 C605.243,720.9 605.577,718.9 605.91,716.901 C606.577,715.568 607.243,714.234 607.91,712.901 C613.736,713.357 614.98,713.701 618.909,711.901 C622.242,700.571 625.575,689.236 628.908,677.905 C629.908,678.572 630.908,679.239 631.908,679.905 C633.736,686.72 637.176,700.506 642.907,703.902 C640.506,694.153 650.483,687.226 655.905,681.905 C655.619,655.962 626.663,645.155 620.909,621.913 C637.852,623.466 649.287,632.435 661.904,638.91 C661.238,626.247 660.571,613.579 659.904,600.915 C671.629,599.486 678.76,604.238 685.901,610.914 C689.9,609.914 693.901,608.914 697.899,607.914 L698.899,608.914 C698.011,616.876 695.499,614.858 693.9,621.913 C696.733,627.263 697.889,630.229 698.899,635.911 L704.899,635.911 C708.898,632.912 712.898,629.912 716.897,626.912 C720.724,628.233 718.977,626.91 720.897,629.912 C725.93,643.114 713.863,655.272 718.897,668.906 C722.896,673.905 726.897,678.906 730.895,683.905 L731.895,683.905 C732.895,681.239 733.895,678.572 734.895,675.906 C745.893,674.906 756.893,673.906 767.891,672.906 L767.891,665.907 L764.891,665.907 L736.895,665.907 L736.895,664.907 C737.561,664.24 738.228,663.574 738.895,662.908 C741.51,658.047 785.702,628.458 788.888,628.912 C800.026,631.107 796.915,641.739 793.887,649.909 C794.887,649.243 795.887,648.576 796.887,647.91 C796.887,647.91 826.707,627.883 827.883,639.91 L827.883,637.91 C832.151,634.008 836.223,628.308 837.882,621.913 L832.882,621.913 C831.882,621.58 830.882,621.246 829.883,620.913 L829.883,615.914 C812.753,615.293 809.69,598.405 803.886,586.917 C811.325,574.547 832.939,573.306 850.88,571.919 C857.211,553.409 871.465,538.03 874.877,516.926 C866.658,516.174 836.485,509.865 829.883,505.928 L829.883,504.928 L829.883,501.928 C837.078,497.06 844.723,494.336 856.879,493.929 C859.212,489.263 861.545,484.596 863.878,479.931 C861.545,478.931 859.212,477.931 856.879,476.931 C857.57,458.368 871.343,456.483 867.878,435.936 C846.572,434.754 813.428,401.832 818.884,374.943 C821.028,364.379 828.598,355.423 830.882,346.947 C831.216,345.947 831.549,344.947 831.882,343.947 C820.885,331.617 809.884,319.282 798.887,306.952 C793.555,308.618 788.221,310.285 782.889,311.952 C782.555,316.285 782.222,320.618 781.889,324.951 C778.889,326.284 775.889,327.617 772.89,328.95 C779.862,347.056 765.344,355.238 759.892,367.945 C757.892,374.611 755.892,381.278 753.893,387.943 C741.895,393.275 729.895,398.609 717.897,403.941 C707.745,410.771 701.699,421.908 687.901,425.939 C641.695,439.436 599.346,401.763 583.911,375.945 C574.366,359.976 580.466,330.35 582.911,312.953 C581.911,312.62 580.911,312.286 579.911,311.953 C573.565,306.567 564.844,310.61 556.913,311.953 C556.037,319.366 552.963,334.454 547.914,337.95 C550.247,343.949 552.58,349.949 554.913,355.948 L551.913,362.947 C553.082,368.335 559.354,371.569 560.912,378.945 C560.245,379.278 559.579,379.612 558.912,379.945 C531.361,363.934 466.191,349.433 444.922,383.945 C440.319,391.416 443.137,400.007 441.922,407.942 L442.922,408.942 C455.667,403.561 458.368,413.617 464.92,419.941 L465.92,419.941 C465.981,413.451 466.525,412.747 469.92,409.942 C487.678,418.512 516.325,440.542 546.91,428.94 C554.985,425.877 553.272,416.416 565.908,414.941 C566.241,415.941 566.575,416.941 566.908,417.941 C570.016,423.487 574.405,441.56 573.907,444.938 C572.24,445.271 570.574,445.605 568.907,445.938 C565.908,443.605 562.907,441.272 559.908,438.939 C559.241,443.272 558.575,447.605 557.908,451.938 C551.349,451.604 542.474,451.185 538.91,453.938 L538.91,454.938 C547.831,456.711 545.88,462.648 551.909,465.937 C562.573,469.603 573.241,473.27 583.905,476.936 C614.64,492.103 640.653,513.14 659.895,539.928 C668.848,552.392 684.589,575.907 672.894,595.921 C671.894,596.254 670.894,596.587 669.894,596.921 C668.894,596.587 667.894,596.254 666.894,595.921 C654.449,547.113 616.297,522.733 577.905,499.933 C562.973,491.066 523.24,482.056 520.912,461.938 C523.652,458.732 525.712,456.685 528.911,453.939 L528.911,452.939 C504.202,448.809 477.672,447.922 453.921,443.94 C448.767,460.044 438.427,463.578 423.924,469.937 C424.257,470.937 424.591,471.937 424.924,472.937 C426.257,474.27 427.591,475.604 428.924,476.936 C472.937,471.456 518.526,477.223 538.914,503.933 L538.914,505.933 C537.914,506.266 536.914,506.599 535.914,506.933 C518.991,513.546 502.555,497.93 490.919,493.934 C460.431,483.464 419.898,488.119 398.931,502.933 C402.264,506.265 405.597,509.599 408.93,512.932 C425.593,547.788 434.3,555.38 419.929,601.92 C401.478,607.993 374.784,622.885 371.935,643.915 C374.601,652.913 377.268,661.914 379.934,670.911 C384.95,672.117 388.549,677.081 392.933,677.91 C399.351,679.126 407.04,675.026 412.93,675.911 C413.672,679.407 413.879,679.286 411.93,681.91 C409.175,686.309 404.072,688.993 398.932,690.909 C399.265,691.576 399.599,692.242 399.932,692.909 C414.585,694.693 422.446,687.43 436.927,689.909 C438.927,692.909 440.927,695.909 442.926,698.908 C450.607,698.388 453.472,695.018 458.925,693.909 C467.17,692.23 467.844,697.538 471.923,698.908 C481.921,697.575 491.922,696.241 501.92,694.909 L501.92,696.908 C504.679,701.692 503.153,704.466 500.92,708.906 C502.292,710.803 501.893,710.543 503.92,711.906 C514.398,716.583 521.195,715.469 530.917,713.906 C536.848,726.017 552.083,723.96 562.913,730.903 C563.58,733.57 564.246,736.237 564.913,738.902 L566.913,738.902 L566.913,727.904 C564.167,723.941 563.227,724.435 562.913,719.905 C564.835,718.513 563.512,719.803 564.913,717.906 C574.054,716.432 577.428,717.862 582.911,721.905 C584.566,717.003 584.696,716.446 590.91,715.906 C593.25,721.596 596.82,722.936 604.88,722.866 L604.91,722.9 Z" id="Shape" fill="#FFFFFF" sketch:type="MSShapeGroup"></path>
            <path d="M415.93,567.92 C412.597,567.586 409.264,567.253 405.931,566.92 C405.598,565.254 405.264,563.586 404.931,561.92 C405.931,561.254 406.931,560.587 407.931,559.92 C409.93,560.254 411.931,560.587 413.93,560.92 C414.013,528.537 387.783,524.159 384.933,498.928 C391.666,486.438 406.174,487.728 414.93,477.931 C414.263,476.931 413.597,475.931 412.93,474.931 C406.687,473.394 404.126,471.081 399.932,467.932 C372.254,469.899 374.194,493.819 350.938,495.929 L350.938,493.929 C347.9,485.643 353.633,480.737 356.938,475.931 C376.267,447.824 402.338,447.072 439.928,438.935 C440.261,438.268 440.594,437.602 440.928,436.935 C435.623,426.116 430.977,419.002 424.93,409.938 C427.93,399.94 430.93,389.939 433.929,379.941 C418.343,363.987 406.692,343.748 400.933,317.949 C357.116,350.448 328.441,331.019 308.944,394.94 C305.132,407.437 294.681,418.631 292.946,431.935 C296.363,435.276 298.322,437.309 296.946,442.934 C289.821,443.591 286.472,446.832 282.947,450.933 L282.947,451.933 C291.651,452.864 292.555,456.918 295.946,462.932 C293.946,465.265 291.946,467.599 289.946,469.931 C281.364,471.616 277.165,476.201 275.948,484.929 C278.614,483.929 281.281,482.929 283.947,481.929 C287.905,484.181 288.772,484.671 289.947,489.928 C279.39,497.456 285.617,504.561 278.948,511.926 C273.627,517.802 262.997,520.803 258.951,527.923 C257.284,537.588 255.618,547.255 253.951,556.92 C249.238,558.046 245.218,559.11 242.952,562.919 C236.991,577.284 243.303,590.585 246.952,599.914 C234.373,607.313 245.98,634.717 249.952,640.909 C248.285,643.575 246.619,646.242 244.952,648.908 C246.926,659.801 252.02,668.44 254.951,676.904 C265.944,708.653 269.918,761.161 274.949,798.884 C272.616,799.218 270.282,799.55 267.95,799.884 C282.856,839.127 338.505,921.344 381.93,925.864 L381.93,924.864 C379.833,919.173 379.772,910.286 379.93,901.867 C369.033,904.058 343.687,898.982 332.936,892.868 C331.157,886.872 330.993,885.692 333.936,880.87 C343.155,881.569 349.236,885.404 356.934,881.87 C357.601,877.204 358.267,872.537 358.934,867.871 C277.18,844.449 279.845,753.351 263.946,667.891 C260.06,647.007 249.33,586.556 263.946,573.903 L264.946,573.903 C277.652,625.244 293.26,675.353 324.939,707.883 C328.863,705.103 329.581,703.994 336.938,703.884 C342.612,711.864 349.825,717.369 357.936,722.882 C375.074,723.436 383.404,719.439 391.932,711.883 C390.932,710.55 389.932,709.216 388.932,707.883 C353.043,699.133 354.308,649.022 370.934,621.895 C376.6,615.563 382.267,609.229 387.932,602.897 C385.707,596.96 384.44,597.167 389.932,592.898 C391.856,589.709 400.662,578.901 403.931,576.9 C407.816,574.093 413.254,576.095 414.93,574.9 C415.27,572.56 415.6,570.23 415.93,567.9 L415.93,567.92 Z" id="Shape" fill="#FFFFFF" sketch:type="MSShapeGroup"></path>
            <path d="M624.91,317.95 C635.416,318.012 640.826,321.666 646.907,325.949 L649.907,338.948 C647.808,343.807 646.729,346.671 641.908,348.947 C632.026,352.166 621.325,348.63 617.911,341.948 C617.244,338.282 616.578,334.615 615.911,330.949 C618.911,326.609 621.911,322.279 624.911,317.949 L624.91,317.95 Z" id="Shape" stroke="#000000" fill="#000000" sketch:type="MSShapeGroup"></path>
            <path d="M458.93,406.94 C463.242,407.148 463.756,407.203 465.929,408.94 C461.519,408.82 460.989,409.03 458.929,406.94 L458.93,406.94 Z" id="Shape" stroke="#000000" fill="#FFFFFF" sketch:type="MSShapeGroup"></path>
            <path d="M1023.9,411.94 C1022.233,412.94 1020.567,413.94 1018.901,414.94 C1018.097,420.709 1017.541,424.233 1020.9,427.939 L1021.9,427.939 C1023.7,422.019 1028.9,415.439 1023.9,411.939 L1023.9,411.94 Z" id="Shape" fill="#FFFFFF" sketch:type="MSShapeGroup"></path>
            <path d="M908.9,412.94 C908.233,415.273 907.566,417.607 906.9,419.939 C910.726,418.618 908.979,419.94 910.9,416.939 C910.7,413.469 912.7,415.179 908.9,412.939 L908.9,412.94 Z" id="Shape" fill="#FFFFFF" sketch:type="MSShapeGroup"></path>
            <path d="M267.95,503.92 C267.283,504.92 266.617,505.92 265.95,506.92 L265.95,507.919 L270.949,507.919 C269.629,504.099 270.949,505.839 267.949,503.919 L267.95,503.92 Z" id="Shape" fill="#FFFFFF" sketch:type="MSShapeGroup"></path>
            <path d="M274.95,521.92 C282.398,526.436 281.736,543.097 270.95,543.916 L270.95,541.917 C267.023,535.558 269.885,527.741 272.95,522.92 C273.62,522.59 274.28,522.26 274.95,521.92 L274.95,521.92 Z" id="Shape" stroke="#000000" fill="#000000" sketch:type="MSShapeGroup"></path>
            <path d="M290.95,544.92 C290.617,546.92 290.283,548.92 289.95,550.92 L287.95,550.92 C284.946,553.321 282.956,553.347 279.951,550.92 C282.541,546.28 283.661,545.08 290.951,544.92 L290.95,544.92 Z" id="Shape" stroke="#000000" fill="#000000" sketch:type="MSShapeGroup"></path>
            <path d="M401.94,548.92 C405.273,550.253 408.607,551.587 411.939,552.92 L411.939,553.92 C411.273,554.253 410.606,554.586 409.939,554.919 C408.272,555.253 406.606,555.586 404.939,555.919 C402.989,553.269 402.679,553.469 401.939,548.919 L401.94,548.92 Z" id="Shape" stroke="#000000" fill="#000000" sketch:type="MSShapeGroup"></path>
            <path d="M815.88,622.91 C821.552,622.962 822.274,623.181 824.878,625.909 C822.303,633.507 818.276,634.214 808.88,633.908 L808.88,630.909 C811.22,628.239 813.55,625.569 815.88,622.909 L815.88,622.91 Z" id="Shape" stroke="#000000" fill="#000000" sketch:type="MSShapeGroup"></path>
            <path d="M773.89,645.91 L763.891,652.909 L765.891,652.909 L765.891,653.909 C767.557,653.576 769.224,653.242 770.89,652.909 C771.89,650.569 772.89,648.239 773.89,645.909 L773.89,645.91 Z" id="Shape" fill="#FFFFFF" sketch:type="MSShapeGroup"></path>
            <path d="M393.94,659.9 C400.395,662.748 401.062,665.728 395.94,669.898 C393.94,669.232 391.94,668.566 389.94,667.899 L389.94,663.9 C390.607,662.9 391.273,661.9 391.94,660.9 C392.6,660.57 393.27,660.24 393.94,659.9 L393.94,659.9 Z" id="Shape" stroke="#000000" fill="#000000" sketch:type="MSShapeGroup"></path>
            <path d="M578.91,705.9 C582.243,706.233 585.576,706.566 588.909,706.9 L588.909,707.899 C588.576,709.232 588.242,710.566 587.909,711.899 C584.243,712.232 580.576,712.566 576.91,712.899 C576.577,711.566 576.243,710.232 575.91,708.899 L578.91,705.899 L578.91,705.9 Z" id="Shape" stroke="#000000" fill="#000000" sketch:type="MSShapeGroup"></path>
            <path d="M451.93,711.9 C443.265,712.567 434.598,713.233 425.933,713.9 L425.933,714.9 C446.929,718.899 467.93,722.899 488.925,726.898 C497.923,734.896 506.924,742.897 515.922,750.895 C552.858,773.558 608.072,772.251 630.902,736.897 C615.204,743.428 603.086,755.025 583.908,758.894 C519.898,771.804 511.578,712.324 451.928,711.894 L451.93,711.9 Z" id="Shape" fill="#FFFFFF" sketch:type="MSShapeGroup"></path>
            <path d="M549.92,712.9 C552.253,713.567 554.587,714.233 556.919,714.9 C556.586,717.233 556.252,719.566 555.919,721.899 L554.919,721.899 C552.586,721.233 550.252,720.566 547.92,719.899 C547.587,718.233 547.253,716.566 546.92,714.9 C547.92,714.23 548.92,713.56 549.92,712.9 L549.92,712.9 Z" id="Shape" stroke="#000000" fill="#000000" sketch:type="MSShapeGroup"></path>
            <path d="M929.9,783.89 C928.233,794.221 926.567,804.555 924.901,814.886 C916.26,832.119 894.427,838.46 882.906,852.881 C873.719,864.381 870.709,881.869 865.908,897.876 L861.908,897.876 C857.639,893.453 853.613,884.508 847.911,881.878 C840.593,900.782 820.495,911.19 812.915,927.872 C812.249,931.537 811.581,935.204 810.915,938.87 C803.603,946.619 795.653,949.074 784.919,953.868 C785.252,954.535 785.585,955.202 785.919,955.868 C807.495,965.053 841.43,970.581 859.909,951.869 C858.536,949.972 858.935,950.232 856.909,948.869 C842.119,944.098 838.613,949.082 825.913,939.87 C824.628,917.893 832.923,914.186 839.911,897.876 C847.538,897.115 852.048,899.651 858.909,901.875 C860.051,905.544 861.834,911.763 864.908,913.873 C867.241,914.54 869.574,915.207 871.907,915.873 C873.573,903.543 875.24,891.208 876.907,878.878 C881.905,875.545 886.906,872.211 891.905,868.879 C906.105,857.619 941.405,812.099 929.905,783.869 L929.9,783.89 Z" id="Shape" fill="#FFFFFF" sketch:type="MSShapeGroup"></path>
            <path d="M1169.8,891.88 C1127.691,916.357 1096.036,981.238 1073.812,1031.86 C1066.245,1049.099 1051.955,1069.123 1050.816,1090.853 C1051.815,1091.519 1052.815,1092.186 1053.815,1092.853 C1054.815,1093.186 1055.815,1093.519 1056.814,1093.853 C1091.335,1042.65 1094.467,966.353 1159.804,945.873 C1160.803,943.207 1161.804,940.54 1162.803,937.874 C1157.995,936.688 1157.88,936.936 1156.804,931.875 C1158.804,928.542 1160.804,925.209 1162.803,921.877 L1172.802,921.877 C1171.564,915.923 1170.979,915.768 1175.802,911.877 C1178.134,914.544 1180.468,917.211 1182.8,919.877 L1182.8,922.876 C1177.779,923.702 1176.391,922.983 1174.802,927.876 C1179.134,926.209 1183.468,924.542 1187.8,922.876 C1188.133,921.21 1188.466,919.543 1188.8,917.877 C1185.757,912.987 1181.882,912.481 1177.801,908.878 C1179.157,902.951 1180.786,899.264 1185.8,896.88 C1185.134,896.213 1184.467,895.546 1183.8,894.88 C1177.8,895.77 1177.4,892.75 1169.8,891.86 L1169.8,891.88 Z" id="Shape" fill="#FFFFFF" sketch:type="MSShapeGroup"></path>
            <path d="M1201.8,912.9 C1200.467,915.233 1199.133,917.567 1197.8,919.9 L1201.8,919.9 C1202.8,917.567 1203.8,915.233 1204.8,912.9 L1201.8,912.9 L1201.8,912.9 Z" id="Shape" fill="#FFFFFF" sketch:type="MSShapeGroup"></path>
            <path d="M1072.9,914.9 C1069.568,916.233 1066.234,917.567 1062.902,918.9 C1060.902,923.232 1058.902,927.565 1056.902,931.898 C1057.236,932.564 1057.569,933.231 1057.902,933.898 C1060.236,933.564 1062.569,933.231 1064.902,932.898 C1065.943,921.893 1071.923,923.097 1074.9,914.9 L1072.9,914.9 L1072.9,914.9 Z" id="Shape" fill="#FFFFFF" sketch:type="MSShapeGroup"></path>
            <path d="M1084.9,922.9 C1083.9,925.566 1082.9,928.233 1081.901,930.899 C1088.501,931.112 1090.928,932.238 1093.899,935.898 C1088.274,960.444 1066.274,989.875 1062.903,1013.889 L1063.903,1013.889 C1064.569,1013.555 1065.236,1013.222 1065.903,1012.889 C1077.669,986.22 1108.194,964.413 1110.897,929.9 C1102.197,927.5 1093.497,925.2 1084.897,922.9 L1084.9,922.9 Z" id="Shape" fill="#FFFFFF" sketch:type="MSShapeGroup"></path>
            <path d="M777.89,948.9 C777.557,946.9 777.224,944.9 776.89,942.9 C773.225,943.567 769.558,944.234 765.892,944.9 C747.367,978.347 731.035,997.936 774.891,1016.891 C774.558,1018.558 774.224,1020.224 773.891,1021.891 C743.065,1035.479 708.297,1039.837 694.901,1005.892 C690.961,995.909 692.001,985.339 686.902,977.896 C683.051,976.175 680.976,973.742 676.903,974.896 C681.641,978.367 686.167,979.22 688.902,984.895 C689.568,993.893 690.235,1002.894 690.902,1011.892 C693.807,1019.554 706.652,1027.647 711.9,1034.889 C749.159,1038.216 793.825,1033.599 801.888,1002.893 C786.094,1004.057 778.446,1010.988 759.894,1006.892 C747.244,990.674 756.563,959.127 770.892,948.9 L777.882,948.9 L777.89,948.9 Z" id="Shape" fill="#FFFFFF" sketch:type="MSShapeGroup"></path>
            <path d="M413.94,945.9 C415.77,949.383 414.784,948.588 418.94,949.9 L418.94,948.9 C417.27,947.9 415.6,946.9 413.94,945.9 L413.94,945.9 Z" id="Shape" fill="#FFFFFF" sketch:type="MSShapeGroup"></path>
            <path d="M439.93,961.9 C442.367,965.026 443.165,965.82 447.929,966.899 C446.929,965.567 445.929,964.233 444.929,962.9 C443.259,962.5 441.599,962.2 439.929,961.9 L439.93,961.9 Z" id="Shape" fill="#FFFFFF" sketch:type="MSShapeGroup"></path>
            <path d="M451.93,967.9 C453.73,969.942 451.946,968.607 454.93,969.9 C453.13,967.8 454.91,969.2 451.93,967.9 L451.93,967.9 Z" id="Shape" fill="#FFFFFF" sketch:type="MSShapeGroup"></path>
            <path d="M458.93,970.9 C460.263,971.9 461.597,972.9 462.93,973.899 C461.6,972.899 460.26,971.899 458.93,970.899 L458.93,970.9 Z" id="Shape" fill="#FFFFFF" sketch:type="MSShapeGroup"></path>
            <path d="M464.93,974.9 C467.263,976.567 469.597,978.233 471.929,979.9 C472.929,979.567 473.929,979.233 474.929,978.9 L474.929,977.9 C471.589,976.9 468.259,975.9 464.929,974.9 L464.93,974.9 Z" id="Shape" fill="#FFFFFF" sketch:type="MSShapeGroup"></path>
            <path d="M534.92,999.9 C534.587,1000.567 534.253,1001.233 533.92,1001.9 C535.587,1001.567 537.253,1001.233 538.92,1000.9 C537.59,1000.5 536.25,1000.2 534.92,999.9 L534.92,999.9 Z" id="Shape" fill="#FFFFFF" sketch:type="MSShapeGroup"></path>
            <path d="M541.92,1003.9 C542.587,1005.233 543.253,1006.566 543.92,1007.899 C565.871,1011.973 585.414,1027.589 605.912,1028.896 L605.912,1027.896 C597.732,1012.296 562.792,1005.896 541.922,1003.896 L541.92,1003.9 Z" id="Shape" fill="#FFFFFF" sketch:type="MSShapeGroup"></path>
        </g>
        <g id="KijEejxiq" sketch:type="MSLayerGroup" transform="translate(681.500000, 548.500000) rotate(-180.000000) translate(-681.500000, -548.500000) translate(1.000000, 0.000000)">
            <path d="M1047.9,545.92 C1047.783,592.108 1103.771,657.32 1058.898,696.9 C1053.238,696.69 1052.185,695.817 1048.9,693.901 C1049.461,685.535 1053.408,678.358 1048.9,673.903 C1048.233,674.236 1047.567,674.569 1046.9,674.903 C1035.295,706.865 1067.863,734.127 1086.895,753.893 C1086.313,775.008 1068.251,776.356 1062.898,791.888 C1088.892,807.884 1114.894,823.885 1140.888,839.882 C1166.216,852.545 1191.551,865.213 1216.878,877.877 C1260.879,907.978 1348.438,1035.257 1360.858,1095.847 L707.938,1095.847 L707.938,1081.849 L706.938,1081.849 L706.938,1095.847 L697.939,1095.847 C698.603,1084.754 700.027,1075.435 697.939,1065.851 C696.606,1065.517 695.273,1065.184 693.94,1064.851 L693.94,1073.85 C694.606,1081.182 695.273,1088.516 695.94,1095.847 L689.94,1095.847 C689.732,1091.534 689.678,1091.021 687.94,1088.848 C674.878,1098.777 645.259,1096.204 621.948,1095.847 C623.316,1072.355 620.756,1061.037 597.951,1064.851 C597.078,1077.811 610.162,1082.387 613.949,1095.847 L578.953,1095.847 C549.768,1057.47 505.287,1028.944 458.973,1007.858 C447.642,1004.192 436.307,1000.525 424.977,996.859 C420.978,991.861 416.977,986.861 412.978,981.862 C409.312,982.195 405.645,982.528 401.979,982.862 C395.98,978.196 389.98,973.529 383.981,968.863 C381.314,969.196 378.648,969.53 375.982,969.863 L375.982,970.863 C389.979,990.192 403.98,1009.527 417.977,1028.855 C429.691,1027.609 434.606,1033.678 442.974,1036.854 C460.37,1043.458 477.314,1042.391 491.968,1049.853 C514.63,1064.849 537.298,1079.85 559.96,1094.847 L559.96,1095.847 L0.03,1095.847 C40.405,1003.294 90.813,920.317 166.01,862.877 C189.338,848.547 212.673,834.212 236.001,819.883 C237.607,800.051 245.461,782.483 252.999,766.889 C223.268,745.631 229.598,763.662 195.006,757.891 C193.006,756.224 191.006,754.557 189.006,752.891 C189.339,749.225 189.673,745.558 190.006,741.892 C199.772,740.837 204.565,733.179 209.004,726.894 L209.004,723.895 C188.24,724.746 155.049,709.402 160.01,693.899 L173.009,693.899 C175.887,702.091 190.294,706.484 197.006,698.898 C188.31,680.175 175.861,611.024 197.006,596.908 C203.32,605.443 196.211,625.659 205.005,631.904 C210.179,635.26 222.269,632.906 228.002,631.904 C237.354,590.927 219.519,553.509 235.001,515.914 C214.701,511.43 212.242,494.738 202.005,480.919 C202.672,476.253 203.338,471.586 204.005,466.92 C204.672,466.587 205.338,466.253 206.005,465.92 C215.534,468.434 218.532,473.792 225.003,478.919 C234.875,478.783 239.407,475.912 245,471.92 C244,470.587 243,469.253 242,467.92 C196.476,454.243 207.378,373.811 230.001,343.94 C230.668,344.273 231.334,344.607 232.001,344.94 C235.57,377.932 233.128,402.323 248.999,422.93 C268.122,422.141 292.788,407.03 296.993,391.934 C299.518,382.869 292.334,371.948 295.993,361.938 C300.325,356.939 304.659,351.939 308.991,346.94 C304.658,340.941 300.325,334.941 295.993,328.942 C293.03,319.647 300.19,316.771 294.993,310.944 C288.548,314.738 283.258,321.985 278.994,327.942 C277.994,326.275 276.994,324.609 275.995,322.942 C277.325,319.647 314.606,274.549 315.99,273.948 C315.657,272.615 315.323,271.281 314.99,269.948 C302.011,270.422 295.41,276.275 284.993,278.947 C290.582,249.872 323.413,232.185 362.983,240.952 C382.99,245.385 403.231,258.744 424.975,243.952 C427.14,241.835 426.968,240.509 426.975,235.953 C408.963,190.875 435.045,131.093 454.971,105.973 C503.346,44.986 555.451,0.993 665.941,0.983 L720.934,0.983 C760.11,8.287 806.757,7.972 839.914,22.981 C866.631,35.072 877.145,54.406 893.907,75.974 C933.242,126.585 994.787,188.234 975.897,287.944 C989.685,298.602 995.075,301.211 1016.892,301.942 L1016.892,305.942 C1009.828,311.078 999.669,313.019 992.895,317.941 C999.069,328.723 1015.367,346.54 1033.889,334.939 C1038.367,332.135 1039.511,326.529 1045.888,324.94 C1058.766,321.732 1078.739,324.429 1081.884,332.939 C1050.956,330.481 1050.238,351.73 1035.889,367.935 C1029.949,374.645 1021.451,374.282 1018.892,384.933 C1019.558,385.6 1020.225,386.266 1020.891,386.933 C1036.681,386.71 1049.251,394.772 1054.887,404.931 C1053.887,406.931 1052.887,408.931 1051.887,410.93 C1045.889,410.597 1039.888,410.263 1033.889,409.93 C1033.556,410.597 1033.223,411.263 1032.89,411.93 C1038.066,429.459 1030.949,439.02 1026.89,452.925 C1036.889,460.358 1042.046,459.851 1057.886,458.924 C1060.22,455.924 1062.553,452.924 1064.886,449.925 C1090.082,450.055 1137.673,461.182 1145.875,478.921 C1145.209,479.588 1144.542,480.254 1143.876,480.921 C1131.113,482.951 1102.135,480.958 1097.882,491.92 C1104.214,493.253 1110.547,494.587 1116.879,495.92 C1117.212,496.587 1117.546,497.253 1117.879,497.919 C1117.546,499.919 1117.212,501.919 1116.879,503.919 C1108.214,504.585 1099.547,505.252 1090.882,505.919 C1094.047,520.757 1086.388,525.317 1075.884,529.915 C1077.55,534.915 1079.217,539.915 1080.884,544.913 C1080.217,545.247 1079.55,545.58 1078.884,545.913 C1068.484,545.953 1058.184,545.953 1047.884,545.953 L1047.9,545.92 Z" id="Shape" stroke="#000000" fill="#000000" sketch:type="MSShapeGroup"></path>
            <path d="M622.91,99.97 C617.911,104.969 612.91,109.97 607.911,114.968 C603.245,115.301 598.578,115.635 593.913,115.968 C597.549,124.085 602.925,128.527 607.911,134.966 C606.352,141.157 603.411,143.266 604.911,149.964 L605.911,149.964 C620.236,146.315 630.284,152.814 644.906,153.964 L644.906,150.964 C641.906,146.965 638.906,142.964 635.907,138.965 C638.451,130.921 648.394,125.483 653.905,119.967 L653.905,118.967 C646.24,116.967 638.572,114.967 630.907,112.968 C626.417,109.388 628.657,103.008 622.917,99.968 L622.91,99.97 Z" id="Shape" fill="#FFFFFF" sketch:type="MSShapeGroup"></path>
            <path d="M438.93,222.96 C439.93,225.626 440.93,228.293 441.93,230.959 L442.93,230.959 C443.263,229.959 443.597,228.959 443.93,227.959 C442.16,224.959 442.18,224.619 438.93,222.959 L438.93,222.96 Z" id="Shape" fill="#FFFFFF" sketch:type="MSShapeGroup"></path>
            <path d="M535.92,226.96 C525.255,229.96 514.588,232.96 503.924,235.959 L503.924,236.959 C522.127,237.702 548.058,241.541 561.917,248.958 C560.314,256.527 557.019,254.617 552.918,258.957 C548.433,269.819 556.393,285.343 557.918,295.953 C569.91,293.337 585.928,298.8 594.914,297.953 C596.247,293.287 597.581,288.62 598.914,283.955 C595.78,274.973 593.478,274.557 583.916,271.956 C584.249,268.957 584.583,265.956 584.916,262.957 C585.583,261.624 586.249,260.29 586.916,258.957 C596.839,259.201 596.752,262.621 601.914,266.956 C625.4,260.347 702.814,253.846 728.894,262.956 C744.132,268.278 749.915,282.379 760.89,291.953 C776.22,284.621 791.555,277.287 806.885,269.956 C806.551,268.956 806.218,267.956 805.885,266.956 C804.885,265.623 803.885,264.29 802.885,262.956 C755.119,252.623 704.318,249.223 652.905,239.959 C615.575,233.229 574.795,227.229 535.925,226.959 L535.92,226.96 Z" id="Shape" fill="#FFFFFF" sketch:type="MSShapeGroup"></path>
            <path d="M466.93,233.96 C466.264,234.293 465.597,234.627 464.93,234.96 L464.93,235.96 L464.93,236.96 L470.93,236.96 C470.597,236.293 470.263,235.627 469.93,234.96 C468.93,234.62 467.93,234.29 466.93,233.96 L466.93,233.96 Z" id="Shape" fill="#FFFFFF" sketch:type="MSShapeGroup"></path>
            <path d="M870.88,246.96 C829.556,267.622 788.22,288.29 746.9,308.952 C769.81,308.705 784.313,294.595 798.894,284.955 C809.906,277.674 877.821,249.532 894.881,253.959 C899.521,255.162 901.069,259.497 906.88,260.958 L906.88,259.958 C900.58,248.598 889.26,246.358 870.86,246.968 L870.88,246.96 Z" id="Shape" fill="#FFFFFF" sketch:type="MSShapeGroup"></path>
            <path d="M474.93,248.96 C460.378,257.089 442.338,259.9 431.936,271.957 C414.967,291.624 414.774,351.344 438.935,362.946 C452.267,366.332 465.897,351.914 477.93,347.948 C490.269,343.88 526.448,350.08 528.923,348.948 C534.219,346.525 548.446,308.224 543.922,293.955 C535.772,268.295 506.932,250.755 474.922,248.955 L474.93,248.96 Z" id="Shape" fill="#FFFFFF" sketch:type="MSShapeGroup"></path>
            <path d="M898.9,265.95 C876.478,274.705 860.077,293.767 876.903,319.943 C880.569,324.609 884.235,329.276 887.901,333.941 L884.901,346.94 C878.796,375.723 891.735,392.902 915.898,395.934 C914.565,393.934 913.231,391.934 911.899,389.935 C870.585,372.168 908.581,302.823 932.895,293.947 L935.895,303.946 C936.228,303.279 936.562,302.613 936.895,301.946 C938.228,299.946 939.561,297.946 940.895,295.947 C938.795,277.907 920.495,265.307 898.895,265.957 L898.9,265.95 Z" id="Shape" fill="#FFFFFF" sketch:type="MSShapeGroup"></path>
            <path d="M332.94,274.95 C328.607,279.616 324.274,284.283 319.941,288.949 L319.941,289.949 C328.051,288.697 339.025,283.957 343.938,278.95 C343.271,278.617 342.605,278.283 341.938,277.95 C339.338,275.43 338.308,275.13 332.938,274.95 L332.94,274.95 Z" id="Shape" fill="#FFFFFF" sketch:type="MSShapeGroup"></path>
            <path d="M698.9,277.95 C697.567,278.283 696.234,278.617 694.901,278.95 L694.901,279.95 C717.021,284.605 737.711,304.222 741.895,326.944 C740.562,340.608 739.228,354.275 737.896,367.939 L737.896,365.939 C768.126,327.579 726.836,287.499 698.906,277.949 L698.9,277.95 Z" id="Shape" fill="#FFFFFF" sketch:type="MSShapeGroup"></path>
            <path d="M643.91,279.95 C626.71,289.933 609.431,300.874 608.914,320.945 C606.914,321.278 604.914,321.612 602.915,321.945 C602.217,334.941 594.443,353.518 598.915,364.94 C611.163,396.222 646.719,415.688 688.904,401.936 C700.521,398.148 711.511,394.723 717.9,385.938 C744.756,349.005 717.81,300.875 688.904,288.95 C678.483,284.651 651.785,286.836 645.909,281.95 C646.576,281.284 647.242,280.617 647.909,279.95 L643.919,279.95 L643.91,279.95 Z" id="Shape" fill="#FFFFFF" sketch:type="MSShapeGroup"></path>
            <path d="M440.93,289.95 C454.728,290.203 461.58,299.316 461.928,312.947 C459.768,317.418 457.227,323.439 452.929,325.946 C444.698,330.566 434.273,326.856 428.932,322.946 C426.208,313.015 428.244,301.782 432.932,293.95 C435.602,292.62 438.262,291.28 440.932,289.95 L440.93,289.95 Z" id="Shape" stroke="#000000" fill="#000000" sketch:type="MSShapeGroup"></path>
            <path d="M307.95,305.95 C308.283,307.617 308.617,309.283 308.95,310.95 L309.95,310.95 L309.95,305.95 L307.95,305.95 L307.95,305.95 Z" id="Shape" fill="#FFFFFF" sketch:type="MSShapeGroup"></path>
            <path d="M604.91,722.9 C605.243,720.9 605.577,718.9 605.91,716.901 C606.577,715.568 607.243,714.234 607.91,712.901 C613.736,713.357 614.98,713.701 618.909,711.901 C622.242,700.571 625.575,689.236 628.908,677.905 C629.908,678.572 630.908,679.239 631.908,679.905 C633.736,686.72 637.176,700.506 642.907,703.902 C640.506,694.153 650.483,687.226 655.905,681.905 C655.619,655.962 626.663,645.155 620.909,621.913 C637.852,623.466 649.287,632.435 661.904,638.91 C661.238,626.247 660.571,613.579 659.904,600.915 C671.629,599.486 678.76,604.238 685.901,610.914 C689.9,609.914 693.901,608.914 697.899,607.914 L698.899,608.914 C698.011,616.876 695.499,614.858 693.9,621.913 C696.733,627.263 697.889,630.229 698.899,635.911 L704.899,635.911 C708.898,632.912 712.898,629.912 716.897,626.912 C720.724,628.233 718.977,626.91 720.897,629.912 C725.93,643.114 713.863,655.272 718.897,668.906 C722.896,673.905 726.897,678.906 730.895,683.905 L731.895,683.905 C732.895,681.239 733.895,678.572 734.895,675.906 C745.893,674.906 756.893,673.906 767.891,672.906 L767.891,665.907 L764.891,665.907 L736.895,665.907 L736.895,664.907 C737.561,664.24 738.228,663.574 738.895,662.908 C741.51,658.047 785.702,628.458 788.888,628.912 C800.026,631.107 796.915,641.739 793.887,649.909 C794.887,649.243 795.887,648.576 796.887,647.91 C796.887,647.91 826.707,627.883 827.883,639.91 L827.883,637.91 C832.151,634.008 836.223,628.308 837.882,621.913 L832.882,621.913 C831.882,621.58 830.882,621.246 829.883,620.913 L829.883,615.914 C812.753,615.293 809.69,598.405 803.886,586.917 C811.325,574.547 832.939,573.306 850.88,571.919 C857.211,553.409 871.465,538.03 874.877,516.926 C866.658,516.174 836.485,509.865 829.883,505.928 L829.883,504.928 L829.883,501.928 C837.078,497.06 844.723,494.336 856.879,493.929 C859.212,489.263 861.545,484.596 863.878,479.931 C861.545,478.931 859.212,477.931 856.879,476.931 C857.57,458.368 871.343,456.483 867.878,435.936 C846.572,434.754 813.428,401.832 818.884,374.943 C821.028,364.379 828.598,355.423 830.882,346.947 C831.216,345.947 831.549,344.947 831.882,343.947 C820.885,331.617 809.884,319.282 798.887,306.952 C793.555,308.618 788.221,310.285 782.889,311.952 C782.555,316.285 782.222,320.618 781.889,324.951 C778.889,326.284 775.889,327.617 772.89,328.95 C779.862,347.056 765.344,355.238 759.892,367.945 C757.892,374.611 755.892,381.278 753.893,387.943 C741.895,393.275 729.895,398.609 717.897,403.941 C707.745,410.771 701.699,421.908 687.901,425.939 C641.695,439.436 599.346,401.763 583.911,375.945 C574.366,359.976 580.466,330.35 582.911,312.953 C581.911,312.62 580.911,312.286 579.911,311.953 C573.565,306.567 564.844,310.61 556.913,311.953 C556.037,319.366 552.963,334.454 547.914,337.95 C550.247,343.949 552.58,349.949 554.913,355.948 L551.913,362.947 C553.082,368.335 559.354,371.569 560.912,378.945 C560.245,379.278 559.579,379.612 558.912,379.945 C531.361,363.934 466.191,349.433 444.922,383.945 C440.319,391.416 443.137,400.007 441.922,407.942 L442.922,408.942 C455.667,403.561 458.368,413.617 464.92,419.941 L465.92,419.941 C465.981,413.451 466.525,412.747 469.92,409.942 C487.678,418.512 516.325,440.542 546.91,428.94 C554.985,425.877 553.272,416.416 565.908,414.941 C566.241,415.941 566.575,416.941 566.908,417.941 C570.016,423.487 574.405,441.56 573.907,444.938 C572.24,445.271 570.574,445.605 568.907,445.938 C565.908,443.605 562.907,441.272 559.908,438.939 C559.241,443.272 558.575,447.605 557.908,451.938 C551.349,451.604 542.474,451.185 538.91,453.938 L538.91,454.938 C547.831,456.711 545.88,462.648 551.909,465.937 C562.573,469.603 573.241,473.27 583.905,476.936 C614.64,492.103 640.653,513.14 659.895,539.928 C668.848,552.392 684.589,575.907 672.894,595.921 C671.894,596.254 670.894,596.587 669.894,596.921 C668.894,596.587 667.894,596.254 666.894,595.921 C654.449,547.113 616.297,522.733 577.905,499.933 C562.973,491.066 523.24,482.056 520.912,461.938 C523.652,458.732 525.712,456.685 528.911,453.939 L528.911,452.939 C504.202,448.809 477.672,447.922 453.921,443.94 C448.767,460.044 438.427,463.578 423.924,469.937 C424.257,470.937 424.591,471.937 424.924,472.937 C426.257,474.27 427.591,475.604 428.924,476.936 C472.937,471.456 518.526,477.223 538.914,503.933 L538.914,505.933 C537.914,506.266 536.914,506.599 535.914,506.933 C518.991,513.546 502.555,497.93 490.919,493.934 C460.431,483.464 419.898,488.119 398.931,502.933 C402.264,506.265 405.597,509.599 408.93,512.932 C425.593,547.788 434.3,555.38 419.929,601.92 C401.478,607.993 374.784,622.885 371.935,643.915 C374.601,652.913 377.268,661.914 379.934,670.911 C384.95,672.117 388.549,677.081 392.933,677.91 C399.351,679.126 407.04,675.026 412.93,675.911 C413.672,679.407 413.879,679.286 411.93,681.91 C409.175,686.309 404.072,688.993 398.932,690.909 C399.265,691.576 399.599,692.242 399.932,692.909 C414.585,694.693 422.446,687.43 436.927,689.909 C438.927,692.909 440.927,695.909 442.926,698.908 C450.607,698.388 453.472,695.018 458.925,693.909 C467.17,692.23 467.844,697.538 471.923,698.908 C481.921,697.575 491.922,696.241 501.92,694.909 L501.92,696.908 C504.679,701.692 503.153,704.466 500.92,708.906 C502.292,710.803 501.893,710.543 503.92,711.906 C514.398,716.583 521.195,715.469 530.917,713.906 C536.848,726.017 552.083,723.96 562.913,730.903 C563.58,733.57 564.246,736.237 564.913,738.902 L566.913,738.902 L566.913,727.904 C564.167,723.941 563.227,724.435 562.913,719.905 C564.835,718.513 563.512,719.803 564.913,717.906 C574.054,716.432 577.428,717.862 582.911,721.905 C584.566,717.003 584.696,716.446 590.91,715.906 C593.25,721.596 596.82,722.936 604.88,722.866 L604.91,722.9 Z" id="Shape" fill="#FFFFFF" sketch:type="MSShapeGroup"></path>
            <path d="M415.93,567.92 C412.597,567.586 409.264,567.253 405.931,566.92 C405.598,565.254 405.264,563.586 404.931,561.92 C405.931,561.254 406.931,560.587 407.931,559.92 C409.93,560.254 411.931,560.587 413.93,560.92 C414.013,528.537 387.783,524.159 384.933,498.928 C391.666,486.438 406.174,487.728 414.93,477.931 C414.263,476.931 413.597,475.931 412.93,474.931 C406.687,473.394 404.126,471.081 399.932,467.932 C372.254,469.899 374.194,493.819 350.938,495.929 L350.938,493.929 C347.9,485.643 353.633,480.737 356.938,475.931 C376.267,447.824 402.338,447.072 439.928,438.935 C440.261,438.268 440.594,437.602 440.928,436.935 C435.623,426.116 430.977,419.002 424.93,409.938 C427.93,399.94 430.93,389.939 433.929,379.941 C418.343,363.987 406.692,343.748 400.933,317.949 C357.116,350.448 328.441,331.019 308.944,394.94 C305.132,407.437 294.681,418.631 292.946,431.935 C296.363,435.276 298.322,437.309 296.946,442.934 C289.821,443.591 286.472,446.832 282.947,450.933 L282.947,451.933 C291.651,452.864 292.555,456.918 295.946,462.932 C293.946,465.265 291.946,467.599 289.946,469.931 C281.364,471.616 277.165,476.201 275.948,484.929 C278.614,483.929 281.281,482.929 283.947,481.929 C287.905,484.181 288.772,484.671 289.947,489.928 C279.39,497.456 285.617,504.561 278.948,511.926 C273.627,517.802 262.997,520.803 258.951,527.923 C257.284,537.588 255.618,547.255 253.951,556.92 C249.238,558.046 245.218,559.11 242.952,562.919 C236.991,577.284 243.303,590.585 246.952,599.914 C234.373,607.313 245.98,634.717 249.952,640.909 C248.285,643.575 246.619,646.242 244.952,648.908 C246.926,659.801 252.02,668.44 254.951,676.904 C265.944,708.653 269.918,761.161 274.949,798.884 C272.616,799.218 270.282,799.55 267.95,799.884 C282.856,839.127 338.505,921.344 381.93,925.864 L381.93,924.864 C379.833,919.173 379.772,910.286 379.93,901.867 C369.033,904.058 343.687,898.982 332.936,892.868 C331.157,886.872 330.993,885.692 333.936,880.87 C343.155,881.569 349.236,885.404 356.934,881.87 C357.601,877.204 358.267,872.537 358.934,867.871 C277.18,844.449 279.845,753.351 263.946,667.891 C260.06,647.007 249.33,586.556 263.946,573.903 L264.946,573.903 C277.652,625.244 293.26,675.353 324.939,707.883 C328.863,705.103 329.581,703.994 336.938,703.884 C342.612,711.864 349.825,717.369 357.936,722.882 C375.074,723.436 383.404,719.439 391.932,711.883 C390.932,710.55 389.932,709.216 388.932,707.883 C353.043,699.133 354.308,649.022 370.934,621.895 C376.6,615.563 382.267,609.229 387.932,602.897 C385.707,596.96 384.44,597.167 389.932,592.898 C391.856,589.709 400.662,578.901 403.931,576.9 C407.816,574.093 413.254,576.095 414.93,574.9 C415.27,572.56 415.6,570.23 415.93,567.9 L415.93,567.92 Z" id="Shape" fill="#FFFFFF" sketch:type="MSShapeGroup"></path>
            <path d="M624.91,317.95 C635.416,318.012 640.826,321.666 646.907,325.949 L649.907,338.948 C647.808,343.807 646.729,346.671 641.908,348.947 C632.026,352.166 621.325,348.63 617.911,341.948 C617.244,338.282 616.578,334.615 615.911,330.949 C618.911,326.609 621.911,322.279 624.911,317.949 L624.91,317.95 Z" id="Shape" stroke="#000000" fill="#000000" sketch:type="MSShapeGroup"></path>
            <path d="M458.93,406.94 C463.242,407.148 463.756,407.203 465.929,408.94 C461.519,408.82 460.989,409.03 458.929,406.94 L458.93,406.94 Z" id="Shape" stroke="#000000" fill="#FFFFFF" sketch:type="MSShapeGroup"></path>
            <path d="M1023.9,411.94 C1022.233,412.94 1020.567,413.94 1018.901,414.94 C1018.097,420.709 1017.541,424.233 1020.9,427.939 L1021.9,427.939 C1023.7,422.019 1028.9,415.439 1023.9,411.939 L1023.9,411.94 Z" id="Shape" fill="#FFFFFF" sketch:type="MSShapeGroup"></path>
            <path d="M908.9,412.94 C908.233,415.273 907.566,417.607 906.9,419.939 C910.726,418.618 908.979,419.94 910.9,416.939 C910.7,413.469 912.7,415.179 908.9,412.939 L908.9,412.94 Z" id="Shape" fill="#FFFFFF" sketch:type="MSShapeGroup"></path>
            <path d="M267.95,503.92 C267.283,504.92 266.617,505.92 265.95,506.92 L265.95,507.919 L270.949,507.919 C269.629,504.099 270.949,505.839 267.949,503.919 L267.95,503.92 Z" id="Shape" fill="#FFFFFF" sketch:type="MSShapeGroup"></path>
            <path d="M274.95,521.92 C282.398,526.436 281.736,543.097 270.95,543.916 L270.95,541.917 C267.023,535.558 269.885,527.741 272.95,522.92 C273.62,522.59 274.28,522.26 274.95,521.92 L274.95,521.92 Z" id="Shape" stroke="#000000" fill="#000000" sketch:type="MSShapeGroup"></path>
            <path d="M290.95,544.92 C290.617,546.92 290.283,548.92 289.95,550.92 L287.95,550.92 C284.946,553.321 282.956,553.347 279.951,550.92 C282.541,546.28 283.661,545.08 290.951,544.92 L290.95,544.92 Z" id="Shape" stroke="#000000" fill="#000000" sketch:type="MSShapeGroup"></path>
            <path d="M401.94,548.92 C405.273,550.253 408.607,551.587 411.939,552.92 L411.939,553.92 C411.273,554.253 410.606,554.586 409.939,554.919 C408.272,555.253 406.606,555.586 404.939,555.919 C402.989,553.269 402.679,553.469 401.939,548.919 L401.94,548.92 Z" id="Shape" stroke="#000000" fill="#000000" sketch:type="MSShapeGroup"></path>
            <path d="M815.88,622.91 C821.552,622.962 822.274,623.181 824.878,625.909 C822.303,633.507 818.276,634.214 808.88,633.908 L808.88,630.909 C811.22,628.239 813.55,625.569 815.88,622.909 L815.88,622.91 Z" id="Shape" stroke="#000000" fill="#000000" sketch:type="MSShapeGroup"></path>
            <path d="M773.89,645.91 L763.891,652.909 L765.891,652.909 L765.891,653.909 C767.557,653.576 769.224,653.242 770.89,652.909 C771.89,650.569 772.89,648.239 773.89,645.909 L773.89,645.91 Z" id="Shape" fill="#FFFFFF" sketch:type="MSShapeGroup"></path>
            <path d="M393.94,659.9 C400.395,662.748 401.062,665.728 395.94,669.898 C393.94,669.232 391.94,668.566 389.94,667.899 L389.94,663.9 C390.607,662.9 391.273,661.9 391.94,660.9 C392.6,660.57 393.27,660.24 393.94,659.9 L393.94,659.9 Z" id="Shape" stroke="#000000" fill="#000000" sketch:type="MSShapeGroup"></path>
            <path d="M578.91,705.9 C582.243,706.233 585.576,706.566 588.909,706.9 L588.909,707.899 C588.576,709.232 588.242,710.566 587.909,711.899 C584.243,712.232 580.576,712.566 576.91,712.899 C576.577,711.566 576.243,710.232 575.91,708.899 L578.91,705.899 L578.91,705.9 Z" id="Shape" stroke="#000000" fill="#000000" sketch:type="MSShapeGroup"></path>
            <path d="M451.93,711.9 C443.265,712.567 434.598,713.233 425.933,713.9 L425.933,714.9 C446.929,718.899 467.93,722.899 488.925,726.898 C497.923,734.896 506.924,742.897 515.922,750.895 C552.858,773.558 608.072,772.251 630.902,736.897 C615.204,743.428 603.086,755.025 583.908,758.894 C519.898,771.804 511.578,712.324 451.928,711.894 L451.93,711.9 Z" id="Shape" fill="#FFFFFF" sketch:type="MSShapeGroup"></path>
            <path d="M549.92,712.9 C552.253,713.567 554.587,714.233 556.919,714.9 C556.586,717.233 556.252,719.566 555.919,721.899 L554.919,721.899 C552.586,721.233 550.252,720.566 547.92,719.899 C547.587,718.233 547.253,716.566 546.92,714.9 C547.92,714.23 548.92,713.56 549.92,712.9 L549.92,712.9 Z" id="Shape" stroke="#000000" fill="#000000" sketch:type="MSShapeGroup"></path>
            <path d="M929.9,783.89 C928.233,794.221 926.567,804.555 924.901,814.886 C916.26,832.119 894.427,838.46 882.906,852.881 C873.719,864.381 870.709,881.869 865.908,897.876 L861.908,897.876 C857.639,893.453 853.613,884.508 847.911,881.878 C840.593,900.782 820.495,911.19 812.915,927.872 C812.249,931.537 811.581,935.204 810.915,938.87 C803.603,946.619 795.653,949.074 784.919,953.868 C785.252,954.535 785.585,955.202 785.919,955.868 C807.495,965.053 841.43,970.581 859.909,951.869 C858.536,949.972 858.935,950.232 856.909,948.869 C842.119,944.098 838.613,949.082 825.913,939.87 C824.628,917.893 832.923,914.186 839.911,897.876 C847.538,897.115 852.048,899.651 858.909,901.875 C860.051,905.544 861.834,911.763 864.908,913.873 C867.241,914.54 869.574,915.207 871.907,915.873 C873.573,903.543 875.24,891.208 876.907,878.878 C881.905,875.545 886.906,872.211 891.905,868.879 C906.105,857.619 941.405,812.099 929.905,783.869 L929.9,783.89 Z" id="Shape" fill="#FFFFFF" sketch:type="MSShapeGroup"></path>
            <path d="M1169.8,891.88 C1127.691,916.357 1096.036,981.238 1073.812,1031.86 C1066.245,1049.099 1051.955,1069.123 1050.816,1090.853 C1051.815,1091.519 1052.815,1092.186 1053.815,1092.853 C1054.815,1093.186 1055.815,1093.519 1056.814,1093.853 C1091.335,1042.65 1094.467,966.353 1159.804,945.873 C1160.803,943.207 1161.804,940.54 1162.803,937.874 C1157.995,936.688 1157.88,936.936 1156.804,931.875 C1158.804,928.542 1160.804,925.209 1162.803,921.877 L1172.802,921.877 C1171.564,915.923 1170.979,915.768 1175.802,911.877 C1178.134,914.544 1180.468,917.211 1182.8,919.877 L1182.8,922.876 C1177.779,923.702 1176.391,922.983 1174.802,927.876 C1179.134,926.209 1183.468,924.542 1187.8,922.876 C1188.133,921.21 1188.466,919.543 1188.8,917.877 C1185.757,912.987 1181.882,912.481 1177.801,908.878 C1179.157,902.951 1180.786,899.264 1185.8,896.88 C1185.134,896.213 1184.467,895.546 1183.8,894.88 C1177.8,895.77 1177.4,892.75 1169.8,891.86 L1169.8,891.88 Z" id="Shape" fill="#FFFFFF" sketch:type="MSShapeGroup"></path>
            <path d="M1201.8,912.9 C1200.467,915.233 1199.133,917.567 1197.8,919.9 L1201.8,919.9 C1202.8,917.567 1203.8,915.233 1204.8,912.9 L1201.8,912.9 L1201.8,912.9 Z" id="Shape" fill="#FFFFFF" sketch:type="MSShapeGroup"></path>
            <path d="M1072.9,914.9 C1069.568,916.233 1066.234,917.567 1062.902,918.9 C1060.902,923.232 1058.902,927.565 1056.902,931.898 C1057.236,932.564 1057.569,933.231 1057.902,933.898 C1060.236,933.564 1062.569,933.231 1064.902,932.898 C1065.943,921.893 1071.923,923.097 1074.9,914.9 L1072.9,914.9 L1072.9,914.9 Z" id="Shape" fill="#FFFFFF" sketch:type="MSShapeGroup"></path>
            <path d="M1084.9,922.9 C1083.9,925.566 1082.9,928.233 1081.901,930.899 C1088.501,931.112 1090.928,932.238 1093.899,935.898 C1088.274,960.444 1066.274,989.875 1062.903,1013.889 L1063.903,1013.889 C1064.569,1013.555 1065.236,1013.222 1065.903,1012.889 C1077.669,986.22 1108.194,964.413 1110.897,929.9 C1102.197,927.5 1093.497,925.2 1084.897,922.9 L1084.9,922.9 Z" id="Shape" fill="#FFFFFF" sketch:type="MSShapeGroup"></path>
            <path d="M777.89,948.9 C777.557,946.9 777.224,944.9 776.89,942.9 C773.225,943.567 769.558,944.234 765.892,944.9 C747.367,978.347 731.035,997.936 774.891,1016.891 C774.558,1018.558 774.224,1020.224 773.891,1021.891 C743.065,1035.479 708.297,1039.837 694.901,1005.892 C690.961,995.909 692.001,985.339 686.902,977.896 C683.051,976.175 680.976,973.742 676.903,974.896 C681.641,978.367 686.167,979.22 688.902,984.895 C689.568,993.893 690.235,1002.894 690.902,1011.892 C693.807,1019.554 706.652,1027.647 711.9,1034.889 C749.159,1038.216 793.825,1033.599 801.888,1002.893 C786.094,1004.057 778.446,1010.988 759.894,1006.892 C747.244,990.674 756.563,959.127 770.892,948.9 L777.882,948.9 L777.89,948.9 Z" id="Shape" fill="#FFFFFF" sketch:type="MSShapeGroup"></path>
            <path d="M413.94,945.9 C415.77,949.383 414.784,948.588 418.94,949.9 L418.94,948.9 C417.27,947.9 415.6,946.9 413.94,945.9 L413.94,945.9 Z" id="Shape" fill="#FFFFFF" sketch:type="MSShapeGroup"></path>
            <path d="M439.93,961.9 C442.367,965.026 443.165,965.82 447.929,966.899 C446.929,965.567 445.929,964.233 444.929,962.9 C443.259,962.5 441.599,962.2 439.929,961.9 L439.93,961.9 Z" id="Shape" fill="#FFFFFF" sketch:type="MSShapeGroup"></path>
            <path d="M451.93,967.9 C453.73,969.942 451.946,968.607 454.93,969.9 C453.13,967.8 454.91,969.2 451.93,967.9 L451.93,967.9 Z" id="Shape" fill="#FFFFFF" sketch:type="MSShapeGroup"></path>
            <path d="M458.93,970.9 C460.263,971.9 461.597,972.9 462.93,973.899 C461.6,972.899 460.26,971.899 458.93,970.899 L458.93,970.9 Z" id="Shape" fill="#FFFFFF" sketch:type="MSShapeGroup"></path>
            <path d="M464.93,974.9 C467.263,976.567 469.597,978.233 471.929,979.9 C472.929,979.567 473.929,979.233 474.929,978.9 L474.929,977.9 C471.589,976.9 468.259,975.9 464.929,974.9 L464.93,974.9 Z" id="Shape" fill="#FFFFFF" sketch:type="MSShapeGroup"></path>
            <path d="M534.92,999.9 C534.587,1000.567 534.253,1001.233 533.92,1001.9 C535.587,1001.567 537.253,1001.233 538.92,1000.9 C537.59,1000.5 536.25,1000.2 534.92,999.9 L534.92,999.9 Z" id="Shape" fill="#FFFFFF" sketch:type="MSShapeGroup"></path>
            <path d="M541.92,1003.9 C542.587,1005.233 543.253,1006.566 543.92,1007.899 C565.871,1011.973 585.414,1027.589 605.912,1028.896 L605.912,1027.896 C597.732,1012.296 562.792,1005.896 541.922,1003.896 L541.92,1003.9 Z" id="Shape" fill="#FFFFFF" sketch:type="MSShapeGroup"></path>
        </g>
    </g>
</svg>