<?xml version="1.0" ?><!DOCTYPE svg  PUBLIC '-//W3C//DTD SVG 1.1//EN'  'http://www.w3.org/Graphics/SVG/1.1/DTD/svg11.dtd'><svg height="6.82666in" style="shape-rendering:geometricPrecision; text-rendering:geometricPrecision; image-rendering:optimizeQuality; fill-rule:evenodd; clip-rule:evenodd" viewBox="0 0 6.82666 6.82666" width="6.82666in" xml:space="preserve" xmlns="http://www.w3.org/2000/svg" xmlns:xlink="http://www.w3.org/1999/xlink"><defs><style type="text/css">
   <![CDATA[
    .fil1 {fill:none}
    .fil5 {fill:#63CBE5}
    .fil2 {fill:#9DD5C0}
    .fil4 {fill:#EBE5DF}
    .fil3 {fill:#F39CC3}
    .fil0 {fill:#333333;fill-rule:nonzero}
   ]]>
  </style></defs><g id="Layer_x0020_1"><g id="_436449616"><path class="fil0" d="M4.01658 2.50689l-0.603252 -0.735614 -0.603213 0.73561c0.135941,-0.000192913 0.393776,-0.000307087 0.643661,-0.000307087 0.215972,0 0.436445,0.000102362 0.562803,0.000311024zm-0.477756 -0.917768l0.752709 0.917862c0.0145984,0.0176969 0.0243031,0.0370039 0.0293661,0.0566693 0.00755118,0.029374 0.00483465,0.0577874 -0.00741732,0.0837165 -0.0122795,0.0259843 -0.0325472,0.0461772 -0.0600866,0.0590748 -0.0187441,0.00877165 -0.0398386,0.0136575 -0.0623898,0.0136575l-0.0767165 0 -0.000417323 -0.000417323c-0.0213268,-0.00015748 -0.304067,0.000232283 -0.660094,0.000232283 -0.361921,0 -0.72835,-0.000374016 -0.731197,-0.000232283l-0.005 0.000417323 -0.0818858 0c-0.0225472,0 -0.0436496,-0.00488189 -0.0624134,-0.0136575 -0.0275354,-0.0128701 -0.0477874,-0.0330748 -0.0600827,-0.0590669 -0.0122559,-0.0259685 -0.0149528,-0.0543701 -0.00740945,-0.0837087 0.00506299,-0.0196811 0.0147795,-0.0389764 0.029378,-0.056685l0.753 -0.918276 0.005 -0.00583465c0.00414961,-0.00434646 0.00741339,-0.00755512 0.00986614,-0.00973622 0.0320394,-0.0285118 0.0722756,-0.0423465 0.112138,-0.0419331 0.040811,0.000425197 0.0811063,0.0157244 0.11213,0.045437 0.00233858,0.00224803 0.00531496,0.00538583 0.00902362,0.00956299l0.0025 0.00291732z" id="_436450744"/><path class="fil0" d="M5.17707 4.13786l-0.110717 0.329122c-0.00214961,0.00637402 -0.00375591,0.0108189 -0.00476378,0.0131693l-0.000153543 -6.69291e-005c-0.0160551,0.0372874 -0.0438189,0.065811 -0.0768346,0.0822677 -0.0358189,0.0178504 -0.0775315,0.0217559 -0.118122,0.00812598 -0.00216142,-0.000728346 -0.00407874,-0.00138976 -0.00574409,-0.00197244l-4.72441e-005 0.000137795 -0.394823 -0.141287 -0.00583071 -0.0025c-0.0407913,-0.0174646 -0.0710079,-0.0507992 -0.0868386,-0.0904291 -0.0145354,-0.0364055 -0.0168425,-0.0790157 -0.00338976,-0.119012l0.110717 -0.329138c0.00214567,-0.00637008 0.00375197,-0.0108071 0.00475197,-0.0131339l0.000153543 6.69291e-005c0.0160512,-0.0372795 0.0438189,-0.0658228 0.0768504,-0.0822953 0.0358504,-0.017874 0.0775787,-0.0217835 0.118157,-0.00811811 0.00204724,0.000688976 0.00394882,0.00135039 0.00569685,0.00199606l6.29921e-005 -0.000173228 0.394815 0.141283 0.00583071 0.0025c0.0407913,0.0173937 0.0710039,0.0507362 0.0868346,0.0904016 0.0145394,0.0364134 0.0168386,0.0790512 0.0033937,0.119055zm-0.312386 0.261618l0.00107087 -0.00318504 0 -0.000220472c-0.000259843,0.000933071 -0.00196457,0.00605118 -0.00107087,0.00340551zm0.0167795 -0.0498819l0.0806535 -0.239756 -0.296705 -0.106177 -0.0806496 0.23976 0.296701 0.106173zm-0.199272 -0.395815l-0.00108268 0.00322047 0 0.000228346c0.000255906,-0.00092126 0.00198031,-0.00611811 0.00108268,-0.00344882z" id="_436450624"/><path class="fil0" d="M4.00773 4.64033c-0.0888701,-0.0225433 -0.184598,-0.0401614 -0.285398,-0.0520315 -0.0978465,-0.0115197 -0.201283,-0.0176535 -0.308744,-0.0176535 -0.107154,0 -0.210291,0.00610236 -0.307862,0.017563 -0.100626,0.0118189 -0.196189,0.0293504 -0.28489,0.0517677l-4.72441e-005 -0.000188976 -0.000704724 0.000185039 2.75591e-005 0.000102362c-0.0464173,0.0123701 -0.123264,0.0328622 -0.165142,-0.0923071l-0.000417323 -0.000834646 -0.219642 -0.668969 6.69291e-005 -1.9685e-005c-0.0493031,-0.139476 0.0345472,-0.175756 0.0774843,-0.194299l0.000602362 -0.000259843 8.66142e-005 0.000200787c0.102315,-0.0444567 0.226929,-0.0839409 0.378323,-0.112189 0.149709,-0.027937 0.324783,-0.0449606 0.529165,-0.0449606 0.204941,0 0.379709,0.017815 0.528465,0.0468937 0.150736,0.0294646 0.274957,0.0707008 0.376965,0.116921l-1.9685e-005 4.72441e-005 0.000125984 0c0.0376142,0.0170315 0.112693,0.0510512 0.0705039,0.174028l0.000114173 3.54331e-005 -0.223882 0.681697 -0.00166929 0.00416535c-0.0185394,0.0495236 -0.049748,0.074252 -0.0821496,0.086311 -0.0361299,0.0134291 -0.0631772,0.0083937 -0.0813622,0.00379528zm-0.261232 -0.263701c0.0851417,0.0100276 0.166945,0.0237835 0.244516,0.0408543l0.183831 -0.559752c-0.0753898,-0.0291457 -0.163563,-0.0550984 -0.266575,-0.0752362 -0.13552,-0.0264921 -0.296528,-0.0427205 -0.48763,-0.0427205 -0.193055,0 -0.355024,0.0154449 -0.490835,0.0407874 -0.10778,0.0201102 -0.19961,0.0464213 -0.277764,0.0761181l0.18413 0.560807c0.0778661,-0.017126 0.159965,-0.0309173 0.24539,-0.0409488 0.106846,-0.0125512 0.218138,-0.0192323 0.332028,-0.0192323 0.114217,0 0.225807,0.0067126 0.332909,0.0193228z" id="_436450552"/><path class="fil0" d="M2.39221 4.45112l-0.387283 0.139772 7.87402e-006 1.9685e-005c-0.00295669,0.00126378 -0.00668898,0.00266142 -0.0111772,0.0041811l4.33071e-005 0.000125984c-0.0407047,0.0137677 -0.0825827,0.0098622 -0.118583,-0.00809449 -0.0331378,-0.0165276 -0.0609803,-0.0452008 -0.0770354,-0.082689 -0.00185827,-0.00434646 -0.00345276,-0.00845669 -0.00474016,-0.0122677l0 -0.000413386 -0.110654 -0.329122c-0.0134921,-0.0399134 -0.0112165,-0.0825236 0.00332677,-0.119008 0.0157835,-0.0396102 0.0460079,-0.0729567 0.0868386,-0.0904488l0.00583071 -0.00208268 0.386925 -0.139642 -6.29921e-005 -0.000149606c0.00206299,-0.000885827 0.00617323,-0.0023622 0.012063,-0.00434252 0.0405472,-0.0136181 0.0822677,-0.00972835 0.118094,0.00811417 0.0331063,0.0164843 0.0609213,0.0451142 0.0769803,0.0826024 0.00147638,0.00346457 0.00306693,0.00768898 0.00477165,0.0127835l0.110713 0.329079c0.0135,0.0399724 0.0111929,0.0825866 -0.00335039,0.119035 -0.0158189,0.0396575 -0.0460787,0.0730039 -0.086878,0.0904646l-0.00583071 0.00208268zm-0.413791 -0.0765276l0.295079 -0.106496 -0.0809055 -0.24048 -0.295035 0.106476 0.0808622 0.2405zm0.0165669 0.0492874l0.00011811 -3.93701e-005c-9.44882e-005,-0.00019685 -0.000433071,-0.00103543 -0.000724409,-0.00176378l0.000606299 0.00180315z" id="_436449664"/><path class="fil0" d="M5.74093 3.45214c-0.0180984,-0.0198543 -0.0371772,-0.0404528 -0.0556732,-0.0565866 -0.0163425,-0.0142559 -0.034252,-0.0270394 -0.0543425,-0.0361299 -0.0244055,-0.0110433 -0.0484882,-0.0176535 -0.0711575,-0.0201339 -0.0214331,-0.00235039 -0.0414961,-0.00119291 -0.0591654,0.00318504l3.14961e-005 0.000106299c-0.016378,0.00466929 -0.0335394,0.006 -0.050752,0.00440157 -0.0166772,-0.00152362 -0.0324016,-0.00570866 -0.0465079,-0.0120669 -0.0162323,-0.0073622 -0.0314882,-0.0179646 -0.0446142,-0.0312717 -0.0123268,-0.0125079 -0.0227323,-0.0275551 -0.0302205,-0.0447047l-0.000417323 -0.000834646c-0.00994882,-0.0233386 -0.0258031,-0.046122 -0.0464252,-0.0664331 -0.020748,-0.020437 -0.0461772,-0.0381457 -0.0752244,-0.0513031 -0.0284882,-0.0128898 -0.0566654,-0.0197717 -0.0827795,-0.0211063 -0.024689,-0.00126772 -0.0470827,0.00220079 -0.0654213,0.00997638l-0.000834646 0.000417323c-0.018878,0.00779134 -0.038626,0.011063 -0.0580906,0.0103661l0 -1.5748e-005c-0.0194094,-0.000732283 -0.037937,-0.00512598 -0.0544252,-0.0126102 -0.014063,-0.00633071 -0.0270787,-0.0148268 -0.0386693,-0.0253976 -0.011,-0.0100354 -0.0206654,-0.0219646 -0.0286339,-0.0356654l0 -0.000417323c-0.011378,-0.0197598 -0.0270079,-0.038748 -0.0461693,-0.0557441 -0.0186732,-0.016563 -0.0408898,-0.0310906 -0.0660039,-0.0424488 -0.0190433,-0.00862205 -0.0389724,-0.0130787 -0.0587992,-0.0154134 -0.0227677,-0.00268504 -0.049063,-0.00274016 -0.0739724,-0.00274016l0 -0.000417323c-0.00825197,-1.1811e-005 -0.0223583,0.0096063 -0.0398071,0.0274567 -0.0250118,0.0255827 -0.0484252,0.0635394 -0.0658189,0.112453 -0.0178268,0.0501535 -0.0242913,0.0975394 -0.0217795,0.137374 0.0020748,0.0329016 0.00893307,0.0568268 0.0190276,0.0676969 0.0183858,0.0197756 0.0378465,0.0406811 0.0564646,0.0569409 0.0162638,0.0142047 0.0340354,0.0269685 0.0539567,0.0359567l0.000413386 0.000417323c0.0694724,0.0317402 0.0863071,0.0941181 0.0742205,0.155886 -0.00301181,0.0153701 -0.00831496,0.0308858 -0.0150669,0.0451181 -0.00664173,0.0140118 -0.0155039,0.0277913 -0.0256969,0.0399016 -0.0402677,0.0478701 -0.0962165,0.0677874 -0.155917,0.0350748l-0.00874803 -0.00541732c-0.142091,-0.0972638 -0.313055,-0.179909 -0.506665,-0.236697 -0.176752,-0.0518425 -0.372925,-0.0820472 -0.583937,-0.0820472 -0.20289,0 -0.39548,0.0302913 -0.570516,0.0810787 -0.194559,0.0564606 -0.368634,0.138445 -0.511843,0.232429l-0.000188976 -0.000291339c-0.0867008,0.0569409 -0.139429,0.0335472 -0.181449,-0.0303346 -0.0137559,-0.0209173 -0.0185787,-0.0380039 -0.0238819,-0.0567992 -0.00096063,-0.00340945 -0.00197244,-0.00699213 -0.00390157,-0.0123976l0.000334646 -0.00011811c-0.0436969,-0.118209 0.0244843,-0.147358 0.0701929,-0.165764l-1.5748e-005 -3.93701e-005c-0.00262598,0.00118504 0.000885827,-0.000425197 0.00133858,-0.000653543l-3.93701e-006 -7.87402e-006c7.08661e-005,-2.75591e-005 6.69291e-005,-2.3622e-005 3.93701e-006,7.87402e-006l1.5748e-005 3.54331e-005c0.0192953,-0.00893307 0.0366181,-0.0214409 0.0525315,-0.0353386 0.0186417,-0.0162795 0.0381024,-0.0371732 0.0564843,-0.0569409 0.0100906,-0.0108701 0.0169449,-0.0347953 0.0190197,-0.0677126 0.00251181,-0.0398268 -0.00394882,-0.0872087 -0.0217756,-0.137358 -0.0173425,-0.0487638 -0.0406811,-0.0866457 -0.065622,-0.112228l-0.000208661 0.000204724c-0.0177244,-0.018126 -0.0318465,-0.0278976 -0.0398543,-0.0278858l0 0.000417323c-0.0249094,0 -0.051189,5.51181e-005 -0.0739449,0.00274016 -0.019811,0.00233465 -0.0397362,0.00679134 -0.0587835,0.0154134 -0.0251142,0.0113543 -0.0473189,0.025878 -0.0659961,0.042437 -0.0191929,0.0170157 -0.0348386,0.0360118 -0.0462244,0.0557559 -0.00776772,0.0135276 -0.0174213,0.0254567 -0.0285748,0.0356575 -0.0117638,0.0107717 -0.024815,0.0193622 -0.0387402,0.0256654l7.08661e-005 0.00015748c-0.0164685,0.00748031 -0.035,0.011878 -0.0544173,0.0126102l0 1.5748e-005c-0.0194646,0.00069685 -0.0392126,-0.0025748 -0.0580906,-0.0103661l-0.000834646 -0.000417323c-0.0183386,-0.00777165 -0.0407323,-0.0112402 -0.0654252,-0.00997638 -0.0261102,0.00133465 -0.0542874,0.00821654 -0.0827795,0.0211063 -0.029063,0.0131417 -0.0545,0.0308465 -0.0752441,0.0512677 -0.0206457,0.0203268 -0.0365157,0.043126 -0.0464646,0.0664685l-0.000417323 0.000834646c-0.00747244,0.0171417 -0.017878,0.0322165 -0.0302362,0.0447402 -0.0128661,0.0130472 -0.0281181,0.0235866 -0.044685,0.0310787l7.08661e-005 0.00015748c-0.0140433,0.00635433 -0.029752,0.0105236 -0.0464803,0.0120709 -0.0169724,0.00155906 -0.0339803,0.000232283 -0.0503543,-0.00440551l3.93701e-006 -1.1811e-005c-0.0177441,-0.00446063 -0.0379213,-0.00564173 -0.0595039,-0.00327953 -0.0226811,0.00248425 -0.0467756,0.00909055 -0.0712008,0.0201339 -0.0200709,0.00908661 -0.0379764,0.0218701 -0.0543268,0.0361299 -0.0185079,0.0161417 -0.0375906,0.0367362 -0.055685,0.0565866 -0.0100866,0.0110787 -0.0168583,0.0350906 -0.0188071,0.0679331 -0.00236614,0.039811 0.00417323,0.0870984 0.0219173,0.137035 0.017315,0.0486614 0.0405315,0.0864961 0.0652835,0.112016 0.0176772,0.0182244 0.0317835,0.0281181 0.0398189,0.0281969 0.020937,0.000177165 0.0427598,0.00015748 0.0636378,-0.00174016 0.0170787,-0.00155118 0.0345591,-0.00458661 0.052063,-0.0103858l0.0011811 -0.000417323 7.87402e-006 1.9685e-005 6.29921e-005 -1.9685e-005 7.48031e-005 0.000216535c0.0428622,-0.0154055 0.108169,-0.0382913 0.158327,0.0710512l0.00375197 0.00874803 0.433252 1.21774 3.01413 0 0.421055 -1.18356 0.00166535 -0.00416535c0.0568307,-0.141567 0.136823,-0.119512 0.182508,-0.106898l-2.75591e-005 0.000106299 0.000751969 0.000204724c0.0150079,0.00410236 0.0316732,0.00636614 0.0488307,0.00762205 0.0217795,0.00159843 0.040248,0.00164173 0.0575197,0.00147638 0.00805512,-7.87402e-005 0.0221732,-0.00996457 0.0398346,-0.0281772 0.0247402,-0.0255079 0.0479449,-0.0633425 0.0652677,-0.112035 0.0177638,-0.0499291 0.0243071,-0.0971929 0.0219409,-0.136988 -0.00194882,-0.0328583 -0.00873228,-0.0568937 -0.0188268,-0.0679803zm0.0843268 -0.216587c0.028937,0.0252402 0.0519173,0.0499331 0.0731772,0.0732559 0.0423465,0.0465118 0.0689685,0.117028 0.0738268,0.198807 0.00395276,0.0664961 -0.00602756,0.142807 -0.0336102,0.220327 -0.0280354,0.0788031 -0.0686417,0.143177 -0.113598,0.189531 -0.0575197,0.0593071 -0.125492,0.0917008 -0.190669,0.0923504 -0.0249646,0.000240157 -0.0506811,0.000251969 -0.074189,-0.00147638 -0.00994882,-0.000728346 -0.0201063,-0.00174803 -0.0304843,-0.00314567l-0.419059 1.17794 -0.000299213 -0.000106299c-0.00574016,0.0151811 -0.0471693,0.112835 -0.162819,0.112835l-3.06178 0c-0.120146,0 -0.16022,-0.0882441 -0.16685,-0.105323l-0.000204724 7.08661e-005 -0.421807 -1.18558c-0.00675197,0.000870079 -0.0134764,0.00159843 -0.0201654,0.00220472 -0.0301299,0.00273622 -0.0580512,0.00280315 -0.0844724,0.0025748 -0.0651535,-0.000649606 -0.13313,-0.033063 -0.190654,-0.0923701 -0.0449646,-0.0463622 -0.0855787,-0.110732 -0.113614,-0.189512 -0.0275551,-0.0775512 -0.0375394,-0.153882 -0.0335866,-0.220374 0.00485827,-0.0817598 0.0314567,-0.152252 0.0738071,-0.19876 0.0212598,-0.0233228 0.0442638,-0.0480276 0.073189,-0.0732559 0.0310906,-0.0271142 0.0660197,-0.0518228 0.106823,-0.0702953 0.0449882,-0.0203425 0.0911654,-0.0327087 0.136201,-0.0376378 0.028122,-0.00308268 0.0558228,-0.00318898 0.0825748,-0.000464567 0.0185709,-0.0310669 0.0417402,-0.0605157 0.0688307,-0.087189 0.0383346,-0.0377362 0.0846457,-0.0701299 0.136906,-0.0937638 0.0528386,-0.0239055 0.10722,-0.0367717 0.159449,-0.0394449 0.0353661,-0.00181102 0.069878,0.00113386 0.10248,0.00855512 0.0174331,-0.0229213 0.0374606,-0.0445551 0.0597559,-0.0643189 0.0348189,-0.030874 0.0750236,-0.0574055 0.119327,-0.077437 0.0415866,-0.0188307 0.0825433,-0.0282559 0.122122,-0.0329173 0.036626,-0.0043189 0.0682835,-0.00440945 0.0981102,-0.00440945l0 0.000417323c0.0656575,-0.000110236 0.134287,0.0318543 0.192358,0.0912244l0 0.000417323c0.0451299,0.0461535 0.0859488,0.110614 0.114161,0.189937 0.0277677,0.0781181 0.0376535,0.154819 0.0334449,0.221524 -0.00152756,0.024248 -0.00498819,0.0475 -0.0102126,0.0694291 0.0819646,-0.0352165 0.168878,-0.0665866 0.259906,-0.093 0.194839,-0.0565354 0.407591,-0.090252 0.629681,-0.090252 0.230937,0 0.447421,0.0335827 0.643937,0.0912205 0.0856654,0.025126 0.167429,0.0548504 0.244866,0.088374 -0.00474803,-0.0208465 -0.00791339,-0.0428583 -0.00935827,-0.0657559 -0.00420866,-0.0667126 0.0056811,-0.143417 0.0334488,-0.221539 0.0282165,-0.0793346 0.0690276,-0.143791 0.11415,-0.189949 0.0583071,-0.0596417 0.126906,-0.0917402 0.192311,-0.0916299l0 -0.000417323c0.0298268,0 0.0614961,9.05512e-005 0.0981378,0.00440945 0.0395945,0.00466142 0.080563,0.0140906 0.122138,0.0329173 0.0443189,0.0200433 0.0845276,0.0465787 0.119335,0.0774488 0.0222953,0.0197756 0.0423071,0.0413976 0.0597244,0.064311 0.0326142,-0.00742913 0.0671378,-0.010374 0.10252,-0.00855906 0.0522362,0.00267717 0.106606,0.0155354 0.159449,0.0394449 0.0522913,0.023689 0.0985906,0.0560787 0.136886,0.0937992 0.0270787,0.0266654 0.0502362,0.0561024 0.0687953,0.0871575 0.0267756,-0.00272441 0.0544921,-0.00262205 0.0826142,0.00046063 0.0450472,0.00493307 0.0912087,0.0172953 0.136157,0.0376378 0.0408189,0.0184685 0.0757559,0.0431811 0.106839,0.0702953zm-3.6332 0.151516l0.00137795 -0.000555118 -3.93701e-005 -0.000102362 -0.00135433 0.00061811 1.5748e-005 3.93701e-005z" id="_436450240"/><polygon class="fil0" id="_436449880" points="2.92934,3.2326 2.92934,2.61333 2.92934,2.50666 3.03601,2.50666 3.79067,2.50666 3.89733,2.50666 3.89733,2.61333 3.89733,3.2326 3.684,3.2326 3.684,2.72 3.14268,2.72 3.14268,3.2326 "/></g><g id="_436449952"><rect class="fil1" height="6.82666" id="_436450120" width="6.82666"/><rect class="fil1" height="5.12" id="_436449544" width="5.12" x="0.853331" y="0.853331"/></g><path class="fil2" d="M3.72233 4.5883c-0.0978465,-0.0115197 -0.201283,-0.0176535 -0.308744,-0.0176535 -0.107154,0 -0.210291,0.00610236 -0.307862,0.017563 -0.100626,0.0118189 -0.196189,0.0293504 -0.28489,0.0517677l-4.72441e-005 -0.000188976 -0.000704724 0.000185039 2.75591e-005 0.000102362c-0.0464173,0.0123701 -0.123264,0.0328622 -0.165142,-0.0923071l-0.000417323 -0.000834646 -0.219642 -0.668969 6.69291e-005 -1.9685e-005c-0.0493031,-0.139476 0.0345472,-0.175756 0.0774843,-0.194299l0.000602362 -0.000259843 8.66142e-005 0.000200787c0.102315,-0.0444567 0.226929,-0.0839409 0.378323,-0.112189 0.149709,-0.027937 0.324783,-0.0449606 0.529165,-0.0449606 0.204941,0 0.379709,0.017815 0.528465,0.0468937 0.150736,0.0294646 0.274957,0.0707008 0.376965,0.116921l-1.9685e-005 4.72441e-005 0.000125984 0c0.0376142,0.0170315 0.112693,0.0510512 0.0705039,0.174028l0.000114173 3.54331e-005 -0.223882 0.681697 -0.00166929 0.00416535c-0.0185394,0.0495236 -0.049748,0.074252 -0.0821496,0.086311 -0.0361299,0.0134291 -0.0631772,0.0083937 -0.0813622,0.00379528 -0.0888701,-0.0225433 -0.184598,-0.0401614 -0.285398,-0.0520315zm-1.53027 -1.20123l0 0zm0.00132283 -0.000692913l1.5748e-005 3.54331e-005 -1.5748e-005 -3.54331e-005zm-0.00133858 0.000653543l0.00133858 -0.000653543c6.29921e-005,-3.14961e-005 6.69291e-005,-3.54331e-005 1.5748e-005,3.54331e-005l3.93701e-005 0.000102362 -0.0013937 0.000515748zm-0.364681 -0.247024l0 0zm-0.500937 0.202563l0 0zm-0.0156142 0.442228l0 0zm3.68853 -0.644791l0 0zm-1.58603 0.19926c-0.20289,0 -0.39548,0.0302913 -0.570516,0.0810787 -0.194559,0.0564606 -0.368634,0.138445 -0.511843,0.232429l-0.000188976 -0.000291339c-0.0867008,0.0569409 -0.139429,0.0335472 -0.181449,-0.0303346 -0.0137559,-0.0209173 -0.0185787,-0.0380039 -0.0238819,-0.0567992 -0.00096063,-0.00340945 -0.00197244,-0.00699213 -0.00390157,-0.0123976l0.000334646 -0.00011811c-0.0436969,-0.118209 0.0244843,-0.147358 0.0701772,-0.165803 -0.00262598,0.00118504 0.000885827,-0.000425197 0.00135433,-0.00061811 0.0192953,-0.00893307 0.0366181,-0.0214409 0.0525315,-0.0353386 0.0186417,-0.0162795 0.0381024,-0.0371732 0.0564843,-0.0569409 0.0100906,-0.0108701 0.0169449,-0.0347953 0.0190197,-0.0677126 0.00251181,-0.0398268 -0.00394882,-0.0872087 -0.0217756,-0.137358 -0.0173425,-0.0487638 -0.0406811,-0.0866457 -0.065622,-0.112228l-0.000208661 0.000204724c-0.0177244,-0.018126 -0.0318465,-0.0278976 -0.0398543,-0.0278858l0 0.000417323c-0.0249094,0 -0.051189,5.51181e-005 -0.0739449,0.00274016 -0.019811,0.00233465 -0.0397362,0.00679134 -0.0587835,0.0154134 -0.0251142,0.0113543 -0.0473189,0.025878 -0.0659961,0.042437 -0.0191929,0.0170157 -0.0348386,0.0360118 -0.0462244,0.0557559 -0.00776772,0.0135276 -0.0174213,0.0254567 -0.0285748,0.0356575 -0.0117638,0.0107717 -0.024815,0.0193622 -0.0387402,0.0256654l7.08661e-005 0.00015748c-0.0164685,0.00748031 -0.035,0.011878 -0.0544173,0.012626 -0.0194646,0.00069685 -0.0392126,-0.0025748 -0.0580906,-0.0103661l-0.000834646 -0.000417323c-0.0183386,-0.00777165 -0.0407323,-0.0112402 -0.0654252,-0.00997638 -0.0261102,0.00133465 -0.0542874,0.00821654 -0.0827795,0.0211063 -0.029063,0.0131417 -0.0545,0.0308465 -0.0752441,0.0512677 -0.0206457,0.0203268 -0.0365157,0.043126 -0.0464646,0.0664685l-0.000417323 0.000834646c-0.00747244,0.0171417 -0.017878,0.0322165 -0.0302362,0.0447402 -0.0128661,0.0130472 -0.0281181,0.0235866 -0.044685,0.0310787l7.08661e-005 0.00015748c-0.0140433,0.00635433 -0.029752,0.0105236 -0.0464803,0.0120709 -0.0169724,0.00155906 -0.0339803,0.000232283 -0.0503504,-0.00441732 -0.0177441,-0.00446063 -0.0379213,-0.00564173 -0.0595039,-0.00327953 -0.0226811,0.00248425 -0.0467756,0.00909055 -0.0712008,0.0201339 -0.0200709,0.00908661 -0.0379764,0.0218701 -0.0543268,0.0361299 -0.0185079,0.0161417 -0.0375906,0.0367362 -0.055685,0.0565866 -0.0100866,0.0110787 -0.0168583,0.0350906 -0.0188071,0.0679331 -0.00236614,0.039811 0.00417323,0.0870984 0.0219173,0.137035 0.017315,0.0486614 0.0405315,0.0864961 0.0652835,0.112016 0.0176772,0.0182244 0.0317835,0.0281181 0.0398189,0.0281969 0.020937,0.000177165 0.0427598,0.00015748 0.0636378,-0.00174016 0.0170787,-0.00155118 0.0345591,-0.00458661 0.052063,-0.0103858l0.00118898 -0.000397638 6.29921e-005 -1.9685e-005 7.48031e-005 0.000216535c0.0428622,-0.0154055 0.108169,-0.0382913 0.158327,0.0710512l0.00375197 0.00874803 0.433252 1.21774 3.01413 0 0.421055 -1.18356 0.00166535 -0.00416535c0.0568307,-0.141567 0.136823,-0.119512 0.182508,-0.106898l-2.75591e-005 0.000106299 0.000751969 0.000204724c0.0150079,0.00410236 0.0316732,0.00636614 0.0488307,0.00762205 0.0217795,0.00159843 0.040248,0.00164173 0.0575197,0.00147638 0.00805512,-7.87402e-005 0.0221732,-0.00996457 0.0398346,-0.0281772 0.0247402,-0.0255079 0.0479449,-0.0633425 0.0652677,-0.112035 0.0177638,-0.0499291 0.0243071,-0.0971929 0.0219409,-0.136988 -0.00194882,-0.0328583 -0.00873228,-0.0568937 -0.0188268,-0.0679803 -0.0180984,-0.0198543 -0.0371772,-0.0404528 -0.0556732,-0.0565866 -0.0163425,-0.0142559 -0.034252,-0.0270394 -0.0543425,-0.0361299 -0.0244055,-0.0110433 -0.0484882,-0.0176535 -0.0711575,-0.0201339 -0.0214331,-0.00235039 -0.0414961,-0.00119291 -0.0591654,0.00318504l3.14961e-005 0.000106299c-0.016378,0.00466929 -0.0335394,0.006 -0.050752,0.00440157 -0.0166772,-0.00152362 -0.0324016,-0.00570866 -0.0465079,-0.0120669 -0.0162323,-0.0073622 -0.0314882,-0.0179646 -0.0446142,-0.0312717 -0.0123268,-0.0125079 -0.0227323,-0.0275551 -0.0302205,-0.0447047l-0.000417323 -0.000834646c-0.00994882,-0.0233386 -0.0258031,-0.046122 -0.0464252,-0.0664331 -0.020748,-0.020437 -0.0461772,-0.0381457 -0.0752244,-0.0513031 -0.0284882,-0.0128898 -0.0566654,-0.0197717 -0.0827795,-0.0211063 -0.024689,-0.00126772 -0.0470827,0.00220079 -0.0654213,0.00997638l-0.000834646 0.000417323c-0.018878,0.00779134 -0.038626,0.011063 -0.0580906,0.0103504 -0.0194094,-0.000732283 -0.037937,-0.00512598 -0.0544252,-0.0126102 -0.014063,-0.00633071 -0.0270787,-0.0148268 -0.0386693,-0.0253976 -0.011,-0.0100354 -0.0206654,-0.0219646 -0.0286339,-0.0356654l0 -0.000417323c-0.011378,-0.0197598 -0.0270079,-0.038748 -0.0461693,-0.0557441 -0.0186732,-0.016563 -0.0408898,-0.0310906 -0.0660039,-0.0424488 -0.0190433,-0.00862205 -0.0389724,-0.0130787 -0.0587992,-0.0154134 -0.0227677,-0.00268504 -0.049063,-0.00274016 -0.0739724,-0.00274016l0 -0.000417323c-0.00825197,-1.1811e-005 -0.0223583,0.0096063 -0.0398071,0.0274567 -0.0250118,0.0255827 -0.0484252,0.0635394 -0.0658189,0.112453 -0.0178268,0.0501535 -0.0242913,0.0975394 -0.0217795,0.137374 0.0020748,0.0329016 0.00893307,0.0568268 0.0190276,0.0676969 0.0183858,0.0197756 0.0378465,0.0406811 0.0564646,0.0569409 0.0162638,0.0142047 0.0340354,0.0269685 0.0539567,0.0359567l0.000413386 0.000417323c0.0694724,0.0317402 0.0863071,0.0941181 0.0742205,0.155886 -0.00301181,0.0153701 -0.00831496,0.0308858 -0.0150669,0.0451181 -0.00664173,0.0140118 -0.0155039,0.0277913 -0.0256969,0.0399016 -0.0402677,0.0478701 -0.0962165,0.0677874 -0.155917,0.0350748l-0.00874803 -0.00541732c-0.142091,-0.0972638 -0.313055,-0.179909 -0.506665,-0.236697 -0.176752,-0.0518425 -0.372925,-0.0820472 -0.583937,-0.0820472zm-1.40838 1.25163l0 0zm-0.0111693 0.00420079l4.33071e-005 0.000125984c-0.0407047,0.0137677 -0.0825827,0.0098622 -0.118583,-0.00809449 -0.0331378,-0.0165276 -0.0609803,-0.0452008 -0.0770354,-0.082689 -0.00185827,-0.00434646 -0.00345276,-0.00845669 -0.00474016,-0.0122677l0 -0.000413386 -0.110654 -0.329122c-0.0134921,-0.0399134 -0.0112165,-0.0825236 0.00332677,-0.119008 0.0157835,-0.0396102 0.0460079,-0.0729567 0.0868386,-0.0904488l0.00583071 -0.00208268 0.386925 -0.139642 -6.29921e-005 -0.000149606c0.00206299,-0.000885827 0.00617323,-0.0023622 0.012063,-0.00434252 0.0405472,-0.0136181 0.0822677,-0.00972835 0.118094,0.00811417 0.0331063,0.0164843 0.0609213,0.0451142 0.0769803,0.0826024 0.00147638,0.00346457 0.00306693,0.00768898 0.00477165,0.0127835l0.110713 0.329079c0.0135,0.0399724 0.0111929,0.0825866 -0.00335039,0.119035 -0.0158189,0.0396575 -0.0460787,0.0730039 -0.086878,0.0904646l-0.00583071 0.00208268 -0.387276 0.139791c-0.00295669,0.00126378 -0.00668898,0.00266142 -0.0111772,0.0041811zm2.87272 -0.0246181l-0.00574409 -0.00197244 -4.72441e-005 0.000137795 -0.394823 -0.141287 -0.00583071 -0.0025c-0.0407913,-0.0174646 -0.0710079,-0.0507992 -0.0868386,-0.0904291 -0.0145354,-0.0364055 -0.0168425,-0.0790157 -0.00338976,-0.119012l0.110717 -0.329138c0.00214567,-0.00637008 0.00375197,-0.0108071 0.00475197,-0.0131339l0.000153543 6.69291e-005c0.0160512,-0.0372795 0.0438189,-0.0658228 0.0768504,-0.0822953 0.0358504,-0.017874 0.0775787,-0.0217835 0.118157,-0.00811811l0.00569685 0.00199606 6.29921e-005 -0.000173228 0.394815 0.141283 0.00583071 0.0025c0.0407913,0.0173937 0.0710039,0.0507362 0.0868346,0.0904016 0.0145394,0.0364134 0.0168386,0.0790512 0.0033937,0.119055l-0.110717 0.329122c-0.00214961,0.00637402 -0.00375591,0.0108189 -0.00476378,0.0131693l-0.000153543 -6.69291e-005c-0.0160551,0.0372874 -0.0438189,0.065811 -0.0768346,0.0822677 -0.0358189,0.0178504 -0.0775315,0.0217559 -0.118122,0.00812598z"/><path class="fil3" d="M3.41331 3.12593c0.0926732,0 0.183024,0.00540945 0.270685,0.0156102l0 -0.421543 -0.541315 0 0 0.42252c0.0882008,-0.0107992 0.178614,-0.0165866 0.27063,-0.0165866z"/><path class="fil3" d="M3.10324 2.50666c0.109134,-4.72441e-005 0.230748,-7.48031e-005 0.350531,-7.48031e-005 0.10626,0 0.213606,2.3622e-005 0.310299,7.48031e-005l0.0265906 0 0.106669 0 0 9.05512e-005c0.045189,4.33071e-005 0.085563,9.05512e-005 0.119244,0.000145669l-0.603252 -0.735614 -0.603213 0.73561c0.0331299,-4.72441e-005 0.0735,-9.05512e-005 0.119228,-0.000125984l0 -0.000106299 0.106669 0 0.0672323 0z"/><path class="fil4" d="M3.90827 3.7825c-0.13552,-0.0264921 -0.296528,-0.0427205 -0.48763,-0.0427205 -0.193055,0 -0.355024,0.0154449 -0.490835,0.0407874 -0.10778,0.0201102 -0.19961,0.0464213 -0.277764,0.0761181l0.18413 0.560807c0.0778661,-0.017126 0.159965,-0.0309173 0.24539,-0.0409488 0.106846,-0.0125512 0.218138,-0.0192323 0.332028,-0.0192323 0.114217,0 0.225807,0.0067126 0.332909,0.0193228 0.0851417,0.0100276 0.166945,0.0237835 0.244516,0.0408543l0.183831 -0.559752c-0.0753898,-0.0291457 -0.163563,-0.0550984 -0.266575,-0.0752362z"/><polygon class="fil5" points="2.2735,4.2681 2.19259,4.02762 1.89756,4.13409 1.97842,4.37459 "/><polygon class="fil5" points="4.66541,4.00366 4.58476,4.24342 4.88146,4.34959 4.96211,4.10984 "/></g></svg>