<?xml version="1.0" ?><!DOCTYPE svg  PUBLIC '-//W3C//DTD SVG 1.1//EN'  'http://www.w3.org/Graphics/SVG/1.1/DTD/svg11.dtd'><svg height="512px" style="enable-background:new 0 0 512 512;" version="1.1" viewBox="0 0 512 512" width="512px" xml:space="preserve" xmlns="http://www.w3.org/2000/svg" xmlns:xlink="http://www.w3.org/1999/xlink"><g id="pirate_grumpy_corsair_bad_halloween"><g><g><path d="M427.162,199.316c-8.309,0-14.693,1.208-19.623,3.035C402.99,102.091,336.889,59.871,256,59.871     c-80.888,0-146.991,42.22-151.539,142.48c-4.93-1.827-11.314-3.035-19.623-3.035c-22.069,0-33.214,45.188-14.122,78.005     c-5.428,7.449-8.861,17.051-2.41,26.729c14.958,19.671,35.016,6.241,39.767,2.603c3.739,1.177,7.721,2.129,11.974,2.81     c7.05,21.813,16.243,42.72,27.159,61.49c-11.607,12.57-32.759,38.792-36.245,66.18c0,0,44.181-0.412,65.434-25.983     c23.145,25.169,50.409,40.979,79.604,40.979s56.459-15.811,79.604-40.979c21.254,25.571,65.434,25.983,65.434,25.983     c-3.485-27.388-24.637-53.609-36.244-66.18c10.916-18.771,20.109-39.678,27.159-61.49c4.253-0.681,8.235-1.633,11.974-2.81     c4.752,3.639,24.809,17.068,39.768-2.603c6.451-9.679,3.018-19.28-2.41-26.729C460.375,244.505,449.23,199.316,427.162,199.316z" style="fill:#1A171B;"/><circle cx="319.111" cy="122.241" r="13.219" style="fill:#FFEC00;"/><path d="M155.62,248.05l-25.363,15.648c-3.149-16.938-4.822-33.873-4.822-50.166     c0-3.893,0.13-7.675,0.318-11.406c19.055-5.19,65.887-16.122,126.228-17.484l-28.884,24.584h-70.36     C152.735,209.226,150.284,228.872,155.62,248.05z" style="fill:#FFDCC2;"/><circle cx="267.398" cy="152.166" r="13.22" style="fill:#FFEC00;"/><circle cx="261.992" cy="101.537" r="13.22" style="fill:#FFEC00;"/><circle cx="159.19" cy="161.667" r="13.219" style="fill:#FFEC00;"/><circle cx="197.239" cy="98.077" r="13.22" style="fill:#FFEC00;"/><circle cx="210.459" cy="138.946" r="13.22" style="fill:#FFEC00;"/><circle cx="357.608" cy="165.386" r="13.22" style="fill:#FFEC00;"/><path d="M73.003,290.585c1.2-5.948,6.365-11.865,10.904-15.969l2.521,3.378     c-3.276,6.957-2.752,12.803-1.526,16.771c1.366,4.432,4.015,8.024,6.964,10.854C90.088,306.099,72.478,308.981,73.003,290.585z" style="fill:#FFEC00;"/><path d="M85.288,258.484c-6.022-21.129,0.465-36.345,1.594-37.902c6.99,0.235,14.419,2.223,17.532,3.459     c0.796,20.212,3.85,41.002,8.83,61.42C99.741,279.138,88.497,267.531,85.288,258.484z" style="fill:#FFC69C;"/><path d="M256,430.897c-30.758,0-63.232-24.899-89.097-68.313c-12.592-21.139-22.716-45.134-29.812-69.914     l28.844-23.708c7.309,8.938,18.375,15.234,35.072,15.234c51.129,0,49.164-52.072,47.093-69.418l46.702-29.416     c28.847,1.646,59.673,5.811,91.281,13.776c0.304,4.676,0.482,9.458,0.482,14.394c0,49.745-15.503,105.466-41.469,149.052     C319.232,405.998,286.758,430.897,256,430.897z" style="fill:#FFDCC2;"/><path d="M407.586,224.041c3.113-1.236,10.542-3.224,17.532-3.459c1.128,1.558,7.616,16.773,1.594,37.902     c-3.208,9.047-14.453,20.653-27.956,26.977C403.736,265.043,406.79,244.253,407.586,224.041z" style="fill:#FFC69C;"/><path d="M420.135,305.618c2.949-2.829,5.598-6.422,6.963-10.854c1.227-3.968,1.75-9.813-1.525-16.771     l2.521-3.378c4.538,4.104,9.703,10.021,10.903,15.969C439.521,308.981,421.912,306.099,420.135,305.618z" style="fill:#FFEC00;"/></g><g><ellipse cx="256" cy="292.931" rx="29.986" ry="21.197" style="fill:#1A171B;"/><path d="M256,279.696c12.979,0,22.025,6.976,22.025,13.234c0,3.129-2.26,6.437-6.143,8.963     c0.059-0.483,0.092-0.982,0.092-1.494c0-4.125-2.043-7.469-4.564-7.469c-2.521,0-4.564,3.344-4.564,7.469     c0,1.838,0.408,3.519,1.082,4.82c-2.42,0.593-5.072,0.946-7.928,0.946c-2.856,0-5.507-0.354-7.928-0.946     c0.674-1.302,1.082-2.982,1.082-4.82c0-4.125-2.043-7.469-4.564-7.469c-2.522,0-4.564,3.344-4.564,7.469     c0,0.512,0.033,1.011,0.092,1.494c-3.883-2.526-6.143-5.834-6.143-8.963C233.975,286.672,243.021,279.696,256,279.696z" style="fill:#FFC69C;"/></g><g><path d="M262.487,332.177c-53.64-5.534-57.548,41.234-57.548,41.234l100.595,21.3     C305.534,394.711,319.582,338.068,262.487,332.177z" style="fill:#1A171B;"/><path d="M234.195,369.602c0,0,20.846-18.125,35.801-5.891c0,0,20.843-8.156,30.357,20.392L234.195,369.602     z" style="fill:#E1001A;"/></g><path d="M316.736,272.024c-13.98,0-25.314-11.333-25.314-25.313c0-2.228,0.316-4.377,0.857-6.435    l-6.528,3.78l-3.7-25.313l10.675,8.715l66.313-25.842l-35.708,20.679c10.775,2.905,18.719,12.72,18.719,24.415    C342.049,260.691,330.716,272.024,316.736,272.024z" style="fill:#1A171B;"/><path d="M336.62,336.801h5.429v7.962h-8.028c-1.521,4.041-3.343,8.037-5.525,11.899l-6.933-3.916    c1.465-2.594,2.749-5.268,3.881-7.983h-4.9v-7.962h7.374l1.328-8.238h-4.217v-7.962h5.501l1.691-10.482h-7.192v-7.962h8.183    c0.066-9.75-0.859-16.395-0.883-16.553l7.879-1.151c0.099,0.679,1.072,7.622,1.018,17.704h8.975v7.962h-9.232    c-0.197,3.322-0.515,6.837-1.01,10.482h10.242v7.962h-11.59C338.059,331.283,337.4,334.037,336.62,336.801z" style="fill:#CFA07E;"/></g></g><g id="Capa_1"/></svg>