<?xml version="1.0" ?><!DOCTYPE svg  PUBLIC '-//W3C//DTD SVG 1.1//EN'  'http://www.w3.org/Graphics/SVG/1.1/DTD/svg11.dtd'><svg enable-background="new 0 0 48 48" id="Layer_1" version="1.1" viewBox="0 0 48 48" xml:space="preserve" xmlns="http://www.w3.org/2000/svg" xmlns:xlink="http://www.w3.org/1999/xlink"><g><path d="M10.6,30.5v-8.1L0.5,29v18.5h47V22.3l-12.3,8.1v-8.1l-12.3,8.1v-8.1L10.6,30.5z M37.4,35.8h2.1v2.9h-2.1   V35.8z M6.5,38.8H4.3v-2.9h2.1V38.8z M12,38.8H9.8v-2.9H12V38.8z M17.5,38.8h-2.1v-2.9h2.1V38.8z M31.9,35.8H34v2.9h-2.1V35.8z    M26.4,35.8h2.1v2.9h-2.1V35.8z M23,35.8v2.9h-2.1v-2.9H23z" fill="#4DA0D8"/><polygon fill="#0DB89A" points="37.4,18.3 37.4,26.5 40.5,24.4 38.1,0.5 33.9,0.5 31.8,22  "/></g></svg>