<?xml version="1.0" ?><!DOCTYPE svg  PUBLIC '-//W3C//DTD SVG 1.1//EN'  'http://www.w3.org/Graphics/SVG/1.1/DTD/svg11.dtd'><svg height="43.3492mm" style="shape-rendering:geometricPrecision; text-rendering:geometricPrecision; image-rendering:optimizeQuality; fill-rule:evenodd; clip-rule:evenodd" version="1.1" viewBox="0 0 4335 4335" width="43.3492mm" xml:space="preserve" xmlns="http://www.w3.org/2000/svg" xmlns:xlink="http://www.w3.org/1999/xlink"><defs><style type="text/css">
   <![CDATA[
    .fil1 {fill:#FAFAFA}
    .fil0 {fill:#FEFEFE}
    .fil2 {fill:#4C75A3;fill-rule:nonzero}
   ]]>
  </style></defs><g id="Layer_x0020_1"><path class="fil0" d="M-14748 13439l7841 0c-348,-166 -1327,-158 -1946,-1415 -372,-755 -247,-2201 -247,-3136l0 -13476c0,-1695 -278,-3053 1024,-4018 410,-303 633,-347 1195,-470l0 -28 -7867 0 0 22543z"/><path class="fil0" d="M13188 -7678c351,843 243,1727 243,2701l0 14746c0,1040 113,1728 -410,2544 -181,282 -466,558 -748,735 -573,359 -770,262 -1060,389l7870 0 0 -21308 -5821 0c-29,41 -27,31 -57,104 -6,14 -15,76 -17,87z"/><path class="fil1" d="M13188 -7678c2,-12 11,-73 17,-87 30,-73 29,-63 57,-104l5821 0 0 -1235 -25964 0 0 28c865,-44 1807,-10 2681,-10 4469,0 8937,0 13406,0 1737,0 3072,-271 3982,1409z"/><path class="fil2" d="M113 2594l0 -336 1278 -543 0 403 -856 307 0 9 856 301 0 403 -1278 -544zm1445 831l791 -2343 421 0 -791 2343 -421 0zm1420 -274l0 -400 868 -310 0 -9 -868 -305 0 -399 1292 542 0 336 -1292 544z"/></g></svg>