<?xml version="1.0" ?><svg enable-background="new 0 0 1000 1000" id="Capa_3" version="1.1" viewBox="0 0 1000 1000" xml:space="preserve" xmlns="http://www.w3.org/2000/svg" xmlns:xlink="http://www.w3.org/1999/xlink"><g><polygon fill="none" points="280.6,743 410.5,818 428.8,885.5    504.5,756.5 436.9,774.3 305.3,698.3 286.7,629.4 211.8,759.2  " stroke="#000000" stroke-miterlimit="10" stroke-width="15"/><polyline fill="none" points="327.2,711 668.5,70.4 795.9,-0.3    798.4,145.4 412.8,760.4  " stroke="#000000" stroke-miterlimit="10" stroke-width="15"/><circle cx="239.1" cy="962.8" fill="none" r="37.5" stroke="#000000" stroke-miterlimit="10" stroke-width="15"/><path d="M257.2,929.9c10.4,6,16.9,16.3,18.4,27.4l113.3-153.6L302,753.6L226.2,927C236.1,923.6,247.4,924.3,257.2,929.9z"/><polyline fill="none" points="654.2,324.7 772.9,139.5 771.4,41.6    767.6,42.5  " stroke="#000000" stroke-miterlimit="10" stroke-width="15"/><polyline fill="none" points="772.5,42.3 774.1,138.8 655.5,322.6  " stroke="#000000" stroke-miterlimit="10" stroke-width="15"/></g></svg>