<?xml version="1.0" ?><svg height="36" id="svg6390" version="1.1" width="36" xmlns="http://www.w3.org/2000/svg" xmlns:cc="http://creativecommons.org/ns#" xmlns:dc="http://purl.org/dc/elements/1.1/" xmlns:inkscape="http://www.inkscape.org/namespaces/inkscape" xmlns:rdf="http://www.w3.org/1999/02/22-rdf-syntax-ns#" xmlns:sodipodi="http://sodipodi.sourceforge.net/DTD/sodipodi-0.dtd" xmlns:svg="http://www.w3.org/2000/svg"><defs id="defs6392"/><g id="layer1" transform="translate(0,-1016.3622)"><g id="g3" transform="translate(-7,1019.3622)"><g id="g4781" transform="translate(585.5267,-1021.3656)"><path d="m 534.6875,345.21875 c 0.0166,0 0,-0.0267 0,0.0312 l 0,6.96875 10,0 0,-6.96875 c 0,-0.058 -0.0166,-0.0312 0,-0.0312 l -10,0 z m 1,2 0.5,0 2,0 0.5,0 0,3 -0.5,0 -0.5,0 -1,0 -0.5,0 -0.5,0 0,-3 z m 5,0 0.5,0 2,0 0.5,0 0,3 -0.5,0 -0.5,0 -1,0 -0.5,0 -0.5,0 0,-3 z m -4,1 0,1 1,0 0,-1 -1,0 z m 5,0 0,1 1,0 0,-1 -1,0 z m -8.875,5 c -0.0586,0 -0.125,0.0534 -0.125,0.1875 l 0,13.625 c 0,0.1345 0.0665,0.1875 0.125,0.1875 l 1.71875,0 1.71875,0 3.4375,0 3.4375,0 1.71875,0 1.71875,0 c 0.0584,0 0.125,-0.0534 0.125,-0.1875 l 0,-13.625 c 0,-0.1345 -0.0665,-0.1875 -0.125,-0.1875 l -13.75,0 z m 6.875,1 1.75,1.8125 -0.71875,0.6875 -0.53125,-0.53125 0,4.03125 1.5,0 0,-0.84375 -0.53125,0 0,-2 2,0 0,2 -0.46875,0 0,1.34375 -0.5,0.5 -2,0 0,1.96875 c 0.59962,0.21412 1.03128,0.79734 1.03125,1.46875 -4e-5,0.848 -0.68402,1.5625 -1.53125,1.5625 -0.84724,0 -1.53121,-0.7145 -1.53125,-1.5625 -3e-5,-0.67206 0.4302,-1.25514 1.03125,-1.46875 l 0,-0.96875 -2,0 -0.5,-0.5 0,-1.625 c -0.29871,-0.17769 -0.49997,-0.5088 -0.5,-0.875 -6e-5,-0.5467 0.44703,-1 1,-1 0.55296,0 1.00005,0.4533 1,1 -3e-5,0.35893 -0.21108,0.66372 -0.5,0.84375 l 0,1.15625 1.5,0 0,-5.03125 -0.5,0.53125 -0.75,-0.6875 1.75,-1.8125 z m 0,9.875 c -0.29551,0 -0.53127,0.2438 -0.53125,0.5625 10e-6,0.3187 0.23576,0.5625 0.53125,0.5625 0.29549,0 0.53123,-0.2438 0.53125,-0.5625 10e-6,-0.3187 -0.23574,-0.5625 -0.53125,-0.5625 z m -3,4.125 0,3.90625 c 0.002,0.002 0.0177,0.0213 0.0312,0.0312 0.0416,0.029 0.13174,0.0625 0.25,0.0625 l 0.71875,0 4,0 0.71875,0 c 0.11826,0 0.2084,-0.0325 0.25,-0.0625 0.0156,-0.0109 0.0293,-0.0306 0.0312,-0.0312 l 0,-3.90625 -3,0 -3,0 z m 2,5 0,2 2,0 0,-2 -2,0 z" id="path4783" style="font-size:medium;font-style:normal;font-variant:normal;font-weight:normal;font-stretch:normal;text-indent:0;text-align:start;text-decoration:none;line-height:normal;letter-spacing:normal;word-spacing:normal;text-transform:none;direction:ltr;block-progression:tb;writing-mode:lr-tb;text-anchor:start;baseline-shift:baseline;color:#000000;fill:#000000;fill-opacity:1;fill-rule:nonzero;stroke:none;visibility:visible;display:inline;overflow:visible;enable-background:accumulate;font-family:sans-serif" transform="translate(-1100.2142,676.14997)"/></g></g></g></svg>