<?xml version="1.0" ?><svg height="40px" id="Layer_1" style="enable-background:new 0 0 40 40;" version="1.1" viewBox="0 0 40 40" width="40px" xml:space="preserve" xmlns="http://www.w3.org/2000/svg" xmlns:xlink="http://www.w3.org/1999/xlink"><path d="M11.4931965,2h16.9951C31.5165958,2,34,4.4629002,34,7.4921999  V9H6V7.4921999C6,4.4629002,8.4638968,2,11.4931965,2L11.4931965,2z M6,29h28v1.4862995C34,33.5150986,31.5170956,36,28.4882965,36  c-5.6651001,0-11.3300991,0-16.9951,0C8.4638968,36,6,33.5150986,6,30.4862995V29L6,29z M6,20h28v7H6V20L6,20z M6,11h28v7H6V11z" style="fill-rule:evenodd;clip-rule:evenodd;fill:#3C79CF;"/></svg>