<?xml version="1.0" ?><!DOCTYPE svg  PUBLIC '-//W3C//DTD SVG 1.1//EN'  'http://www.w3.org/Graphics/SVG/1.1/DTD/svg11.dtd'><svg enable-background="new 0 0 500 500" height="500px" id="Layer_1" version="1.1" viewBox="0 0 500 500" width="500px" xml:space="preserve" xmlns="http://www.w3.org/2000/svg" xmlns:xlink="http://www.w3.org/1999/xlink"><g><path d="M413.014,122.641C412.403,101.115,394.758,84,373.086,84h-305C46.03,84,28,101.522,28,123.579v313   C28,458.636,46.03,477,68.086,477h305C395.143,477,413,458.636,413,436.579V122.413C413,122.419,413.023,122.635,413.014,122.641z    M393,437c0,11.046-8.954,20-20,20H68c-11.046,0-20-8.954-20-20V124c0-11.046,8.954-20,20-20h305c11.046,0,20,8.954,20,20V437z" fill="#333333"/><g><path d="M470.803,64.852C470.192,43.326,452.337,26,430.665,26h-305c-21.402,0-38.614,16.896-39.616,38.051    C86.724,64.018,87.403,64,88.086,64h18.015c1.003-10.106,9.528-18,19.899-18h305c11.046,0,20,8.954,20,20v313    c0,10.371-7.894,18.896-18,19.898v17.681c0,0.79-0.029,1.573-0.074,2.354c21.03-1.177,38.074-18.634,38.074-39.932V64.835    C471,64.841,470.813,64.846,470.803,64.852z" fill="#333333"/></g><g><path d="M89.629,154.499l10.183,0.192l-0.284,97.294c-0.004,1.329,0.521,2.604,1.459,3.545    c0.938,0.941,2.212,1.47,3.541,1.47H309h5.9l-1.809,9.344c-0.525,2.711,1.248,5.334,3.958,5.859    c0.321,0.062,0.641,0.092,0.956,0.092c2.347,0,4.441-1.661,4.903-4.051L325.085,257H340c2.761,0,5-2.238,5-5s-2.239-5-5-5h-12.955    l17.525-91.832c0.276-1.448-0.1-2.939-1.028-4.084c-0.929-1.145-2.315-1.813-3.788-1.84l-229.913-4.331l0.023-7.964    c0.008-2.762-2.224-4.949-4.985-4.949c-0.005,0-0.01,0-0.015,0c-2.754,0-4.992,2.164-5,4.92l-0.023,7.771l-10.023-0.189    c-2.768-0.073-5.042,2.144-5.094,4.904C84.672,152.166,86.868,154.447,89.629,154.499z M109.812,154.881l223.824,4.232    l-14.785,77.474L316.835,247H309H109.543L109.812,154.881z" fill="#7BB54D"/><path d="M255,318h21c2.761,0,5-2.238,5-5s-2.239-5-5-5h-21c-2.761,0-5,2.238-5,5S252.239,318,255,318z" fill="#7BB54D"/><path d="M306,313c0,2.762,2.239,5,5,5h38c2.761,0,5-2.238,5-5s-2.239-5-5-5h-38C308.239,308,306,310.238,306,313z" fill="#7BB54D"/><path d="M298,318c2.761,0,5-2.238,5-5s-2.239-5-5-5h-8c-2.761,0-5,2.238-5,5s2.239,5,5,5H298z" fill="#7BB54D"/><path d="M349,341h-13c-2.761,0-5,2.238-5,5s2.239,5,5,5h13c2.761,0,5-2.238,5-5S351.761,341,349,341z" fill="#7BB54D"/><path d="M255,351h46c2.761,0,5-2.238,5-5s-2.239-5-5-5h-46c-2.761,0-5,2.238-5,5S252.239,351,255,351z" fill="#7BB54D"/><path d="M315,341c-2.761,0-5,2.238-5,5s2.239,5,5,5h8c2.761,0,5-2.238,5-5s-2.239-5-5-5H315z" fill="#7BB54D"/><path d="M267,375h-12c-2.761,0-5,2.238-5,5s2.239,5,5,5h12c2.761,0,5-2.238,5-5S269.761,375,267,375z" fill="#7BB54D"/><path d="M349,375h-46c-2.761,0-5,2.238-5,5s2.239,5,5,5h46c2.761,0,5-2.238,5-5S351.761,375,349,375z" fill="#7BB54D"/><path d="M288,375h-7c-2.761,0-5,2.238-5,5s2.239,5,5,5h7c2.761,0,5-2.238,5-5S290.761,375,288,375z" fill="#7BB54D"/><path d="M228.899,396.876l-15.883,0.636l-0.93-11.934l-4.318-62.613l-1.248-18.272l14.358-1.065    c2.754-0.204,4.821-2.603,4.616-5.356s-2.612-4.835-5.356-4.616l-14.299,1.062l-0.55-8.057c-0.188-2.754-2.556-4.836-5.329-4.647    c-2.755,0.188-4.836,2.574-4.647,5.329l0.554,8.115l-15.674,1.163L108,301.599V294c0-2.762-2.239-5-5-5s-5,2.238-5,5v8.288    l-9.432,0.65c-2.755,0.19-4.834,2.577-4.644,5.332c0.19,2.754,2.567,4.823,5.333,4.645L98,312.312V407    c0,1.361,0.555,2.664,1.538,3.607c0.933,0.896,2.174,1.393,3.462,1.393c0.068,0,0.136-0.001,0.205-0.004l86.148-3.529    l14.442-0.578l1.507,19.335c0.204,2.621,2.394,4.611,4.979,4.611c0.13,0,0.262-0.005,0.394-0.015    c2.753-0.215,4.811-2.621,4.596-5.374l-1.478-18.958l15.506-0.62c2.759-0.11,4.906-2.437,4.796-5.196    S231.687,396.758,228.899,396.876z M108,311.622L180.875,307c0.003,0,0.005,0,0.008,0l0.051-0.206l15.606-1.177l1.354,18.364    l0.105,0.257c0,0.001,0,0.002,0,0.002l4.996,73.663l-13.88,0.817L188.328,399c-0.002,0-0.004,0-0.007,0L108,401.791V311.622z" fill="#7BB54D"/></g></g></svg>