<?xml version="1.0" ?><svg height="24px" version="1.1" viewBox="0 0 24 24" width="24px" xmlns="http://www.w3.org/2000/svg" xmlns:sketch="http://www.bohemiancoding.com/sketch/ns" xmlns:xlink="http://www.w3.org/1999/xlink"><title/><desc/><defs/><g fill="none" fill-rule="evenodd" id="miu" stroke="none" stroke-width="1"><g id="Artboard-1" transform="translate(-359.000000, -371.000000)"><g id="slice" transform="translate(215.000000, 119.000000)"/><path d="M373.207107,391 L379.5,391 C379.5,391 380,391.089109 380,390.544554 C380,390 379.5,390 379.5,390 L363.5,390 C363.5,390 363.000001,390 363,390.544554 C363,391.089109 363.5,391 363.5,391 L369.792893,391 L369.792893,391 L367.292893,393.5 L368,394.207107 L371.207107,391 L371.792893,391 L375,394.207107 L375.707107,393.5 L373.207107,391 Z M365,375 C365,375 363,375 363,377 L363,387 C363,389 365,389 365,389 L378,389 C378,389 380,389 380,387 L380,377 C380,375 378,375 378,375 L365,375 Z M365,376 C365,376 364,376 364,377 L364,387 C364,388 365,388 365,388 L378,388 C378,388 379,388 379,387 L379,377 C379,376 378,376 378,376 L365,376 Z M372,373 L372.051948,372 L371,372 L371,373 L370,373 L370,374 L373,374 L373,373 L372,373 Z M365,385 L365,386 L378,386 L378,385 L365,385 Z M365,377 L365,379 L378,379 L378,377 L365,377 Z M365,382 L365,383 L378,383 L378,382 L365,382 Z" fill="#000000" id="device-board-presentation-content-text-outline-stroke"/></g></g></svg>