<?xml version="1.0" ?><!DOCTYPE svg  PUBLIC '-//W3C//DTD SVG 1.1//EN'  'http://www.w3.org/Graphics/SVG/1.1/DTD/svg11.dtd'><svg enable-background="new 0 0 128 128" id="Layer_1" version="1.1" viewBox="0 0 128 128" xml:space="preserve" xmlns="http://www.w3.org/2000/svg" xmlns:xlink="http://www.w3.org/1999/xlink"><path d="M117,104c0,2.2-1.8,4-4,4H9c-2.2,0-4-1.8-4-4V24c0-2.2,1.8-4,4-4h104c2.2,0,4,1.8,4,4V104z" fill="#D8E3EA"/><path d="M113,108H9c-2.2,0-4-1.8-4-4V37h112v67C117,106.2,115.2,108,113,108z" fill="#FFFFFF"/><path d="M117,103.8  c0,2.2-1.8,4.2-4,4.2H9c-2.2,0-4-1.8-4-4V24c0-2.2,1.8-4,4-4h104c2.2,0,4,1.8,4,4v42" fill="none" stroke="#4A7DA7" stroke-linecap="round" stroke-miterlimit="10" stroke-width="4"/><line fill="none" stroke="#4A7DA7" stroke-linecap="round" stroke-miterlimit="10" stroke-width="2" x1="5" x2="109" y1="37" y2="37"/><circle cx="16.8" cy="29.7" fill="#4A7DA7" r="2.1"/><circle cx="25.3" cy="29.7" fill="#4A7DA7" r="2.1"/><circle cx="33.8" cy="29.7" fill="#4A7DA7" r="2.1"/><line fill="none" stroke="#4A7DA7" stroke-linecap="round" stroke-miterlimit="10" stroke-width="2" x1="23" x2="39" y1="47" y2="47"/><line fill="none" stroke="#D8E3EA" stroke-linecap="round" stroke-miterlimit="10" stroke-width="2" x1="23" x2="39" y1="63" y2="63"/><line fill="none" stroke="#D8E3EA" stroke-linecap="round" stroke-miterlimit="10" stroke-width="2" x1="28" x2="39" y1="52" y2="52"/><line fill="none" stroke="#B2DDC9" stroke-linecap="round" stroke-miterlimit="10" stroke-width="2" x1="72" x2="83" y1="52" y2="52"/><line fill="none" stroke="#F3B0AE" stroke-linecap="round" stroke-miterlimit="10" stroke-width="2" x1="43" x2="66" y1="52" y2="52"/><line fill="none" stroke="#D8E3EA" stroke-linecap="round" stroke-miterlimit="10" stroke-width="2" x1="28" x2="40" y1="57" y2="57"/><line fill="none" stroke="#D8E3EA" stroke-linecap="round" stroke-miterlimit="10" stroke-width="2" x1="88" x2="100" y1="52" y2="52"/><line fill="none" stroke="#D8E3EA" stroke-linecap="round" stroke-miterlimit="10" stroke-width="2" x1="41" x2="65" y1="57" y2="57"/><line fill="none" stroke="#4A7DA7" stroke-linecap="round" stroke-miterlimit="10" stroke-width="2" x1="23" x2="32" y1="93" y2="93"/><line fill="none" stroke="#D8E3EA" stroke-linecap="round" stroke-miterlimit="10" stroke-width="2" x1="28" x2="39" y1="98" y2="98"/><line fill="none" stroke="#B2DDC9" stroke-linecap="round" stroke-miterlimit="10" stroke-width="2" x1="72" x2="88" y1="98" y2="98"/><line fill="none" stroke="#F3B0AE" stroke-linecap="round" stroke-miterlimit="10" stroke-width="2" x1="43" x2="66" y1="98" y2="98"/><line fill="none" stroke="#4A7DA7" stroke-linecap="round" stroke-miterlimit="10" stroke-width="2" x1="23" x2="41" y1="70" y2="70"/><line fill="none" stroke="#D8E3EA" stroke-linecap="round" stroke-miterlimit="10" stroke-width="2" x1="23" x2="39" y1="86" y2="86"/><line fill="none" stroke="#D8E3EA" stroke-linecap="round" stroke-miterlimit="10" stroke-width="2" x1="28" x2="39" y1="75" y2="75"/><line fill="none" stroke="#F3B0AE" stroke-linecap="round" stroke-miterlimit="10" stroke-width="2" x1="43" x2="58" y1="75" y2="75"/><line fill="none" stroke="#D8E7C9" stroke-linecap="round" stroke-miterlimit="10" stroke-width="2" x1="63" x2="73" y1="75" y2="75"/><line fill="none" stroke="#B2DDC9" stroke-linecap="round" stroke-miterlimit="10" stroke-width="2" x1="28" x2="40" y1="80" y2="80"/><line fill="none" stroke="#D8E3EA" stroke-linecap="round" stroke-miterlimit="10" stroke-width="2" x1="45" x2="69" y1="80" y2="80"/><path d="M124.3,100.4c0.2,0,0.4-0.2,0.4-0.4c0.2-1.2,0.3-2.4,0.3-3.7c0-1.3-0.1-2.6-0.3-3.9c0-0.2-0.2-0.4-0.4-0.4  c-2.1-0.2-4.1-0.4-6.2-0.6c-0.5-2-1.3-4-2.4-5.7c1.3-1.6,2.6-3.2,3.9-4.8c0.1-0.2,0.1-0.4,0-0.6c-1.5-2-3.3-3.9-5.4-5.4  c-0.2-0.1-0.4-0.1-0.6,0c-1.6,1.3-3.2,2.6-4.8,4c-1.8-1.1-3.7-1.9-5.8-2.4c-0.2-2.1-0.4-4.1-0.6-6.2c0-0.2-0.2-0.4-0.4-0.4  c-1.2-0.2-2.5-0.3-3.8-0.3c-1.3,0-2.6,0.1-3.8,0.3c-0.2,0-0.4,0.2-0.4,0.4c-0.2,2.1-0.4,4.1-0.6,6.2c-2.1,0.5-4.1,1.3-5.8,2.4  c-1.6-1.3-3.1-2.7-4.7-4c-0.2-0.1-0.4-0.1-0.6,0c-2,1.5-3.9,3.3-5.4,5.4c-0.1,0.2-0.1,0.4,0,0.6c1.3,1.6,2.6,3.2,3.9,4.8  c-1.1,1.8-1.9,3.7-2.4,5.8c-2,0.2-4.1,0.3-6.2,0.5c-0.2,0-0.4,0.2-0.4,0.4c-0.2,1.3-0.3,2.6-0.3,3.9c0,1.3,0.1,2.5,0.3,3.7  c0,0.2,0.2,0.4,0.4,0.4c2.1,0.2,4.1,0.5,6.2,0.6c0.5,2.1,1.3,4.1,2.5,5.9c-1.3,1.6-2.7,3.1-4,4.7c-0.1,0.2-0.1,0.4,0,0.6  c1.5,2,3.3,3.9,5.4,5.4c0.2,0.1,0.4,0.1,0.6,0c1.6-1.3,3.2-2.6,4.8-3.9c1.8,1.1,3.8,1.9,5.8,2.4c0.2,2,0.3,4.1,0.6,6.2  c0,0.2,0.2,0.4,0.4,0.4c1.2,0.2,2.5,0.3,3.8,0.3c1.3,0,2.6-0.1,3.8-0.3c0.2,0,0.4-0.2,0.4-0.4c0.2-2.1,0.5-4.1,0.6-6.2  c2.1-0.5,4-1.3,5.8-2.4c1.6,1.3,3.2,2.6,4.8,3.9c0.2,0.1,0.4,0.1,0.6,0c2-1.5,3.8-3.4,5.4-5.4c0.1-0.2,0.1-0.4,0-0.6  c-1.3-1.6-2.6-3.2-4-4.8c1.1-1.8,1.9-3.7,2.4-5.8C120.2,100.9,122.3,100.6,124.3,100.4z M98.3,106.4c-5.6,0-10.1-4.5-10.1-10.1  c0-5.6,4.5-10.1,10.1-10.1c5.6,0,10.1,4.5,10.1,10.1C108.4,101.9,103.9,106.4,98.3,106.4z" fill="#B0D6EC"/><path d="M124.3,100.4  c0.2,0,0.4-0.2,0.4-0.4c0.2-1.2,0.3-2.4,0.3-3.7c0-1.3-0.1-2.6-0.3-3.9c0-0.2-0.2-0.4-0.4-0.4c-2.1-0.2-4.1-0.4-6.2-0.6  c-0.5-2-1.3-4-2.4-5.7c1.3-1.6,2.6-3.2,3.9-4.8c0.1-0.2,0.1-0.4,0-0.6c-1.5-2-3.3-3.9-5.4-5.4c-0.2-0.1-0.4-0.1-0.6,0  c-1.6,1.3-3.2,2.6-4.8,4c-1.8-1.1-3.7-1.9-5.8-2.4c-0.2-2.1-0.4-4.1-0.6-6.2c0-0.2-0.2-0.4-0.4-0.4c-1.2-0.2-2.5-0.3-3.8-0.3  c-1.3,0-2.6,0.1-3.8,0.3c-0.2,0-0.4,0.2-0.4,0.4c-0.2,2.1-0.4,4.1-0.6,6.2c-2.1,0.5-4.1,1.3-5.8,2.4c-1.6-1.3-3.1-2.7-4.7-4  c-0.2-0.1-0.4-0.1-0.6,0c-2,1.5-3.9,3.3-5.4,5.4c-0.1,0.2-0.1,0.4,0,0.6c1.3,1.6,2.6,3.2,3.9,4.8c-1.1,1.8-1.9,3.7-2.4,5.8  c-2,0.2-4.1,0.3-6.2,0.5c-0.2,0-0.4,0.2-0.4,0.4c-0.2,1.3-0.3,2.6-0.3,3.9c0,1.3,0.1,2.5,0.3,3.7c0,0.2,0.2,0.4,0.4,0.4  c2.1,0.2,4.1,0.5,6.2,0.6c0.5,2.1,1.3,4.1,2.5,5.9c-1.3,1.6-2.7,3.1-4,4.7c-0.1,0.2-0.1,0.4,0,0.6c1.5,2,3.3,3.9,5.4,5.4  c0.2,0.1,0.4,0.1,0.6,0c1.6-1.3,3.2-2.6,4.8-3.9c1.8,1.1,3.8,1.9,5.8,2.4c0.2,2,0.3,4.1,0.6,6.2c0,0.2,0.2,0.4,0.4,0.4  c1.2,0.2,2.5,0.3,3.8,0.3c1.3,0,2.6-0.1,3.8-0.3c0.2,0,0.4-0.2,0.4-0.4c0.2-2.1,0.5-4.1,0.6-6.2c2.1-0.5,4-1.3,5.8-2.4  c1.6,1.3,3.2,2.6,4.8,3.9c0.2,0.1,0.4,0.1,0.6,0c2-1.5,3.8-3.4,5.4-5.4c0.1-0.2,0.1-0.4,0-0.6c-1.3-1.6-2.6-3.2-4-4.8  c1.1-1.8,1.9-3.7,2.4-5.8C120.2,100.9,122.3,100.6,124.3,100.4z" fill="none" stroke="#4A7DA7" stroke-linecap="round" stroke-miterlimit="10" stroke-width="4"/><path d="M98.3,86.2  c5.6,0,10.1,4.5,10.1,10.1c0,5.6-4.5,10.1-10.1,10.1c-5.6,0-10.1-4.5-10.1-10.1c0-2.3,0.8-4.5,2.1-6.2" fill="none" stroke="#4A7DA7" stroke-linecap="round" stroke-miterlimit="10" stroke-width="2"/></svg>