<?xml version="1.0" encoding="UTF-8"?>
<svg width="440px" height="380px" viewBox="0 0 440 380" version="1.1" xmlns="http://www.w3.org/2000/svg" xmlns:xlink="http://www.w3.org/1999/xlink">
    <!-- Generator: Sketch 41.2 (35397) - http://www.bohemiancoding.com/sketch -->
    <title>button</title>
    <desc>Created with Sketch.</desc>
    <defs></defs>
    <g id="Page-1" stroke="none" stroke-width="1" fill="none" fill-rule="evenodd">
        <g id="powermate-copy-3" transform="translate(4.000000, 6.000000)">
            <path d="M42.3811142,36.2186463 L42.3811142,125.373789 L49.1565474,160.632734 L61.0546663,166.042829 L60.3802552,204.323485 L0.400737445,250.131208 L0.251466488,334.459808 C0.251466488,334.459808 41.5650883,355.303084 68.7546049,361.689479 C95.9441215,368.075874 160.924278,372.199356 160.924278,372.199356 L211.378352,372.199356 L272.440154,372.199356 C272.440154,372.199356 341.767248,367.506333 372.956576,360.238969 C404.145905,352.971605 432.712432,334.85463 432.712432,334.85463 L432.954202,250.178665 L372.956576,204.206555 L372.495549,165.627948 L384.272783,160.12832 L391.007595,125.220045 L390.818682,36.4481032 C390.818682,36.4481032 391.007595,36.4481032 384.302637,26.4503372 C356.202311,-9.99780924 76.2640004,-4.53031292 51.1132205,23.6435262 C42.3811142,36.4481032 42.3811142,36.2186463 42.3811142,36.2186463 Z" id="Path-2" fill="#FFFFFF"></path>
            <ellipse id="Oval" stroke="#979797" stroke-width="8" cx="216.875333" cy="27.3892241" rx="167.137592" ry="27.3892241"></ellipse>
            <path d="M390.00571,36.2086522 C390.00571,51.8876356 312.336062,64.6268095 216.530353,64.6268095 C120.724645,64.6268095 43.0549968,51.8876356 43.0549968,36.2086522" id="Shape" stroke="#979797" stroke-width="8"></path>
            <polyline id="Shape" stroke="#979797" stroke-width="8" points="43.0549968 125.147685 43.0549968 37.1885887 51.166941 23.7928573"></polyline>
            <path d="M43.0549968,124.167749 L49.7278841,159.445461 C49.7278841,159.445461 82.9641853,175.418426 106.383358,178.838404 C129.802532,182.258382 216.185374,185.697959 216.520497,185.697959" id="Shape" stroke="#979797" stroke-width="8"></path>
            <path d="M61.6641714,164.795914 L60.9150733,222.034003 C60.9150733,222.034003 61.6050321,238.467538 123.602759,246.689204 C185.600486,254.910871 216.520497,252.167049 216.520497,252.167049" id="Shape" stroke="#979797" stroke-width="8"></path>
            <polyline id="Shape" stroke="#979797" stroke-width="8" points="389.956427 124.941899 389.739583 36.9730026 384.012925 27.3892241"></polyline>
            <path d="M389.956427,123.961962 L383.372249,159.239675 C383.372249,159.239675 350.135948,175.330231 326.756201,178.818805 C303.376454,182.307379 216.973898,185.942943 216.628919,185.942943" id="Shape" stroke="#979797" stroke-width="8"></path>
            <path d="M371.445818,164.619526 L372.332908,221.847815 C372.332908,221.847815 371.682375,238.291149 309.724075,246.659806 C247.765774,255.028464 216.816193,252.363037 216.816193,252.363037 L211.119105,252.441431" id="Shape" stroke="#979797" stroke-width="8"></path>
            <path d="M371.918933,204.19916 C383.500384,209.373224 390.00571,215.213645 390.00571,221.387245 C390.00571,242.710662 312.336062,259.996742 216.530353,259.996742 C120.724645,259.996742 43.0549968,242.710662 43.0549968,221.387245 C43.0549968,215.252843 49.4814702,209.451619 60.9150733,204.306953" id="Shape" stroke="#979797" stroke-width="8"></path>
            <path d="M49.7278841,210.82353 L0.987222813,249.717208" id="Shape" stroke="#979797" stroke-width="8"></path>
            <path d="M0.987222813,249.717208 C0.987222813,249.717208 -5.24211954,269.933297 52.8326987,283.035048 C110.907517,296.136798 120.202248,294.578699 120.202248,294.578699 C120.202248,294.578699 156.592646,297.6557 174.413297,298.42985 C192.233947,299.203999 227.06701,299.203999 237.90922,299.203999 C248.75143,299.203999 265.783555,298.42985 282.04687,296.891349 C298.310185,295.352849 330.058146,292.275849 335.479251,291.501699 C340.900356,290.727549 397.861384,281.496548 407.708082,276.871247 C417.554779,272.245947 432.08334,260.006541 432.08334,260.006541" id="Shape" stroke="#979797" stroke-width="8"></path>
            <path d="M160.811252,369.965211 C133.212899,369.279256 131.192306,368.5933 86.4041228,363.105656 C41.6159398,357.618012 0.987222813,332.982409 0.987222813,332.982409 L0.987222813,249.68781 L2.70226327,248.315899" id="Shape" stroke="#979797" stroke-width="8"></path>
            <path d="M160.811252,369.861224 L211.099392,369.861224" id="Shape" stroke="#979797" stroke-width="8"></path>
            <path d="M383.332823,210.82353 L432.073484,249.717208" id="Shape" stroke="#979797" stroke-width="8"></path>
            <path d="M272.269168,369.965211 C299.86752,369.279256 301.888114,368.5933 346.676297,363.105656 C391.46448,357.618012 432.103054,332.97261 432.103054,332.97261 L432.103054,249.678011 L428.988382,247.22817" id="Shape" stroke="#979797" stroke-width="8"></path>
            <path d="M272.249455,369.861224 L211.099392,369.861224" id="Shape" stroke="#979797" stroke-width="8"></path>
        </g>
    </g>
</svg>
