<?xml version="1.0" encoding="UTF-8"?>
<svg width="440px" height="380px" viewBox="0 0 440 380" version="1.1" xmlns="http://www.w3.org/2000/svg" xmlns:xlink="http://www.w3.org/1999/xlink">
    <!-- Generator: Sketch 41.2 (35397) - http://www.bohemiancoding.com/sketch -->
    <title>button-group</title>
    <desc>Created with Sketch.</desc>
    <defs></defs>
    <g id="Page-1" stroke="none" stroke-width="1" fill="none" fill-rule="evenodd">
        <g id="powermate-copy-2" transform="translate(205.000000, 31.000000)">
            <path d="M23.6052825,19.618037 L23.6052825,67.9094302 L27.2720043,87.0076396 L33.7110157,89.9380486 L33.3460386,110.672985 L0.886386338,135.485 L0.805604039,181.162069 C0.805604039,181.162069 23.1636664,192.451948 37.8780604,195.911176 C52.5924544,199.370403 87.7583471,201.603911 87.7583471,201.603911 L115.06303,201.603911 L148.108392,201.603911 C148.108392,201.603911 185.626755,199.061908 202.505763,195.125499 C219.384771,191.18909 234.844375,181.375927 234.844375,181.375927 L234.975215,135.510706 L202.505763,110.609649 L202.256265,89.7133256 L208.629856,86.734421 L212.274595,67.8261541 L212.172359,19.7423236 C212.172359,19.7423236 212.274595,19.7423236 208.646013,14.3269765 C193.438707,-5.41537058 41.9419872,-2.45386991 28.3309146,12.8066513 C23.6052825,19.7423236 23.6052825,19.618037 23.6052825,19.618037 Z" id="Path-2" fill="#FFFFFF"></path>
            <ellipse id="Oval" stroke="#979797" stroke-width="8" cx="118.03788" cy="14.8355299" rx="90.4513462" ry="14.8355299"></ellipse>
            <path d="M211.732395,19.6126236 C211.732395,28.1052347 169.699217,35.0054812 117.851184,35.0054812 C66.003152,35.0054812 23.9699735,28.1052347 23.9699735,19.6126236" id="Shape" stroke="#979797" stroke-width="8"></path>
            <polyline id="Shape" stroke="#979797" stroke-width="8" points="23.9699735 67.7869598 23.9699735 20.1434118 28.359987 12.8875373"></polyline>
            <path d="M23.9699735,67.2561716 L27.5811996,86.3645465 C27.5811996,86.3645465 45.5679862,95.016394 58.2419497,96.8688448 C70.9159131,98.7212956 117.664489,100.584362 117.84585,100.584362" id="Shape" stroke="#979797" stroke-width="8"></path>
            <path d="M34.0408671,89.26265 L33.6354709,120.265988 C33.6354709,120.265988 34.0088621,129.167306 67.5607267,133.620619 C101.112591,138.073932 117.84585,136.587725 117.84585,136.587725" id="Shape" stroke="#979797" stroke-width="8"></path>
            <polyline id="Shape" stroke="#979797" stroke-width="8" points="211.705725 67.6754943 211.588373 20.0266384 208.489226 14.8355299"></polyline>
            <path d="M211.705725,67.1447061 L208.142506,86.253081 C208.142506,86.253081 190.155719,94.9686231 177.503092,96.858229 C164.850466,98.747835 118.091222,100.717059 117.904526,100.717059" id="Shape" stroke="#979797" stroke-width="8"></path>
            <path d="M201.688173,89.1671082 L202.168247,120.165138 C202.168247,120.165138 201.816192,129.071764 168.285664,133.604695 C134.755137,138.137627 118.005875,136.693883 118.005875,136.693883 L114.922731,136.736346" id="Shape" stroke="#979797" stroke-width="8"></path>
            <path d="M201.944212,110.605643 C208.21185,113.408205 211.732395,116.571702 211.732395,119.915668 C211.732395,131.465619 169.699217,140.828723 117.851184,140.828723 C66.003152,140.828723 23.9699735,131.465619 23.9699735,119.915668 C23.9699735,116.592934 27.4478456,113.450668 33.6354709,110.66403" id="Shape" stroke="#979797" stroke-width="8"></path>
            <path d="M27.5811996,114.193771 L1.20377987,135.260755" id="Shape" stroke="#979797" stroke-width="8"></path>
            <path d="M1.20377987,135.260755 C1.20377987,135.260755 -2.16740906,146.210915 29.26146,153.307553 C60.690329,160.404191 65.7204416,159.560238 65.7204416,159.560238 C65.7204416,159.560238 85.4141592,161.226913 95.05832,161.646236 C104.702481,162.065558 123.553401,162.065558 129.420977,162.065558 C135.288553,162.065558 144.505981,161.646236 153.307344,160.812898 C162.108708,159.979561 179.290036,158.312886 182.223824,157.893563 C185.157612,157.47424 215.983721,152.474216 221.312546,149.968895 C226.641372,147.463575 234.503923,140.834031 234.503923,140.834031" id="Shape" stroke="#979797" stroke-width="8"></path>
            <path d="M87.6971796,200.393774 C72.7615324,200.022222 71.6680297,199.65067 47.4296079,196.678256 C23.1911862,193.705842 1.20377987,180.361827 1.20377987,180.361827 L1.20377987,135.244831 L2.13192366,134.501728" id="Shape" stroke="#979797" stroke-width="8"></path>
            <path d="M87.6971796,200 L114.912062,200" id="Shape" stroke="#979797" stroke-width="8"></path>
            <path d="M208.121169,114.193771 L234.498589,135.260755" id="Shape" stroke="#979797" stroke-width="8"></path>
            <path d="M148.015858,200.393774 C162.951505,200.022222 164.045008,199.65067 188.283429,196.678256 C212.521851,193.705842 234.514591,180.356519 234.514591,180.356519 L234.514591,135.239523 L232.828997,133.912553" id="Shape" stroke="#979797" stroke-width="8"></path>
            <path d="M148.005189,200 L114.912062,200" id="Shape" stroke="#979797" stroke-width="8"></path>
        </g>
        <g id="powermate-copy-4" transform="translate(0.000000, 1.000000)">
            <path d="M18.5828819,15.4419202 L18.5828819,53.4534624 L21.4694502,68.4862114 L26.5384592,70.7928204 L26.2511368,87.1138841 L0.6977935,106.644134 L0.634198924,142.597866 C0.634198924,142.597866 18.2352268,151.484454 29.8188986,154.207312 C41.4025705,156.930169 69.0863583,158.688227 69.0863583,158.688227 L90.5815339,158.688227 L116.595968,158.688227 C116.595968,158.688227 146.131701,156.687343 159.419431,153.588883 C172.70716,150.490422 184.877486,142.7662 184.877486,142.7662 L184.980489,106.664367 L159.419431,87.0640306 L159.223017,70.6159345 L164.240525,68.2711531 L167.109787,53.3879134 L167.029304,15.5397498 C167.029304,15.5397498 167.109787,15.5397498 164.253244,11.2771746 C152.281536,-4.26259367 33.0181601,-1.93151147 22.3030604,10.0804829 C18.5828819,15.5397498 18.5828819,15.4419202 18.5828819,15.4419202 Z" id="Path-2" fill="#FFFFFF"></path>
            <ellipse id="Oval" stroke="#979797" stroke-width="8" cx="92.9234375" cy="11.6774716" rx="71.2063789" ry="11.6774716"></ellipse>
            <path d="M166.68295,15.4376592 C166.68295,22.1224372 133.593,27.5538193 92.7764643,27.5538193 C51.9599282,27.5538193 18.8699792,22.1224372 18.8699792,15.4376592" id="Shape" stroke="#979797" stroke-width="8"></path>
            <polyline id="Shape" stroke="#979797" stroke-width="8" points="18.8699792 53.3570624 18.8699792 15.8554578 22.3259472 10.1441506"></polyline>
            <path d="M18.8699792,52.9392638 L21.7128593,67.9800143 C21.7128593,67.9800143 35.87267,74.7901319 45.8500455,76.2482491 C55.827421,77.7063663 92.6294912,79.1728395 92.7722651,79.1728395" id="Shape" stroke="#979797" stroke-width="8"></path>
            <path d="M26.7981294,70.2611948 L26.4789877,94.6648125 C26.4789877,94.6648125 26.772934,101.671295 53.186104,105.176626 C79.599274,108.681956 92.7722651,107.51212 92.7722651,107.51212" id="Shape" stroke="#979797" stroke-width="8"></path>
            <polyline id="Shape" stroke="#979797" stroke-width="8" points="166.661953 53.2693247 166.56957 15.7635421 164.129816 11.6774716"></polyline>
            <path d="M166.661953,52.8515261 L163.856866,67.8922766 C163.856866,67.8922766 149.697056,74.75253 139.736477,76.2398932 C129.775898,77.7272563 92.9654298,79.2772892 92.8184567,79.2772892" id="Shape" stroke="#979797" stroke-width="8"></path>
            <path d="M158.775795,70.1859911 L159.153726,94.5854308 C159.153726,94.5854308 158.876577,101.596092 132.480204,105.164092 C106.083831,108.732092 92.8982421,107.59568 92.8982421,107.59568 L90.4710859,107.629104" id="Shape" stroke="#979797" stroke-width="8"></path>
            <path d="M158.977359,87.0608776 C163.911456,89.2668543 166.68295,91.7569341 166.68295,94.3890654 C166.68295,103.480364 133.593,110.850331 92.7764643,110.850331 C51.9599282,110.850331 18.8699792,103.480364 18.8699792,94.3890654 C18.8699792,91.773646 21.6078785,89.3002782 26.4789877,87.1068354" id="Shape" stroke="#979797" stroke-width="8"></path>
            <path d="M21.7128593,89.8851963 L0.947656495,106.467624" id="Shape" stroke="#979797" stroke-width="8"></path>
            <path d="M0.947656495,106.467624 C0.947656495,106.467624 -1.7062582,115.086809 23.0356174,120.672777 C47.777493,126.258745 51.7373689,125.594445 51.7373689,125.594445 C51.7373689,125.594445 67.2409339,126.906332 74.8331455,127.236393 C82.4253572,127.566454 97.2654435,127.566454 101.884599,127.566454 C106.503754,127.566454 113.760027,127.236393 120.68876,126.58045 C127.617493,125.924506 141.14322,124.612618 143.452797,124.282557 C145.762375,123.952496 170.029738,120.016833 174.22477,118.044824 C178.419803,116.072814 184.609471,110.854509 184.609471,110.854509" id="Shape" stroke="#979797" stroke-width="8"></path>
            <path d="M69.0382052,157.735693 C57.2803553,157.443234 56.4195127,157.150775 37.338202,154.811103 C18.2568913,152.47143 0.947656495,141.967973 0.947656495,141.967973 L0.947656495,106.45509 L1.67832288,105.870172" id="Shape" stroke="#979797" stroke-width="8"></path>
            <path d="M69.0382052,157 L90.4626874,157" id="Shape" stroke="#979797" stroke-width="8"></path>
            <path d="M163.840069,89.8851963 L184.605272,106.467624" id="Shape" stroke="#979797" stroke-width="8"></path>
            <path d="M116.523122,157.735693 C128.280972,157.443234 129.141814,157.150775 148.223125,154.811103 C167.304436,152.47143 184.61787,141.963795 184.61787,141.963795 L184.61787,106.450912 L183.290913,105.406415" id="Shape" stroke="#979797" stroke-width="8"></path>
            <path d="M116.514723,157 L90.4626874,157" id="Shape" stroke="#979797" stroke-width="8"></path>
        </g>
        <g id="powermate-copy-3" transform="translate(71.000000, 134.000000)">
            <path d="M28.426787,23.5999158 L28.426787,81.6930274 L32.8424562,104.667606 L40.59667,108.192801 L40.1571444,133.136313 L1.06743546,162.984431 L0.970152949,217.932588 C0.970152949,217.932588 27.8949685,231.513977 45.6148557,235.675325 C63.334743,239.836673 105.683456,242.523517 105.683456,242.523517 L138.565265,242.523517 L178.360318,242.523517 C178.360318,242.523517 223.542007,239.465562 243.868643,234.730179 C264.195278,229.994796 282.812587,218.189852 282.812587,218.189852 L282.970153,163.015354 L243.868643,133.060122 L243.568183,107.922466 L251.243614,104.338932 L255.63281,81.5928487 L255.509691,23.7494289 C255.509691,23.7494289 255.63281,23.7494289 251.26307,17.2349272 C232.949592,-6.51452996 50.5088611,-2.95193262 34.1176545,15.4060211 C28.426787,23.7494289 28.426787,23.5999158 28.426787,23.5999158 Z" id="Path-2" fill="#FFFFFF"></path>
            <ellipse id="Oval" stroke="#979797" stroke-width="8" cx="142.147745" cy="17.8467018" rx="108.926515" ry="17.8467018"></ellipse>
            <path d="M254.979863,23.5934037 C254.979863,33.8097625 204.361185,42.1105541 141.922916,42.1105541 C79.4846469,42.1105541 28.8659681,33.8097625 28.8659681,23.5934037" id="Shape" stroke="#979797" stroke-width="8"></path>
            <polyline id="Shape" stroke="#979797" stroke-width="8" points="28.8659681 81.5456992 28.8659681 24.2319261 34.1526651 15.5033245"></polyline>
            <path d="M28.8659681,80.9071768 L33.2148064,103.893984 C33.2148064,103.893984 54.8754897,114.3019 70.1381777,116.530343 C85.4008656,118.758786 141.698087,121 141.916492,121" id="Shape" stroke="#979797" stroke-width="8"></path>
            <path d="M40.9938952,107.380317 L40.5056948,144.676412 C40.5056948,144.676412 40.9553531,155.384433 81.3603645,160.741636 C121.765376,166.098839 141.916492,164.310976 141.916492,164.310976" id="Shape" stroke="#979797" stroke-width="8"></path>
            <polyline id="Shape" stroke="#979797" stroke-width="8" points="254.947745 81.4116095 254.806424 24.0914512 251.07426 17.8467018"></polyline>
            <path d="M254.947745,80.7730871 L250.65672,103.759894 C250.65672,103.759894 228.996036,114.244433 213.759043,116.517573 C198.52205,118.790712 142.211982,121.159631 141.987153,121.159631" id="Shape" stroke="#979797" stroke-width="8"></path>
            <path d="M242.884055,107.265383 L243.462187,144.555092 C243.462187,144.555092 243.038223,155.269499 202.658907,160.72248 C162.27959,166.175462 142.109203,164.438681 142.109203,164.438681 L138.39631,164.489763" id="Shape" stroke="#979797" stroke-width="8"></path>
            <path d="M243.192392,133.055303 C250.740228,136.426702 254.979863,140.232296 254.979863,144.254987 C254.979863,158.149235 204.361185,169.41277 141.922916,169.41277 C79.4846469,169.41277 28.8659681,158.149235 28.8659681,144.254987 C28.8659681,140.257836 33.0542141,136.477784 40.5056948,133.125541" id="Shape" stroke="#979797" stroke-width="8"></path>
            <path d="M33.2148064,137.371715 L1.44965831,162.71467" id="Shape" stroke="#979797" stroke-width="8"></path>
            <path d="M1.44965831,162.71467 C1.44965831,162.71467 -2.6101139,175.887388 35.2382688,184.424433 C73.0866515,192.961478 79.1441913,191.946227 79.1441913,191.946227 C79.1441913,191.946227 102.860456,193.951187 114.474487,194.45562 C126.088519,194.960053 148.789841,194.960053 155.8559,194.960053 C162.921959,194.960053 174.022096,194.45562 184.621185,193.45314 C195.220273,192.45066 215.910979,190.445699 219.444009,189.941266 C222.977039,189.436834 260.099544,183.421953 266.516811,180.408127 C272.934077,177.394301 282.402597,169.419156 282.402597,169.419156" id="Shape" stroke="#979797" stroke-width="8"></path>
            <path d="M105.609795,241.067757 C87.6234624,240.620792 86.3066059,240.173826 57.1173576,236.5981 C27.9281093,233.022375 1.44965831,216.969921 1.44965831,216.969921 L1.44965831,162.695515 L2.56738041,161.801583" id="Shape" stroke="#979797" stroke-width="8"></path>
            <path d="M105.609795,241 L138.383462,241" id="Shape" stroke="#979797" stroke-width="8"></path>
            <path d="M250.631025,137.371715 L282.396173,162.71467" id="Shape" stroke="#979797" stroke-width="8"></path>
            <path d="M178.248884,241.067757 C196.235216,240.620792 197.552073,240.173826 226.741321,236.5981 C255.930569,233.022375 282.415444,216.963536 282.415444,216.963536 L282.415444,162.689129 L280.385558,161.092823" id="Shape" stroke="#979797" stroke-width="8"></path>
            <path d="M178.236036,241 L138.383462,241" id="Shape" stroke="#979797" stroke-width="8"></path>
        </g>
    </g>
</svg>
