<?xml version="1.0" ?><!DOCTYPE svg  PUBLIC '-//W3C//DTD SVG 1.1//EN'  'http://www.w3.org/Graphics/SVG/1.1/DTD/svg11.dtd'><svg enable-background="new 0 0 128 128" id="Layer_1" version="1.1" viewBox="0 0 128 128" xml:space="preserve" xmlns="http://www.w3.org/2000/svg" xmlns:xlink="http://www.w3.org/1999/xlink"><g><g><circle cx="64" cy="64" fill="#F16C6B" r="59.3"/></g><g><rect fill="#FFFFFF" height="59.7" width="26.5" x="50.8" y="65.8"/><path d="M77.2,127.5H50.8c-1.1,0-2-0.9-2-2V65.8c0-1.1,0.9-2,2-2h26.5c1.1,0,2,0.9,2,2v59.7    C79.2,126.6,78.3,127.5,77.2,127.5z M52.7,123.5h22.5V67.8H52.7V123.5z" fill="#313C42"/></g><g><polygon fill="#E8E8E8" points="80.2,34.7 47.8,34.7 42.8,17.2 85.2,17.2   "/><path d="M80.2,36.7H47.8c-0.9,0-1.7-0.6-1.9-1.5l-4.9-17.6c-0.2-0.6,0-1.2,0.3-1.7c0.4-0.5,1-0.8,1.6-0.8h42.3    c0.6,0,1.2,0.3,1.6,0.8c0.4,0.5,0.5,1.1,0.3,1.7l-4.9,17.6C81.9,36.1,81.1,36.7,80.2,36.7z M49.3,32.8h29.5l3.8-13.6H45.5    L49.3,32.8z" fill="#313C42"/></g><g><polygon fill="#FFE8AE" points="92,65.8 36,65.8 27.8,34.7 100.2,34.7   "/><path d="M92,67.8H36c-0.9,0-1.7-0.6-1.9-1.5l-8.3-31.1c-0.2-0.6,0-1.2,0.3-1.7c0.4-0.5,1-0.8,1.6-0.8h72.5    c0.6,0,1.2,0.3,1.6,0.8c0.4,0.5,0.5,1.1,0.3,1.7l-8.3,31.1C93.7,67.2,92.9,67.8,92,67.8z M37.6,63.8h52.9l7.2-27.1H30.3L37.6,63.8    z" fill="#313C42"/></g><g><path d="M64,18.6c-1.1,0-2-0.9-2-2V2.5c0-1.1,0.9-2,2-2s2,0.9,2,2v14.1C66,17.7,65.1,18.6,64,18.6z" fill="#313C42"/></g><g><path d="M73.1,4.5H54.9c-1.1,0-2-0.9-2-2s0.9-2,2-2h18.3c1.1,0,2,0.9,2,2S74.2,4.5,73.1,4.5z" fill="#313C42"/></g><g><rect fill="#E8E8E8" height="10.7" width="10.7" x="46" y="44.9"/><path d="M56.7,57.6H46c-1.1,0-2-0.9-2-2V44.9c0-1.1,0.9-2,2-2h10.7c1.1,0,2,0.9,2,2v10.7    C58.7,56.7,57.8,57.6,56.7,57.6z M48,53.6h6.7v-6.7H48V53.6z" fill="#313C42"/></g><g><rect fill="#E8E8E8" height="10.7" width="10.7" x="71.3" y="44.9"/><path d="M82,57.6H71.3c-1.1,0-2-0.9-2-2V44.9c0-1.1,0.9-2,2-2H82c1.1,0,2,0.9,2,2v10.7C84,56.7,83.1,57.6,82,57.6z     M73.3,53.6H80v-6.7h-6.7V53.6z" fill="#313C42"/></g></g></svg>