<?xml version="1.0" encoding="UTF-8"?>
<svg width="281px" height="257px" viewBox="0 0 281 257" version="1.1" xmlns="http://www.w3.org/2000/svg" xmlns:xlink="http://www.w3.org/1999/xlink" xmlns:sketch="http://www.bohemiancoding.com/sketch/ns">
    <!-- Generator: Sketch 3.4.2 (15855) - http://www.bohemiancoding.com/sketch -->
    <title>meeting-inverse</title>
    <desc>Created with Sketch.</desc>
    <defs></defs>
    <g id="Page-1" stroke="none" stroke-width="1" fill="none" fill-rule="evenodd" sketch:type="MSPage">
        <g id="meeting-group-inverse" sketch:type="MSLayerGroup" transform="translate(1.000000, 1.000000)">
            <g id="Group"></g>
            <path d="M35.8472564,124.858642 C36.4790374,133.227116 39.2013629,140.823181 43.2019429,147.940687 C53.8918453,140.7854 62.5919524,132.910176 68.6348012,124.082034 C76.081841,125.983674 97.5749887,131.474501 102.058325,135.059491 C107.687683,139.559619 109.423506,171.730075 110.302962,192.807633 C110.391117,194.877188 109.698467,196.690672 108.250198,198.183019 C106.80193,199.675365 105.001039,200.43728 102.906297,200.43728 L7.40871571,200.43728 C5.22581791,200.43728 3.34516749,199.6061 1.88850299,197.992015 C0.433937439,196.375831 -0.19364568,194.43641 0.0519303231,192.284997 C3.32207915,163.682739 7.16523865,141.622877 10.8194935,137.830092 C16.5013246,131.925774 25.4344141,129.018741 35.8472564,124.858642 L35.8472564,124.858642 L35.8472564,124.858642 Z M58.7907717,40.0467654 C42.2700134,39.1505179 28.1546406,51.2446113 27.2919762,67.0286416 C26.4607959,82.2963326 31.2274891,115.646393 50.0193006,116.653885 C68.817409,117.663475 86.3078777,85.5307995 87.1432559,70.2631085 C88.0038214,54.4706824 75.3199258,40.936716 58.7907717,40.0467654 L58.7907717,40.0467654 L58.7907717,40.0467654 Z" id="Shape" fill="#2B78C2" sketch:type="MSShapeGroup" transform="translate(55.155216, 120.218640) scale(-1, 1) translate(-55.155216, -120.218640) "></path>
            <g id="Shape-+-Shape" transform="translate(163.500000, 84.000000) scale(-1, 1) translate(-163.500000, -84.000000) translate(129.000000, 46.000000)" fill="#3B4552" sketch:type="MSShapeGroup">
                <path d="M40.9818182,11.1610685 L48.1248864,10.211589 C51.4729545,9.76652055 62.8584773,9.23139726 63.9865227,2.90257534 C64.1454318,2.00879452 65.4627045,2.04106849 65.5850227,2.93328767 L65.5876364,2.93328767 L66.4924773,9.55309589 C66.9618864,9.49010959 67.8897273,9.25534247 68.0125682,10.1553699 L68.5755455,14.2682192 L68.5724091,14.2687397 C68.6931591,15.1567945 67.74075,15.183863 67.2708182,15.2458082 L68.1767045,21.8650959 C68.2979773,22.7521096 67.0225227,23.1784384 66.6121818,22.2544658 C64.1720909,16.7512329 53.5544545,18.6033425 49.4625455,19.2285205 C49.4364091,19.2326849 52.0035227,28.0898082 52.12375,28.9695342 C52.1838636,29.406274 51.8717955,29.8096986 51.4274773,29.8690411 L47.4092727,30.4031233 C47.4092727,30.4026027 46.5880682,30.0429041 46.5269091,29.8482192 L44.21175,22.6224932 C43.4490909,20.2420274 41.998,20.7126027 40.72725,19.7573973 C40.1313409,19.3086849 39.9577955,18.8053151 39.8631818,18.1088219 C38.4115682,18.3019452 37.9829318,18.5122466 37.8266364,17.5804658 C37.7377727,17.0500274 37.7105909,16.6309863 37.4654318,14.8314521 C37.3342273,13.8679178 38.4842273,13.8887397 39.1642955,13.7986849 C38.9776818,12.4265205 39.6838864,11.3333699 40.9818182,11.1610685 L40.9818182,11.1610685 L40.9818182,11.1610685 Z" id="Shape"></path>
                <path d="M12.1696136,30.5723014 C7.47970455,35.470137 0.603227273,47.4396164 0.0392045455,51.7716164 C-0.365909091,54.8766849 2.42388636,65.2579726 5.20061364,71.8444658 C7.60986364,77.5595616 14.7869091,75.4846575 13.3556818,69.7685205 C11.6176136,62.8296164 11.0922727,60.7744932 9.88790909,52.8132329 C11.6003636,49.014274 12.0671591,48.1657808 13.7801364,45.7483562 L13.9698864,47.6254521 C13.8151591,54.4389041 14.1314091,67.5135068 14.2903182,73.9396712 C14.3133182,74.8797808 15.0953182,75.6314521 16.0492955,75.6314521 L39.5897955,75.6314521 C40.572,75.6314521 41.3534773,74.8568767 41.3492955,73.8891781 C41.3221136,68.1787671 41.1647727,56.2852877 40.7633182,51.0803288 L40.6796818,49.7123288 C41.4250909,50.6305753 43.0486818,51.8824932 44.2300455,52.8054247 C46.1756364,54.329589 49.0041136,54.0224658 50.5550455,52.1094521 C54.2444545,47.5556986 54.4509318,35.3649863 52.2000682,24.841589 C50.9711364,19.0968219 43.6174091,20.2363014 44.2723864,26.1809589 C45.0319091,33.0693699 46.02875,35.0646301 45.2817727,41.4887123 C40.4711136,34.780411 40.9812955,31.4775342 38.00175,29.1454795 C35.4534545,27.1517808 33.5925455,26.7946849 30.728,25.6567671 C32.1304773,28.5385205 33.2402273,34.3150411 33.3824091,38.6954521 C32.5957045,36.2400274 30.4101818,30.3276438 29.1488409,28.1564384 L27.5492955,28.1928767 C28.8618636,31.8533699 29.8278636,36.8719726 29.8916364,40.9114247 C27.5545227,34.7346027 24.4296591,28.9981644 21.6670455,25.4516712 C19.7031591,25.9519178 14.9965227,27.4401644 13.7822273,28.3360274 C13.3379091,28.6629315 13.1173182,28.9669315 12.9667727,29.2719726 C12.5616591,30.0928767 12.7801591,29.9341096 12.1696136,30.5723014 L12.1696136,30.5723014 L12.1696136,30.5723014 Z M23.2054318,0.38260274 C28.0281136,0.122849315 32.1477273,3.63706849 32.3991591,8.22569863 C32.6422273,12.6623288 31.2496818,22.3564932 25.7652273,22.6490411 C20.2792045,22.941589 15.17425,13.6019178 14.9311818,9.16528767 C14.67975,4.57665753 18.3811818,0.642356164 23.2054318,0.38260274 L23.2054318,0.38260274 L23.2054318,0.38260274 Z" id="Shape"></path>
            </g>
            <g id="Shape-+-Shape" transform="translate(242.500000, 39.000000) scale(-1, 1) translate(-242.500000, -39.000000) translate(208.000000, 1.000000)" fill="#3B4552" sketch:type="MSShapeGroup">
                <path d="M40.9818182,11.1610685 L48.1248864,10.211589 C51.4729545,9.76652055 62.8584773,9.23139726 63.9865227,2.90257534 C64.1454318,2.00879452 65.4627045,2.04106849 65.5850227,2.93328767 L65.5876364,2.93328767 L66.4924773,9.55309589 C66.9618864,9.49010959 67.8897273,9.25534247 68.0125682,10.1553699 L68.5755455,14.2682192 L68.5724091,14.2687397 C68.6931591,15.1567945 67.74075,15.183863 67.2708182,15.2458082 L68.1767045,21.8650959 C68.2979773,22.7521096 67.0225227,23.1784384 66.6121818,22.2544658 C64.1720909,16.7512329 53.5544545,18.6033425 49.4625455,19.2285205 C49.4364091,19.2326849 52.0035227,28.0898082 52.12375,28.9695342 C52.1838636,29.406274 51.8717955,29.8096986 51.4274773,29.8690411 L47.4092727,30.4031233 C47.4092727,30.4026027 46.5880682,30.0429041 46.5269091,29.8482192 L44.21175,22.6224932 C43.4490909,20.2420274 41.998,20.7126027 40.72725,19.7573973 C40.1313409,19.3086849 39.9577955,18.8053151 39.8631818,18.1088219 C38.4115682,18.3019452 37.9829318,18.5122466 37.8266364,17.5804658 C37.7377727,17.0500274 37.7105909,16.6309863 37.4654318,14.8314521 C37.3342273,13.8679178 38.4842273,13.8887397 39.1642955,13.7986849 C38.9776818,12.4265205 39.6838864,11.3333699 40.9818182,11.1610685 L40.9818182,11.1610685 L40.9818182,11.1610685 Z" id="Shape"></path>
                <path d="M12.1696136,30.5723014 C7.47970455,35.470137 0.603227273,47.4396164 0.0392045455,51.7716164 C-0.365909091,54.8766849 2.42388636,65.2579726 5.20061364,71.8444658 C7.60986364,77.5595616 14.7869091,75.4846575 13.3556818,69.7685205 C11.6176136,62.8296164 11.0922727,60.7744932 9.88790909,52.8132329 C11.6003636,49.014274 12.0671591,48.1657808 13.7801364,45.7483562 L13.9698864,47.6254521 C13.8151591,54.4389041 14.1314091,67.5135068 14.2903182,73.9396712 C14.3133182,74.8797808 15.0953182,75.6314521 16.0492955,75.6314521 L39.5897955,75.6314521 C40.572,75.6314521 41.3534773,74.8568767 41.3492955,73.8891781 C41.3221136,68.1787671 41.1647727,56.2852877 40.7633182,51.0803288 L40.6796818,49.7123288 C41.4250909,50.6305753 43.0486818,51.8824932 44.2300455,52.8054247 C46.1756364,54.329589 49.0041136,54.0224658 50.5550455,52.1094521 C54.2444545,47.5556986 54.4509318,35.3649863 52.2000682,24.841589 C50.9711364,19.0968219 43.6174091,20.2363014 44.2723864,26.1809589 C45.0319091,33.0693699 46.02875,35.0646301 45.2817727,41.4887123 C40.4711136,34.780411 40.9812955,31.4775342 38.00175,29.1454795 C35.4534545,27.1517808 33.5925455,26.7946849 30.728,25.6567671 C32.1304773,28.5385205 33.2402273,34.3150411 33.3824091,38.6954521 C32.5957045,36.2400274 30.4101818,30.3276438 29.1488409,28.1564384 L27.5492955,28.1928767 C28.8618636,31.8533699 29.8278636,36.8719726 29.8916364,40.9114247 C27.5545227,34.7346027 24.4296591,28.9981644 21.6670455,25.4516712 C19.7031591,25.9519178 14.9965227,27.4401644 13.7822273,28.3360274 C13.3379091,28.6629315 13.1173182,28.9669315 12.9667727,29.2719726 C12.5616591,30.0928767 12.7801591,29.9341096 12.1696136,30.5723014 L12.1696136,30.5723014 L12.1696136,30.5723014 Z M23.2054318,0.38260274 C28.0281136,0.122849315 32.1477273,3.63706849 32.3991591,8.22569863 C32.6422273,12.6623288 31.2496818,22.3564932 25.7652273,22.6490411 C20.2792045,22.941589 15.17425,13.6019178 14.9311818,9.16528767 C14.67975,4.57665753 18.3811818,0.642356164 23.2054318,0.38260274 L23.2054318,0.38260274 L23.2054318,0.38260274 Z" id="Shape"></path>
            </g>
            <g id="Shape-+-Shape" transform="translate(244.500000, 129.000000) scale(-1, 1) translate(-244.500000, -129.000000) translate(210.000000, 91.000000)" fill="#3B4552" sketch:type="MSShapeGroup">
                <path d="M40.9818182,11.1610685 L48.1248864,10.211589 C51.4729545,9.76652055 62.8584773,9.23139726 63.9865227,2.90257534 C64.1454318,2.00879452 65.4627045,2.04106849 65.5850227,2.93328767 L65.5876364,2.93328767 L66.4924773,9.55309589 C66.9618864,9.49010959 67.8897273,9.25534247 68.0125682,10.1553699 L68.5755455,14.2682192 L68.5724091,14.2687397 C68.6931591,15.1567945 67.74075,15.183863 67.2708182,15.2458082 L68.1767045,21.8650959 C68.2979773,22.7521096 67.0225227,23.1784384 66.6121818,22.2544658 C64.1720909,16.7512329 53.5544545,18.6033425 49.4625455,19.2285205 C49.4364091,19.2326849 52.0035227,28.0898082 52.12375,28.9695342 C52.1838636,29.406274 51.8717955,29.8096986 51.4274773,29.8690411 L47.4092727,30.4031233 C47.4092727,30.4026027 46.5880682,30.0429041 46.5269091,29.8482192 L44.21175,22.6224932 C43.4490909,20.2420274 41.998,20.7126027 40.72725,19.7573973 C40.1313409,19.3086849 39.9577955,18.8053151 39.8631818,18.1088219 C38.4115682,18.3019452 37.9829318,18.5122466 37.8266364,17.5804658 C37.7377727,17.0500274 37.7105909,16.6309863 37.4654318,14.8314521 C37.3342273,13.8679178 38.4842273,13.8887397 39.1642955,13.7986849 C38.9776818,12.4265205 39.6838864,11.3333699 40.9818182,11.1610685 L40.9818182,11.1610685 L40.9818182,11.1610685 Z" id="Shape"></path>
                <path d="M12.1696136,30.5723014 C7.47970455,35.470137 0.603227273,47.4396164 0.0392045455,51.7716164 C-0.365909091,54.8766849 2.42388636,65.2579726 5.20061364,71.8444658 C7.60986364,77.5595616 14.7869091,75.4846575 13.3556818,69.7685205 C11.6176136,62.8296164 11.0922727,60.7744932 9.88790909,52.8132329 C11.6003636,49.014274 12.0671591,48.1657808 13.7801364,45.7483562 L13.9698864,47.6254521 C13.8151591,54.4389041 14.1314091,67.5135068 14.2903182,73.9396712 C14.3133182,74.8797808 15.0953182,75.6314521 16.0492955,75.6314521 L39.5897955,75.6314521 C40.572,75.6314521 41.3534773,74.8568767 41.3492955,73.8891781 C41.3221136,68.1787671 41.1647727,56.2852877 40.7633182,51.0803288 L40.6796818,49.7123288 C41.4250909,50.6305753 43.0486818,51.8824932 44.2300455,52.8054247 C46.1756364,54.329589 49.0041136,54.0224658 50.5550455,52.1094521 C54.2444545,47.5556986 54.4509318,35.3649863 52.2000682,24.841589 C50.9711364,19.0968219 43.6174091,20.2363014 44.2723864,26.1809589 C45.0319091,33.0693699 46.02875,35.0646301 45.2817727,41.4887123 C40.4711136,34.780411 40.9812955,31.4775342 38.00175,29.1454795 C35.4534545,27.1517808 33.5925455,26.7946849 30.728,25.6567671 C32.1304773,28.5385205 33.2402273,34.3150411 33.3824091,38.6954521 C32.5957045,36.2400274 30.4101818,30.3276438 29.1488409,28.1564384 L27.5492955,28.1928767 C28.8618636,31.8533699 29.8278636,36.8719726 29.8916364,40.9114247 C27.5545227,34.7346027 24.4296591,28.9981644 21.6670455,25.4516712 C19.7031591,25.9519178 14.9965227,27.4401644 13.7822273,28.3360274 C13.3379091,28.6629315 13.1173182,28.9669315 12.9667727,29.2719726 C12.5616591,30.0928767 12.7801591,29.9341096 12.1696136,30.5723014 L12.1696136,30.5723014 L12.1696136,30.5723014 Z M23.2054318,0.38260274 C28.0281136,0.122849315 32.1477273,3.63706849 32.3991591,8.22569863 C32.6422273,12.6623288 31.2496818,22.3564932 25.7652273,22.6490411 C20.2792045,22.941589 15.17425,13.6019178 14.9311818,9.16528767 C14.67975,4.57665753 18.3811818,0.642356164 23.2054318,0.38260274 L23.2054318,0.38260274 L23.2054318,0.38260274 Z" id="Shape"></path>
            </g>
            <g id="Shape-+-Shape" transform="translate(244.500000, 218.000000) scale(-1, 1) translate(-244.500000, -218.000000) translate(210.000000, 180.000000)" fill="#3B4552" sketch:type="MSShapeGroup">
                <path d="M40.9818182,11.1610685 L48.1248864,10.211589 C51.4729545,9.76652055 62.8584773,9.23139726 63.9865227,2.90257534 C64.1454318,2.00879452 65.4627045,2.04106849 65.5850227,2.93328767 L65.5876364,2.93328767 L66.4924773,9.55309589 C66.9618864,9.49010959 67.8897273,9.25534247 68.0125682,10.1553699 L68.5755455,14.2682192 L68.5724091,14.2687397 C68.6931591,15.1567945 67.74075,15.183863 67.2708182,15.2458082 L68.1767045,21.8650959 C68.2979773,22.7521096 67.0225227,23.1784384 66.6121818,22.2544658 C64.1720909,16.7512329 53.5544545,18.6033425 49.4625455,19.2285205 C49.4364091,19.2326849 52.0035227,28.0898082 52.12375,28.9695342 C52.1838636,29.406274 51.8717955,29.8096986 51.4274773,29.8690411 L47.4092727,30.4031233 C47.4092727,30.4026027 46.5880682,30.0429041 46.5269091,29.8482192 L44.21175,22.6224932 C43.4490909,20.2420274 41.998,20.7126027 40.72725,19.7573973 C40.1313409,19.3086849 39.9577955,18.8053151 39.8631818,18.1088219 C38.4115682,18.3019452 37.9829318,18.5122466 37.8266364,17.5804658 C37.7377727,17.0500274 37.7105909,16.6309863 37.4654318,14.8314521 C37.3342273,13.8679178 38.4842273,13.8887397 39.1642955,13.7986849 C38.9776818,12.4265205 39.6838864,11.3333699 40.9818182,11.1610685 L40.9818182,11.1610685 L40.9818182,11.1610685 Z" id="Shape"></path>
                <path d="M12.1696136,30.5723014 C7.47970455,35.470137 0.603227273,47.4396164 0.0392045455,51.7716164 C-0.365909091,54.8766849 2.42388636,65.2579726 5.20061364,71.8444658 C7.60986364,77.5595616 14.7869091,75.4846575 13.3556818,69.7685205 C11.6176136,62.8296164 11.0922727,60.7744932 9.88790909,52.8132329 C11.6003636,49.014274 12.0671591,48.1657808 13.7801364,45.7483562 L13.9698864,47.6254521 C13.8151591,54.4389041 14.1314091,67.5135068 14.2903182,73.9396712 C14.3133182,74.8797808 15.0953182,75.6314521 16.0492955,75.6314521 L39.5897955,75.6314521 C40.572,75.6314521 41.3534773,74.8568767 41.3492955,73.8891781 C41.3221136,68.1787671 41.1647727,56.2852877 40.7633182,51.0803288 L40.6796818,49.7123288 C41.4250909,50.6305753 43.0486818,51.8824932 44.2300455,52.8054247 C46.1756364,54.329589 49.0041136,54.0224658 50.5550455,52.1094521 C54.2444545,47.5556986 54.4509318,35.3649863 52.2000682,24.841589 C50.9711364,19.0968219 43.6174091,20.2363014 44.2723864,26.1809589 C45.0319091,33.0693699 46.02875,35.0646301 45.2817727,41.4887123 C40.4711136,34.780411 40.9812955,31.4775342 38.00175,29.1454795 C35.4534545,27.1517808 33.5925455,26.7946849 30.728,25.6567671 C32.1304773,28.5385205 33.2402273,34.3150411 33.3824091,38.6954521 C32.5957045,36.2400274 30.4101818,30.3276438 29.1488409,28.1564384 L27.5492955,28.1928767 C28.8618636,31.8533699 29.8278636,36.8719726 29.8916364,40.9114247 C27.5545227,34.7346027 24.4296591,28.9981644 21.6670455,25.4516712 C19.7031591,25.9519178 14.9965227,27.4401644 13.7822273,28.3360274 C13.3379091,28.6629315 13.1173182,28.9669315 12.9667727,29.2719726 C12.5616591,30.0928767 12.7801591,29.9341096 12.1696136,30.5723014 L12.1696136,30.5723014 L12.1696136,30.5723014 Z M23.2054318,0.38260274 C28.0281136,0.122849315 32.1477273,3.63706849 32.3991591,8.22569863 C32.6422273,12.6623288 31.2496818,22.3564932 25.7652273,22.6490411 C20.2792045,22.941589 15.17425,13.6019178 14.9311818,9.16528767 C14.67975,4.57665753 18.3811818,0.642356164 23.2054318,0.38260274 L23.2054318,0.38260274 L23.2054318,0.38260274 Z" id="Shape"></path>
            </g>
            <g id="Shape-+-Shape" transform="translate(163.500000, 174.000000) scale(-1, 1) translate(-163.500000, -174.000000) translate(129.000000, 136.000000)" fill="#3B4552" sketch:type="MSShapeGroup">
                <path d="M40.9818182,11.1610685 L48.1248864,10.211589 C51.4729545,9.76652055 62.8584773,9.23139726 63.9865227,2.90257534 C64.1454318,2.00879452 65.4627045,2.04106849 65.5850227,2.93328767 L65.5876364,2.93328767 L66.4924773,9.55309589 C66.9618864,9.49010959 67.8897273,9.25534247 68.0125682,10.1553699 L68.5755455,14.2682192 L68.5724091,14.2687397 C68.6931591,15.1567945 67.74075,15.183863 67.2708182,15.2458082 L68.1767045,21.8650959 C68.2979773,22.7521096 67.0225227,23.1784384 66.6121818,22.2544658 C64.1720909,16.7512329 53.5544545,18.6033425 49.4625455,19.2285205 C49.4364091,19.2326849 52.0035227,28.0898082 52.12375,28.9695342 C52.1838636,29.406274 51.8717955,29.8096986 51.4274773,29.8690411 L47.4092727,30.4031233 C47.4092727,30.4026027 46.5880682,30.0429041 46.5269091,29.8482192 L44.21175,22.6224932 C43.4490909,20.2420274 41.998,20.7126027 40.72725,19.7573973 C40.1313409,19.3086849 39.9577955,18.8053151 39.8631818,18.1088219 C38.4115682,18.3019452 37.9829318,18.5122466 37.8266364,17.5804658 C37.7377727,17.0500274 37.7105909,16.6309863 37.4654318,14.8314521 C37.3342273,13.8679178 38.4842273,13.8887397 39.1642955,13.7986849 C38.9776818,12.4265205 39.6838864,11.3333699 40.9818182,11.1610685 L40.9818182,11.1610685 L40.9818182,11.1610685 Z" id="Shape"></path>
                <path d="M12.1696136,30.5723014 C7.47970455,35.470137 0.603227273,47.4396164 0.0392045455,51.7716164 C-0.365909091,54.8766849 2.42388636,65.2579726 5.20061364,71.8444658 C7.60986364,77.5595616 14.7869091,75.4846575 13.3556818,69.7685205 C11.6176136,62.8296164 11.0922727,60.7744932 9.88790909,52.8132329 C11.6003636,49.014274 12.0671591,48.1657808 13.7801364,45.7483562 L13.9698864,47.6254521 C13.8151591,54.4389041 14.1314091,67.5135068 14.2903182,73.9396712 C14.3133182,74.8797808 15.0953182,75.6314521 16.0492955,75.6314521 L39.5897955,75.6314521 C40.572,75.6314521 41.3534773,74.8568767 41.3492955,73.8891781 C41.3221136,68.1787671 41.1647727,56.2852877 40.7633182,51.0803288 L40.6796818,49.7123288 C41.4250909,50.6305753 43.0486818,51.8824932 44.2300455,52.8054247 C46.1756364,54.329589 49.0041136,54.0224658 50.5550455,52.1094521 C54.2444545,47.5556986 54.4509318,35.3649863 52.2000682,24.841589 C50.9711364,19.0968219 43.6174091,20.2363014 44.2723864,26.1809589 C45.0319091,33.0693699 46.02875,35.0646301 45.2817727,41.4887123 C40.4711136,34.780411 40.9812955,31.4775342 38.00175,29.1454795 C35.4534545,27.1517808 33.5925455,26.7946849 30.728,25.6567671 C32.1304773,28.5385205 33.2402273,34.3150411 33.3824091,38.6954521 C32.5957045,36.2400274 30.4101818,30.3276438 29.1488409,28.1564384 L27.5492955,28.1928767 C28.8618636,31.8533699 29.8278636,36.8719726 29.8916364,40.9114247 C27.5545227,34.7346027 24.4296591,28.9981644 21.6670455,25.4516712 C19.7031591,25.9519178 14.9965227,27.4401644 13.7822273,28.3360274 C13.3379091,28.6629315 13.1173182,28.9669315 12.9667727,29.2719726 C12.5616591,30.0928767 12.7801591,29.9341096 12.1696136,30.5723014 L12.1696136,30.5723014 L12.1696136,30.5723014 Z M23.2054318,0.38260274 C28.0281136,0.122849315 32.1477273,3.63706849 32.3991591,8.22569863 C32.6422273,12.6623288 31.2496818,22.3564932 25.7652273,22.6490411 C20.2792045,22.941589 15.17425,13.6019178 14.9311818,9.16528767 C14.67975,4.57665753 18.3811818,0.642356164 23.2054318,0.38260274 L23.2054318,0.38260274 L23.2054318,0.38260274 Z" id="Shape"></path>
            </g>
        </g>
    </g>
</svg>