<?xml version="1.0" encoding="UTF-8"?>
<svg width="257px" height="257px" viewBox="0 0 257 257" version="1.1" xmlns="http://www.w3.org/2000/svg" xmlns:xlink="http://www.w3.org/1999/xlink" xmlns:sketch="http://www.bohemiancoding.com/sketch/ns">
    <!-- Generator: Sketch 3.4.2 (15855) - http://www.bohemiancoding.com/sketch -->
    <title>meeting-inverse</title>
    <desc>Created with Sketch.</desc>
    <defs></defs>
    <g id="Page-1" stroke="none" stroke-width="1" fill="none" fill-rule="evenodd" sketch:type="MSPage">
        <g id="meeting-group-inverse" sketch:type="MSLayerGroup" transform="translate(1.000000, 1.000000)">
            <g id="Group" sketch:type="MSShapeGroup">
                <g transform="translate(147.000000, 0.000000)" id="Shape" fill="#3B4552">
                    <path d="M73.523,219.992 C73.824,223.979 75.121,227.598 77.027,230.989 C82.12,227.58 86.265,223.828 89.144,219.622 C92.692,220.528 102.932,223.144 105.068,224.852 C107.75,226.996 108.577,242.323 108.996,252.365 C109.038,253.351 108.708,254.215 108.018,254.926 C107.328,255.637 106.47,256 105.472,256 L59.974,256 C58.934,256 58.038,255.604 57.344,254.835 C56.651,254.065 56.352,253.141 56.469,252.116 C58.027,238.489 59.858,227.979 61.599,226.172 C64.306,223.359 68.562,221.974 73.523,219.992 L73.523,219.992 L73.523,219.992 Z M84.454,179.585 C76.583,179.158 69.858,184.92 69.447,192.44 C69.051,199.714 71.322,215.603 80.275,216.083 C89.231,216.564 97.564,201.255 97.962,193.981 C98.372,186.457 92.329,180.009 84.454,179.585 L84.454,179.585 L84.454,179.585 Z"></path>
                    <path d="M73.523,130.211 C73.824,134.198 75.121,137.816 77.027,141.207 C82.12,137.798 87.339,132.984 90.216,128.779 C93.764,129.685 102.932,133.361 105.068,135.069 C107.75,137.215 108.577,152.538 108.996,162.584 C109.038,163.569 108.708,164.432 108.018,165.144 C107.328,165.857 106.47,166.219 105.472,166.219 L59.974,166.219 C58.934,166.219 58.038,165.821 57.344,165.055 C56.651,164.284 56.352,163.36 56.469,162.335 C58.027,148.708 59.858,138.198 61.599,136.39 C64.306,133.578 68.562,132.191 73.523,130.211 L73.523,130.211 L73.523,130.211 Z M84.454,89.803 C76.583,89.377 69.858,95.14 69.447,102.658 C69.051,109.933 71.325,124.372 80.275,124.85 C89.231,125.329 97.566,111.472 97.962,104.199 C98.372,96.678 92.329,90.227 84.454,89.803 L84.454,89.803 L84.454,89.803 Z"></path>
                    <path d="M73.523,40.43 C73.824,44.417 75.121,48.035 77.027,51.427 C82.12,48.018 87.339,43.204 90.216,38.999 C93.764,39.905 102.932,43.582 105.068,45.29 C107.75,47.434 108.577,62.759 108.996,72.803 C109.038,73.788 108.708,74.651 108.018,75.364 C107.328,76.076 106.47,76.439 105.472,76.439 L59.974,76.439 C58.934,76.439 58.038,76.042 57.344,75.273 C56.651,74.504 56.352,73.58 56.469,72.555 C58.027,58.928 59.858,48.418 61.599,46.61 C64.306,43.798 68.562,42.411 73.523,40.43 L73.523,40.43 L73.523,40.43 Z M84.454,0.022 C76.583,-0.404 69.858,5.359 69.447,12.877 C69.051,20.152 71.325,34.59 80.275,35.07 C89.231,35.549 97.566,21.692 97.962,14.419 C98.372,6.897 92.329,0.446 84.454,0.022 L84.454,0.022 L84.454,0.022 Z"></path>
                    <path d="M17.645,175.102 C17.945,179.089 19.242,182.707 21.148,186.099 C26.241,182.69 30.386,178.938 33.265,174.732 C36.813,175.637 47.052,178.253 49.189,179.961 C51.871,182.106 52.697,197.433 53.117,207.475 C53.158,208.459 52.829,209.323 52.139,210.035 C51.449,210.747 50.59,211.11 49.593,211.11 L4.094,211.11 C3.055,211.11 2.157,210.713 1.466,209.945 C0.773,209.174 0.473,208.251 0.591,207.226 C2.148,193.599 3.978,183.089 5.721,181.282 C8.425,178.469 12.681,177.083 17.645,175.102 L17.645,175.102 L17.645,175.102 Z M28.575,134.693 C20.703,134.267 13.979,140.028 13.567,147.548 C13.171,154.822 15.441,170.711 24.396,171.193 C33.351,171.673 41.683,156.363 42.082,149.09 C42.492,141.567 36.45,135.119 28.575,134.693 L28.575,134.693 L28.575,134.693 Z"></path>
                    <path d="M20.895,85.32 C21.195,89.307 22.492,92.926 24.397,96.317 C29.491,92.908 33.635,89.155 36.515,84.95 C40.062,85.856 50.302,88.472 52.438,90.18 C55.12,92.325 55.948,107.651 56.367,117.693 C56.409,118.679 56.079,119.542 55.388,120.253 C54.698,120.965 53.839,121.328 52.843,121.328 L7.345,121.328 C6.304,121.328 5.408,120.931 4.715,120.163 C4.022,119.394 3.724,118.469 3.84,117.445 C5.398,103.818 7.23,93.308 8.97,91.501 C11.675,88.687 15.93,87.301 20.895,85.32 L20.895,85.32 L20.895,85.32 Z M31.824,44.912 C23.953,44.486 17.227,50.246 16.817,57.767 C16.42,65.041 18.693,80.931 27.646,81.411 C36.602,81.891 44.935,66.581 45.331,59.308 C45.742,51.785 39.699,45.336 31.824,44.912 L31.824,44.912 L31.824,44.912 Z"></path>
                </g>
                <g id="Shape-+-Shape" transform="translate(0.000000, 55.000000)" fill="#2B78C2">
                    <path d="M78.4,21.441 L92.065,19.617 C98.47,18.762 120.251,17.734 122.409,5.576 C122.713,3.859 125.233,3.921 125.467,5.635 L125.472,5.635 L127.203,18.352 C128.101,18.231 129.876,17.78 130.111,19.509 L131.188,27.41 L131.182,27.411 C131.413,29.117 129.591,29.169 128.692,29.288 L130.425,42.004 C130.657,43.708 128.217,44.527 127.432,42.752 C122.764,32.18 102.452,35.738 94.624,36.939 C94.574,36.947 99.485,53.962 99.715,55.652 C99.83,56.491 99.233,57.266 98.383,57.38 L90.696,58.406 C90.696,58.405 89.125,57.714 89.008,57.34 L84.579,43.459 C83.12,38.886 80.344,39.79 77.913,37.955 C76.773,37.093 76.441,36.126 76.26,34.788 C73.483,35.159 72.663,35.563 72.364,33.773 C72.194,32.754 72.142,31.949 71.673,28.492 C71.422,26.641 73.622,26.681 74.923,26.508 C74.566,23.872 75.917,21.772 78.4,21.441 L78.4,21.441 L78.4,21.441 Z" id="Shape"></path>
                    <path d="M23.281,58.731 C14.309,68.14 1.154,91.134 0.075,99.456 C-0.7,105.421 4.637,125.364 9.949,138.017 C14.558,148.996 28.288,145.01 25.55,134.029 C22.225,120.699 21.22,116.751 18.916,101.457 C22.192,94.159 23.085,92.529 26.362,87.885 L26.725,91.491 C26.429,104.58 27.034,129.697 27.338,142.042 C27.382,143.848 28.878,145.292 30.703,145.292 L75.737,145.292 C77.616,145.292 79.111,143.804 79.103,141.945 C79.051,130.975 78.75,108.127 77.982,98.128 L77.822,95.5 C79.248,97.264 82.354,99.669 84.614,101.442 C88.336,104.37 93.747,103.78 96.714,100.105 C103.772,91.357 104.167,67.938 99.861,47.722 C97.51,36.686 83.442,38.875 84.695,50.295 C86.148,63.528 88.055,67.361 86.626,79.702 C77.423,66.815 78.399,60.47 72.699,55.99 C67.824,52.16 64.264,51.474 58.784,49.288 C61.467,54.824 63.59,65.921 63.862,74.336 C62.357,69.619 58.176,58.261 55.763,54.09 L52.703,54.16 C55.214,61.192 57.062,70.833 57.184,78.593 C52.713,66.727 46.735,55.707 41.45,48.894 C37.693,49.855 28.689,52.714 26.366,54.435 C25.516,55.063 25.094,55.647 24.806,56.233 C24.031,57.81 24.449,57.505 23.281,58.731 L23.281,58.731 L23.281,58.731 Z M44.393,0.735 C53.619,0.236 61.5,6.987 61.981,15.802 C62.446,24.325 59.782,42.948 49.29,43.51 C38.795,44.072 29.029,26.13 28.564,17.607 C28.083,8.792 35.164,1.234 44.393,0.735 L44.393,0.735 L44.393,0.735 Z" id="Shape"></path>
                </g>
            </g>
        </g>
    </g>
</svg>