<?xml version="1.0" ?><svg enable-background="new 0 0 192.037 232" id="coordinator" version="1.1" viewBox="0 0 192.037 232" xml:space="preserve" xmlns="http://www.w3.org/2000/svg" xmlns:xlink="http://www.w3.org/1999/xlink"><path d="M191.3467,218.1713c0.0564-0.0864,0.0888-0.186,0.1384-0.2772c0.3976-0.7196,0.6384-1.5328,0.5229-2.4096  c-0.0113-0.0848-0.064-0.15-0.0805-0.2328c-0.0068-0.0352-0.0264-0.0644-0.034-0.0992c-0.108-0.4845-0.278-0.934-0.5404-1.3312  c-0.01-0.0156-0.026-0.0256-0.036-0.0408c-0.278-0.4076-0.6108-0.7616-1.01-1.0412c-0.0636-0.0452-0.144-0.064-0.2104-0.1056  c-0.3727-0.23-0.7612-0.4164-1.1924-0.5128c-0.0292-0.0072-0.0504-0.0284-0.08-0.0348l-73.0976-15.3888  C115.8619,195.8105,116,194.9237,116,194v-13.916c7.3059-2.8455,13.7351-7.2095,19.1835-13.1543  c6.0888-6.64,10.446-14.624,13.5672-22.9297H168c2.2107,0,4-1.7891,4-4V88c0-1.8323-1.2537-3.3103-2.9329-3.7847l2.8116-11.2464  c0.3008-1.1952,0.0312-2.4609-0.7264-3.4296C170.3943,68.5665,169.2303,68,168,68h-8.2657  C157.3955,44.06,142.1763,22.8005,120,12.5873v-0.5676C120,5.3909,114.6015,0,107.9647,0H76.0351C69.3983,0,64,5.3909,64,12.0197  v1.828C43.684,24.3605,30.1887,44.684,28.008,68H20c-1.2305,0-2.3945,0.5665-3.1525,1.5393  c-0.7576,0.9687-1.0272,2.2344-0.7264,3.4296l2.8116,11.2464C17.2535,84.6897,16,86.1677,16,88v21.5273l-8-4V44  c0-2.2107-1.7893-4-4-4c-2.2109,0-4,1.7893-4,4v64c0,1.5157,0.8555,2.8985,2.2107,3.5781L16,118.4729V140c0,2.2109,1.7891,4,4,4  h19.2491c3.1212,8.3057,7.4784,16.2897,13.5672,22.9297c6.4256,7.0108,14.1884,11.8696,23.1837,14.5644V194  c0,0.9237,0.1379,1.8105,0.2731,2.6973L3.1755,212.0861c-1.906,0.4024-3.25,2.1212-3.1715,4.0704  c0.0739,1.9492,1.5467,3.5584,3.4803,3.8084l92.0237,12C95.6795,231.9885,95.8515,232,96.0235,232  c0.1716,0,0.3436-0.0115,0.5156-0.0351l92.0192-12c0.1324-0.0172,0.236-0.094,0.3632-0.1236  c0.2592-0.0628,0.5025-0.1416,0.742-0.2533c0.2388-0.108,0.4584-0.2227,0.668-0.3727c0.1472-0.1064,0.272-0.23,0.4036-0.356  C190.9631,218.6445,191.1751,218.432,191.3467,218.1713z" fill="#314E55"/><path d="M164,136h-12.6309c5.0749-17.9667,5.16-35.9307,4.8612-44H164V136z" fill="#E4AD40"/><path d="M31.7499,76c2.1484,0,3.9101-1.6951,3.996-3.8435C36.5603,51.6049,47.24,33.3153,64,23.0233V24  c0,2.2109,1.7891,4,4,4c2.2107,0,4-1.7891,4-4V12.0197C72,9.8049,73.8083,8,76.0351,8H88v8c0,2.2109,1.7891,4,4,4  c2.2107,0,4-1.7891,4-4V8h11.9647C110.1915,8,112,9.8049,112,12.0197V24c0,2.2109,1.7891,4,4,4c2.2107,0,4-1.7891,4-4v-2.4867  c18.78,10.0836,31.1667,29.3936,32.004,50.6432C152.0859,74.3049,153.8515,76,156,76h6.8751l-2,8H152h-4H40h-4h-8.8749l-2-8H31.7499  z" fill="#80A4E3"/><path d="M24,136V92h7.7695c-0.2988,8.0693-0.2135,26.0333,4.8612,44H24z" fill="#E4AD40"/><path d="M39.7927,92H40h108h0.2071c0.402,11.7345,0.0428,48.8593-18.9336,69.5393  C120.4687,171.1369,108.6015,176,94,176c-14.6017,0-26.4689-4.8631-35.2737-14.4607C39.7499,140.8593,39.3907,103.7345,39.7927,92z" fill="#E9E7D1"/><path d="M94,184c4.944,0,9.5915-0.5483,14-1.5219V194c0,5.5157-4.5,10-10.0353,10h-3.9296  C88.5,204,84,199.5157,84,194v-10.7851C87.2123,183.6965,90.524,184,94,184z" fill="#E9E7D1"/><path d="M96.0235,223.9649l-68.2032-8.8904l51.4212-10.8272C82.5019,208.9213,87.908,212,94.0351,212h3.9296  c6.1273,0,11.5332-3.0787,14.7936-7.7527l51.44,10.8296L96.0235,223.9649z" fill="#80A4E3"/></svg>