<?xml version="1.0" ?><!DOCTYPE svg  PUBLIC '-//W3C//DTD SVG 1.1//EN'  'http://www.w3.org/Graphics/SVG/1.1/DTD/svg11.dtd'><svg enable-background="new 0 0 256 256" height="256px" id="Layer_1" version="1.1" viewBox="0 0 256 256" width="256px" xml:space="preserve" xmlns="http://www.w3.org/2000/svg" xmlns:xlink="http://www.w3.org/1999/xlink"><g><g><path clip-rule="evenodd" d="M220.523,219.992c0.301,3.987,1.598,7.606,3.504,10.997     c5.093-3.409,9.238-7.161,12.117-11.367c3.548,0.906,13.788,3.522,15.924,5.23c2.682,2.144,3.509,17.471,3.928,27.513     c0.042,0.986-0.288,1.85-0.978,2.561c-0.69,0.711-1.548,1.074-2.546,1.074h-45.498c-1.04,0-1.936-0.396-2.63-1.165     c-0.693-0.77-0.992-1.694-0.875-2.719c1.558-13.627,3.389-24.137,5.13-25.944C211.306,223.359,215.562,221.974,220.523,219.992     L220.523,219.992z M231.454,179.585c-7.871-0.427-14.596,5.335-15.007,12.855c-0.396,7.274,1.875,23.163,10.828,23.643     c8.956,0.481,17.289-14.828,17.687-22.102C245.372,186.457,239.329,180.009,231.454,179.585L231.454,179.585z" fill="#2B78C2" fill-rule="evenodd"/><path clip-rule="evenodd" d="M220.523,130.211c0.301,3.987,1.598,7.605,3.504,10.996     c5.093-3.409,10.312-8.223,13.189-12.428c3.548,0.906,12.716,4.582,14.852,6.29c2.682,2.146,3.509,17.469,3.928,27.515     c0.042,0.985-0.288,1.848-0.978,2.56c-0.69,0.713-1.548,1.075-2.546,1.075h-45.498c-1.04,0-1.936-0.398-2.63-1.164     c-0.693-0.771-0.992-1.695-0.875-2.72c1.558-13.627,3.389-24.137,5.13-25.945C211.306,133.578,215.562,132.191,220.523,130.211     L220.523,130.211z M231.454,89.803c-7.871-0.426-14.596,5.337-15.007,12.855c-0.396,7.275,1.878,21.714,10.828,22.192     c8.956,0.479,17.291-13.378,17.687-20.651C245.372,96.678,239.329,90.227,231.454,89.803L231.454,89.803z" fill="#2B78C2" fill-rule="evenodd"/><path clip-rule="evenodd" d="M220.523,40.43c0.301,3.987,1.598,7.605,3.504,10.997     c5.093-3.409,10.312-8.223,13.189-12.428c3.548,0.906,12.716,4.583,14.852,6.291c2.682,2.144,3.509,17.469,3.928,27.513     c0.042,0.985-0.288,1.848-0.978,2.561c-0.69,0.712-1.548,1.075-2.546,1.075h-45.498c-1.04,0-1.936-0.397-2.63-1.166     c-0.693-0.769-0.992-1.693-0.875-2.718c1.558-13.627,3.389-24.137,5.13-25.945C211.306,43.798,215.562,42.411,220.523,40.43     L220.523,40.43z M231.454,0.022c-7.871-0.426-14.596,5.337-15.007,12.855c-0.396,7.275,1.878,21.713,10.828,22.193     c8.956,0.479,17.291-13.378,17.687-20.651C245.372,6.897,239.329,0.446,231.454,0.022L231.454,0.022z" fill="#2B78C2" fill-rule="evenodd"/><path clip-rule="evenodd" d="M164.645,175.102c0.3,3.987,1.597,7.605,3.503,10.997     c5.093-3.409,9.238-7.161,12.117-11.367c3.548,0.905,13.787,3.521,15.924,5.229c2.682,2.145,3.508,17.472,3.928,27.514     c0.041,0.984-0.288,1.848-0.978,2.56c-0.69,0.712-1.549,1.075-2.546,1.075h-45.499c-1.039,0-1.937-0.397-2.628-1.165     c-0.693-0.771-0.993-1.694-0.875-2.719c1.557-13.627,3.387-24.137,5.13-25.944C155.425,178.469,159.681,177.083,164.645,175.102     L164.645,175.102z M175.575,134.693c-7.872-0.426-14.596,5.335-15.008,12.855c-0.396,7.274,1.874,23.163,10.829,23.645     c8.955,0.48,17.287-14.83,17.686-22.103C189.492,141.567,183.45,135.119,175.575,134.693L175.575,134.693z" fill="#2B78C2" fill-rule="evenodd"/><path clip-rule="evenodd" d="M167.895,85.32c0.3,3.987,1.597,7.606,3.502,10.997     c5.094-3.409,9.238-7.162,12.118-11.367c3.547,0.906,13.787,3.522,15.923,5.23c2.682,2.145,3.51,17.471,3.929,27.513     c0.042,0.986-0.288,1.849-0.979,2.56c-0.69,0.712-1.549,1.075-2.545,1.075h-45.498c-1.041,0-1.937-0.397-2.63-1.165     c-0.693-0.769-0.991-1.694-0.875-2.718c1.558-13.627,3.39-24.137,5.13-25.944C158.675,88.687,162.93,87.301,167.895,85.32     L167.895,85.32z M178.824,44.912c-7.871-0.426-14.597,5.334-15.007,12.855c-0.397,7.274,1.876,23.164,10.829,23.644     c8.956,0.48,17.289-14.83,17.685-22.103C192.742,51.785,186.699,45.336,178.824,44.912L178.824,44.912z" fill="#2B78C2" fill-rule="evenodd"/><path clip-rule="evenodd" d="M78.4,76.441l13.665-1.824     c6.405-0.855,28.186-1.883,30.344-14.041c0.304-1.717,2.824-1.655,3.058,0.059l0.005,0l1.731,12.717     c0.898-0.121,2.673-0.572,2.908,1.157l1.077,7.901l-0.006,0.001c0.231,1.706-1.591,1.758-2.49,1.877l1.733,12.716     c0.232,1.704-2.208,2.523-2.993,0.748c-4.668-10.572-24.98-7.014-32.808-5.813c-0.05,0.008,4.861,17.023,5.091,18.713     c0.115,0.839-0.482,1.614-1.332,1.728l-7.687,1.026c0-0.001-1.571-0.692-1.688-1.066l-4.429-13.881     c-1.459-4.573-4.235-3.669-6.666-5.504c-1.14-0.862-1.472-1.829-1.653-3.167c-2.777,0.371-3.597,0.775-3.896-1.015     c-0.17-1.019-0.222-1.824-0.691-5.281c-0.251-1.851,1.949-1.811,3.25-1.984C74.566,78.872,75.917,76.772,78.4,76.441L78.4,76.441     z" fill="#3B4552" fill-rule="evenodd"/><path clip-rule="evenodd" d="M23.281,113.731c-8.972,9.409-22.127,32.403-23.206,40.725     c-0.775,5.965,4.562,25.908,9.874,38.561c4.609,10.979,18.339,6.993,15.601-3.988c-3.325-13.33-4.33-17.278-6.634-32.572     c3.276-7.298,4.169-8.928,7.446-13.572l0.363,3.606c-0.296,13.089,0.309,38.206,0.613,50.551c0.044,1.806,1.54,3.25,3.365,3.25     h45.034c1.879,0,3.374-1.488,3.366-3.347c-0.052-10.97-0.353-33.818-1.121-43.817l-0.16-2.628     c1.426,1.764,4.532,4.169,6.792,5.942c3.722,2.928,9.133,2.338,12.1-1.337c7.058-8.748,7.453-32.167,3.147-52.383     c-2.351-11.036-16.419-8.847-15.166,2.573c1.453,13.233,3.36,17.066,1.931,29.407c-9.203-12.887-8.227-19.232-13.927-23.712     c-4.875-3.83-8.435-4.516-13.915-6.702c2.683,5.536,4.806,16.633,5.078,25.048c-1.505-4.717-5.686-16.075-8.099-20.246     l-3.06,0.07c2.511,7.032,4.359,16.673,4.481,24.433c-4.471-11.866-10.449-22.886-15.734-29.699     c-3.757,0.961-12.761,3.82-15.084,5.541c-0.85,0.628-1.272,1.212-1.56,1.798C24.031,112.81,24.449,112.505,23.281,113.731     L23.281,113.731z M44.393,55.735c9.226-0.499,17.107,6.252,17.588,15.067c0.465,8.523-2.199,27.146-12.691,27.708     c-10.495,0.562-20.261-17.38-20.726-25.903C28.083,63.792,35.164,56.234,44.393,55.735L44.393,55.735z" fill="#3B4552" fill-rule="evenodd"/></g></g></svg>