<?xml version="1.0" ?><svg height="59px" version="1.1" viewBox="0 0 60 59" width="60px" xmlns="http://www.w3.org/2000/svg" xmlns:sketch="http://www.bohemiancoding.com/sketch/ns" xmlns:xlink="http://www.w3.org/1999/xlink"><title/><desc/><defs/><g fill="none" fill-rule="evenodd" id="Space" stroke="none" stroke-width="1"><g fill="#000000" id="Icon-9" transform="translate(0.000000, -1.000000)"><path d="M36.002,24.9834 C36.002,21.6744 33.311,18.9834 30.002,18.9834 C26.693,18.9834 24.002,21.6744 24.002,24.9834 C24.002,28.2924 26.693,30.9834 30.002,30.9834 C33.311,30.9834 36.002,28.2924 36.002,24.9834 M38.297,21.3494 L37.376,21.8814 C37.778,22.8364 38.002,23.8844 38.002,24.9834 C38.002,29.3944 34.413,32.9834 30.002,32.9834 C25.591,32.9834 22.002,29.3944 22.002,24.9834 C22.002,23.8834 22.226,22.8354 22.629,21.8804 L21.708,21.3494 C21.23,21.0724 21.065,20.4614 21.342,19.9834 C21.618,19.5044 22.23,19.3394 22.708,19.6164 L23.639,20.1544 C24.079,19.5754 24.595,19.0604 25.173,18.6204 L24.636,17.6894 C24.359,17.2104 24.523,16.5994 25.002,16.3224 C25.479,16.0464 26.091,16.2104 26.368,16.6894 L26.899,17.6094 C27.56,17.3314 28.267,17.1454 29.002,17.0524 L29.002,15.9834 C29.002,15.4314 29.449,14.9834 30.002,14.9834 C30.555,14.9834 31.002,15.4314 31.002,15.9834 L31.002,17.0524 C31.737,17.1454 32.444,17.3314 33.105,17.6094 L33.636,16.6894 C33.912,16.2114 34.524,16.0474 35.002,16.3234 C35.481,16.5994 35.645,17.2114 35.368,17.6894 L34.831,18.6204 C35.409,19.0604 35.925,19.5764 36.365,20.1544 L37.295,19.6174 C37.773,19.3394 38.386,19.5044 38.662,19.9834 C38.939,20.4614 38.774,21.0724 38.297,21.3494 M11.002,4.9834 C11.254,4.9834 11.479,4.8814 11.654,4.7274 C11.669,4.7104 11.674,4.6894 11.69,4.6734 C11.706,4.6574 11.728,4.6514 11.745,4.6374 C11.899,4.4614 12.002,4.2354 12.002,3.9834 C12.002,3.4324 11.554,2.9834 11.002,2.9834 C10.45,2.9834 10.002,3.4324 10.002,3.9834 C10.002,4.5344 10.45,4.9834 11.002,4.9834 M48.002,3.9834 C48.002,4.2484 48.109,4.4854 48.278,4.6654 C48.284,4.6714 48.293,4.6724 48.3,4.6794 C48.308,4.6874 48.31,4.6974 48.317,4.7054 C48.496,4.8754 48.735,4.9834 49.002,4.9834 C49.554,4.9834 50.002,4.5344 50.002,3.9834 C50.002,3.4324 49.554,2.9834 49.002,2.9834 C48.45,2.9834 48.002,3.4324 48.002,3.9834 M59.466,56.9834 C58.363,58.8934 55.91,59.5484 54.001,58.4474 L44.335,52.5714 L45.511,55.0544 C46.006,55.9044 46.173,56.9774 45.942,58.0024 C45.701,59.0734 45.057,59.9584 44.127,60.4954 C43.536,60.8374 42.883,61.0004 42.225,61.0004 C40.877,61.0004 39.509,60.3154 38.604,59.0714 L34.609,52.7994 L34.001,57.0594 C33.961,59.2304 32.182,60.9834 30.002,60.9834 C27.822,60.9834 26.043,59.2304 26.003,57.0594 L25.395,52.8034 L21.444,59.0194 C20.092,60.9064 17.63,61.5244 15.815,60.4744 C14.959,59.9814 14.346,59.1764 14.087,58.2104 C13.803,57.1484 13.968,55.9714 14.54,54.9824 L15.647,52.6274 L6.02,58.4374 C4.093,59.5494 1.641,58.8934 0.538,56.9834 C0.004,56.0584 -0.139,54.9794 0.139,53.9474 C0.408,52.9414 1.045,52.0964 1.935,51.5594 L7.399,47.2014 C7.488,47.1374 10.002,45.4004 10.002,42.9834 L10.002,24.9834 C10.002,19.5094 12.237,14.3034 16.17,10.5374 L12.29,6.6814 C11.898,6.8694 11.465,6.9834 11.002,6.9834 C9.348,6.9834 8.002,5.6374 8.002,3.9834 C8.002,2.3294 9.348,0.9834 11.002,0.9834 C12.656,0.9834 14.002,2.3294 14.002,3.9834 C14.002,4.4434 13.89,4.8754 13.703,5.2654 L18.326,9.8614 C18.523,10.0574 18.631,10.3274 18.62,10.6064 C18.61,10.8854 18.484,11.1474 18.273,11.3284 C14.288,14.7544 12.002,19.7324 12.002,24.9834 L12.002,42.9834 C12.002,46.4764 8.72,48.7194 8.58,48.8134 L3.126,53.1664 C3.087,53.1974 3.046,53.2264 3.003,53.2514 C2.54,53.5184 2.209,53.9494 2.07,54.4654 C1.932,54.9814 2.003,55.5204 2.271,55.9834 C2.822,56.9384 4.048,57.2634 5.003,56.7144 L17.44,49.2094 C17.816,48.9814 18.299,49.0274 18.626,49.3224 C18.953,49.6184 19.049,50.0924 18.86,50.4914 L16.31,55.9084 C15.963,56.5174 15.87,57.1394 16.019,57.6924 C16.104,58.0114 16.312,58.4524 16.815,58.7424 C17.733,59.2754 19.07,58.8974 19.789,57.8994 L25.158,49.4474 C25.382,49.0934 25.801,48.9174 26.213,49.0054 C26.622,49.0934 26.933,49.4274 26.992,49.8414 L27.992,56.8414 C27.999,56.8884 28.002,56.9364 28.002,56.9834 C28.002,58.0864 28.899,58.9834 30.002,58.9834 C31.105,58.9834 32.002,58.0864 32.002,56.9834 C32.002,56.9364 32.005,56.8884 32.012,56.8414 L33.012,49.8414 C33.071,49.4274 33.382,49.0944 33.791,49.0054 C34.201,48.9184 34.62,49.0934 34.846,49.4464 L40.256,57.9454 C40.854,58.7644 42.087,59.3634 43.127,58.7634 C43.567,58.5094 43.874,58.0834 43.991,57.5644 C44.109,57.0384 44.019,56.4624 43.741,55.9834 L41.099,50.4114 C40.909,50.0124 41.004,49.5364 41.332,49.2404 C41.66,48.9444 42.143,48.8994 42.522,49.1294 L55.021,56.7264 C55.957,57.2664 57.182,56.9394 57.733,55.9824 C58.001,55.5204 58.072,54.9814 57.934,54.4654 C57.795,53.9494 57.464,53.5184 57.001,53.2514 C56.957,53.2254 56.916,53.1974 56.876,53.1654 L51.377,48.7644 C51.307,48.7214 48.002,46.4784 48.002,42.9834 L48.002,24.9834 C48.002,19.7534 45.731,14.7894 41.772,11.3634 C41.563,11.1824 41.438,10.9224 41.427,10.6464 C41.416,10.3694 41.521,10.1004 41.716,9.9034 L46.305,5.2724 C46.116,4.8804 46.002,4.4464 46.002,3.9834 C46.002,2.3294 47.348,0.9834 49.002,0.9834 C50.656,0.9834 52.002,2.3294 52.002,3.9834 C52.002,5.6374 50.656,6.9834 49.002,6.9834 C48.541,6.9834 48.11,6.8704 47.72,6.6844 L43.869,10.5714 C47.779,14.3354 50.002,19.5294 50.002,24.9834 L50.002,42.9834 C50.002,45.3984 52.533,47.1354 52.559,47.1524 L58.07,51.5594 C58.96,52.0964 59.596,52.9414 59.865,53.9474 C60.143,54.9794 60,56.0574 59.466,56.9834 M21.018,9.3824 C23.737,7.8134 26.844,6.9834 30.002,6.9834 C33.164,6.9834 36.273,7.8154 38.994,9.3874 C39.152,9.4794 39.324,9.5224 39.494,9.5224 C39.84,9.5224 40.176,9.3424 40.361,9.0224 C40.638,8.5444 40.474,7.9324 39.996,7.6564 C36.971,5.9074 33.516,4.9834 30.002,4.9834 C26.493,4.9834 23.041,5.9054 20.018,7.6504 C19.539,7.9264 19.375,8.5384 19.651,9.0164 C19.928,9.4944 20.54,9.6574 21.018,9.3824 M30.002,22.9834 C28.899,22.9834 28.002,23.8804 28.002,24.9834 C28.002,26.0864 28.899,26.9834 30.002,26.9834 C31.105,26.9834 32.002,26.0864 32.002,24.9834 C32.002,23.8804 31.105,22.9834 30.002,22.9834 M19.516,37.1254 C19.564,37.1534 24.366,39.9834 30.002,39.9834 C35.638,39.9834 40.44,37.1534 40.488,37.1254 C40.965,36.8414 41.577,36.9974 41.859,37.4704 C42.143,37.9434 41.989,38.5574 41.517,38.8404 C41.303,38.9694 36.208,41.9834 30.002,41.9834 C23.796,41.9834 18.701,38.9694 18.487,38.8404 C18.015,38.5574 17.861,37.9434 18.145,37.4704 C18.428,36.9974 19.039,36.8414 19.516,37.1254" id="alien-1"/></g></g></svg>