<?xml version="1.0" ?><!DOCTYPE svg  PUBLIC '-//W3C//DTD SVG 1.1//EN'  'http://www.w3.org/Graphics/SVG/1.1/DTD/svg11.dtd'><svg enable-background="new 0 0 512 512" height="512px" id="Layer_1" version="1.1" viewBox="0 0 512 512" width="512px" xml:space="preserve" xmlns="http://www.w3.org/2000/svg" xmlns:xlink="http://www.w3.org/1999/xlink"><path d="M422.753,484.108V8.38H232.751v275.935h72.577l84.906,58.091v141.703H42.794v20.035h409.817v-20.035H422.753  z M287.387,242.286H258.03v-39.143h29.356V242.286z M340.938,242.286h-29.355v-39.143h29.355V242.286z M340.938,184.658h-29.355  v-39.143h29.355V184.658z M340.938,126.349h-29.355V87.207h29.355V126.349z M396.39,299.914h-29.356v-39.143h29.356V299.914z   M396.39,242.286h-29.356v-39.143h29.356V242.286z M396.39,184.658h-29.356v-39.143h29.356V184.658z M396.39,126.349h-29.356V87.207  h29.356V126.349z M396.39,68.724h-29.356V29.582h29.356V68.724z M220.616,247.98H77.033v235.826h143.583V247.98z M137.326,452.341  h-28.688v-35.063h28.688V452.341z M137.326,384.966h-28.688v-35.063h28.688V384.966z M137.326,319.121h-28.688v-35.063h28.688  V319.121z M186.731,452.341h-28.688v-35.063h28.688V452.341z M186.731,384.966h-28.688v-35.063h28.688V384.966z M186.731,319.121  h-28.688v-35.063h28.688V319.121z M303.063,300.348l-69.843-0.288v183.747h142.052V349.042L303.063,300.348z M288.01,441.315  h-27.561v-34.451h27.561V441.315z M288.01,374.461h-27.561V340.01h27.561V374.461z M344.45,441.315h-27.562v-34.451h27.562V441.315z  " fill="#333333"/></svg>