<?xml version="1.0" ?><svg style="enable-background:new 0 0 256 256;" version="1.1" viewBox="0 0 256 256" xml:space="preserve" xmlns="http://www.w3.org/2000/svg" xmlns:xlink="http://www.w3.org/1999/xlink"><style type="text/css">
	.st0{fill:#00A388;}
	.st1{fill:#EA685E;stroke:#00886F;stroke-width:15;stroke-miterlimit:10;}
	.st2{fill:#E8E8E8;}
	.st3{fill:#FFFFFF;stroke:#00886F;stroke-width:15;stroke-miterlimit:10;}
	.st4{fill:#00886F;}
	.st5{fill:#FFFFFF;}
	.st6{fill:#CCCCCC;}
	.st7{fill:none;stroke:#00A388;stroke-width:4;stroke-miterlimit:10;}
	.st8{fill:#EA685E;}
	.st9{fill:#FFAB80;}
	.st10{fill:#2C3E50;}
	.st11{fill:#4B687F;}
	.st12{fill:none;stroke:#3E5063;stroke-width:4;stroke-miterlimit:10;}
	.st13{fill:#FFD766;}
	.st14{fill:#FFE6D3;}
	.st15{fill:#F09A79;}
	.st16{fill:#C91E01;}
	.st17{fill:#EA3B28;}
	.st18{fill:#0F627F;}
	.st19{fill:#005670;}
	.st20{filter:url(#Adobe_OpacityMaskFilter);}
	.st21{mask:url(#SVGID_2_);}
	.st22{fill:#8C623B;}
	.st23{fill:#E6E6E6;stroke:#005670;stroke-width:16;stroke-miterlimit:10;}
	.st24{opacity:0.6;}
	.st25{fill:#E6E6E6;}
	.st26{fill:#FFEC82;}
	.st27{fill:#FFCF3A;}
	.st28{filter:url(#Adobe_OpacityMaskFilter_1_);}
	.st29{mask:url(#SVGID_1_);}
	.st30{fill:#603813;}
	.st31{fill:#F2F2F2;}
	.st32{fill:#666666;}
</style><g id="Layer_2"><circle class="st2" cx="128" cy="128" r="120"/></g><g id="Layer_1"><g><g><path class="st18" d="M206.003052,123.5h-38c0-22.049988-17.949951-40-40-40c-19.25,0-35.360107,13.669983-39.160156,31.799988     c-0.550049,2.650024-0.839844,5.390015-0.839844,8.200012h-38c0-3.26001,0.199951-6.470032,0.599854-9.630005     C55.352905,75.390015,88.253052,45.5,128.003052,45.5C171.013062,45.5,206.003052,80.48999,206.003052,123.5z"/></g><g><path class="st17" d="M206.003052,132.5c0,3.26001-0.199951,6.47998-0.600098,9.640015     C200.642944,180.619995,167.753052,210.5,128.003052,210.5c-43.01001,0-78-34.98999-78-78h38c0,22.059998,17.939941,40,40,40     c19.23999,0,35.349854-13.650024,39.149902-31.790039c0.560059-2.649963,0.850098-5.399963,0.850098-8.209961H206.003052z"/></g><g><path class="st19" d="M88.842896,115.299988c-0.550049,2.650024-0.839844,5.390015-0.839844,8.200012h-38     c0-3.26001,0.199951-6.470032,0.599854-9.630005l18.400146-18.400024L88.842896,115.299988z"/></g><g><polygon class="st17" points="34.374146,137.14679 103.625854,137.14679 69.002808,102.535156    "/></g><g><path class="st16" d="M206.003052,132.5c0,3.26001-0.199951,6.47998-0.600098,9.640015l-18.409912,18.399963     l-19.840088-19.830017c0.560059-2.649963,0.850098-5.399963,0.850098-8.209961H206.003052z"/></g><g><polygon class="st18" points="221.625854,118.862061 152.374146,118.862061 186.997192,153.473694    "/></g></g></g></svg>