<?xml version="1.0" encoding="UTF-8"?>
<svg width="314px" height="261px" viewBox="0 0 314 261" version="1.1" xmlns="http://www.w3.org/2000/svg" xmlns:xlink="http://www.w3.org/1999/xlink">
    <!-- Generator: Sketch 41.2 (35397) - http://www.bohemiancoding.com/sketch -->
    <title>skype-group</title>
    <desc>Created with Sketch.</desc>
    <defs></defs>
    <g id="Page-1" stroke="none" stroke-width="1" fill="none" fill-rule="evenodd">
        <g id="skype-group">
            <g id="Page-1">
                <g id="skype-group-copy" transform="translate(93.000000, 0.000000)">
                    <path d="M158.7,204.6 C150.8,204.6 143,202.5 136.1,198.6 L131.2,195.8 L125.6,196.8 C78,205.2 32.6,173.4 24.2,125.8 C22.4,115.8 22.4,105.5 24.2,95.4 L25.2,89.8 L22.4,85 C9.9,63.1 17.5,35.2 39.4,22.6 C53.4,14.6 70.6,14.6 84.7,22.6 L89.6,25.4 L95.2,24.4 C100.2,23.5 105.3,23.1 110.4,23.1 C158.7,23.1 197.9,62.3 197.9,110.7 C197.9,115.8 197.5,120.8 196.6,125.8 L195.6,131.4 L198.4,136.3 C210.9,158.2 203.2,186.1 181.3,198.6 C174.4,202.5 166.7,204.5 158.7,204.6" id="Shape-path" fill="#FFFFFF"></path>
                    <path d="M211.9,128.5 C212.9,122.6 213.5,116.6 213.5,110.6 C213.5,53.6 167.2,7.4 110.2,7.5 C104.3,7.5 98.3,8 92.5,9 C63.1,-7.7 25.6,2.5 8.9,32 C-1.8,50.8 -1.8,73.9 8.9,92.7 C-1,148.8 36.6,202.3 92.7,212.2 C104.5,214.3 116.5,214.3 128.3,212.2 C157.7,229 195.1,218.7 211.9,189.3 C222.7,170.4 222.7,147.3 211.9,128.5 M158.7,204.6 C150.8,204.6 143,202.5 136.1,198.6 L131.2,195.8 L125.6,196.8 C78,205.2 32.6,173.4 24.2,125.8 C22.4,115.8 22.4,105.5 24.2,95.4 L25.2,89.8 L22.4,85 C9.9,63.1 17.5,35.2 39.4,22.6 C53.4,14.6 70.6,14.6 84.7,22.6 L89.6,25.4 L95.2,24.4 C100.2,23.5 105.3,23.1 110.4,23.1 C158.7,23.1 197.9,62.3 197.9,110.7 C197.9,115.8 197.5,120.8 196.6,125.8 L195.6,131.4 L198.4,136.3 C210.9,158.2 203.2,186.1 181.3,198.6 C174.4,202.5 166.7,204.5 158.7,204.6" id="Shape" fill="#D8F4FF"></path>
                    <path d="M129.1,100.8 L105.9,95.6 C97.1,93.6 87.2,90.7 87.2,82.3 C87.2,73.9 94,68 106.9,68 C132.8,68 130.6,86 143.5,86 C150.3,86 156.1,82.2 156.1,75.3 C156.1,59.2 130.4,47.3 108.7,47.3 C85.2,47.3 60.6,57 60.6,83.8 C60.6,96.7 65,110.6 90.2,117 L121.5,124.9 C130.9,127.3 133.7,132.6 133.7,137.5 C133.7,145.6 125.3,154.1 110.9,154.1 C82.8,154.1 86.8,131.7 71.7,131.7 C64.9,131.7 59.7,136.3 59.7,143 C59.7,156.1 75.8,173.9 110.9,173.9 C144.3,173.9 161.3,157.1 161.3,135.3 C161.3,121.3 154.5,106.5 129.1,100.8" id="Shape" fill="#D8F4FF"></path>
                </g>
                <g id="skype-group-copy-2" transform="translate(47.000000, 20.000000)">
                    <path d="M158.7,204.6 C150.8,204.6 143,202.5 136.1,198.6 L131.2,195.8 L125.6,196.8 C78,205.2 32.6,173.4 24.2,125.8 C22.4,115.8 22.4,105.5 24.2,95.4 L25.2,89.8 L22.4,85 C9.9,63.1 17.5,35.2 39.4,22.6 C53.4,14.6 70.6,14.6 84.7,22.6 L89.6,25.4 L95.2,24.4 C100.2,23.5 105.3,23.1 110.4,23.1 C158.7,23.1 197.9,62.3 197.9,110.7 C197.9,115.8 197.5,120.8 196.6,125.8 L195.6,131.4 L198.4,136.3 C210.9,158.2 203.2,186.1 181.3,198.6 C174.4,202.5 166.7,204.5 158.7,204.6" id="Shape-path" fill="#FFFFFF"></path>
                    <path d="M211.9,128.5 C212.9,122.6 213.5,116.6 213.5,110.6 C213.5,53.6 167.2,7.4 110.2,7.5 C104.3,7.5 98.3,8 92.5,9 C63.1,-7.7 25.6,2.5 8.9,32 C-1.8,50.8 -1.8,73.9 8.9,92.7 C-1,148.8 36.6,202.3 92.7,212.2 C104.5,214.3 116.5,214.3 128.3,212.2 C157.7,229 195.1,218.7 211.9,189.3 C222.7,170.4 222.7,147.3 211.9,128.5 M158.7,204.6 C150.8,204.6 143,202.5 136.1,198.6 L131.2,195.8 L125.6,196.8 C78,205.2 32.6,173.4 24.2,125.8 C22.4,115.8 22.4,105.5 24.2,95.4 L25.2,89.8 L22.4,85 C9.9,63.1 17.5,35.2 39.4,22.6 C53.4,14.6 70.6,14.6 84.7,22.6 L89.6,25.4 L95.2,24.4 C100.2,23.5 105.3,23.1 110.4,23.1 C158.7,23.1 197.9,62.3 197.9,110.7 C197.9,115.8 197.5,120.8 196.6,125.8 L195.6,131.4 L198.4,136.3 C210.9,158.2 203.2,186.1 181.3,198.6 C174.4,202.5 166.7,204.5 158.7,204.6" id="Shape" fill="#8FD5F0"></path>
                    <path d="M129.1,100.8 L105.9,95.6 C97.1,93.6 87.2,90.7 87.2,82.3 C87.2,73.9 94,68 106.9,68 C132.8,68 130.6,86 143.5,86 C150.3,86 156.1,82.2 156.1,75.3 C156.1,59.2 130.4,47.3 108.7,47.3 C85.2,47.3 60.6,57 60.6,83.8 C60.6,96.7 65,110.6 90.2,117 L121.5,124.9 C130.9,127.3 133.7,132.6 133.7,137.5 C133.7,145.6 125.3,154.1 110.9,154.1 C82.8,154.1 86.8,131.7 71.7,131.7 C64.9,131.7 59.7,136.3 59.7,143 C59.7,156.1 75.8,173.9 110.9,173.9 C144.3,173.9 161.3,157.1 161.3,135.3 C161.3,121.3 154.5,106.5 129.1,100.8" id="Shape" fill="#8FD5F0"></path>
                </g>
                <g id="skype-group" transform="translate(0.000000, 40.000000)">
                    <path d="M158.7,204.6 C150.8,204.6 143,202.5 136.1,198.6 L131.2,195.8 L125.6,196.8 C78,205.2 32.6,173.4 24.2,125.8 C22.4,115.8 22.4,105.5 24.2,95.4 L25.2,89.8 L22.4,85 C9.9,63.1 17.5,35.2 39.4,22.6 C53.4,14.6 70.6,14.6 84.7,22.6 L89.6,25.4 L95.2,24.4 C100.2,23.5 105.3,23.1 110.4,23.1 C158.7,23.1 197.9,62.3 197.9,110.7 C197.9,115.8 197.5,120.8 196.6,125.8 L195.6,131.4 L198.4,136.3 C210.9,158.2 203.2,186.1 181.3,198.6 C174.4,202.5 166.7,204.5 158.7,204.6" id="Shape-path" fill="#FFFFFF"></path>
                    <path d="M211.9,128.5 C212.9,122.6 213.5,116.6 213.5,110.6 C213.5,53.6 167.2,7.4 110.2,7.5 C104.3,7.5 98.3,8 92.5,9 C63.1,-7.7 25.6,2.5 8.9,32 C-1.8,50.8 -1.8,73.9 8.9,92.7 C-1,148.8 36.6,202.3 92.7,212.2 C104.5,214.3 116.5,214.3 128.3,212.2 C157.7,229 195.1,218.7 211.9,189.3 C222.7,170.4 222.7,147.3 211.9,128.5 M158.7,204.6 C150.8,204.6 143,202.5 136.1,198.6 L131.2,195.8 L125.6,196.8 C78,205.2 32.6,173.4 24.2,125.8 C22.4,115.8 22.4,105.5 24.2,95.4 L25.2,89.8 L22.4,85 C9.9,63.1 17.5,35.2 39.4,22.6 C53.4,14.6 70.6,14.6 84.7,22.6 L89.6,25.4 L95.2,24.4 C100.2,23.5 105.3,23.1 110.4,23.1 C158.7,23.1 197.9,62.3 197.9,110.7 C197.9,115.8 197.5,120.8 196.6,125.8 L195.6,131.4 L198.4,136.3 C210.9,158.2 203.2,186.1 181.3,198.6 C174.4,202.5 166.7,204.5 158.7,204.6" id="Shape" fill="#00B0F3"></path>
                    <path d="M129.1,100.8 L105.9,95.6 C97.1,93.6 87.2,90.7 87.2,82.3 C87.2,73.9 94,68 106.9,68 C132.8,68 130.6,86 143.5,86 C150.3,86 156.1,82.2 156.1,75.3 C156.1,59.2 130.4,47.3 108.7,47.3 C85.2,47.3 60.6,57 60.6,83.8 C60.6,96.7 65,110.6 90.2,117 L121.5,124.9 C130.9,127.3 133.7,132.6 133.7,137.5 C133.7,145.6 125.3,154.1 110.9,154.1 C82.8,154.1 86.8,131.7 71.7,131.7 C64.9,131.7 59.7,136.3 59.7,143 C59.7,156.1 75.8,173.9 110.9,173.9 C144.3,173.9 161.3,157.1 161.3,135.3 C161.3,121.3 154.5,106.5 129.1,100.8" id="Shape" fill="#00B0F3"></path>
                </g>
            </g>
        </g>
    </g>
</svg>