<?xml version="1.0" ?><!DOCTYPE svg  PUBLIC '-//W3C//DTD SVG 1.1//EN'  'http://www.w3.org/Graphics/SVG/1.1/DTD/svg11.dtd'><svg enable-background="new 0 0 256 256" height="256px" id="Layer_1" version="1.1" viewBox="0 0 256 256" width="256px" xml:space="preserve" xmlns="http://www.w3.org/2000/svg" xmlns:xlink="http://www.w3.org/1999/xlink"><g><g><path d="M94.663,205.191c-2.861,1.644-6.513,0.657-8.156-2.203c-1.644-2.86-0.657-6.513,2.203-8.156l33.29-19.22     v-38.497c0-3.314,2.686-6,6-6s6,2.686,6,6v38.497l33.29,19.22c2.86,1.644,3.847,5.296,2.203,8.156     c-1.644,2.86-5.296,3.847-8.156,2.203L128,185.944L94.663,205.191L94.663,205.191z" fill="#2BA4C2"/><g><path d="M162.551,81.652l7.542,38.253H85.907l7.542-38.253c3.012-14.79,20.871-21.37,34.552-21.37      S159.539,66.861,162.551,81.652L162.551,81.652z" fill="#2BA4C2"/><path d="M128,0c-15.501,0-28.068,12.566-28.068,28.068c0,15.502,12.566,28.068,28.068,28.068      c15.501,0,28.068-12.565,28.068-28.068C156.067,12.566,143.501,0,128,0L128,0z" fill="#2BA4C2"/></g><g><path d="M248.459,217.747L256,256h-84.186l7.542-38.253c3.012-14.79,20.871-21.37,34.552-21.37      S245.446,202.957,248.459,217.747L248.459,217.747z" fill="#2BA4C2"/><path d="M213.907,136.095c-15.501,0-28.068,12.566-28.068,28.068c0,15.502,12.566,28.068,28.068,28.068      c15.501,0,28.068-12.565,28.068-28.068C241.975,148.661,229.408,136.095,213.907,136.095L213.907,136.095z" fill="#2BA4C2"/></g><g><path d="M76.644,217.747L84.186,256H0l7.542-38.253c3.012-14.79,20.871-21.37,34.552-21.37      C55.773,196.378,73.632,202.957,76.644,217.747L76.644,217.747z" fill="#2BA4C2"/><path d="M42.093,136.095c-15.501,0-28.068,12.566-28.068,28.068c0,15.502,12.566,28.068,28.068,28.068      c15.501,0,28.068-12.565,28.068-28.068C70.16,148.661,57.594,136.095,42.093,136.095L42.093,136.095z" fill="#2BA4C2"/></g></g></g></svg>