<?xml version="1.0" ?><!DOCTYPE svg  PUBLIC '-//W3C//DTD SVG 1.1//EN'  'http://www.w3.org/Graphics/SVG/1.1/DTD/svg11.dtd'><svg enable-background="new 0 0 48 48" id="Layer_1" version="1.1" viewBox="0 0 48 48" xml:space="preserve" xmlns="http://www.w3.org/2000/svg" xmlns:xlink="http://www.w3.org/1999/xlink"><g><g><g><g><path d="M25.7,21.1l-0.8-3.6c-0.4-1.6-1.5-3-3.1-3.5l-3.2-1.2l-3.7,1.1l-3.7-1.1L8,13.9      c-1.6,0.6-2.7,1.9-3.1,3.5l-0.8,3.6H25.7z" fill="#4EC0AA"/><polygon fill="#CED6E0" points="17.2,13.2 14.9,13.9 12.7,13.2 12.8,19.6 17.1,19.6     "/><polygon fill="#415A6B" points="13.6,21.1 16.2,21.1 16.6,20.3 15.6,16.3 16.2,15.2 14.9,13.9 13.7,15.2 14.3,16.3 13.3,20.3           "/><path d="M14.9,13.9c0,0,2.2-1.4,2.4-2.7l0.8,1.5L16.6,16L14.9,13.9z" fill="#E8EAE9"/><polygon fill="#66C6B9" points="16.6,21.1 20,15.3 18.7,14.6 20,14.1 17.8,11.9 15.6,21.1     "/><path d="M14.9,13.9c0,0-2.2-1.4-2.4-2.7l-0.8,1.5l1.6,3.4L14.9,13.9z" fill="#E8EAE9"/><polygon fill="#66C6B9" points="9.9,15.3 13.2,21.1 14.2,21.1 12.1,11.9 9.9,14.1 11.2,14.6     "/><path d="M12.5,9.6v1.5c0.2,1.3,2.4,2.7,2.4,2.7s2.2-1.4,2.4-2.7l0-1.5H12.5z" fill="#F7B64C"/><g><path d="M11.5,5.7c-0.1,0.5-0.2,0.9-0.2,1.5c0,2.5,1.6,4.5,3.7,4.5c2,0,3.7-2,3.7-4.5c0-0.6-0.1-1.2-0.3-1.7       C17.3,0.7,11.5,1.4,11.5,5.7z" fill="#FFD15C"/></g><g><g><path d="M19.2,7.3c-0.2,0.8-0.6,1.3-1,1.3c-0.4-0.1-0.6-0.8-0.4-1.5s0.6-1.3,1-1.3S19.3,6.5,19.2,7.3z" fill="#FFD15C"/></g></g><g><g><path d="M10.7,7.3c0.2,0.8,0.6,1.3,1,1.3c0.4-0.1,0.6-0.8,0.4-1.5c-0.2-0.8-0.6-1.3-1-1.3        C10.7,5.8,10.5,6.5,10.7,7.3z" fill="#FFD15C"/></g></g><g><path d="M11.5,7.3c0-0.3,0-0.5,0-0.7c0.1-3,4.1-4.3,6-2c0.1,0.1,0.1,0.2,0.1,0.2c0-0.4-0.3-0.9-0.3-0.9       c0.9,0.7,1.1,2.3,0.9,3.4h0.2C18.8,5.9,19,4,19,4c0-5.6-5.9-4-6.2-2.8c-2.5-1.3-2.2,3.8-1.5,6.1H11.5z" fill="#415A6B"/></g></g><g><path d="M48,21.1l-0.8-3.6c-0.4-1.6-1.5-3-3.1-3.5l-3.2-1.2l-3.7,1.1l-3.7-1.1l-3.2,1.2      c-1.6,0.6-2.7,1.9-3.1,3.5l-0.8,3.6H48z" fill="#4EC0AA"/><polygon fill="#CED6E0" points="39.5,13.2 37.2,13.9 35,13.2 35.1,19.6 39.4,19.6     "/><polygon fill="#415A6B" points="35.9,21.1 38.5,21.1 38.9,20.3 37.9,16.3 38.5,15.2 37.2,13.9 36,15.2 36.6,16.3 35.6,20.3           "/><path d="M37.2,13.9c0,0,2.2-1.4,2.4-2.7l0.8,1.5L38.9,16L37.2,13.9z" fill="#E8EAE9"/><polygon fill="#66C6B9" points="39,21.1 42.3,15.3 41,14.6 42.3,14.1 40.1,11.9 37.9,21.1     "/><path d="M37.2,13.9c0,0-2.2-1.4-2.4-2.7L34,12.7l1.6,3.4L37.2,13.9z" fill="#E8EAE9"/><polygon fill="#66C6B9" points="32.2,15.3 35.5,21.1 36.5,21.1 34.4,11.9 32.2,14.1 33.5,14.6     "/><path d="M34.8,9.6v1.5c0.2,1.3,2.4,2.7,2.4,2.7s2.2-1.4,2.4-2.7l0-1.5H34.8z" fill="#F7B64C"/><g><path d="M33.8,5.7c-0.1,0.5-0.2,0.9-0.2,1.5c0,2.5,1.6,4.5,3.7,4.5c2,0,3.7-2,3.7-4.5c0-0.6-0.1-1.2-0.3-1.7       C39.6,0.7,33.8,1.4,33.8,5.7z" fill="#FFD15C"/></g><g><g><path d="M41.5,7.3c-0.2,0.8-0.6,1.3-1,1.3C40,8.5,39.8,7.8,40,7s0.6-1.3,1-1.3C41.4,5.8,41.6,6.5,41.5,7.3z" fill="#FFD15C"/></g></g><g><g><path d="M33,7.3c0.2,0.8,0.6,1.3,1,1.3c0.4-0.1,0.6-0.8,0.4-1.5s-0.6-1.3-1-1.3C33,5.8,32.8,6.5,33,7.3z" fill="#FFD15C"/></g></g><g><path d="M33.9,7.3c0-0.3,0-0.5,0-0.7c0.1-3,4.1-4.3,6-2c0.1,0.1,0.1,0.2,0.1,0.2c0-0.4-0.3-0.9-0.3-0.9       c0.9,0.7,1.1,2.3,0.9,3.4h0.2C41.1,5.9,41.3,4,41.3,4c0-5.6-5.9-4-6.2-2.8C32.6-0.1,33,5,33.6,7.3H33.9z" fill="#415A6B"/></g></g></g><path d="M30.9,10.2c0,0-0.2,2.3-0.6,3.9H30c0.1-0.5,0.1-1.1,0-1.6c-0.1,1.1-0.9,2.2-2.4,2.2    c-0.8,0-1.4-0.3-1.8-0.8c-0.1,0-0.2,0-0.3-0.1c-0.3,0.2-0.7,0.3-1.2,0.3c-1.1,0-1.8-0.6-2.2-1.4c0,0.2,0,0.3,0,0.5    c0,0.3,0,0.5,0,0.9h-0.3c-0.8-2.7-1.2-8.7,1.8-7.2C23.9,5.6,30.9,3.7,30.9,10.2z" fill="#415A6B"/><path d="M38.7,30.3L37.8,26c-0.4-1.9-1.8-3.5-3.6-4.1l-3.8-1.4l-4.3,1.3l-4.3-1.3L18,21.9    c-1.8,0.7-3.2,2.2-3.6,4.1l-0.9,4.2H38.7z" fill="#344A5E"/><polygon fill="#CED6E0" points="28.7,21.1 26.1,21.9 23.5,21.1 23.6,28.5 28.6,28.5   "/><polygon fill="#F3705A" points="24.6,30.3 27.6,30.3 28,29.4 26.8,24.6 27.6,23.8 26.1,21.9 24.6,23.8 25.3,24.6 24.2,29.4   "/><g><polyline fill="#E8EAE9" points="29.9,20.4 28.1,24.4 26.1,21.9    "/></g><path d="M23.3,16.9v1.8c0.2,1.5,2.8,3.2,2.8,3.2s2.6-1.7,2.8-3.2l0-1.8H23.3z" fill="#F7B64C"/><polyline fill="#E8EAE9" points="26.1,21.9 28.9,18.7 29.9,20.4   "/><g><polygon fill="#415A6B" points="28.6,30.3 31.6,25.5 30.1,24.7 32.8,22.5 29.4,19.6 26.9,30.3    "/></g><g><polygon fill="#E8EAE9" points="26.1,21.9 23.3,18.7 22.3,20.4 24.1,24.4    "/><g><polygon fill="#415A6B" points="23.6,30.3 20.6,25.5 22.1,24.7 19.4,22.5 22.7,19.6 25.3,30.3     "/></g></g><path d="M31,14.1c-0.2,0.9-0.7,1.6-1.2,1.5c-0.5-0.1-0.7-0.9-0.5-1.8s0.7-1.6,1.2-1.5C31,12.4,31.2,13.2,31,14.1z" fill="#FFD15C"/><path d="M21.1,14.1c0.2,0.9,0.7,1.6,1.2,1.5c0.5-0.1,0.7-0.9,0.5-1.8s-0.7-1.6-1.2-1.5    C21.2,12.4,20.9,13.2,21.1,14.1z" fill="#FFD15C"/><g><g><g><path d="M46.2,22.7l-1,0.3c0,0-3.2,2.4-4.5,3.8c0,0-3.5,2.2-3.9,2.9c0,0-3.8-0.2-5,0.5c0,0-4.2-0.3-5.6-1.2       c-1.5-1-3.7-1.3-5.7-1.3c0,0-5.9-0.2-10.1,2.1C6.3,32.2,3.1,34,3.1,34l4.9,7.8l6.2-3.1c0,0,10.3,1.4,12.5,2.4       c2.2,1.1,3.4,0.9,4.6-0.3c1.2-1.2,7.4-5.5,8.3-6c0,0,1.3-0.4,2.5-2.7c0.2-0.4,0.3-0.6,0.4-0.7l4.1-5.3l1.6-1.5       C48,24.5,48.3,22.7,46.2,22.7z" fill="#FFD15C"/><path d="M38.7,31.2C38.2,30,37,30.3,37,30.3s0,0-0.6,0.1c-0.6,0.1-0.7,0.5-0.7,0.5c0.2,0.6,0.2,1.4,0.2,2       c0.2,0.7,2,0.2,2,0.2C38.8,32.8,39,32.1,38.7,31.2z" fill="#E8EAE9"/><path d="M23.4,35.6c-0.1,0-0.2,0.1-0.4,0.1C23.1,35.7,23.3,35.7,23.4,35.6z" fill="#F7B64C"/><g><rect fill="#E8EAE9" height="5.7" transform="matrix(-0.3453 -0.9385 0.9385 -0.3453 -17.6898 58.8661)" width="13.8" x="4.8" y="32.8"/></g><g><rect fill="#415A6B" height="17.3" transform="matrix(0.9385 -0.3453 0.3453 0.9385 -12.7154 4.9868)" width="9.9" x="2.7" y="29.6"/></g><g><path d="M39.6,31.4C39.6,31.4,39.6,31.4,39.6,31.4c0-0.1,0-0.1,0-0.1c0-0.2-0.1-0.3-0.2-0.5c0,0,0,0,0,0l0,0        c0-0.1-0.1-0.1-0.1-0.2l0,0c0,0-0.5-1-2.3-1.2l-0.2,0.2c0,0,0.3,0,0.6,0.1c0.2,0,0.4,0.1,0.7,0.2c0.5,0.3,0.9,0.8,1.1,1.3        c0,0.1,0.1,0.3,0,0.4c0,0.6-0.4,1.5-1.9,1.9c-1.1,0.3-2.2,0.6-3.4,1c-0.4,0.1-0.7,0.2-1.1,0.2c-0.4,0-0.8,0-1.2,0        c-0.9-0.1-1.7-0.1-2.6-0.2c-0.5-0.1-0.9-0.1-1.4-0.1c-0.4,0-0.7,0.1-1.1,0.2c-0.5,0.1-1,0.2-1.5,0.3c-0.8,0.2-1.6,0.3-2.4,0.1        l0,0c0.3,0.1,0.6,0.2,0.9,0.2c-0.1,0.1-0.2,0.2-0.3,0.3c0.3-0.1,0.5-0.2,0.7-0.4c-0.1,0.2-0.2,0.3-0.4,0.5        c0.2,0,0.4-0.3,0.6-0.2c1-0.3,2-0.5,3.1-0.6c-0.2,0.3-0.4,0.7-0.6,1c0.4-0.3,0.7-0.7,1-1.1c0.3,0.1,0.4,0.1,0.7,0.2        c0.1,0.4,0.3,0.8,0.5,1.2c-0.1-0.3-0.1-0.7-0.2-1c0.1,0,0.2,0,0.4,0c-0.1-0.1-0.2-0.1-0.4-0.2c0,0,0.1,0,0.1,0l0,0        c0,0,0,0,0,0c0.5,0.1,1.1,0.2,1.6,0.3c0,0,0,0,0,0c0.5,0.1,1.1,0.1,1.8,0.1c0.2,0,0.4,0,0.6-0.1c0,0,0.1,0,0.1,0        c0.8-0.1,1.7-0.3,2.5-0.5c0.1,0,0.1,0,0.2-0.1c0.1,0,0.2-0.1,0.3-0.1c0.2-0.1,0.5-0.1,0.7-0.2c0.4-0.1,0.7-0.2,0.7-0.3        c0,0,2.2-0.8,2.2-2.3C39.6,31.6,39.6,31.5,39.6,31.4z" fill="#F7B64C"/></g></g></g><g><path d="M46.4,26l-0.2-0.7c0,0,1.1-1.6,1.8-0.8" fill="#E8EAE9"/></g></g><g><path d="M26,10.3c-1.3,0-2.4-0.3-3.3-0.7c-0.6,1-0.9,2.3-0.9,3.6c0,3.3,1.9,5.9,4.3,5.9c2.4,0,4.3-2.7,4.3-5.9     c0-1.4-0.4-2.7-0.9-3.7C28.5,10,27.3,10.3,26,10.3z" fill="#FFD15C"/></g></g></g></svg>