<?xml version="1.0" encoding="UTF-8" standalone="no"?>
<svg width="286px" height="272px" viewBox="0 0 286 272" version="1.1" xmlns="http://www.w3.org/2000/svg" xmlns:xlink="http://www.w3.org/1999/xlink">
    <!-- Generator: Sketch 39.1 (31720) - http://www.bohemiancoding.com/sketch -->
    <title>Exchange</title>
    <desc>Created with Sketch.</desc>
    <defs></defs>
    <g id="Page-1" stroke="none" stroke-width="1" fill="none" fill-rule="evenodd">
        <path d="M146.14,2.6 C151.49,1.76 156.8,0.59 162.2,0.05 C162.26,16.48 162.22,32.92 162.23,49.35 C200.18,49.39 238.14,49.34 276.09,49.38 C281.17,49.12 285.47,53.97 285,58.96 C285.01,109.98 284.97,160.99 285.02,212.01 C284.95,215.48 285.51,219.34 283.3,222.32 C281.58,225.1 278.08,225.9 275.03,225.81 C237.43,225.77 199.83,225.8 162.23,225.79 L162.23,271.93 C140.1,268.67 118.13,264.38 96.06,260.74 C64.74,255.28 33.4,249.97 2.09,244.43 C0.43,244.29 0.87,242.17 0.76,241.05 C0.83,170.64 0.75,100.21 0.8,29.8 C0.39,28.33 1.61,27.36 2.92,27.39 C50.65,19.09 98.4,10.88 146.14,2.6 L146.14,2.6 Z" id="Combined-Shape" fill="#2876BB"></path>
        <path d="M56.65,89.54 C70.05,88.57 83.43,87.52 96.82,86.45 C96.85,92.57 96.87,98.69 96.8,104.8 C88.68,104.88 80.54,104.8 72.43,105.33 C72.44,112.34 72.42,119.36 72.44,126.37 C80.57,126.24 88.69,126.59 96.81,126.53 C96.86,132.58 96.82,138.64 96.85,144.7 C88.72,144.42 80.57,144.44 72.44,144.13 C72.43,151.2 72.42,158.26 72.45,165.32 C81.61,165.89 90.75,166.62 99.93,166.92 C100.14,173.11 100.03,179.3 100.04,185.49 C85.58,184.12 71.11,182.94 56.65,181.59 C56.66,150.91 56.65,120.23 56.65,89.54 L56.65,89.54 Z" id="Shape" fill="#FFFFFF"></path>
        <path d="M162.24,58.89 C199.98,58.87 237.73,58.87 275.47,58.89 C275.48,111.35 275.48,163.81 275.47,216.27 C237.72,216.28 199.98,216.28 162.23,216.27 C162.23,212.24 162.23,208.21 162.24,204.18 C166.79,203.86 172.27,205.45 176.01,202.05 C180.62,197.93 184.2,192.83 188.08,188.05 C197,176.35 205.79,164.34 211.85,150.87 C210.97,150.01 210.06,149.2 209.12,148.42 C207.47,148.04 206.49,149.48 205.46,150.45 C194.75,161.41 184.04,172.38 173.19,183.21 C170.52,186.48 165.89,185.04 162.24,185.33 C162.24,169.97 162.22,154.61 162.25,139.25 C169.25,143.94 176.46,148.37 184.15,151.86 C185.08,150.63 187.86,148.79 186.2,147.17 C178.3,139.24 170.27,131.44 162.25,123.63 C162.21,112.31 162.25,100.99 162.23,89.67 C166.46,89.76 170.76,89.25 174.94,90.09 C178.28,91.93 180.63,95.12 183.4,97.69 C183.91,97.65 184.92,97.57 185.42,97.53 C187.43,94 191.33,91.12 191.49,86.85 C187.33,81.93 182.11,78.01 177.59,73.43 C173.67,69.15 167.32,71.26 162.24,70.79 C162.23,66.82 162.23,62.85 162.24,58.89 L162.24,58.89 Z" id="Shape" fill="#FEFEFF"></path>
        <path d="M213.68,78.69 C216.7,75.29 219.83,70.77 224.89,70.83 C235.97,70.74 247.06,70.77 258.14,70.81 C260.67,70.73 263.94,71.81 264.06,74.8 C264.37,87.21 264.1,99.65 264.19,112.07 C264.57,115.38 261.72,117.5 259.77,119.71 C255.88,123.65 252.4,128.02 248.19,131.63 C243.76,131.08 240.7,127.11 236.95,124.98 C238.87,121 243.01,118.76 245.09,114.94 C245.87,106.64 245.35,98.22 245.32,89.87 C238.89,89.57 232.43,89.49 226,89.82 C223.52,89.68 222.05,91.89 220.39,93.34 C209.92,103.92 199.45,114.5 189.04,125.14 C188.02,126.59 186.36,126.69 184.75,126.59 C184.07,124.9 183.25,123.02 184.5,121.36 C192.32,105.93 202.83,92.08 213.68,78.69 L213.68,78.69 Z" id="Shape" fill="#2876BB"></path>
        <path d="M207.96,126.98 C208.94,125.73 209.92,124.48 210.83,123.18 C225.14,129.75 237.92,139.11 250.3,148.72 C254.46,152.2 259.03,155.3 262.52,159.51 C264.56,161.85 264.17,165.13 264.22,168.01 C264.06,178.74 264.39,189.49 264.08,200.22 C264,203.3 260.63,204.43 258.03,204.2 C246.33,204.17 234.62,204.23 222.93,204.18 C219.1,204.39 216.88,200.83 214.3,198.65 C210.82,195.06 206.54,192.18 203.59,188.12 C203.88,183.85 207.79,180.95 209.79,177.38 L211.53,177.38 C215.23,180.14 217.78,185.61 223.01,185.33 C230.46,185.32 237.91,185.43 245.35,185.2 C245.45,178.79 245.58,172.37 245.36,165.97 C245.43,163.47 243.15,161.97 241.72,160.25 C230.46,149.17 219.11,138.18 207.96,126.98 L207.96,126.98 Z" id="Shape" fill="#2876BB"></path>
    </g>
</svg>