<?xml version="1.0" encoding="UTF-8" standalone="no"?>
<svg width="48px" height="48px" viewBox="0 0 48 48" version="1.1" xmlns="http://www.w3.org/2000/svg" xmlns:xlink="http://www.w3.org/1999/xlink" xmlns:sketch="http://www.bohemiancoding.com/sketch/ns">
    <!-- Generator: Sketch 3.3.2 (12043) - http://www.bohemiancoding.com/sketch -->
    <title>microblu-orig</title>
    <desc>Created with Sketch.</desc>
    <defs></defs>
    <g id="Page-1" stroke="none" stroke-width="1" fill="none" fill-rule="evenodd" sketch:type="MSPage">
        <g id="microblu-orig" sketch:type="MSLayerGroup">
            <g id="Group" sketch:type="MSShapeGroup">
                <path d="M28.44225,18.4352 L30.364125,20.4852 C30.583875,20.7196 30.871875,20.8368 31.1595,20.8368 C31.447125,20.8368 31.735125,20.7196 31.954875,20.4852 C32.394375,20.0168 32.394375,19.2568 31.954875,18.7884 L30.033,16.7384 C30.7395,15.7168 31.221,14.512 31.406625,13.2 L34.125,13.2 C34.746375,13.2 35.25,12.6628 35.25,12 C35.25,11.3372 34.746375,10.8 34.125,10.8 L31.406625,10.8 C31.221,9.4884 30.7395,8.2832 30.033,7.2616 L31.954875,5.2116 C32.394375,4.7432 32.394375,3.9832 31.954875,3.5144 C31.515375,3.046 30.803625,3.046 30.364125,3.5144 L28.44225,5.5644 C27.4845,4.8108 26.355,4.2972 25.125,4.0992 L25.125,1.2 C25.125,0.5372 24.621375,0 24,0 C23.378625,0 22.875,0.5372 22.875,1.2 L22.875,4.0996 C21.645375,4.2976 20.5155,4.8112 19.55775,5.5648 L17.635875,3.5148 C17.19675,3.046 16.48425,3.046 16.045125,3.5148 C15.605625,3.9832 15.605625,4.7432 16.045125,5.2116 L17.967,7.2616 C17.2605,8.2832 16.779,9.488 16.593375,10.8 L13.875,10.8 C13.253625,10.8 12.75,11.3372 12.75,12 C12.75,12.6628 13.253625,13.2 13.875,13.2 L16.593375,13.2 C16.779,14.5116 17.2605,15.7168 17.967,16.7384 L16.045125,18.7888 C15.606,19.2572 15.606,20.0172 16.045125,20.486 C16.2645,20.72 16.552875,20.8372 16.8405,20.8372 C17.128125,20.8372 17.4165,20.72 17.63625,20.4856 L19.558125,18.4356 C20.515875,19.1892 21.645375,19.7028 22.875,19.9008 L22.875,22.8 C22.875,23.4628 23.378625,24 24,24 C24.621375,24 25.125,23.4628 25.125,22.8 L25.125,19.9004 C26.354625,19.7024 27.4845,19.1888 28.44225,18.4352 L28.44225,18.4352 Z" id="Shape" fill="#6AB840"></path>
                <path d="M21.375,34.8 L18.656625,34.8 C18.471,33.4884 17.9895,32.2836 17.283,31.2616 L19.204875,29.2116 C19.644,28.7428 19.644,27.9832 19.204875,27.5148 C18.76575,27.046 18.05325,27.046 17.61375,27.5148 L15.691875,29.5648 C14.734125,28.8112 13.604625,28.2976 12.374625,28.0996 L12.374625,25.2 C12.374625,24.5372 11.871,24 11.249625,24 C10.62825,24 10.124625,24.5372 10.124625,25.2 L10.124625,28.0996 C8.895,28.2976 7.765125,28.8112 6.807375,29.5648 L4.8855,27.5148 C4.446375,27.046 3.733875,27.046 3.29475,27.5148 C2.85525,27.9832 2.85525,28.7432 3.29475,29.2116 L5.216625,31.2616 C4.510125,32.2832 4.028625,33.488 3.843,34.8 L1.125,34.8 C0.503625,34.8 0,35.3372 0,36 C0,36.6628 0.503625,37.2 1.125,37.2 L3.843375,37.2 C4.029,38.5116 4.5105,39.7168 5.217,40.7384 L3.295125,42.7888 C2.856,43.2576 2.856,44.0172 3.295125,44.4856 C3.5145,44.72 3.802875,44.8372 4.0905,44.8372 C4.378125,44.8372 4.6665,44.72 4.88625,44.4856 L6.808125,42.4356 C7.765875,43.1892 8.895375,43.7024 10.125,43.9004 L10.125,46.8 C10.125,47.4628 10.628625,48 11.25,48 C11.871375,48 12.375,47.4628 12.375,46.8 L12.375,43.9004 C13.604625,43.7024 14.7345,43.1888 15.69225,42.4352 L17.614125,44.4852 C17.8335,44.7196 18.121875,44.8368 18.4095,44.8368 C18.697125,44.8368 18.9855,44.7196 19.204875,44.4852 C19.644375,44.0168 19.644375,43.2568 19.204875,42.7884 L17.283,40.7384 C17.9895,39.7168 18.471,38.512 18.656625,37.2 L21.375,37.2 C21.996375,37.2 22.5,36.6628 22.5,36 C22.5,35.3372 21.996375,34.8 21.375,34.8 L21.375,34.8 Z" id="Shape" fill="#0E5491"></path>
                <path d="M46.875,34.8 L44.156625,34.8 C43.971,33.4884 43.4895,32.2832 42.783,31.2616 L44.704875,29.2116 C45.144375,28.7428 45.144375,27.9832 44.704875,27.5148 C44.265375,27.046 43.553625,27.046 43.114125,27.5148 L41.19225,29.5648 C40.2345,28.8112 39.105,28.2976 37.875,28.0996 L37.875,25.2 C37.875,24.5372 37.371375,24 36.75,24 C36.128625,24 35.625,24.5372 35.625,25.2 L35.625,28.0996 C34.395375,28.2976 33.2655,28.8112 32.30775,29.5648 L30.385875,27.5148 C29.946375,27.046 29.234625,27.046 28.795125,27.5148 C28.355625,27.9832 28.355625,28.7428 28.795125,29.2116 L30.717,31.2616 C30.0105,32.2832 29.529,33.488 29.343375,34.8 L26.625,34.8 C26.003625,34.8 25.5,35.3372 25.5,36 C25.5,36.6628 26.003625,37.2 26.625,37.2 L29.343375,37.2 C29.529,38.5116 30.0105,39.7168 30.717,40.7388 L28.795125,42.7888 C28.355625,43.2576 28.355625,44.0172 28.795125,44.4856 C29.014875,44.72 29.302875,44.8372 29.5905,44.8372 C29.878125,44.8372 30.166125,44.72 30.385875,44.4856 L32.30775,42.4352 C33.265875,43.1892 34.395,43.7024 35.625,43.9004 L35.625,46.8 C35.625,47.4628 36.128625,48 36.75,48 C37.371375,48 37.875,47.4628 37.875,46.8 L37.875,43.9004 C39.104625,43.7024 40.2345,43.1888 41.19225,42.4352 L43.114125,44.4852 C43.333875,44.7196 43.621875,44.8368 43.9095,44.8368 C44.197125,44.8368 44.485125,44.7196 44.704875,44.4852 C45.144375,44.0168 45.144375,43.2568 44.704875,42.7884 L42.783,40.7384 C43.4895,39.7168 43.971,38.512 44.156625,37.2 L46.875,37.2 C47.496375,37.2 48,36.6628 48,36 C48,35.3372 47.496375,34.8 46.875,34.8 L46.875,34.8 Z" id="Shape" fill="#0E5491"></path>
            </g>
        </g>
    </g>
</svg>