<?xml version="1.0" standalone="no"?>
<!DOCTYPE svg PUBLIC "-//W3C//DTD SVG 1.1//EN"
"http://www.w3.org/Graphics/SVG/1.1/DTD/svg11.dtd">

<svg height="512" transform="translate(0.5,0.5)" version="1.1" width="512" xmlns="http://www.w3.org/2000/svg" xmlns:nch="http://www.nchsoftware.com/drawpad/" xmlns:xlink="http://www.w3.org/1999/xlink"><rect fill="rgb(255,255,255)" fill-opacity="1.000" height="512" id="background" width="512" x="0" y="0"/><ellipse cx="256" cy="256" fill="rgb(0,0,0)" fill-opacity="1.000" mask="url(#Mask0)" rx="246" ry="246" stroke="rgb(0,0,0)" stroke-width="1"/><mask id="Mask0"><rect fill="rgb(255,255,255)" fill-opacity="1" height="512" width="512" x="0" y="0"/></mask><path d="M286,85 C286,85 87,124 87,124 C87,124 87,385 87,385 C87,385 286,427 286,427 C286,427 286,85 286,85" fill="rgb(255,255,255)" fill-opacity="1.000" stroke="rgb(0,0,0)" stroke-width="0"/><path d="M286,85 C286,85 87,124 87,124 C87,124 87,385 87,385 C87,385 286,427 286,427 C286,427 286,85 286,85" fill="none" mask="url(#Mask1)" stroke="rgb(0,0,0)" stroke-linecap="round" stroke-opacity="1.000" stroke-width="1"/><mask id="Mask1"><rect fill="rgb(255,255,255)" fill-opacity="1" height="512" width="512" x="0" y="0"/></mask><path d="M299,158 C299,158 299,224 299,224 C299,224 322,239 322,239 C323,239 324,239 324,239 C324,239 425,171 425,171 C425,163 418,158 413,158 C413,158 299,158 299,158" fill="rgb(255,255,255)" fill-opacity="1.000" stroke="rgb(0,0,0)" stroke-width="0"/><path d="M299,158 C299,158 299,224 299,224 C299,224 322,239 322,239 C323,239 324,239 324,239 C324,239 425,171 425,171 C425,163 418,158 413,158 C413,158 299,158 299,158" fill="none" mask="url(#Mask2)" stroke="rgb(0,0,0)" stroke-linecap="round" stroke-opacity="1.000" stroke-width="1"/><mask id="Mask2"><rect fill="rgb(255,255,255)" fill-opacity="1" height="512" width="512" x="0" y="0"/></mask><path d="M189,196 C202,196 212,202 221,212 C229,223 233,237 233,255 C233,273 229,288 220,299 C212,310 201,315 187,315 C174,315 163,310 155,299 C147,288 142,274 142,257 C142,239 147,224 155,213 C164,202 175,196 189,196" fill="rgb(255,255,255)" fill-opacity="1.000" stroke="rgb(0,0,0)" stroke-width="0"/><path d="M189,196 C202,196 212,202 221,212 C229,223 233,237 233,255 C233,273 229,288 220,299 C212,310 201,315 187,315 C174,315 163,310 155,299 C147,288 142,274 142,257 C142,239 147,224 155,213 C164,202 175,196 189,196" fill="none" mask="url(#Mask3)" stroke="rgb(0,0,0)" stroke-linecap="round" stroke-opacity="1.000" stroke-width="1"/><mask id="Mask3"><rect fill="rgb(255,255,255)" fill-opacity="1" height="512" width="512" x="0" y="0"/></mask><path d="M425,198 C425,198 323,266 327,264 C327,264 323,266 320,264 C320,264 299,249 299,249 C299,249 299,340 299,340 C299,340 407,340 407,340 C417,340 425,335 425,321 C425,321 425,198 425,198" fill="rgb(255,255,255)" fill-opacity="1.000" stroke="rgb(0,0,0)" stroke-width="0"/><path d="M425,198 C425,198 323,266 327,264 C327,264 323,266 320,264 C320,264 299,249 299,249 C299,249 299,340 299,340 C299,340 407,340 407,340 C417,340 425,335 425,321 C425,321 425,198 425,198" fill="none" mask="url(#Mask4)" stroke="rgb(0,0,0)" stroke-linecap="round" stroke-opacity="1.000" stroke-width="1"/><mask id="Mask4"><rect fill="rgb(255,255,255)" fill-opacity="1" height="512" width="512" x="0" y="0"/></mask><path d="M188,219 C181,219 175,222 171,229 C166,236 164,245 164,256 C164,267 166,276 171,283 C175,290 181,293 188,293 C195,293 200,290 205,283 C209,277 211,268 211,256 C211,244 209,235 205,228 C201,222 195,219 188,219" fill="rgb(255,255,255)" fill-opacity="1.000" stroke="rgb(0,0,0)" stroke-width="0"/><path d="M188,219 C181,219 175,222 171,229 C166,236 164,245 164,256 C164,267 166,276 171,283 C175,290 181,293 188,293 C195,293 200,290 205,283 C209,277 211,268 211,256 C211,244 209,235 205,228 C201,222 195,219 188,219" fill="none" mask="url(#Mask5)" stroke="rgb(0,0,0)" stroke-linecap="round" stroke-opacity="1.000" stroke-width="1"/><mask id="Mask5"><rect fill="rgb(255,255,255)" fill-opacity="1" height="512" width="512" x="0" y="0"/></mask><path d="M116,443 C96,443 80,427 80,409 C80,390 96,375 116,375 C136,375 152,390 152,409 C152,427 136,443 116,443" fill="rgb(106,110,124)" fill-opacity="1.000" stroke="rgb(0,0,0)" stroke-width="0"/><path d="M116,443 C96,443 80,427 80,409 C80,390 96,375 116,375 C136,375 152,390 152,409 C152,427 136,443 116,443" fill="none" mask="url(#Mask6)" stroke="rgb(0,0,0)" stroke-linecap="round" stroke-opacity="1.000" stroke-width="1"/><mask id="Mask6"><rect fill="rgb(255,255,255)" fill-opacity="1" height="512" width="512" x="0" y="0"/></mask><path d="M116,450 C143,450 165,431 165,409 C165,386 143,368 116,368 C90,368 68,386 68,409 C68,431 90,450 116,450 C116,450 116,450 116,450" fill="rgb(106,110,124)" fill-opacity="1.000" stroke="rgb(0,0,0)" stroke-width="0"/><path d="M116,450 C143,450 165,431 165,409 C165,386 143,368 116,368 C90,368 68,386 68,409 C68,431 90,450 116,450 C116,450 116,450 116,450" fill="none" mask="url(#Mask7)" stroke="rgb(0,0,0)" stroke-linecap="round" stroke-opacity="1.000" stroke-width="1"/><mask id="Mask7"><rect fill="rgb(255,255,255)" fill-opacity="1" height="512" width="512" x="0" y="0"/></mask><path d="M108,484 C108,484 104,467 104,467 C104,464 102,462 99,461 C94,460 90,459 87,457 C86,457 84,456 83,456 C81,456 80,457 78,458 C78,458 62,468 62,468 C62,468 50,457 50,457 C50,457 61,442 61,442 C63,440 63,437 61,435 C60,432 58,428 57,424 C56,422 53,420 51,419 C51,419 31,416 31,416 C31,416 31,401 31,401 C31,401 51,398 51,398 C53,397 56,395 57,393 C58,389 60,386 62,382 C63,380 63,377 61,375 C61,375 50,360 50,360 C50,360 62,349 62,349 C62,349 79,360 79,360 C80,360 82,361 83,361 C84,361 86,361 87,360 C91,358 95,357 99,356 C102,355 104,353 104,350 C104,350 108,333 108,333 C108,333 125,333 125,333 C125,333 129,350 129,350 C129,353 131,355 134,356 C138,357 142,358 146,360 C147,361 148,361 149,361 C151,361 153,361 154,360 C154,360 170,350 170,350 C170,350 182,361 182,361 C182,361 171,375 171,375 C170,377 169,380 171,382 C173,386 174,389 176,393 C176,395 179,397 182,398 C182,398 202,401 202,401 C202,401 202,416 202,416 C202,416 182,419 182,419 C179,420 176,422 176,424 C174,428 173,431 171,435 C169,437 170,440 171,442 C171,442 183,457 183,457 C183,457 171,467 171,467 C171,467 154,457 154,457 C153,457 151,456 150,456 C148,456 147,457 146,457 C142,459 138,460 134,461 C131,462 129,464 129,467 C129,467 125,484 125,484 C125,484 108,484 108,484" fill="rgb(106,110,124)" fill-opacity="1.000" stroke="rgb(0,0,0)" stroke-width="0"/><path d="M108,484 C108,484 104,467 104,467 C104,464 102,462 99,461 C94,460 90,459 87,457 C86,457 84,456 83,456 C81,456 80,457 78,458 C78,458 62,468 62,468 C62,468 50,457 50,457 C50,457 61,442 61,442 C63,440 63,437 61,435 C60,432 58,428 57,424 C56,422 53,420 51,419 C51,419 31,416 31,416 C31,416 31,401 31,401 C31,401 51,398 51,398 C53,397 56,395 57,393 C58,389 60,386 62,382 C63,380 63,377 61,375 C61,375 50,360 50,360 C50,360 62,349 62,349 C62,349 79,360 79,360 C80,360 82,361 83,361 C84,361 86,361 87,360 C91,358 95,357 99,356 C102,355 104,353 104,350 C104,350 108,333 108,333 C108,333 125,333 125,333 C125,333 129,350 129,350 C129,353 131,355 134,356 C138,357 142,358 146,360 C147,361 148,361 149,361 C151,361 153,361 154,360 C154,360 170,350 170,350 C170,350 182,361 182,361 C182,361 171,375 171,375 C170,377 169,380 171,382 C173,386 174,389 176,393 C176,395 179,397 182,398 C182,398 202,401 202,401 C202,401 202,416 202,416 C202,416 182,419 182,419 C179,420 176,422 176,424 C174,428 173,431 171,435 C169,437 170,440 171,442 C171,442 183,457 183,457 C183,457 171,467 171,467 C171,467 154,457 154,457 C153,457 151,456 150,456 C148,456 147,457 146,457 C142,459 138,460 134,461 C131,462 129,464 129,467 C129,467 125,484 125,484 C125,484 108,484 108,484" fill="none" mask="url(#Mask8)" stroke="rgb(0,0,0)" stroke-linecap="round" stroke-opacity="1.000" stroke-width="1"/><mask id="Mask8"><rect fill="rgb(255,255,255)" fill-opacity="1" height="512" width="512" x="0" y="0"/></mask><path d="M100,492 C100,492 122,492 122,492 C124,492 126,490 126,488 C126,488 130,468 130,468 C135,467 139,465 143,463 C143,463 162,475 162,475 C162,475 163,475 164,475 C165,475 167,475 167,474 C167,474 183,460 183,460 C185,458 185,456 184,454 C184,454 171,437 171,437 C173,434 175,430 176,426 C176,426 198,422 198,422 C200,422 202,420 202,418 C202,418 202,397 202,397 C202,395 200,394 198,393 C198,393 176,390 176,390 C175,385 173,381 171,378 C171,378 183,361 183,361 C185,359 184,357 183,356 C183,356 167,341 167,341 C166,340 165,340 164,340 C163,340 162,340 161,341 C161,341 143,352 143,352 C139,350 135,349 131,347 C131,347 126,327 126,327 C126,325 124,324 122,324 C122,324 100,324 100,324 C98,324 96,325 95,327 C95,327 91,347 91,347 C87,348 82,350 78,352 C78,352 59,340 59,340 C59,340 58,340 57,340 C56,340 54,340 54,341 C54,341 38,355 38,355 C36,357 36,359 37,361 C37,361 50,378 50,378 C48,381 46,385 45,389 C45,389 23,393 23,393 C20,394 19,395 19,397 C19,397 19,418 19,418 C19,420 20,422 23,422 C23,422 45,426 45,426 C46,430 48,434 50,437 C50,437 37,455 37,455 C36,456 36,458 38,460 C38,460 53,474 53,474 C54,475 55,475 57,475 C58,475 58,475 59,475 C59,475 78,463 78,463 C82,465 86,467 91,468 C91,468 95,488 95,488 C95,490 97,492 100,492 C100,492 100,492 100,492" fill="rgb(106,110,124)" fill-opacity="1.000" stroke="rgb(0,0,0)" stroke-width="0"/><path d="M100,492 C100,492 122,492 122,492 C124,492 126,490 126,488 C126,488 130,468 130,468 C135,467 139,465 143,463 C143,463 162,475 162,475 C162,475 163,475 164,475 C165,475 167,475 167,474 C167,474 183,460 183,460 C185,458 185,456 184,454 C184,454 171,437 171,437 C173,434 175,430 176,426 C176,426 198,422 198,422 C200,422 202,420 202,418 C202,418 202,397 202,397 C202,395 200,394 198,393 C198,393 176,390 176,390 C175,385 173,381 171,378 C171,378 183,361 183,361 C185,359 184,357 183,356 C183,356 167,341 167,341 C166,340 165,340 164,340 C163,340 162,340 161,341 C161,341 143,352 143,352 C139,350 135,349 131,347 C131,347 126,327 126,327 C126,325 124,324 122,324 C122,324 100,324 100,324 C98,324 96,325 95,327 C95,327 91,347 91,347 C87,348 82,350 78,352 C78,352 59,340 59,340 C59,340 58,340 57,340 C56,340 54,340 54,341 C54,341 38,355 38,355 C36,357 36,359 37,361 C37,361 50,378 50,378 C48,381 46,385 45,389 C45,389 23,393 23,393 C20,394 19,395 19,397 C19,397 19,418 19,418 C19,420 20,422 23,422 C23,422 45,426 45,426 C46,430 48,434 50,437 C50,437 37,455 37,455 C36,456 36,458 38,460 C38,460 53,474 53,474 C54,475 55,475 57,475 C58,475 58,475 59,475 C59,475 78,463 78,463 C82,465 86,467 91,468 C91,468 95,488 95,488 C95,490 97,492 100,492 C100,492 100,492 100,492" fill="none" mask="url(#Mask9)" stroke="rgb(0,0,0)" stroke-linecap="round" stroke-opacity="1.000" stroke-width="1"/><mask id="Mask9"><rect fill="rgb(255,255,255)" fill-opacity="1" height="512" width="512" x="0" y="0"/></mask></svg>