<?xml version="1.0" standalone="no"?>
<!DOCTYPE svg PUBLIC "-//W3C//DTD SVG 1.1//EN"
"http://www.w3.org/Graphics/SVG/1.1/DTD/svg11.dtd">

<svg height="170" transform="translate(0.5,0.5)" version="1.1" width="170" xmlns="http://www.w3.org/2000/svg" xmlns:nch="http://www.nchsoftware.com/drawpad/" xmlns:xlink="http://www.w3.org/1999/xlink"><rect fill="rgb(255,255,255)" fill-opacity="1.000" height="170" id="background" width="170" x="0" y="0"/><linearGradient id="grad0" spreadMethod="reflect" x1="-4%" x2="-4%" y1="-354%" y2="-352%"><stop offset="0%" stop-color="rgb(255,255,255)" stop-opacity="1.000"/><stop offset="100%" stop-color="rgb(153,194,231)" stop-opacity="1.000"/></linearGradient><path d="M38,132 C38,132 21,132 21,132 C3,132 0,163 21,170 C21,170 124,170 124,170 C125,170 126,170 127,169 C127,169 127,169 127,169 C99,167 103,136 119,132 C119,132 38,132 38,132" fill="url(#grad0)" stroke="rgb(0,0,0)" stroke-width="0"/><path d="M38,132 C38,132 21,132 21,132 C3,132 0,163 21,170 C21,170 124,170 124,170 C125,170 126,170 127,169 C127,169 127,169 127,169 C99,167 103,136 119,132 C119,132 38,132 38,132" fill="none" mask="url(#Mask1)" stroke="rgb(0,0,0)" stroke-linecap="round" stroke-opacity="1.000" stroke-width="1"/><mask id="Mask1"><rect fill="rgb(255,255,255)" fill-opacity="1" height="170" width="170" x="0" y="0"/></mask><linearGradient id="grad2" spreadMethod="reflect" x1="-384%" x2="-384%" y1="0%" y2="-1%"><stop offset="0%" stop-color="rgb(137,188,230)" stop-opacity="1.000"/><stop offset="100%" stop-color="rgb(57,148,207)" stop-opacity="1.000"/></linearGradient><path d="M154,1 C154,1 154,1 154,1 C147,2 142,6 139,15 C139,15 139,40 139,40 C139,40 155,40 155,40 C166,40 172,33 174,23 C174,23 174,23 174,23 C177,10 167,1 156,1 C156,1 156,1 156,1 C155,1 154,1 154,1" fill="url(#grad2)" stroke="rgb(0,0,0)" stroke-width="0"/><path d="M154,1 C154,1 154,1 154,1 C147,2 142,6 139,15 C139,15 139,40 139,40 C139,40 155,40 155,40 C166,40 172,33 174,23 C174,23 174,23 174,23 C177,10 167,1 156,1 C156,1 156,1 156,1 C155,1 154,1 154,1" fill="none" mask="url(#Mask3)" stroke="rgb(0,0,0)" stroke-linecap="round" stroke-opacity="1.000" stroke-width="1"/><mask id="Mask3"><rect fill="rgb(255,255,255)" fill-opacity="1" height="170" width="170" x="0" y="0"/></mask><linearGradient id="grad4" spreadMethod="reflect" x1="-32%" x2="-32%" y1="0%" y2="0%"><stop offset="0%" stop-color="rgb(215,221,231)" stop-opacity="1.000"/><stop offset="100%" stop-color="rgb(153,194,231)" stop-opacity="1.000"/></linearGradient><path d="M60,1 C46,1 38,4 38,23 C38,23 38,132 38,132 C38,132 119,132 119,132 C103,136 99,167 127,169 C127,169 127,169 127,169 C131,169 133,167 136,164 C136,164 136,164 136,164 C138,161 139,158 139,154 C139,154 139,40 139,40 C139,40 139,15 139,15 C142,6 147,2 154,1 C154,1 60,1 60,1" fill="url(#grad4)" stroke="rgb(0,0,0)" stroke-width="0"/><path d="M60,1 C46,1 38,4 38,23 C38,23 38,132 38,132 C38,132 119,132 119,132 C103,136 99,167 127,169 C127,169 127,169 127,169 C131,169 133,167 136,164 C136,164 136,164 136,164 C138,161 139,158 139,154 C139,154 139,40 139,40 C139,40 139,15 139,15 C142,6 147,2 154,1 C154,1 60,1 60,1" fill="none" mask="url(#Mask5)" stroke="rgb(0,0,0)" stroke-linecap="round" stroke-opacity="1.000" stroke-width="1"/><mask id="Mask5"><rect fill="rgb(255,255,255)" fill-opacity="1" height="170" width="170" x="0" y="0"/></mask><path d="M140,39 C140,39 140,15 140,15 C142,7 148,3 154,2 C156,2 159,2 162,3 C164,3 166,5 168,7 C173,10 175,16 174,23 C173,28 170,32 167,35 C164,37 160,39 155,39" fill="rgb(148,173,195)" fill-opacity="1.000" stroke="rgb(0,0,0)" stroke-width="0"/><path d="M140,39 C140,39 140,15 140,15 C142,7 148,3 154,2 C156,2 159,2 162,3 C164,3 166,5 168,7 C173,10 175,16 174,23 C173,28 170,32 167,35 C164,37 160,39 155,39" fill="none" mask="url(#Mask6)" stroke="rgb(0,0,0)" stroke-linecap="round" stroke-opacity="1.000" stroke-width="1"/><mask id="Mask6"><rect fill="rgb(255,255,255)" fill-opacity="1" height="170" width="170" x="0" y="0"/></mask><path d="M119,131 C119,131 21,131 21,131 C21,131 21,131 21,131 C15,131 11,134 8,138 C7,141 6,144 5,147 C5,150 6,154 7,157 C9,163 13,168 21,171 C21,171 21,171 21,171 C21,171 21,171 21,171 C21,171 124,171 124,171 C127,171 129,170 131,169 C133,168 135,167 136,165 C138,163 138,162 139,160 C140,158 140,156 140,154 C140,154 140,154 140,154 C140,154 140,41 140,41 C140,41 155,41 155,41 C161,41 165,39 168,36 C172,33 174,29 175,24 C177,16 174,9 169,5 C167,3 165,2 162,1 C159,0 156,0 154,0 C147,1 141,5 138,15 C138,15 138,15 138,15 C138,15 138,15 138,15 C138,15 138,154 138,154 C138,154 138,154 138,154 C138,156 138,157 137,159 C137,161 136,162 135,163 C134,165 132,167 130,167 C128,168 126,169 124,169 C124,169 21,169 21,169 C14,166 10,161 8,156 C7,153 7,150 7,147 C7,144 8,142 10,140 C12,136 16,133 21,133 C21,133 119,133 119,133 C119,133 119,131 119,131" fill="rgb(148,173,195)" fill-opacity="1.000" stroke="rgb(0,0,0)" stroke-width="0"/><path d="M119,131 C119,131 21,131 21,131 C21,131 21,131 21,131 C15,131 11,134 8,138 C7,141 6,144 5,147 C5,150 6,154 7,157 C9,163 13,168 21,171 C21,171 21,171 21,171 C21,171 21,171 21,171 C21,171 124,171 124,171 C127,171 129,170 131,169 C133,168 135,167 136,165 C138,163 138,162 139,160 C140,158 140,156 140,154 C140,154 140,154 140,154 C140,154 140,41 140,41 C140,41 155,41 155,41 C161,41 165,39 168,36 C172,33 174,29 175,24 C177,16 174,9 169,5 C167,3 165,2 162,1 C159,0 156,0 154,0 C147,1 141,5 138,15 C138,15 138,15 138,15 C138,15 138,15 138,15 C138,15 138,154 138,154 C138,154 138,154 138,154 C138,156 138,157 137,159 C137,161 136,162 135,163 C134,165 132,167 130,167 C128,168 126,169 124,169 C124,169 21,169 21,169 C14,166 10,161 8,156 C7,153 7,150 7,147 C7,144 8,142 10,140 C12,136 16,133 21,133 C21,133 119,133 119,133 C119,133 119,131 119,131" fill="none" mask="url(#Mask7)" stroke="rgb(0,0,0)" stroke-linecap="round" stroke-opacity="1.000" stroke-width="1"/><mask id="Mask7"><rect fill="rgb(255,255,255)" fill-opacity="1" height="170" width="170" x="0" y="0"/></mask><path d="M39,132 C39,132 39,23 39,23 C39,23 39,23 39,23 C39,14 41,9 44,6 C47,3 53,2 59,2 C59,2 154,2 154,2 C154,2 154,0 154,0 C154,0 59,0 59,0 C52,0 47,1 43,4 C39,8 37,13 37,23 C37,23 37,23 37,23 C37,23 37,132 37,132 C37,132 39,132 39,132" fill="rgb(148,173,195)" fill-opacity="1.000" stroke="rgb(0,0,0)" stroke-width="0"/><path d="M39,132 C39,132 39,23 39,23 C39,23 39,23 39,23 C39,14 41,9 44,6 C47,3 53,2 59,2 C59,2 154,2 154,2 C154,2 154,0 154,0 C154,0 59,0 59,0 C52,0 47,1 43,4 C39,8 37,13 37,23 C37,23 37,23 37,23 C37,23 37,132 37,132 C37,132 39,132 39,132" fill="none" mask="url(#Mask8)" stroke="rgb(0,0,0)" stroke-linecap="round" stroke-opacity="1.000" stroke-width="1"/><mask id="Mask8"><rect fill="rgb(255,255,255)" fill-opacity="1" height="170" width="170" x="0" y="0"/></mask><path d="M119,131 C113,133 109,137 107,142 C106,145 106,148 106,151 C106,154 107,157 109,160 C112,166 118,170 127,170 C127,170 127,168 127,168 C118,168 113,164 110,159 C109,157 108,154 108,151 C107,148 108,145 109,143 C111,138 114,134 119,133 C119,133 119,131 119,131" fill="rgb(148,173,195)" fill-opacity="1.000" stroke="rgb(0,0,0)" stroke-width="0"/><path d="M119,131 C113,133 109,137 107,142 C106,145 106,148 106,151 C106,154 107,157 109,160 C112,166 118,170 127,170 C127,170 127,168 127,168 C118,168 113,164 110,159 C109,157 108,154 108,151 C107,148 108,145 109,143 C111,138 114,134 119,133 C119,133 119,131 119,131" fill="none" mask="url(#Mask9)" stroke="rgb(0,0,0)" stroke-linecap="round" stroke-opacity="1.000" stroke-width="1"/><mask id="Mask9"><rect fill="rgb(255,255,255)" fill-opacity="1" height="170" width="170" x="0" y="0"/></mask><path d="M62,4 C48,4 41,7 41,26 C41,26 41,131 41,131 C41,131 39,131 39,131 C39,131 39,23 39,23 C39,23 39,23 39,23 C39,14 41,9 44,6 C47,3 53,2 59,2 C59,2 148,2 148,2 C147,3 145,3 144,4 C144,4 62,4 62,4" fill="rgb(255,255,255)" fill-opacity="1.000" stroke="rgb(0,0,0)" stroke-width="0"/><path d="M62,4 C48,4 41,7 41,26 C41,26 41,131 41,131 C41,131 39,131 39,131 C39,131 39,23 39,23 C39,23 39,23 39,23 C39,14 41,9 44,6 C47,3 53,2 59,2 C59,2 148,2 148,2 C147,3 145,3 144,4 C144,4 62,4 62,4" fill="none" mask="url(#Mask10)" stroke="rgb(0,0,0)" stroke-linecap="round" stroke-opacity="1.000" stroke-width="1"/><mask id="Mask10"><rect fill="rgb(255,255,255)" fill-opacity="1" height="170" width="170" x="0" y="0"/></mask><path d="M49,30 C49,30 127,30 127,30 C127,30 127,32 127,32 C127,32 49,32 49,32 C49,32 49,30 49,30" fill="rgb(255,255,255)" fill-opacity="1.000" stroke="rgb(0,0,0)" stroke-width="0"/><path d="M49,30 C49,30 127,30 127,30 C127,30 127,32 127,32 C127,32 49,32 49,32 C49,32 49,30 49,30" fill="none" mask="url(#Mask11)" stroke="rgb(0,0,0)" stroke-linecap="round" stroke-opacity="1.000" stroke-width="1"/><mask id="Mask11"><rect fill="rgb(255,255,255)" fill-opacity="1" height="170" width="170" x="0" y="0"/></mask><path d="M49,45 C49,45 127,45 127,45 C127,45 127,47 127,47 C127,47 49,47 49,47 C49,47 49,45 49,45" fill="rgb(255,255,255)" fill-opacity="1.000" stroke="rgb(0,0,0)" stroke-width="0"/><path d="M49,45 C49,45 127,45 127,45 C127,45 127,47 127,47 C127,47 49,47 49,47 C49,47 49,45 49,45" fill="none" mask="url(#Mask12)" stroke="rgb(0,0,0)" stroke-linecap="round" stroke-opacity="1.000" stroke-width="1"/><mask id="Mask12"><rect fill="rgb(255,255,255)" fill-opacity="1" height="170" width="170" x="0" y="0"/></mask><path d="M49,59 C49,59 127,59 127,59 C127,59 127,61 127,61 C127,61 49,61 49,61 C49,61 49,59 49,59" fill="rgb(255,255,255)" fill-opacity="1.000" stroke="rgb(0,0,0)" stroke-width="0"/><path d="M49,59 C49,59 127,59 127,59 C127,59 127,61 127,61 C127,61 49,61 49,61 C49,61 49,59 49,59" fill="none" mask="url(#Mask13)" stroke="rgb(0,0,0)" stroke-linecap="round" stroke-opacity="1.000" stroke-width="1"/><mask id="Mask13"><rect fill="rgb(255,255,255)" fill-opacity="1" height="170" width="170" x="0" y="0"/></mask><path d="M49,74 C49,74 127,74 127,74 C127,74 127,76 127,76 C127,76 49,76 49,76 C49,76 49,74 49,74" fill="rgb(255,255,255)" fill-opacity="1.000" stroke="rgb(0,0,0)" stroke-width="0"/><path d="M49,74 C49,74 127,74 127,74 C127,74 127,76 127,76 C127,76 49,76 49,76 C49,76 49,74 49,74" fill="none" mask="url(#Mask14)" stroke="rgb(0,0,0)" stroke-linecap="round" stroke-opacity="1.000" stroke-width="1"/><mask id="Mask14"><rect fill="rgb(255,255,255)" fill-opacity="1" height="170" width="170" x="0" y="0"/></mask><path d="M49,88 C49,88 127,88 127,88 C127,88 127,90 127,90 C127,90 49,90 49,90 C49,90 49,88 49,88" fill="rgb(255,255,255)" fill-opacity="1.000" stroke="rgb(0,0,0)" stroke-width="0"/><path d="M49,88 C49,88 127,88 127,88 C127,88 127,90 127,90 C127,90 49,90 49,90 C49,90 49,88 49,88" fill="none" mask="url(#Mask15)" stroke="rgb(0,0,0)" stroke-linecap="round" stroke-opacity="1.000" stroke-width="1"/><mask id="Mask15"><rect fill="rgb(255,255,255)" fill-opacity="1" height="170" width="170" x="0" y="0"/></mask><path d="M49,103 C49,103 127,103 127,103 C127,103 127,105 127,105 C127,105 49,105 49,105 C49,105 49,103 49,103" fill="rgb(255,255,255)" fill-opacity="1.000" stroke="rgb(0,0,0)" stroke-width="0"/><path d="M49,103 C49,103 127,103 127,103 C127,103 127,105 127,105 C127,105 49,105 49,105 C49,105 49,103 49,103" fill="none" mask="url(#Mask16)" stroke="rgb(0,0,0)" stroke-linecap="round" stroke-opacity="1.000" stroke-width="1"/><mask id="Mask16"><rect fill="rgb(255,255,255)" fill-opacity="1" height="170" width="170" x="0" y="0"/></mask><path d="M49,117 C49,117 127,117 127,117 C127,117 127,119 127,119 C127,119 49,119 49,119 C49,119 49,117 49,117" fill="rgb(255,255,255)" fill-opacity="1.000" stroke="rgb(0,0,0)" stroke-width="0"/><path d="M49,117 C49,117 127,117 127,117 C127,117 127,119 127,119 C127,119 49,119 49,119 C49,119 49,117 49,117" fill="none" mask="url(#Mask17)" stroke="rgb(0,0,0)" stroke-linecap="round" stroke-opacity="1.000" stroke-width="1"/><mask id="Mask17"><rect fill="rgb(255,255,255)" fill-opacity="1" height="170" width="170" x="0" y="0"/></mask><path d="M34,148 C28,148 23,143 23,136 C23,129 28,124 34,124 C39,124 44,129 44,136 C44,143 39,148 34,148" fill="rgb(106,110,124)" fill-opacity="1.000" stroke="rgb(0,0,0)" stroke-width="0"/><path d="M34,148 C28,148 23,143 23,136 C23,129 28,124 34,124 C39,124 44,129 44,136 C44,143 39,148 34,148" fill="none" mask="url(#Mask18)" stroke="rgb(0,0,0)" stroke-linecap="round" stroke-opacity="1.000" stroke-width="1"/><mask id="Mask18"><rect fill="rgb(255,255,255)" fill-opacity="1" height="170" width="170" x="0" y="0"/></mask><path d="M34,150 C42,150 48,144 48,136 C48,128 42,121 34,121 C26,121 20,128 20,136 C20,144 26,150 34,150 C34,150 34,150 34,150" fill="rgb(106,110,124)" fill-opacity="1.000" stroke="rgb(0,0,0)" stroke-width="0"/><path d="M34,150 C42,150 48,144 48,136 C48,128 42,121 34,121 C26,121 20,128 20,136 C20,144 26,150 34,150 C34,150 34,150 34,150" fill="none" mask="url(#Mask19)" stroke="rgb(0,0,0)" stroke-linecap="round" stroke-opacity="1.000" stroke-width="1"/><mask id="Mask19"><rect fill="rgb(255,255,255)" fill-opacity="1" height="170" width="170" x="0" y="0"/></mask><path d="M31,163 C31,163 30,157 30,157 C30,156 29,155 29,155 C27,154 26,154 25,153 C25,153 24,153 24,153 C23,153 23,153 23,153 C23,153 18,157 18,157 C18,157 14,153 14,153 C14,153 17,148 17,148 C18,147 18,146 18,145 C17,144 17,143 16,142 C16,141 15,140 14,140 C14,140 9,139 9,139 C9,139 9,133 9,133 C9,133 14,132 14,132 C15,132 16,131 16,130 C17,129 17,128 18,126 C18,126 18,125 18,124 C18,124 14,119 14,119 C14,119 18,115 18,115 C18,115 23,118 23,118 C23,119 23,119 24,119 C24,119 25,119 25,118 C26,118 27,117 29,117 C29,117 30,116 30,115 C30,115 31,109 31,109 C31,109 36,109 36,109 C36,109 37,115 37,115 C38,116 38,117 39,117 C40,117 41,118 42,119 C43,119 43,119 43,119 C44,119 44,119 45,118 C45,118 50,115 50,115 C50,115 53,119 53,119 C53,119 50,124 50,124 C49,125 49,126 50,127 C50,128 51,129 51,130 C51,131 52,132 53,132 C53,132 59,133 59,133 C59,133 59,139 59,139 C59,139 53,140 53,140 C52,140 51,141 51,142 C51,143 50,144 50,145 C49,146 49,147 50,148 C50,148 53,153 53,153 C53,153 50,157 50,157 C50,157 45,153 45,153 C44,153 44,153 44,153 C43,153 43,153 42,153 C41,154 40,154 39,155 C38,155 38,156 37,157 C37,157 36,163 36,163 C36,163 31,163 31,163" fill="rgb(106,110,124)" fill-opacity="1.000" stroke="rgb(0,0,0)" stroke-width="0"/><path d="M31,163 C31,163 30,157 30,157 C30,156 29,155 29,155 C27,154 26,154 25,153 C25,153 24,153 24,153 C23,153 23,153 23,153 C23,153 18,157 18,157 C18,157 14,153 14,153 C14,153 17,148 17,148 C18,147 18,146 18,145 C17,144 17,143 16,142 C16,141 15,140 14,140 C14,140 9,139 9,139 C9,139 9,133 9,133 C9,133 14,132 14,132 C15,132 16,131 16,130 C17,129 17,128 18,126 C18,126 18,125 18,124 C18,124 14,119 14,119 C14,119 18,115 18,115 C18,115 23,118 23,118 C23,119 23,119 24,119 C24,119 25,119 25,118 C26,118 27,117 29,117 C29,117 30,116 30,115 C30,115 31,109 31,109 C31,109 36,109 36,109 C36,109 37,115 37,115 C38,116 38,117 39,117 C40,117 41,118 42,119 C43,119 43,119 43,119 C44,119 44,119 45,118 C45,118 50,115 50,115 C50,115 53,119 53,119 C53,119 50,124 50,124 C49,125 49,126 50,127 C50,128 51,129 51,130 C51,131 52,132 53,132 C53,132 59,133 59,133 C59,133 59,139 59,139 C59,139 53,140 53,140 C52,140 51,141 51,142 C51,143 50,144 50,145 C49,146 49,147 50,148 C50,148 53,153 53,153 C53,153 50,157 50,157 C50,157 45,153 45,153 C44,153 44,153 44,153 C43,153 43,153 42,153 C41,154 40,154 39,155 C38,155 38,156 37,157 C37,157 36,163 36,163 C36,163 31,163 31,163" fill="none" mask="url(#Mask20)" stroke="rgb(0,0,0)" stroke-linecap="round" stroke-opacity="1.000" stroke-width="1"/><mask id="Mask20"><rect fill="rgb(255,255,255)" fill-opacity="1" height="170" width="170" x="0" y="0"/></mask><path d="M29,166 C29,166 35,166 35,166 C36,166 37,165 37,164 C37,164 38,157 38,157 C39,157 40,156 42,155 C42,155 47,159 47,159 C47,160 48,160 48,160 C48,160 49,160 49,159 C49,159 53,154 53,154 C54,154 54,153 54,152 C54,152 50,146 50,146 C50,145 51,143 51,142 C51,142 58,141 58,141 C59,140 59,140 59,139 C59,139 59,132 59,132 C59,131 59,131 58,130 C58,130 51,129 51,129 C51,128 50,126 50,125 C50,125 54,119 54,119 C54,118 54,117 53,117 C53,117 49,112 49,112 C48,111 48,111 48,111 C48,111 47,111 47,112 C47,112 42,116 42,116 C40,115 39,114 38,114 C38,114 37,107 37,107 C37,106 36,106 35,106 C35,106 29,106 29,106 C28,106 28,106 28,107 C28,107 26,114 26,114 C25,114 24,115 22,116 C22,116 17,111 17,111 C17,111 17,111 16,111 C16,111 16,111 15,112 C15,112 11,117 11,117 C10,117 10,118 10,119 C10,119 14,125 14,125 C14,126 13,128 13,129 C13,129 6,130 6,130 C6,131 5,131 5,132 C5,132 5,139 5,139 C5,140 6,140 6,141 C6,141 13,142 13,142 C13,143 14,145 14,146 C14,146 10,152 10,152 C10,153 10,154 11,154 C11,154 15,159 15,159 C15,160 16,160 16,160 C16,160 17,160 17,160 C17,160 22,155 22,155 C24,156 25,157 26,157 C26,157 28,164 28,164 C28,165 28,166 29,166 C29,166 29,166 29,166" fill="rgb(106,110,124)" fill-opacity="1.000" stroke="rgb(0,0,0)" stroke-width="0"/><path d="M29,166 C29,166 35,166 35,166 C36,166 37,165 37,164 C37,164 38,157 38,157 C39,157 40,156 42,155 C42,155 47,159 47,159 C47,160 48,160 48,160 C48,160 49,160 49,159 C49,159 53,154 53,154 C54,154 54,153 54,152 C54,152 50,146 50,146 C50,145 51,143 51,142 C51,142 58,141 58,141 C59,140 59,140 59,139 C59,139 59,132 59,132 C59,131 59,131 58,130 C58,130 51,129 51,129 C51,128 50,126 50,125 C50,125 54,119 54,119 C54,118 54,117 53,117 C53,117 49,112 49,112 C48,111 48,111 48,111 C48,111 47,111 47,112 C47,112 42,116 42,116 C40,115 39,114 38,114 C38,114 37,107 37,107 C37,106 36,106 35,106 C35,106 29,106 29,106 C28,106 28,106 28,107 C28,107 26,114 26,114 C25,114 24,115 22,116 C22,116 17,111 17,111 C17,111 17,111 16,111 C16,111 16,111 15,112 C15,112 11,117 11,117 C10,117 10,118 10,119 C10,119 14,125 14,125 C14,126 13,128 13,129 C13,129 6,130 6,130 C6,131 5,131 5,132 C5,132 5,139 5,139 C5,140 6,140 6,141 C6,141 13,142 13,142 C13,143 14,145 14,146 C14,146 10,152 10,152 C10,153 10,154 11,154 C11,154 15,159 15,159 C15,160 16,160 16,160 C16,160 17,160 17,160 C17,160 22,155 22,155 C24,156 25,157 26,157 C26,157 28,164 28,164 C28,165 28,166 29,166 C29,166 29,166 29,166" fill="none" mask="url(#Mask21)" stroke="rgb(0,0,0)" stroke-linecap="round" stroke-opacity="1.000" stroke-width="1"/><mask id="Mask21"><rect fill="rgb(255,255,255)" fill-opacity="1" height="170" width="170" x="0" y="0"/></mask></svg>