<?xml version="1.0" standalone="no"?>
<!DOCTYPE svg PUBLIC "-//W3C//DTD SVG 1.1//EN"
"http://www.w3.org/Graphics/SVG/1.1/DTD/svg11.dtd">

<svg height="32" transform="translate(0.5,0.5)" version="1.1" width="32" xmlns="http://www.w3.org/2000/svg" xmlns:nch="http://www.nchsoftware.com/drawpad/" xmlns:xlink="http://www.w3.org/1999/xlink"><rect fill="rgb(255,255,255)" fill-opacity="1.000" height="32" id="background" width="32" x="0" y="0"/><path d="M29,3 C29,3 25,3 25,3 C25,3 25,1 25,1 C25,0 25,0 24,0 C23,0 23,0 23,1 C23,1 23,3 23,3 C23,3 17,3 17,3 C17,3 17,1 17,1 C17,0 17,0 16,0 C15,0 15,0 15,1 C15,1 15,3 15,3 C15,3 9,3 9,3 C9,3 9,1 9,1 C9,0 9,0 8,0 C7,0 7,0 7,1 C7,1 7,3 7,3 C7,3 3,3 3,3 C1,3 0,4 0,6 C0,6 0,29 0,29 C0,31 1,32 3,32 C3,32 29,32 29,32 C31,32 32,31 32,29 C32,29 32,6 32,6 C32,4 31,3 29,3" fill="rgb(51,51,50)" fill-opacity="1.000" stroke="rgb(0,0,0)" stroke-width="0"/><path d="M29,3 C29,3 25,3 25,3 C25,3 25,1 25,1 C25,0 25,0 24,0 C23,0 23,0 23,1 C23,1 23,3 23,3 C23,3 17,3 17,3 C17,3 17,1 17,1 C17,0 17,0 16,0 C15,0 15,0 15,1 C15,1 15,3 15,3 C15,3 9,3 9,3 C9,3 9,1 9,1 C9,0 9,0 8,0 C7,0 7,0 7,1 C7,1 7,3 7,3 C7,3 3,3 3,3 C1,3 0,4 0,6 C0,6 0,29 0,29 C0,31 1,32 3,32 C3,32 29,32 29,32 C31,32 32,31 32,29 C32,29 32,6 32,6 C32,4 31,3 29,3" fill="none" mask="url(#Mask0)" stroke="rgb(0,0,0)" stroke-linecap="round" stroke-opacity="1.000" stroke-width="1"/><mask id="Mask0"><rect fill="rgb(255,255,255)" fill-opacity="1" height="32" width="32" x="0" y="0"/></mask><path d="M30,29 C30,30 30,30 29,30 C29,30 3,30 3,30 C2,30 2,30 2,29 C2,29 2,6 2,6 C2,5 2,5 3,5 C3,5 7,5 7,5 C7,5 7,7 7,7 C7,8 7,8 8,8 C9,8 9,8 9,7 C9,7 9,5 9,5 C9,5 15,5 15,5 C15,5 15,7 15,7 C15,8 15,8 16,8 C17,8 17,8 17,7 C17,7 17,5 17,5 C17,5 23,5 23,5 C23,5 23,7 23,7 C23,8 23,8 24,8 C25,8 25,8 25,7 C25,7 25,5 25,5 C25,5 29,5 29,5 C30,5 30,5 30,6 C30,6 30,29 30,29" fill="rgb(51,51,50)" fill-opacity="1.000" stroke="rgb(0,0,0)" stroke-width="0"/><path d="M30,29 C30,30 30,30 29,30 C29,30 3,30 3,30 C2,30 2,30 2,29 C2,29 2,6 2,6 C2,5 2,5 3,5 C3,5 7,5 7,5 C7,5 7,7 7,7 C7,8 7,8 8,8 C9,8 9,8 9,7 C9,7 9,5 9,5 C9,5 15,5 15,5 C15,5 15,7 15,7 C15,8 15,8 16,8 C17,8 17,8 17,7 C17,7 17,5 17,5 C17,5 23,5 23,5 C23,5 23,7 23,7 C23,8 23,8 24,8 C25,8 25,8 25,7 C25,7 25,5 25,5 C25,5 29,5 29,5 C30,5 30,5 30,6 C30,6 30,29 30,29" fill="none" mask="url(#Mask1)" stroke="rgb(0,0,0)" stroke-linecap="round" stroke-opacity="1.000" stroke-width="1"/><mask id="Mask1"><rect fill="rgb(255,255,255)" fill-opacity="1" height="32" width="32" x="0" y="0"/></mask><rect fill="rgb(51,51,50)" fill-opacity="1.000" height="3" mask="url(#Mask2)" stroke="rgb(0,0,0)" stroke-width="1" width="4" x="7" y="12"/><mask id="Mask2"><rect fill="rgb(255,255,255)" fill-opacity="1" height="32" width="32" x="0" y="0"/></mask><rect fill="rgb(51,51,50)" fill-opacity="1.000" height="3" mask="url(#Mask3)" stroke="rgb(0,0,0)" stroke-width="1" width="4" x="7" y="17"/><mask id="Mask3"><rect fill="rgb(255,255,255)" fill-opacity="1" height="32" width="32" x="0" y="0"/></mask><rect fill="rgb(51,51,50)" fill-opacity="1.000" height="3" mask="url(#Mask4)" stroke="rgb(0,0,0)" stroke-width="1" width="4" x="7" y="22"/><mask id="Mask4"><rect fill="rgb(255,255,255)" fill-opacity="1" height="32" width="32" x="0" y="0"/></mask><rect fill="rgb(51,51,50)" fill-opacity="1.000" height="3" mask="url(#Mask5)" stroke="rgb(0,0,0)" stroke-width="1" width="4" x="14" y="22"/><mask id="Mask5"><rect fill="rgb(255,255,255)" fill-opacity="1" height="32" width="32" x="0" y="0"/></mask><rect fill="rgb(51,51,50)" fill-opacity="1.000" height="3" mask="url(#Mask6)" stroke="rgb(0,0,0)" stroke-width="1" width="4" x="14" y="17"/><mask id="Mask6"><rect fill="rgb(255,255,255)" fill-opacity="1" height="32" width="32" x="0" y="0"/></mask><rect fill="rgb(51,51,50)" fill-opacity="1.000" height="3" mask="url(#Mask7)" stroke="rgb(0,0,0)" stroke-width="1" width="4" x="14" y="12"/><mask id="Mask7"><rect fill="rgb(255,255,255)" fill-opacity="1" height="32" width="32" x="0" y="0"/></mask><rect fill="rgb(51,51,50)" fill-opacity="1.000" height="3" mask="url(#Mask8)" stroke="rgb(0,0,0)" stroke-width="1" width="4" x="21" y="22"/><mask id="Mask8"><rect fill="rgb(255,255,255)" fill-opacity="1" height="32" width="32" x="0" y="0"/></mask><rect fill="rgb(51,51,50)" fill-opacity="1.000" height="3" mask="url(#Mask9)" stroke="rgb(0,0,0)" stroke-width="1" width="4" x="21" y="17"/><mask id="Mask9"><rect fill="rgb(255,255,255)" fill-opacity="1" height="32" width="32" x="0" y="0"/></mask><rect fill="rgb(51,51,50)" fill-opacity="1.000" height="3" mask="url(#Mask10)" stroke="rgb(0,0,0)" stroke-width="1" width="4" x="21" y="12"/><mask id="Mask10"><rect fill="rgb(255,255,255)" fill-opacity="1" height="32" width="32" x="0" y="0"/></mask><path d="M8,36 C8,36 10,36 10,36 C11,36 11,35 11,35 C11,35 12,32 12,32 C12,32 13,31 13,31 C13,31 16,33 16,33 C16,33 16,33 16,33 C16,33 16,33 16,33 C16,33 19,31 19,31 C19,30 19,30 19,30 C19,30 17,27 17,27 C17,27 17,26 18,26 C18,26 21,25 21,25 C21,25 21,25 21,24 C21,24 21,21 21,21 C21,21 21,21 21,21 C21,21 18,20 18,20 C17,19 17,19 17,18 C17,18 19,16 19,16 C19,15 19,15 19,15 C19,15 16,13 16,13 C16,13 16,12 16,12 C16,12 16,13 16,13 C16,13 13,14 13,14 C13,14 12,14 12,14 C12,14 11,11 11,11 C11,10 11,10 11,10 C11,10 8,10 8,10 C7,10 7,10 7,11 C7,11 6,14 6,14 C6,14 5,14 5,14 C5,14 2,13 2,13 C2,12 2,12 2,12 C2,12 2,13 2,13 C2,13 0,15 0,15 C-1,15 -1,15 -1,16 C-1,16 1,18 1,18 C1,19 1,19 0,20 C0,20 -3,21 -3,21 C-3,21 -3,21 -3,21 C-3,21 -3,24 -3,24 C-3,25 -3,25 -3,25 C-3,25 0,25 0,25 C1,26 1,27 1,27 C1,27 -1,30 -1,30 C-1,30 -1,30 -1,31 C-1,31 2,33 2,33 C2,33 2,33 2,33 C2,33 2,33 2,33 C2,33 5,31 5,31 C5,31 6,32 6,32 C6,32 7,35 7,35 C7,35 7,36 8,36 C8,36 8,36 8,36" fill="rgb(106,110,124)" fill-opacity="1.000" stroke="rgb(0,0,0)" stroke-width="0"/><path d="M8,36 C8,36 10,36 10,36 C11,36 11,35 11,35 C11,35 12,32 12,32 C12,32 13,31 13,31 C13,31 16,33 16,33 C16,33 16,33 16,33 C16,33 16,33 16,33 C16,33 19,31 19,31 C19,30 19,30 19,30 C19,30 17,27 17,27 C17,27 17,26 18,26 C18,26 21,25 21,25 C21,25 21,25 21,24 C21,24 21,21 21,21 C21,21 21,21 21,21 C21,21 18,20 18,20 C17,19 17,19 17,18 C17,18 19,16 19,16 C19,15 19,15 19,15 C19,15 16,13 16,13 C16,13 16,12 16,12 C16,12 16,13 16,13 C16,13 13,14 13,14 C13,14 12,14 12,14 C12,14 11,11 11,11 C11,10 11,10 11,10 C11,10 8,10 8,10 C7,10 7,10 7,11 C7,11 6,14 6,14 C6,14 5,14 5,14 C5,14 2,13 2,13 C2,12 2,12 2,12 C2,12 2,13 2,13 C2,13 0,15 0,15 C-1,15 -1,15 -1,16 C-1,16 1,18 1,18 C1,19 1,19 0,20 C0,20 -3,21 -3,21 C-3,21 -3,21 -3,21 C-3,21 -3,24 -3,24 C-3,25 -3,25 -3,25 C-3,25 0,25 0,25 C1,26 1,27 1,27 C1,27 -1,30 -1,30 C-1,30 -1,30 -1,31 C-1,31 2,33 2,33 C2,33 2,33 2,33 C2,33 2,33 2,33 C2,33 5,31 5,31 C5,31 6,32 6,32 C6,32 7,35 7,35 C7,35 7,36 8,36 C8,36 8,36 8,36" fill="none" mask="url(#Mask11)" stroke="rgb(0,0,0)" stroke-linecap="round" stroke-opacity="1.000" stroke-width="1"/><mask id="Mask11"><rect fill="rgb(255,255,255)" fill-opacity="1" height="32" width="32" x="0" y="0"/></mask><path d="M9,34 C9,34 8,32 8,32 C8,31 8,31 7,31 C7,31 6,31 6,30 C6,30 6,30 5,30 C5,30 5,30 5,30 C5,30 3,32 3,32 C3,32 1,30 1,30 C1,30 3,28 3,28 C3,28 3,27 3,27 C2,26 2,26 2,25 C2,25 2,25 1,25 C1,25 -1,24 -1,24 C-1,24 -1,22 -1,22 C-1,22 1,21 1,21 C2,21 2,21 2,20 C2,20 2,19 3,19 C3,19 3,18 3,18 C3,18 1,16 1,16 C1,16 3,14 3,14 C3,14 5,15 5,15 C5,16 5,16 5,16 C6,16 6,16 6,15 C6,15 7,15 7,15 C8,15 8,14 8,14 C8,14 9,11 9,11 C9,11 11,11 11,11 C11,11 11,14 11,14 C11,14 12,15 12,15 C13,15 13,15 14,15 C14,16 14,16 14,16 C14,16 15,16 15,15 C15,15 17,14 17,14 C17,14 18,16 18,16 C18,16 17,18 17,18 C17,18 17,19 17,19 C17,19 17,20 18,20 C18,21 18,21 18,21 C18,21 21,22 21,22 C21,22 21,24 21,24 C21,24 18,25 18,25 C18,25 18,25 18,25 C17,26 17,26 17,27 C17,27 17,28 17,28 C17,28 18,30 18,30 C18,30 17,32 17,32 C17,32 15,30 15,30 C15,30 14,30 14,30 C14,30 14,30 14,30 C13,31 13,31 12,31 C12,31 11,31 11,32 C11,32 11,34 11,34 C11,34 9,34 9,34" fill="rgb(106,110,124)" fill-opacity="1.000" stroke="rgb(0,0,0)" stroke-width="0"/><path d="M9,34 C9,34 8,32 8,32 C8,31 8,31 7,31 C7,31 6,31 6,30 C6,30 6,30 5,30 C5,30 5,30 5,30 C5,30 3,32 3,32 C3,32 1,30 1,30 C1,30 3,28 3,28 C3,28 3,27 3,27 C2,26 2,26 2,25 C2,25 2,25 1,25 C1,25 -1,24 -1,24 C-1,24 -1,22 -1,22 C-1,22 1,21 1,21 C2,21 2,21 2,20 C2,20 2,19 3,19 C3,19 3,18 3,18 C3,18 1,16 1,16 C1,16 3,14 3,14 C3,14 5,15 5,15 C5,16 5,16 5,16 C6,16 6,16 6,15 C6,15 7,15 7,15 C8,15 8,14 8,14 C8,14 9,11 9,11 C9,11 11,11 11,11 C11,11 11,14 11,14 C11,14 12,15 12,15 C13,15 13,15 14,15 C14,16 14,16 14,16 C14,16 15,16 15,15 C15,15 17,14 17,14 C17,14 18,16 18,16 C18,16 17,18 17,18 C17,18 17,19 17,19 C17,19 17,20 18,20 C18,21 18,21 18,21 C18,21 21,22 21,22 C21,22 21,24 21,24 C21,24 18,25 18,25 C18,25 18,25 18,25 C17,26 17,26 17,27 C17,27 17,28 17,28 C17,28 18,30 18,30 C18,30 17,32 17,32 C17,32 15,30 15,30 C15,30 14,30 14,30 C14,30 14,30 14,30 C13,31 13,31 12,31 C12,31 11,31 11,32 C11,32 11,34 11,34 C11,34 9,34 9,34" fill="none" mask="url(#Mask12)" stroke="rgb(0,0,0)" stroke-linecap="round" stroke-opacity="1.000" stroke-width="1"/><mask id="Mask12"><rect fill="rgb(255,255,255)" fill-opacity="1" height="32" width="32" x="0" y="0"/></mask><path d="M10,29 C13,29 16,26 16,23 C16,19 13,17 10,17 C6,17 3,19 3,23 C3,26 6,29 10,29 C10,29 10,29 10,29" fill="rgb(106,110,124)" fill-opacity="1.000" stroke="rgb(0,0,0)" stroke-width="0"/><path d="M10,29 C13,29 16,26 16,23 C16,19 13,17 10,17 C6,17 3,19 3,23 C3,26 6,29 10,29 C10,29 10,29 10,29" fill="none" mask="url(#Mask13)" stroke="rgb(0,0,0)" stroke-linecap="round" stroke-opacity="1.000" stroke-width="1"/><mask id="Mask13"><rect fill="rgb(255,255,255)" fill-opacity="1" height="32" width="32" x="0" y="0"/></mask><path d="M10,28 C7,28 5,26 5,23 C5,20 7,18 10,18 C12,18 14,20 14,23 C14,26 12,28 10,28" fill="rgb(106,110,124)" fill-opacity="1.000" stroke="rgb(0,0,0)" stroke-width="0"/><path d="M10,28 C7,28 5,26 5,23 C5,20 7,18 10,18 C12,18 14,20 14,23 C14,26 12,28 10,28" fill="none" mask="url(#Mask14)" stroke="rgb(0,0,0)" stroke-linecap="round" stroke-opacity="1.000" stroke-width="1"/><mask id="Mask14"><rect fill="rgb(255,255,255)" fill-opacity="1" height="32" width="32" x="0" y="0"/></mask></svg>