<?xml version="1.0" standalone="no"?>
<!DOCTYPE svg PUBLIC "-//W3C//DTD SVG 1.1//EN"
"http://www.w3.org/Graphics/SVG/1.1/DTD/svg11.dtd">

<svg height="512" transform="translate(0.5,0.5)" version="1.1" width="512" xmlns="http://www.w3.org/2000/svg" xmlns:nch="http://www.nchsoftware.com/drawpad/" xmlns:xlink="http://www.w3.org/1999/xlink"><rect fill="rgb(255,255,255)" fill-opacity="1.000" height="512" id="background" width="512" x="0" y="0"/><path d="M866,605 C866,605 866,1117 866,1117 C866,1117 1378,1117 1378,1117 C1378,1117 1378,605 1378,605 C1378,605 866,605 866,605" fill="rgb(0,0,0)" fill-opacity="1.000" stroke="rgb(0,0,0)" stroke-width="0"/><path d="M866,605 C866,605 866,1117 866,1117 C866,1117 1378,1117 1378,1117 C1378,1117 1378,605 1378,605 C1378,605 866,605 866,605" fill="none" mask="url(#Mask0)" stroke="rgb(0,0,0)" stroke-linecap="round" stroke-opacity="1.000" stroke-width="1"/><mask id="Mask0"><rect fill="rgb(255,255,255)" fill-opacity="1" height="512" width="512" x="0" y="0"/></mask><path d="M1207,730 C1225,741 1247,735 1258,717 C1268,699 1262,677 1244,666 C1226,656 1204,662 1194,680 C1183,698 1189,720 1207,730" fill="rgb(0,0,0)" fill-opacity="1.000" stroke="rgb(0,0,0)" stroke-width="0"/><path d="M1207,730 C1225,741 1247,735 1258,717 C1268,699 1262,677 1244,666 C1226,656 1204,662 1194,680 C1183,698 1189,720 1207,730" fill="none" mask="url(#Mask1)" stroke="rgb(0,0,0)" stroke-linecap="round" stroke-opacity="1.000" stroke-width="1"/><mask id="Mask1"><rect fill="rgb(255,255,255)" fill-opacity="1" height="512" width="512" x="0" y="0"/></mask><path d="M1132,969 C1115,969 1100,966 1086,959 C1086,959 1060,1005 1060,1005 C1082,1016 1106,1022 1132,1022 C1146,1022 1161,1020 1174,1016 C1177,1001 1186,988 1200,980 C1214,971 1230,971 1244,976 C1271,949 1289,913 1292,872 C1292,872 1239,871 1239,871 C1234,926 1188,969 1132,969" fill="rgb(0,0,0)" fill-opacity="1.000" stroke="rgb(0,0,0)" stroke-width="0"/><path d="M1132,969 C1115,969 1100,966 1086,959 C1086,959 1060,1005 1060,1005 C1082,1016 1106,1022 1132,1022 C1146,1022 1161,1020 1174,1016 C1177,1001 1186,988 1200,980 C1214,971 1230,971 1244,976 C1271,949 1289,913 1292,872 C1292,872 1239,871 1239,871 C1234,926 1188,969 1132,969" fill="none" mask="url(#Mask2)" stroke="rgb(0,0,0)" stroke-linecap="round" stroke-opacity="1.000" stroke-width="1"/><mask id="Mask2"><rect fill="rgb(255,255,255)" fill-opacity="1" height="512" width="512" x="0" y="0"/></mask><path d="M1132,753 C1188,753 1234,797 1239,852 C1239,852 1292,851 1292,851 C1289,810 1271,774 1244,747 C1230,752 1214,751 1200,743 C1186,735 1177,722 1174,707 C1161,703 1146,701 1132,701 C1106,701 1082,707 1060,718 C1060,718 1086,764 1086,764 C1100,757 1115,753 1132,753" fill="rgb(0,0,0)" fill-opacity="1.000" stroke="rgb(0,0,0)" stroke-width="0"/><path d="M1132,753 C1188,753 1234,797 1239,852 C1239,852 1292,851 1292,851 C1289,810 1271,774 1244,747 C1230,752 1214,751 1200,743 C1186,735 1177,722 1174,707 C1161,703 1146,701 1132,701 C1106,701 1082,707 1060,718 C1060,718 1086,764 1086,764 C1100,757 1115,753 1132,753" fill="none" mask="url(#Mask3)" stroke="rgb(0,0,0)" stroke-linecap="round" stroke-opacity="1.000" stroke-width="1"/><mask id="Mask3"><rect fill="rgb(255,255,255)" fill-opacity="1" height="512" width="512" x="0" y="0"/></mask><path d="M1024,861 C1024,825 1042,793 1069,773 C1069,773 1042,728 1042,728 C1010,749 986,783 976,821 C988,831 995,845 995,861 C995,878 988,892 976,902 C986,940 1010,973 1042,995 C1042,995 1069,950 1069,950 C1042,930 1024,898 1024,861" fill="rgb(0,0,0)" fill-opacity="1.000" stroke="rgb(0,0,0)" stroke-width="0"/><path d="M1024,861 C1024,825 1042,793 1069,773 C1069,773 1042,728 1042,728 C1010,749 986,783 976,821 C988,831 995,845 995,861 C995,878 988,892 976,902 C986,940 1010,973 1042,995 C1042,995 1069,950 1069,950 C1042,930 1024,898 1024,861" fill="none" mask="url(#Mask4)" stroke="rgb(0,0,0)" stroke-linecap="round" stroke-opacity="1.000" stroke-width="1"/><mask id="Mask4"><rect fill="rgb(255,255,255)" fill-opacity="1" height="512" width="512" x="0" y="0"/></mask><path d="M1207,992 C1189,1003 1183,1025 1194,1043 C1204,1061 1226,1067 1244,1057 C1262,1046 1268,1024 1258,1006 C1247,988 1225,982 1207,992" fill="rgb(0,0,0)" fill-opacity="1.000" stroke="rgb(0,0,0)" stroke-width="0"/><path d="M1207,992 C1189,1003 1183,1025 1194,1043 C1204,1061 1226,1067 1244,1057 C1262,1046 1268,1024 1258,1006 C1247,988 1225,982 1207,992" fill="none" mask="url(#Mask5)" stroke="rgb(0,0,0)" stroke-linecap="round" stroke-opacity="1.000" stroke-width="1"/><mask id="Mask5"><rect fill="rgb(255,255,255)" fill-opacity="1" height="512" width="512" x="0" y="0"/></mask><path d="M943,825 C923,825 906,841 906,861 C906,882 923,898 943,898 C964,898 980,882 980,861 C980,841 964,825 943,825" fill="rgb(0,0,0)" fill-opacity="1.000" stroke="rgb(0,0,0)" stroke-width="0"/><path d="M943,825 C923,825 906,841 906,861 C906,882 923,898 943,898 C964,898 980,882 980,861 C980,841 964,825 943,825" fill="none" mask="url(#Mask6)" stroke="rgb(0,0,0)" stroke-linecap="round" stroke-opacity="1.000" stroke-width="1"/><mask id="Mask6"><rect fill="rgb(255,255,255)" fill-opacity="1" height="512" width="512" x="0" y="0"/></mask><path d="M292,191 C289,193 286,194 286,201 C286,201 286,204 286,204 C286,204 288,204 288,204 C288,204 288,201 288,201 C288,196 289,195 293,194 C293,193 292,192 292,191" fill="rgb(255,255,255)" fill-opacity="1.000" stroke="rgb(0,0,0)" stroke-width="0"/><path d="M292,191 C289,193 286,194 286,201 C286,201 286,204 286,204 C286,204 288,204 288,204 C288,204 288,201 288,201 C288,196 289,195 293,194 C293,193 292,192 292,191" fill="none" mask="url(#Mask7)" stroke="rgb(0,0,0)" stroke-linecap="round" stroke-opacity="1.000" stroke-width="1"/><mask id="Mask7"><rect fill="rgb(255,255,255)" fill-opacity="1" height="512" width="512" x="0" y="0"/></mask><path d="M299,190 C299,190 299,191 299,192 C305,191 305,194 305,199 C305,199 305,200 305,200 C305,200 307,200 307,200 C307,200 307,199 307,199 C307,191 306,189 299,190" fill="rgb(255,255,255)" fill-opacity="1.000" stroke="rgb(0,0,0)" stroke-width="0"/><path d="M299,190 C299,190 299,191 299,192 C305,191 305,194 305,199 C305,199 305,200 305,200 C305,200 307,200 307,200 C307,200 307,199 307,199 C307,191 306,189 299,190" fill="none" mask="url(#Mask8)" stroke="rgb(0,0,0)" stroke-linecap="round" stroke-opacity="1.000" stroke-width="1"/><mask id="Mask8"><rect fill="rgb(255,255,255)" fill-opacity="1" height="512" width="512" x="0" y="0"/></mask><path d="M276,206 C276,206 276,196 276,196 C276,190 279,188 285,186 C294,184 295,190 295,194 C295,194 295,202 295,202 C295,202 297,202 297,202 C297,202 297,194 297,194 C297,187 295,182 285,184 C279,185 274,187 274,196 C274,196 274,207 274,207 C274,207 276,206 276,206" fill="rgb(255,255,255)" fill-opacity="1.000" stroke="rgb(0,0,0)" stroke-width="0"/><path d="M276,206 C276,206 276,196 276,196 C276,190 279,188 285,186 C294,184 295,190 295,194 C295,194 295,202 295,202 C295,202 297,202 297,202 C297,202 297,194 297,194 C297,187 295,182 285,184 C279,185 274,187 274,196 C274,196 274,207 274,207 C274,207 276,206 276,206" fill="none" mask="url(#Mask9)" stroke="rgb(0,0,0)" stroke-linecap="round" stroke-opacity="1.000" stroke-width="1"/><mask id="Mask9"><rect fill="rgb(255,255,255)" fill-opacity="1" height="512" width="512" x="0" y="0"/></mask><path d="M318,200 C318,200 257,213 257,213 C257,213 257,257 257,257 C257,257 318,269 318,269 C318,269 330,264 330,264 C330,264 330,205 330,205 C330,205 318,200 318,200" fill="rgb(255,255,255)" fill-opacity="1.000" stroke="rgb(0,0,0)" stroke-width="0"/><path d="M318,200 C318,200 257,213 257,213 C257,213 257,257 257,257 C257,257 318,269 318,269 C318,269 330,264 330,264 C330,264 330,205 330,205 C330,205 318,200 318,200" fill="none" mask="url(#Mask10)" stroke="rgb(0,0,0)" stroke-linecap="round" stroke-opacity="1.000" stroke-width="1"/><mask id="Mask10"><rect fill="rgb(255,255,255)" fill-opacity="1" height="512" width="512" x="0" y="0"/></mask><path d="M284,248 C284,248 270,246 270,246 C270,246 270,234 270,234 C270,234 284,234 284,234 C284,234 284,248 284,248" fill="rgb(255,255,255)" fill-opacity="1.000" stroke="rgb(0,0,0)" stroke-width="0"/><path d="M284,248 C284,248 270,246 270,246 C270,246 270,234 270,234 C270,234 284,234 284,234 C284,234 284,248 284,248" fill="none" mask="url(#Mask11)" stroke="rgb(0,0,0)" stroke-linecap="round" stroke-opacity="1.000" stroke-width="1"/><mask id="Mask11"><rect fill="rgb(255,255,255)" fill-opacity="1" height="512" width="512" x="0" y="0"/></mask><path d="M284,233 C284,233 270,233 270,233 C270,233 270,222 270,222 C270,222 284,221 284,221 C284,221 284,233 284,233" fill="rgb(255,255,255)" fill-opacity="1.000" stroke="rgb(0,0,0)" stroke-width="0"/><path d="M284,233 C284,233 270,233 270,233 C270,233 270,222 270,222 C270,222 284,221 284,221 C284,221 284,233 284,233" fill="none" mask="url(#Mask12)" stroke="rgb(0,0,0)" stroke-linecap="round" stroke-opacity="1.000" stroke-width="1"/><mask id="Mask12"><rect fill="rgb(255,255,255)" fill-opacity="1" height="512" width="512" x="0" y="0"/></mask><path d="M302,250 C302,250 285,248 285,248 C285,248 285,234 285,234 C285,234 302,234 302,234 C302,234 302,250 302,250" fill="rgb(255,255,255)" fill-opacity="1.000" stroke="rgb(0,0,0)" stroke-width="0"/><path d="M302,250 C302,250 285,248 285,248 C285,248 285,234 285,234 C285,234 302,234 302,234 C302,234 302,250 302,250" fill="none" mask="url(#Mask13)" stroke="rgb(0,0,0)" stroke-linecap="round" stroke-opacity="1.000" stroke-width="1"/><mask id="Mask13"><rect fill="rgb(255,255,255)" fill-opacity="1" height="512" width="512" x="0" y="0"/></mask><path d="M302,233 C302,233 285,233 285,233 C285,233 285,220 285,220 C285,220 302,218 302,218 C302,218 302,233 302,233" fill="rgb(255,255,255)" fill-opacity="1.000" stroke="rgb(0,0,0)" stroke-width="0"/><path d="M302,233 C302,233 285,233 285,233 C285,233 285,220 285,220 C285,220 302,218 302,218 C302,218 302,233 302,233" fill="none" mask="url(#Mask14)" stroke="rgb(0,0,0)" stroke-linecap="round" stroke-opacity="1.000" stroke-width="1"/><mask id="Mask14"><rect fill="rgb(255,255,255)" fill-opacity="1" height="512" width="512" x="0" y="0"/></mask><path d="M124,443 C103,443 86,428 86,410 C86,392 103,377 124,377 C145,377 163,392 163,410 C163,428 145,443 124,443" fill="rgb(106,110,124)" fill-opacity="1.000" stroke="rgb(0,0,0)" stroke-width="0"/><path d="M124,443 C103,443 86,428 86,410 C86,392 103,377 124,377 C145,377 163,392 163,410 C163,428 145,443 124,443" fill="none" mask="url(#Mask15)" stroke="rgb(0,0,0)" stroke-linecap="round" stroke-opacity="1.000" stroke-width="1"/><mask id="Mask15"><rect fill="rgb(255,255,255)" fill-opacity="1" height="512" width="512" x="0" y="0"/></mask><path d="M125,450 C153,450 176,432 176,410 C176,388 153,371 125,371 C97,371 74,388 74,410 C74,432 97,450 125,450 C125,450 125,450 125,450" fill="rgb(106,110,124)" fill-opacity="1.000" stroke="rgb(0,0,0)" stroke-width="0"/><path d="M125,450 C153,450 176,432 176,410 C176,388 153,371 125,371 C97,371 74,388 74,410 C74,432 97,450 125,450 C125,450 125,450 125,450" fill="none" mask="url(#Mask16)" stroke="rgb(0,0,0)" stroke-linecap="round" stroke-opacity="1.000" stroke-width="1"/><mask id="Mask16"><rect fill="rgb(255,255,255)" fill-opacity="1" height="512" width="512" x="0" y="0"/></mask><path d="M116,484 C116,484 112,467 112,467 C111,464 109,462 106,462 C102,461 97,459 93,457 C92,457 91,457 89,457 C88,457 86,457 85,458 C85,458 67,468 67,468 C67,468 54,457 54,457 C54,457 66,443 66,443 C68,441 68,438 67,436 C64,433 63,429 62,426 C61,423 58,421 55,421 C55,421 34,418 34,418 C34,418 34,403 34,403 C34,403 55,400 55,400 C58,399 61,397 62,395 C63,391 65,388 67,385 C68,383 68,380 66,378 C66,378 54,363 54,363 C54,363 67,353 67,353 C67,353 85,363 85,363 C86,364 88,364 90,364 C91,364 92,364 94,363 C97,361 102,360 106,359 C109,358 111,356 112,354 C112,354 116,337 116,337 C116,337 134,337 134,337 C134,337 138,354 138,354 C139,356 141,358 144,359 C148,360 152,362 156,363 C157,364 159,364 160,364 C162,364 163,364 165,363 C165,363 182,353 182,353 C182,353 195,364 195,364 C195,364 183,378 183,378 C182,380 181,383 183,385 C185,388 187,391 188,395 C189,397 191,399 195,400 C195,400 216,403 216,403 C216,403 216,418 216,418 C216,418 195,421 195,421 C191,421 189,423 188,426 C187,429 185,432 183,436 C181,438 182,441 183,443 C183,443 195,457 195,457 C195,457 183,467 183,467 C183,467 165,458 165,458 C164,457 162,457 160,457 C159,457 157,457 156,457 C152,459 148,460 144,461 C141,462 139,464 138,467 C138,467 134,484 134,484 C134,484 116,484 116,484" fill="rgb(106,110,124)" fill-opacity="1.000" stroke="rgb(0,0,0)" stroke-width="0"/><path d="M116,484 C116,484 112,467 112,467 C111,464 109,462 106,462 C102,461 97,459 93,457 C92,457 91,457 89,457 C88,457 86,457 85,458 C85,458 67,468 67,468 C67,468 54,457 54,457 C54,457 66,443 66,443 C68,441 68,438 67,436 C64,433 63,429 62,426 C61,423 58,421 55,421 C55,421 34,418 34,418 C34,418 34,403 34,403 C34,403 55,400 55,400 C58,399 61,397 62,395 C63,391 65,388 67,385 C68,383 68,380 66,378 C66,378 54,363 54,363 C54,363 67,353 67,353 C67,353 85,363 85,363 C86,364 88,364 90,364 C91,364 92,364 94,363 C97,361 102,360 106,359 C109,358 111,356 112,354 C112,354 116,337 116,337 C116,337 134,337 134,337 C134,337 138,354 138,354 C139,356 141,358 144,359 C148,360 152,362 156,363 C157,364 159,364 160,364 C162,364 163,364 165,363 C165,363 182,353 182,353 C182,353 195,364 195,364 C195,364 183,378 183,378 C182,380 181,383 183,385 C185,388 187,391 188,395 C189,397 191,399 195,400 C195,400 216,403 216,403 C216,403 216,418 216,418 C216,418 195,421 195,421 C191,421 189,423 188,426 C187,429 185,432 183,436 C181,438 182,441 183,443 C183,443 195,457 195,457 C195,457 183,467 183,467 C183,467 165,458 165,458 C164,457 162,457 160,457 C159,457 157,457 156,457 C152,459 148,460 144,461 C141,462 139,464 138,467 C138,467 134,484 134,484 C134,484 116,484 116,484" fill="none" mask="url(#Mask17)" stroke="rgb(0,0,0)" stroke-linecap="round" stroke-opacity="1.000" stroke-width="1"/><mask id="Mask17"><rect fill="rgb(255,255,255)" fill-opacity="1" height="512" width="512" x="0" y="0"/></mask><path d="M107,491 C107,491 131,491 131,491 C133,491 135,489 136,487 C136,487 140,468 140,468 C145,466 149,465 153,463 C153,463 173,474 173,474 C174,475 175,475 176,475 C177,475 178,475 179,474 C179,474 196,460 196,460 C197,458 198,456 196,455 C196,455 183,438 183,438 C185,435 187,431 188,427 C188,427 212,423 212,423 C214,423 216,421 216,419 C216,419 216,399 216,399 C216,398 214,396 212,396 C212,396 189,392 189,392 C187,388 185,384 183,380 C183,380 196,364 196,364 C198,363 197,360 196,359 C196,359 179,345 179,345 C178,344 177,344 176,344 C175,344 174,344 173,344 C173,344 153,356 153,356 C149,354 145,352 140,351 C140,351 136,331 136,331 C135,329 133,328 131,328 C131,328 107,328 107,328 C105,328 103,329 102,331 C102,331 98,351 98,351 C93,352 89,354 84,356 C84,356 64,344 64,344 C64,344 63,344 62,344 C60,344 59,344 58,345 C58,345 41,359 41,359 C40,360 40,362 41,364 C41,364 54,380 54,380 C52,384 50,388 49,392 C49,392 25,395 25,395 C23,396 21,398 21,399 C21,399 21,419 21,419 C21,421 23,423 25,423 C25,423 49,427 49,427 C50,431 52,435 54,438 C54,438 41,455 41,455 C39,456 40,459 41,460 C41,460 58,474 58,474 C59,475 60,475 61,475 C62,475 63,475 64,474 C64,474 84,463 84,463 C88,465 93,467 98,468 C98,468 102,487 102,487 C103,489 105,491 107,491 C107,491 107,491 107,491" fill="rgb(106,110,124)" fill-opacity="1.000" stroke="rgb(0,0,0)" stroke-width="0"/><path d="M107,491 C107,491 131,491 131,491 C133,491 135,489 136,487 C136,487 140,468 140,468 C145,466 149,465 153,463 C153,463 173,474 173,474 C174,475 175,475 176,475 C177,475 178,475 179,474 C179,474 196,460 196,460 C197,458 198,456 196,455 C196,455 183,438 183,438 C185,435 187,431 188,427 C188,427 212,423 212,423 C214,423 216,421 216,419 C216,419 216,399 216,399 C216,398 214,396 212,396 C212,396 189,392 189,392 C187,388 185,384 183,380 C183,380 196,364 196,364 C198,363 197,360 196,359 C196,359 179,345 179,345 C178,344 177,344 176,344 C175,344 174,344 173,344 C173,344 153,356 153,356 C149,354 145,352 140,351 C140,351 136,331 136,331 C135,329 133,328 131,328 C131,328 107,328 107,328 C105,328 103,329 102,331 C102,331 98,351 98,351 C93,352 89,354 84,356 C84,356 64,344 64,344 C64,344 63,344 62,344 C60,344 59,344 58,345 C58,345 41,359 41,359 C40,360 40,362 41,364 C41,364 54,380 54,380 C52,384 50,388 49,392 C49,392 25,395 25,395 C23,396 21,398 21,399 C21,399 21,419 21,419 C21,421 23,423 25,423 C25,423 49,427 49,427 C50,431 52,435 54,438 C54,438 41,455 41,455 C39,456 40,459 41,460 C41,460 58,474 58,474 C59,475 60,475 61,475 C62,475 63,475 64,474 C64,474 84,463 84,463 C88,465 93,467 98,468 C98,468 102,487 102,487 C103,489 105,491 107,491 C107,491 107,491 107,491" fill="none" mask="url(#Mask18)" stroke="rgb(0,0,0)" stroke-linecap="round" stroke-opacity="1.000" stroke-width="1"/><mask id="Mask18"><rect fill="rgb(255,255,255)" fill-opacity="1" height="512" width="512" x="0" y="0"/></mask></svg>