<?xml version="1.0" standalone="no"?>
<!DOCTYPE svg PUBLIC "-//W3C//DTD SVG 1.1//EN"
"http://www.w3.org/Graphics/SVG/1.1/DTD/svg11.dtd">

<svg height="30" transform="translate(0.5,0.5)" version="1.1" width="30" xmlns="http://www.w3.org/2000/svg" xmlns:nch="http://www.nchsoftware.com/drawpad/" xmlns:xlink="http://www.w3.org/1999/xlink"><rect fill="rgb(255,255,255)" fill-opacity="1.000" height="30" id="background" width="30" x="0" y="0"/><path d="M15,0 C9,0 5,4 5,10 C5,18 12,28 14,30 C14,30 15,30 15,30 C15,30 15,30 15,30 C15,30 15,30 15,29 C16,28 25,18 25,10 C25,3 20,0 15,0" fill="rgb(38,35,36)" fill-opacity="1.000" stroke="rgb(0,0,0)" stroke-width="0"/><path d="M15,0 C9,0 5,4 5,10 C5,18 12,28 14,30 C14,30 15,30 15,30 C15,30 15,30 15,30 C15,30 15,30 15,29 C16,28 25,18 25,10 C25,3 20,0 15,0" fill="none" mask="url(#Mask0)" stroke="rgb(0,0,0)" stroke-linecap="round" stroke-opacity="1.000" stroke-width="1"/><mask id="Mask0"><rect fill="rgb(255,255,255)" fill-opacity="1" height="30" width="30" x="0" y="0"/></mask><path d="M15,28 C12,25 7,17 7,10 C7,5 10,2 15,2 C19,2 23,4 23,10 C23,16 18,24 15,28" fill="rgb(38,35,36)" fill-opacity="1.000" stroke="rgb(0,0,0)" stroke-width="0"/><path d="M15,28 C12,25 7,17 7,10 C7,5 10,2 15,2 C19,2 23,4 23,10 C23,16 18,24 15,28" fill="none" mask="url(#Mask1)" stroke="rgb(0,0,0)" stroke-linecap="round" stroke-opacity="1.000" stroke-width="1"/><mask id="Mask1"><rect fill="rgb(255,255,255)" fill-opacity="1" height="30" width="30" x="0" y="0"/></mask><path d="M15,6 C13,6 11,8 11,10 C11,12 13,14 15,14 C17,14 19,12 19,10 C19,8 17,6 15,6" fill="rgb(38,35,36)" fill-opacity="1.000" stroke="rgb(0,0,0)" stroke-width="0"/><path d="M15,6 C13,6 11,8 11,10 C11,12 13,14 15,14 C17,14 19,12 19,10 C19,8 17,6 15,6" fill="none" mask="url(#Mask2)" stroke="rgb(0,0,0)" stroke-linecap="round" stroke-opacity="1.000" stroke-width="1"/><mask id="Mask2"><rect fill="rgb(255,255,255)" fill-opacity="1" height="30" width="30" x="0" y="0"/></mask><path d="M15,13 C14,13 13,12 13,10 C13,9 14,8 15,8 C16,8 18,9 18,10 C18,12 16,13 15,13" fill="rgb(38,35,36)" fill-opacity="1.000" stroke="rgb(0,0,0)" stroke-width="0"/><path d="M15,13 C14,13 13,12 13,10 C13,9 14,8 15,8 C16,8 18,9 18,10 C18,12 16,13 15,13" fill="none" mask="url(#Mask3)" stroke="rgb(0,0,0)" stroke-linecap="round" stroke-opacity="1.000" stroke-width="1"/><mask id="Mask3"><rect fill="rgb(255,255,255)" fill-opacity="1" height="30" width="30" x="0" y="0"/></mask><path d="M-10,40 C-8,40 -7,41 -7,42 C-7,44 -8,45 -10,45 C-11,45 -12,44 -12,42 C-12,41 -11,40 -10,40" fill="rgb(106,110,124)" fill-opacity="1.000" stroke="rgb(0,0,0)" stroke-width="0"/><path d="M-10,40 C-8,40 -7,41 -7,42 C-7,44 -8,45 -10,45 C-11,45 -12,44 -12,42 C-12,41 -11,40 -10,40" fill="none" mask="url(#Mask4)" stroke="rgb(0,0,0)" stroke-linecap="round" stroke-opacity="1.000" stroke-width="1"/><mask id="Mask4"><rect fill="rgb(255,255,255)" fill-opacity="1" height="30" width="30" x="0" y="0"/></mask><path d="M-10,39 C-12,39 -13,41 -13,42 C-13,44 -12,46 -10,46 C-8,46 -6,44 -6,42 C-6,41 -8,39 -10,39 C-10,39 -10,39 -10,39" fill="rgb(106,110,124)" fill-opacity="1.000" stroke="rgb(0,0,0)" stroke-width="0"/><path d="M-10,39 C-12,39 -13,41 -13,42 C-13,44 -12,46 -10,46 C-8,46 -6,44 -6,42 C-6,41 -8,39 -10,39 C-10,39 -10,39 -10,39" fill="none" mask="url(#Mask5)" stroke="rgb(0,0,0)" stroke-linecap="round" stroke-opacity="1.000" stroke-width="1"/><mask id="Mask5"><rect fill="rgb(255,255,255)" fill-opacity="1" height="30" width="30" x="0" y="0"/></mask><path d="M-9,36 C-9,36 -9,38 -9,38 C-9,38 -9,38 -9,38 C-8,38 -8,38 -8,38 C-8,38 -8,38 -7,38 C-7,38 -7,38 -7,38 C-7,38 -6,37 -6,37 C-6,37 -5,38 -5,38 C-5,38 -6,40 -6,40 C-6,40 -6,40 -6,40 C-6,41 -6,41 -6,41 C-6,41 -5,41 -5,42 C-5,42 -4,42 -4,42 C-4,42 -4,43 -4,43 C-4,43 -5,43 -5,43 C-5,43 -6,44 -6,44 C-6,44 -6,44 -6,45 C-6,45 -6,45 -6,45 C-6,45 -5,46 -5,46 C-5,46 -6,47 -6,47 C-6,47 -7,47 -7,47 C-7,46 -7,46 -7,46 C-8,46 -8,46 -8,46 C-8,47 -8,47 -9,47 C-9,47 -9,47 -9,47 C-9,47 -9,49 -9,49 C-9,49 -10,49 -10,49 C-10,49 -11,47 -11,47 C-11,47 -11,47 -11,47 C-11,47 -12,47 -12,46 C-12,46 -12,46 -12,46 C-12,46 -12,46 -13,47 C-13,47 -14,47 -14,47 C-14,47 -15,46 -15,46 C-15,46 -14,45 -14,45 C-14,45 -14,45 -14,45 C-14,44 -14,44 -14,44 C-14,44 -14,43 -15,43 C-15,43 -16,43 -16,43 C-16,43 -16,42 -16,42 C-16,42 -15,42 -15,42 C-14,41 -14,41 -14,41 C-14,41 -14,41 -14,40 C-14,40 -14,40 -14,40 C-14,40 -15,38 -15,38 C-15,38 -14,38 -14,38 C-14,38 -13,38 -13,38 C-12,38 -12,38 -12,38 C-12,38 -12,38 -12,38 C-12,38 -11,38 -11,38 C-11,38 -11,38 -11,38 C-11,38 -11,36 -11,36 C-11,36 -9,36 -9,36" fill="rgb(106,110,124)" fill-opacity="1.000" stroke="rgb(0,0,0)" stroke-width="0"/><path d="M-9,36 C-9,36 -9,38 -9,38 C-9,38 -9,38 -9,38 C-8,38 -8,38 -8,38 C-8,38 -8,38 -7,38 C-7,38 -7,38 -7,38 C-7,38 -6,37 -6,37 C-6,37 -5,38 -5,38 C-5,38 -6,40 -6,40 C-6,40 -6,40 -6,40 C-6,41 -6,41 -6,41 C-6,41 -5,41 -5,42 C-5,42 -4,42 -4,42 C-4,42 -4,43 -4,43 C-4,43 -5,43 -5,43 C-5,43 -6,44 -6,44 C-6,44 -6,44 -6,45 C-6,45 -6,45 -6,45 C-6,45 -5,46 -5,46 C-5,46 -6,47 -6,47 C-6,47 -7,47 -7,47 C-7,46 -7,46 -7,46 C-8,46 -8,46 -8,46 C-8,47 -8,47 -9,47 C-9,47 -9,47 -9,47 C-9,47 -9,49 -9,49 C-9,49 -10,49 -10,49 C-10,49 -11,47 -11,47 C-11,47 -11,47 -11,47 C-11,47 -12,47 -12,46 C-12,46 -12,46 -12,46 C-12,46 -12,46 -13,47 C-13,47 -14,47 -14,47 C-14,47 -15,46 -15,46 C-15,46 -14,45 -14,45 C-14,45 -14,45 -14,45 C-14,44 -14,44 -14,44 C-14,44 -14,43 -15,43 C-15,43 -16,43 -16,43 C-16,43 -16,42 -16,42 C-16,42 -15,42 -15,42 C-14,41 -14,41 -14,41 C-14,41 -14,41 -14,40 C-14,40 -14,40 -14,40 C-14,40 -15,38 -15,38 C-15,38 -14,38 -14,38 C-14,38 -13,38 -13,38 C-12,38 -12,38 -12,38 C-12,38 -12,38 -12,38 C-12,38 -11,38 -11,38 C-11,38 -11,38 -11,38 C-11,38 -11,36 -11,36 C-11,36 -9,36 -9,36" fill="none" mask="url(#Mask6)" stroke="rgb(0,0,0)" stroke-linecap="round" stroke-opacity="1.000" stroke-width="1"/><mask id="Mask6"><rect fill="rgb(255,255,255)" fill-opacity="1" height="30" width="30" x="0" y="0"/></mask><path d="M8,36 C8,36 10,36 10,36 C11,36 11,35 11,35 C11,35 12,32 12,32 C12,32 13,31 13,31 C13,31 16,33 16,33 C16,33 16,33 16,33 C16,33 16,33 16,33 C16,33 19,31 19,31 C19,30 19,30 19,30 C19,30 17,27 17,27 C17,27 17,26 18,26 C18,26 21,25 21,25 C21,25 21,25 21,24 C21,24 21,21 21,21 C21,21 21,21 21,21 C21,21 18,20 18,20 C17,19 17,19 17,18 C17,18 19,16 19,16 C19,15 19,15 19,15 C19,15 16,13 16,13 C16,13 16,12 16,12 C16,12 16,13 16,13 C16,13 13,14 13,14 C13,14 12,14 12,14 C12,14 11,11 11,11 C11,10 11,10 11,10 C11,10 8,10 8,10 C7,10 7,10 7,11 C7,11 6,14 6,14 C6,14 5,14 5,14 C5,14 2,13 2,13 C2,12 2,12 2,12 C2,12 2,13 2,13 C2,13 0,15 0,15 C-1,15 -1,15 -1,16 C-1,16 1,18 1,18 C1,19 1,19 0,20 C0,20 -3,21 -3,21 C-3,21 -3,21 -3,21 C-3,21 -3,24 -3,24 C-3,25 -3,25 -3,25 C-3,25 0,25 0,25 C1,26 1,27 1,27 C1,27 -1,30 -1,30 C-1,30 -1,30 -1,31 C-1,31 2,33 2,33 C2,33 2,33 2,33 C2,33 2,33 2,33 C2,33 5,31 5,31 C5,31 6,32 6,32 C6,32 7,35 7,35 C7,35 7,36 8,36 C8,36 8,36 8,36" fill="rgb(106,110,124)" fill-opacity="1.000" stroke="rgb(0,0,0)" stroke-width="0"/><path d="M8,36 C8,36 10,36 10,36 C11,36 11,35 11,35 C11,35 12,32 12,32 C12,32 13,31 13,31 C13,31 16,33 16,33 C16,33 16,33 16,33 C16,33 16,33 16,33 C16,33 19,31 19,31 C19,30 19,30 19,30 C19,30 17,27 17,27 C17,27 17,26 18,26 C18,26 21,25 21,25 C21,25 21,25 21,24 C21,24 21,21 21,21 C21,21 21,21 21,21 C21,21 18,20 18,20 C17,19 17,19 17,18 C17,18 19,16 19,16 C19,15 19,15 19,15 C19,15 16,13 16,13 C16,13 16,12 16,12 C16,12 16,13 16,13 C16,13 13,14 13,14 C13,14 12,14 12,14 C12,14 11,11 11,11 C11,10 11,10 11,10 C11,10 8,10 8,10 C7,10 7,10 7,11 C7,11 6,14 6,14 C6,14 5,14 5,14 C5,14 2,13 2,13 C2,12 2,12 2,12 C2,12 2,13 2,13 C2,13 0,15 0,15 C-1,15 -1,15 -1,16 C-1,16 1,18 1,18 C1,19 1,19 0,20 C0,20 -3,21 -3,21 C-3,21 -3,21 -3,21 C-3,21 -3,24 -3,24 C-3,25 -3,25 -3,25 C-3,25 0,25 0,25 C1,26 1,27 1,27 C1,27 -1,30 -1,30 C-1,30 -1,30 -1,31 C-1,31 2,33 2,33 C2,33 2,33 2,33 C2,33 2,33 2,33 C2,33 5,31 5,31 C5,31 6,32 6,32 C6,32 7,35 7,35 C7,35 7,36 8,36 C8,36 8,36 8,36" fill="none" mask="url(#Mask7)" stroke="rgb(0,0,0)" stroke-linecap="round" stroke-opacity="1.000" stroke-width="1"/><mask id="Mask7"><rect fill="rgb(255,255,255)" fill-opacity="1" height="30" width="30" x="0" y="0"/></mask></svg>