<?xml version="1.0" standalone="no"?>
<!DOCTYPE svg PUBLIC "-//W3C//DTD SVG 1.1//EN"
"http://www.w3.org/Graphics/SVG/1.1/DTD/svg11.dtd">

<svg height="512" transform="translate(0.5,0.5)" version="1.1" width="512" xmlns="http://www.w3.org/2000/svg" xmlns:nch="http://www.nchsoftware.com/drawpad/" xmlns:xlink="http://www.w3.org/1999/xlink"><rect fill="rgb(255,255,255)" fill-opacity="1.000" height="512" id="background" width="512" x="0" y="0"/><path d="M485,96 C485,96 27,96 27,96 C27,96 23,96 23,96 C23,96 14,96 14,96 C14,96 7,96 7,96 C7,96 7,415 7,415 C7,415 505,415 505,415 C505,415 505,96 505,96 C505,96 488,96 488,96 C488,96 485,96 485,96" fill="rgb(55,64,77)" fill-opacity="1.000" stroke="rgb(0,0,0)" stroke-width="0"/><path d="M485,96 C485,96 27,96 27,96 C27,96 23,96 23,96 C23,96 14,96 14,96 C14,96 7,96 7,96 C7,96 7,415 7,415 C7,415 505,415 505,415 C505,415 505,96 505,96 C505,96 488,96 488,96 C488,96 485,96 485,96" fill="none" mask="url(#Mask0)" stroke="rgb(0,0,0)" stroke-linecap="round" stroke-opacity="1.000" stroke-width="1"/><mask id="Mask0"><rect fill="rgb(255,255,255)" fill-opacity="1" height="512" width="512" x="0" y="0"/></mask><path d="M465,116 C465,116 273,309 273,309 C264,317 248,317 240,309 C240,309 47,116 47,116 C47,116 465,116 465,116" fill="rgb(55,64,77)" fill-opacity="1.000" stroke="rgb(0,0,0)" stroke-width="0"/><path d="M465,116 C465,116 273,309 273,309 C264,317 248,317 240,309 C240,309 47,116 47,116 C47,116 465,116 465,116" fill="none" mask="url(#Mask1)" stroke="rgb(0,0,0)" stroke-linecap="round" stroke-opacity="1.000" stroke-width="1"/><mask id="Mask1"><rect fill="rgb(255,255,255)" fill-opacity="1" height="512" width="512" x="0" y="0"/></mask><path d="M27,124 C27,124 156,253 156,253 C156,253 27,383 27,383 C27,383 27,124 27,124" fill="rgb(55,64,77)" fill-opacity="1.000" stroke="rgb(0,0,0)" stroke-width="0"/><path d="M27,124 C27,124 156,253 156,253 C156,253 27,383 27,383 C27,383 27,124 27,124" fill="none" mask="url(#Mask2)" stroke="rgb(0,0,0)" stroke-linecap="round" stroke-opacity="1.000" stroke-width="1"/><mask id="Mask2"><rect fill="rgb(255,255,255)" fill-opacity="1" height="512" width="512" x="0" y="0"/></mask><path d="M43,395 C43,395 171,268 171,268 C171,268 226,323 226,323 C234,331 245,335 256,335 C268,335 278,331 287,323 C287,323 342,268 342,268 C342,268 469,395 469,395 C469,395 43,395 43,395" fill="rgb(55,64,77)" fill-opacity="1.000" stroke="rgb(0,0,0)" stroke-width="0"/><path d="M43,395 C43,395 171,268 171,268 C171,268 226,323 226,323 C234,331 245,335 256,335 C268,335 278,331 287,323 C287,323 342,268 342,268 C342,268 469,395 469,395 C469,395 43,395 43,395" fill="none" mask="url(#Mask3)" stroke="rgb(0,0,0)" stroke-linecap="round" stroke-opacity="1.000" stroke-width="1"/><mask id="Mask3"><rect fill="rgb(255,255,255)" fill-opacity="1" height="512" width="512" x="0" y="0"/></mask><path d="M485,383 C485,383 356,253 356,253 C356,253 485,124 485,124 C485,124 485,383 485,383" fill="rgb(55,64,77)" fill-opacity="1.000" stroke="rgb(0,0,0)" stroke-width="0"/><path d="M485,383 C485,383 356,253 356,253 C356,253 485,124 485,124 C485,124 485,383 485,383" fill="none" mask="url(#Mask4)" stroke="rgb(0,0,0)" stroke-linecap="round" stroke-opacity="1.000" stroke-width="1"/><mask id="Mask4"><rect fill="rgb(255,255,255)" fill-opacity="1" height="512" width="512" x="0" y="0"/></mask><path d="M88,465 C71,465 58,453 58,438 C58,424 71,412 88,412 C105,412 118,424 118,438 C118,453 105,465 88,465" fill="rgb(106,110,124)" fill-opacity="1.000" stroke="rgb(0,0,0)" stroke-width="0"/><path d="M88,465 C71,465 58,453 58,438 C58,424 71,412 88,412 C105,412 118,424 118,438 C118,453 105,465 88,465" fill="none" mask="url(#Mask5)" stroke="rgb(0,0,0)" stroke-linecap="round" stroke-opacity="1.000" stroke-width="1"/><mask id="Mask5"><rect fill="rgb(255,255,255)" fill-opacity="1" height="512" width="512" x="0" y="0"/></mask><path d="M88,470 C111,470 129,456 129,438 C129,421 111,407 88,407 C66,407 48,421 48,438 C48,456 66,470 88,470 C88,470 88,470 88,470" fill="rgb(106,110,124)" fill-opacity="1.000" stroke="rgb(0,0,0)" stroke-width="0"/><path d="M88,470 C111,470 129,456 129,438 C129,421 111,407 88,407 C66,407 48,421 48,438 C48,456 66,470 88,470 C88,470 88,470 88,470" fill="none" mask="url(#Mask6)" stroke="rgb(0,0,0)" stroke-linecap="round" stroke-opacity="1.000" stroke-width="1"/><mask id="Mask6"><rect fill="rgb(255,255,255)" fill-opacity="1" height="512" width="512" x="0" y="0"/></mask><path d="M81,497 C81,497 78,484 78,484 C78,482 76,480 74,479 C70,478 67,477 64,476 C63,475 61,475 60,475 C59,475 58,476 57,476 C57,476 43,484 43,484 C43,484 32,476 32,476 C32,476 42,464 42,464 C43,463 44,460 42,459 C41,456 39,453 38,451 C38,449 36,447 33,447 C33,447 17,444 17,444 C17,444 17,432 17,432 C17,432 33,430 33,430 C36,430 38,428 38,426 C39,423 41,421 42,418 C44,416 43,414 42,412 C42,412 33,401 33,401 C33,401 43,393 43,393 C43,393 57,400 57,400 C58,401 59,401 60,401 C62,401 63,401 64,401 C67,399 70,398 73,397 C76,397 78,395 78,393 C78,393 81,380 81,380 C81,380 96,380 96,380 C96,380 99,393 99,393 C99,395 101,397 103,398 C107,398 110,400 113,401 C114,401 115,401 116,401 C117,401 119,401 120,401 C120,401 134,393 134,393 C134,393 144,401 144,401 C144,401 134,412 134,412 C133,414 133,416 134,418 C136,421 137,423 138,426 C139,428 141,430 143,430 C143,430 160,433 160,433 C160,433 160,444 160,444 C160,444 143,447 143,447 C141,447 139,449 138,451 C137,453 136,456 134,458 C133,460 133,462 135,464 C135,464 144,476 144,476 C144,476 134,484 134,484 C134,484 120,476 120,476 C119,476 118,475 116,475 C115,475 114,475 113,476 C110,477 107,478 103,479 C101,480 99,481 99,483 C99,483 96,497 96,497 C96,497 81,497 81,497" fill="rgb(106,110,124)" fill-opacity="1.000" stroke="rgb(0,0,0)" stroke-width="0"/><path d="M81,497 C81,497 78,484 78,484 C78,482 76,480 74,479 C70,478 67,477 64,476 C63,475 61,475 60,475 C59,475 58,476 57,476 C57,476 43,484 43,484 C43,484 32,476 32,476 C32,476 42,464 42,464 C43,463 44,460 42,459 C41,456 39,453 38,451 C38,449 36,447 33,447 C33,447 17,444 17,444 C17,444 17,432 17,432 C17,432 33,430 33,430 C36,430 38,428 38,426 C39,423 41,421 42,418 C44,416 43,414 42,412 C42,412 33,401 33,401 C33,401 43,393 43,393 C43,393 57,400 57,400 C58,401 59,401 60,401 C62,401 63,401 64,401 C67,399 70,398 73,397 C76,397 78,395 78,393 C78,393 81,380 81,380 C81,380 96,380 96,380 C96,380 99,393 99,393 C99,395 101,397 103,398 C107,398 110,400 113,401 C114,401 115,401 116,401 C117,401 119,401 120,401 C120,401 134,393 134,393 C134,393 144,401 144,401 C144,401 134,412 134,412 C133,414 133,416 134,418 C136,421 137,423 138,426 C139,428 141,430 143,430 C143,430 160,433 160,433 C160,433 160,444 160,444 C160,444 143,447 143,447 C141,447 139,449 138,451 C137,453 136,456 134,458 C133,460 133,462 135,464 C135,464 144,476 144,476 C144,476 134,484 134,484 C134,484 120,476 120,476 C119,476 118,475 116,475 C115,475 114,475 113,476 C110,477 107,478 103,479 C101,480 99,481 99,483 C99,483 96,497 96,497 C96,497 81,497 81,497" fill="none" mask="url(#Mask7)" stroke="rgb(0,0,0)" stroke-linecap="round" stroke-opacity="1.000" stroke-width="1"/><mask id="Mask7"><rect fill="rgb(255,255,255)" fill-opacity="1" height="512" width="512" x="0" y="0"/></mask><path d="M74,502 C74,502 93,502 93,502 C95,502 96,501 97,500 C97,500 100,484 100,484 C104,483 107,482 111,480 C111,480 126,489 126,489 C127,490 128,490 128,490 C129,490 130,490 131,489 C131,489 144,478 144,478 C146,477 146,475 145,474 C145,474 134,461 134,461 C136,458 137,455 139,452 C139,452 157,449 157,449 C159,448 160,447 160,446 C160,446 160,430 160,430 C160,428 159,427 157,427 C157,427 139,424 139,424 C137,420 136,417 134,415 C134,415 145,402 145,402 C146,400 145,398 144,397 C144,397 131,386 131,386 C130,386 129,385 128,385 C128,385 127,386 126,386 C126,386 111,395 111,395 C107,393 104,392 100,391 C100,391 97,375 97,375 C96,374 95,373 93,373 C93,373 74,373 74,373 C73,373 71,374 71,375 C71,375 67,391 67,391 C63,392 60,393 56,395 C56,395 41,386 41,386 C40,385 39,385 38,385 C37,385 36,385 36,386 C36,386 23,397 23,397 C21,398 21,400 22,401 C22,401 33,414 33,414 C31,417 29,420 28,424 C28,424 10,427 10,427 C8,427 6,428 6,430 C6,430 6,445 6,445 C6,447 8,448 10,449 C10,449 28,452 28,452 C29,455 31,458 33,461 C33,461 22,474 22,474 C21,475 21,477 22,478 C22,478 36,489 36,489 C36,490 37,490 38,490 C39,490 40,490 40,490 C40,490 56,480 56,480 C60,482 63,483 67,484 C67,484 71,500 71,500 C71,501 73,502 74,502 C74,502 74,502 74,502" fill="rgb(106,110,124)" fill-opacity="1.000" stroke="rgb(0,0,0)" stroke-width="0"/><path d="M74,502 C74,502 93,502 93,502 C95,502 96,501 97,500 C97,500 100,484 100,484 C104,483 107,482 111,480 C111,480 126,489 126,489 C127,490 128,490 128,490 C129,490 130,490 131,489 C131,489 144,478 144,478 C146,477 146,475 145,474 C145,474 134,461 134,461 C136,458 137,455 139,452 C139,452 157,449 157,449 C159,448 160,447 160,446 C160,446 160,430 160,430 C160,428 159,427 157,427 C157,427 139,424 139,424 C137,420 136,417 134,415 C134,415 145,402 145,402 C146,400 145,398 144,397 C144,397 131,386 131,386 C130,386 129,385 128,385 C128,385 127,386 126,386 C126,386 111,395 111,395 C107,393 104,392 100,391 C100,391 97,375 97,375 C96,374 95,373 93,373 C93,373 74,373 74,373 C73,373 71,374 71,375 C71,375 67,391 67,391 C63,392 60,393 56,395 C56,395 41,386 41,386 C40,385 39,385 38,385 C37,385 36,385 36,386 C36,386 23,397 23,397 C21,398 21,400 22,401 C22,401 33,414 33,414 C31,417 29,420 28,424 C28,424 10,427 10,427 C8,427 6,428 6,430 C6,430 6,445 6,445 C6,447 8,448 10,449 C10,449 28,452 28,452 C29,455 31,458 33,461 C33,461 22,474 22,474 C21,475 21,477 22,478 C22,478 36,489 36,489 C36,490 37,490 38,490 C39,490 40,490 40,490 C40,490 56,480 56,480 C60,482 63,483 67,484 C67,484 71,500 71,500 C71,501 73,502 74,502 C74,502 74,502 74,502" fill="none" mask="url(#Mask8)" stroke="rgb(0,0,0)" stroke-linecap="round" stroke-opacity="1.000" stroke-width="1"/><mask id="Mask8"><rect fill="rgb(255,255,255)" fill-opacity="1" height="512" width="512" x="0" y="0"/></mask></svg>