<?xml version="1.0" ?><!DOCTYPE svg  PUBLIC '-//W3C//DTD SVG 1.1//EN'  'http://www.w3.org/Graphics/SVG/1.1/DTD/svg11.dtd'><svg enable-background="new 0 0 92.168 92.168" height="92.168px" id="Слой_1" version="1.1" viewBox="0 0 92.168 92.168" width="92.168px" xml:space="preserve" xmlns="http://www.w3.org/2000/svg" xmlns:xlink="http://www.w3.org/1999/xlink"><rect clip-rule="evenodd" fill="none" fill-rule="evenodd" height="92.168" width="92.168" x="0"/><path clip-rule="evenodd" d="M9.967,38.576c9.176,0,9.176,13.938,0,13.938  C0.81,52.513,0.81,38.576,9.967,38.576L9.967,38.576z M21.784,11.2c5.397,0,5.397,8.212,0,8.212  C16.386,19.413,16.386,11.2,21.784,11.2L21.784,11.2z M84.514,11.2c5.398,0,5.398,8.212,0,8.212  C79.117,19.413,79.117,11.2,84.514,11.2L84.514,11.2z M42.373,3.22c2.872,0,2.872,0.444,2.872-2.121C45.245,0.502,45.747,0,46.344,0  c4.607,0,9.196,0,13.803,0c2.043,0,0.173,3.22,1.87,3.22c0.694,0,1.407,0,2.101,0c2.198,0,4.029,1.735,4.145,3.914  c0.077,1.523,2.756-0.097,2.756,1.658c0,0.675-0.308,2.352,0.771,2.352c2.757,0,5.514,0,8.27,0c0.328,0,0.521,0.386,0.309,0.636  c-2.834,3.316,0.019,6.111-1.272,6.111c-2.448,0-4.878,0-7.307,0c-1.658,0,0.116,3.007-1.696,3.007  c-0.636,0-1.831-0.193-1.831,0.771c0,3.065,0,6.111,0,9.176c0,2.275-1.87,4.145-4.145,4.145c-7.248,0-14.497,0-21.745,0  c-2.275,0-4.145-1.87-4.145-4.145c0-3.065,0-6.111,0-9.176c0-1.581-2.756,0.039-2.756-1.696c0-0.675,0.27-2.082-0.771-2.082  c-2.487,0-4.993,0-7.499,0c-1.292,0,1.581-2.795-1.272-6.111c-0.212-0.25-0.019-0.636,0.309-0.636c2.815,0,5.648,0,8.463,0  c1.735,0-0.193-3.277,1.696-3.277c0.636,0,1.793,0.193,1.831-0.732C38.363,4.955,40.175,3.22,42.373,3.22L42.373,3.22z   M70.731,35.067c-0.926,1.041-1.851,2.063-2.757,3.104c-0.617,0.694-1.696-0.945-1.793-0.308c-0.424,2.872-2.506,3.913-4.954,4.51  c-0.964,0.232-1.137,0.193-0.424-0.597c2.564-2.795,5.128-5.61,7.672-8.405c0.867-0.944-0.173-0.848,0.482-1.562  c3.798-4.125,7.615-8.231,11.432-12.357c0.521-0.559,1.33,1.176,3.817,1.311c0.308,0.019,0.482,0.405,0.25,0.656  c-4.106,4.434-8.212,8.867-12.319,13.321C71.425,35.491,71.348,34.373,70.731,35.067L70.731,35.067z M26.083,19.413  c2.371,4.01,4.742,8.02,7.113,12.049c0.463,0.79-0.694,1.061-0.289,1.735c2.236,3.798,4.492,7.595,6.747,11.393  c0.27,0.482-0.771,1.118-1.06,0.636c-2.256-3.798-4.492-7.595-6.728-11.393c-0.579-0.983-1.677,1.002-2.391-0.193  c-2.429-4.106-4.858-8.212-7.287-12.338c-0.52-0.868,1.523-0.328,3.297-1.986C25.717,19.105,25.91,19.124,26.083,19.413  L26.083,19.413z M57.236,20.84c1.966,0,3.933,0,5.899,0c0.732,0,0.501,1.311,0.501,1.774c0,0.289-0.232,0.501-0.501,0.501  c-1.966,0-3.933,0-5.899,0c-0.733,0-0.501-1.311-0.501-1.793C56.735,21.052,56.966,20.84,57.236,20.84L57.236,20.84z M43.973,20.57  c1.851,0,1.851,2.815,0,2.815C42.122,23.385,42.122,20.57,43.973,20.57L43.973,20.57z M51.106,20.57c1.851,0,1.851,2.815,0,2.815  C49.275,23.385,49.275,20.57,51.106,20.57L51.106,20.57z M50.238,27.125c2.564,0,2.275-0.289,2.275,2.274  c0,0.81-1.561,0.54-2.275,0.54c-0.81,0-0.54-1.561-0.54-2.275C49.699,27.375,49.949,27.125,50.238,27.125L50.238,27.125z   M43.106,27.125c2.564,0,2.275-0.289,2.275,2.274c0,0.81-1.581,0.54-2.275,0.54c-0.81,0-0.54-1.561-0.54-2.275  C42.566,27.375,42.816,27.125,43.106,27.125L43.106,27.125z M44.744,8.714c5.668,0,11.336,0,17.003,0  c0.52,0,0.945,0.424,0.945,0.945c0,2.082,0,4.145,0,6.226c0,0.52-0.424,0.945-0.945,0.945c-5.668,0-11.336,0-17.003,0  c-0.52,0-0.945-0.424-0.945-0.945c0-2.082,0-4.145,0-6.226C43.799,9.138,44.224,8.714,44.744,8.714L44.744,8.714z M2.642,55.097  c9.427,0,18.854,0,28.28,0c0.79,0,0.964,0.097,0.964,0.983c0,2.352-0.097,4.684-0.154,7.037c-0.019,0.81-0.116,0.945-0.964,0.945  c-6.902,0-13.822,0-20.724-0.02c-1.253,0-2.294-1.022-2.294-2.294c0-2.448-0.154-1.947-5.108-1.947c-1.581,0-1.196-2.217-1.196-3.49  C1.446,55.636,1.986,55.097,2.642,55.097L2.642,55.097z M33.409,67.223c8.463,0.154,16.945,0.289,25.408,0.444  c0.405,0,0.752-0.309,0.79-0.714c0.559-8.058,1.157-16.116-2.93-22.305c-0.366-0.54-0.887-0.887-1.542-1.002  c-5.34-0.906-10.487-1.716-15.769-2.699c-0.636-0.116-0.752,0-0.424,0.578c0.52,0.868,1.022,1.716,1.542,2.583  c0.926,1.581-1.793,3.181-2.718,1.6c-0.714-1.176-1.427-2.371-2.121-3.567c-1.157-2.005-1.234-2.139-4.511-2.891  c-0.963-0.212-2.969,0.231-1.407,0.771c2.429,0.848,3.085,3.103,3.142,5.513c0.173,6.978-0.135,13.938-0.231,20.917  C32.638,66.875,32.985,67.223,33.409,67.223L33.409,67.223z M61.882,55.097c9.215,0,18.43,0,27.645,0  c1.58,0,1.195,2.217,1.195,3.508c0,2.352-3.817,0.27-4.53,1.735c-0.636,1.292-1.427,3.74-3.008,3.74  c-7.133,0-14.265-0.019-21.399-0.019c-0.906,0-1.002-0.174-0.963-1.022c0.135-2.275,0.212-4.607,0.096-6.921  C60.861,55.212,60.976,55.097,61.882,55.097L61.882,55.097z M30.941,43.819c-1.639-0.347-3.238-0.636-5.244-0.636  c-5.976,0-6.226,8.829,5.244,7.441c0.964-0.116,1.022-0.559,1.022-1.137c-0.019-1.504,0.02-3.142-0.096-4.627  C31.789,44.012,31.462,43.915,30.941,43.819L30.941,43.819z M83.763,52.513c6.188-1.504,6.034-6.092-0.81-6.246  c-8.328-0.193-16.54-1.099-24.734-2.159c-1.696-0.231,1.504,1.909,2.448,9.176c0.154,1.176,1.908,0.848,2.737,0.848  C69.343,54.133,80.196,53.381,83.763,52.513L83.763,52.513z M27.51,40.195c-9.755-0.868-12.916,11.432-1.349,13.321  c1.851,0.289,3.586,0.463,5.359,0.559c0.655,0.019,0.424-1.484,0.424-2.159c0.019-1.022-2.699,0.462-6.496-0.482  c-7.017-1.793-4.415-9.176,0.25-9.215c3.779-0.038,2.988,0.173,4.492,0.462C32.657,43.144,29.38,40.368,27.51,40.195L27.51,40.195z   M76.649,66.875c-4.878,0-9.735,0-14.613,0c-1.214,0-1.292,0.058-1.639,0.771c-0.887,1.812-2.448,0.231-4.569,1.504  c-8.714,5.244-17.408,10.507-26.121,15.75c-3.161,1.889-5.687,2.255-8.791,2.255c-3.643,0-7.287,0-10.93,0  c-0.617,0-1.118,0.501-1.118,1.119c0,0.925,0,1.851,0,2.776c0,0.617,0.501,1.118,1.118,1.118c23.326,0,46.652,0,69.979,0  c0.617,0,1.118-0.501,1.118-1.118c0-0.925,0-1.851,0-2.776c0-0.618-0.501-1.119-1.118-1.119c-11.143,0-22.305,0-33.447,0  c-2.834,0-2.853-0.347-0.27-1.388c10.314-4.183,20.608-8.347,30.903-12.511c0.52-0.212,0.848-0.694,0.848-1.272  c0-1.253,0-2.507,0-3.759C77.999,67.492,77.401,66.875,76.649,66.875L76.649,66.875z" fill="#434A54" fill-rule="evenodd"/></svg>