<?xml version="1.0" encoding="UTF-8" standalone="no"?>
<svg width="2483px" height="519px" viewBox="0 0 2483 519" version="1.1" xmlns="http://www.w3.org/2000/svg" xmlns:xlink="http://www.w3.org/1999/xlink" xmlns:sketch="http://www.bohemiancoding.com/sketch/ns">
    <!-- Generator: Sketch 3.4.2 (15855) - http://www.bohemiancoding.com/sketch -->
    <title>Developer + g3084</title>
    <desc>Created with Sketch.</desc>
    <defs></defs>
    <g id="Page-1" stroke="none" stroke-width="1" fill="none" fill-rule="evenodd" sketch:type="MSPage">
        <g id="Developer-+-g3084" sketch:type="MSLayerGroup" transform="translate(3.000000, 0.000000)">
            <text id="Developer" sketch:type="MSTextLayer" font-family="Citrix Sans" font-size="400" font-weight="526" fill="#FFFFFF">
                <tspan x="584" y="410">Developer</tspan>
            </text>
            <g id="g3084" sketch:type="MSShapeGroup">
                <g transform="translate(0.395720, 0.577366)">
                    <path d="M297.444511,232.835662 C297.444511,232.835662 274.282848,218.207244 364.491429,161.522122 C454.70001,105.446517 429.709795,107.275069 422.395586,63.3898138 C422.395586,63.3898138 451.042906,91.427616 351.691563,142.017564 C252.34022,193.217028 292.568371,205.407377 297.444511,232.835662 L297.444511,232.835662 Z" id="path3100" stroke="#FFFFFF" stroke-width="6.0951744" fill="#FFFFFF"></path>
                    <path d="M304.75872,273.673331 C304.75872,273.673331 298.663546,246.854563 402.28151,270.016226 C505.899475,293.177889 486.394917,277.330435 512.604167,241.368906 C512.604167,241.368906 513.213684,281.597057 407.15765,247.464081 C301.101615,213.940621 320.606173,251.121185 304.75872,273.673331 L304.75872,273.673331 Z" id="path3102" stroke="#FFFFFF" stroke-width="6.0951744" fill="#FFFFFF"></path>
                    <path d="M270.016226,309.025342 C270.016226,309.025342 285.254162,286.473197 338.891697,377.900813 C392.529231,469.328429 391.310196,444.338214 435.195452,438.852557 C435.195452,438.852557 406.548132,466.280842 358.396255,365.710464 C310.853894,265.140086 297.444511,304.75872 270.016226,309.025342 L270.016226,309.025342 Z" id="path3104" stroke="#FFFFFF" stroke-width="6.0951744" fill="#FFFFFF"></path>
                    <path d="M220.035796,304.149203 C220.035796,304.149203 246.854563,300.492098 215.159656,401.671993 C182.855232,502.851888 200.531238,485.175882 234.054697,513.823202 C234.054697,513.823202 194.436063,510.775615 237.102284,408.376685 C279.768505,305.977755 241.368906,321.825208 220.035796,304.149203 L220.035796,304.149203 Z" id="path3106" stroke="#FFFFFF" stroke-width="6.0951744" fill="#FFFFFF"></path>
                    <path d="M26.8187674,396.186336 C26.8187674,396.186336 10.9713139,374.243708 115.198796,354.129633 C219.426278,334.015557 195.045581,326.701348 204.79786,283.42561 C204.79786,283.42561 221.254831,319.996656 110.322657,331.577487 C-1.88293825e-13,342.548801 32.3044243,368.758051 26.8187674,396.186336 L26.8187674,396.186336 Z" id="path3108" stroke="#FFFFFF" stroke-width="6.0951744" fill="#FFFFFF"></path>
                    <path d="M0.60951744,243.806976 C0.60951744,243.806976 -1.82855232,216.378691 98.1323078,251.730703 C198.093168,287.082714 181.02668,268.797191 210.893034,235.883249 C210.893034,235.883249 206.626412,275.501883 105.446517,229.788075 C3.65710464,184.074267 18.8950406,223.083383 0.60951744,243.806976 L0.60951744,243.806976 Z" id="path3110" stroke="#FFFFFF" stroke-width="6.0951744" fill="#FFFFFF"></path>
                    <path d="M84.1134067,70.704023 C84.1134067,70.704023 101.179895,49.3709126 147.50322,145.065151 C193.217028,240.759389 194.436063,215.769174 238.321319,213.331104 C238.321319,213.331104 207.23593,238.321319 167.617296,134.093837 C128.60818,31.0853894 111.541692,69.4849882 84.1134067,70.704023 L84.1134067,70.704023 Z" id="path3112" stroke="#77BC1F" stroke-width="4.2099369" fill="#77BC1F"></path>
                    <path d="M245.026011,3.0475872 C245.026011,3.0475872 271.844778,-1.21903488 242.587941,100.570378 C213.331104,202.35979 230.397592,184.074267 265.140086,212.112069 C265.140086,212.112069 224.911935,210.283517 265.140086,106.665552 C304.75872,2.43806976 266.359121,20.1140755 245.026011,3.0475872 L245.026011,3.0475872 Z" id="path3114" stroke="#FFFFFF" stroke-width="6.0951744" fill="#FFFFFF"></path>
                </g>
            </g>
        </g>
    </g>
</svg>